<svg width="48" height="48" viewBox="0 0 48 48" fill="none" xmlns="http://www.w3.org/2000/svg">
<circle cx="24" cy="24" r="24" fill="#26262C"/>
<path d="M32.085 14.375H16.0195C15.1422 14.375 14.375 15.0075 14.375 15.8747V31.975C14.375 32.8468 15.1422 33.625 16.0195 33.625H32.0804C32.9632 33.625 33.625 32.8422 33.625 31.975V15.8747C33.6305 15.0066 32.9632 14.375 32.085 14.375ZM20.3425 30.4212H17.5833V21.8458H20.3425V30.4203V30.4212ZM19.0592 20.5433H19.039C18.1563 20.5433 17.5852 19.886 17.5852 19.0637C17.5852 18.225 18.1718 17.5833 19.0738 17.5833C19.9758 17.5833 20.5277 18.2204 20.5478 19.0628C20.5478 19.8851 19.9758 20.5423 19.0583 20.5423L19.0592 20.5433ZM30.4213 30.4212H27.663V25.7325C27.663 24.6096 27.2615 23.8423 26.2642 23.8423C25.5015 23.8423 25.0505 24.3575 24.8498 24.8598C24.7746 25.0404 24.7544 25.2861 24.7544 25.5373V30.4212H21.9971V21.8458H24.7544V23.0393C25.1559 22.4673 25.7829 21.6451 27.2413 21.6451C29.0518 21.6451 30.4213 22.8386 30.4213 25.4107V30.4203V30.4212Z" fill="white"/>
</svg>
