<svg width="24" height="24" viewBox="0 0 24 24" fill="none" xmlns="http://www.w3.org/2000/svg">
<circle cx="12" cy="12" r="11.5" fill="#C4C4C4" fill-opacity="0.1" stroke="white"/>
<path d="M15.24 10.6305C14.9495 9.85975 14.5261 9.14593 13.989 8.5215C13.059 7.445 11.837 6.75 10.875 6.75C10.8178 6.75002 10.7614 6.76313 10.71 6.78832C10.6587 6.81351 10.6138 6.85011 10.5787 6.89532C10.5437 6.94053 10.5195 6.99316 10.5079 7.04918C10.4963 7.10519 10.4977 7.16311 10.512 7.2185C10.837 8.461 10.1635 9.4935 9.45 10.587C8.8595 11.4925 8.25 12.428 8.25 13.5C8.25 15.5675 9.9325 17.25 12 17.25C14.0675 17.25 15.75 15.5675 15.75 13.5C15.75 12.485 15.5785 11.52 15.24 10.63V10.6305ZM12.7575 15.8135C12.5155 16.0715 12.2125 16.1255 12 16.1255C11.788 16.1255 11.4845 16.0715 11.2425 15.8135C11 15.5555 10.875 15.1465 10.875 14.6255C10.875 14.036 11.0815 13.5875 11.2815 13.154C11.3975 12.9025 11.5155 12.646 11.5865 12.372C11.5939 12.3422 11.6086 12.3147 11.6292 12.2918C11.6498 12.269 11.6756 12.2516 11.7045 12.2411C11.7334 12.2307 11.7644 12.2275 11.7949 12.2318C11.8253 12.2361 11.8542 12.2479 11.879 12.266C12.093 12.432 12.284 12.6265 12.4455 12.844C12.871 13.4065 13.125 14.0725 13.125 14.6255C13.125 15.1465 12.998 15.5575 12.7575 15.8135Z" fill="white"/>
</svg>
