<svg width="24" height="24" viewBox="0 0 24 24" fill="none" xmlns="http://www.w3.org/2000/svg">
<circle cx="12" cy="12" r="11.5" stroke="white"/>
<path d="M16.125 12.375C15.8925 12.3754 15.6657 12.4476 15.4758 12.5819C15.286 12.7162 15.1423 12.9059 15.0645 13.125H14.145L13.4805 11.131C13.4551 11.0552 13.4062 10.9894 13.3408 10.9433C13.2754 10.8973 13.197 10.8733 13.117 10.875C13.037 10.8767 12.9596 10.9039 12.8962 10.9526C12.8328 11.0014 12.7867 11.0692 12.7645 11.146L11.7215 14.797L10.495 7.43755C10.4809 7.35238 10.4379 7.27468 10.3732 7.21755C10.3085 7.16042 10.2261 7.12736 10.1398 7.12395C10.0536 7.12054 9.96878 7.14699 9.89977 7.19884C9.83075 7.25069 9.78174 7.32476 9.761 7.40855L8.3325 13.1245H7.125C7.02554 13.1245 6.93016 13.1641 6.85983 13.2344C6.78951 13.3047 6.75 13.4001 6.75 13.4995C6.75 13.599 6.78951 13.6944 6.85983 13.7647C6.93016 13.835 7.02554 13.8745 7.125 13.8745H8.625C8.70857 13.8745 8.78973 13.8465 8.85558 13.7951C8.92144 13.7436 8.96822 13.6716 8.9885 13.5905L10.0515 9.33955L11.255 16.561C11.2689 16.6452 11.311 16.7221 11.3744 16.7791C11.4379 16.8361 11.5188 16.8698 11.604 16.8745H11.625C11.7064 16.8744 11.7855 16.8478 11.8505 16.7987C11.9154 16.7497 11.9626 16.6808 11.985 16.6025L13.1525 12.5175L13.519 13.618C13.5439 13.6928 13.5917 13.7578 13.6556 13.8038C13.7195 13.8498 13.7962 13.8746 13.875 13.8745H15.0645C15.1333 14.069 15.2541 14.2408 15.4139 14.3712C15.5738 14.5016 15.7663 14.5856 15.9706 14.6139C16.1749 14.6422 16.3831 14.6138 16.5724 14.5318C16.7616 14.4499 16.9247 14.3174 17.0438 14.149C17.1628 13.9806 17.2333 13.7827 17.2475 13.5769C17.2617 13.3711 17.219 13.1654 17.1242 12.9823C17.0294 12.7991 16.886 12.6456 16.7098 12.5384C16.5335 12.4312 16.3313 12.3745 16.125 12.3745V12.375Z" fill="white"/>
</svg>
