<svg width="49" height="48" viewBox="0 0 49 48" fill="none" xmlns="http://www.w3.org/2000/svg">
<circle cx="24.2002" cy="24" r="24" fill="#26262C"/>
<g clip-path="url(#clip0_292_168)">
<path d="M34.8559 19.3923C34.8559 17.4582 33.4332 15.9035 31.6751 15.9035C29.2474 15.7958 26.8176 15.7448 24.3876 15.7504H23.6139C21.1389 15.7504 18.707 15.7935 16.3264 15.9053C14.5737 15.9053 13.1511 17.4692 13.1511 19.4024C13.0457 20.9297 12.9953 22.4603 12.9998 23.9913C12.9952 25.5212 13.0438 27.052 13.1465 28.5838C13.1465 30.5179 14.5682 32.0863 16.3209 32.0863C18.8225 32.2028 21.3873 32.2541 23.9952 32.2495C26.6077 32.2587 29.1661 32.2037 31.6696 32.0863C33.4268 32.0863 34.8495 30.5188 34.8495 28.5847C34.9531 27.0502 34.9998 25.5212 34.9961 23.9867C35.0053 22.4577 34.9586 20.9259 34.8559 19.3942V19.3923ZM21.8942 28.2052V19.7627L28.1248 23.9821L21.8942 28.2052Z" fill="white"/>
</g>
<defs>
<clipPath id="clip0_292_168">
<rect width="22" height="22" fill="white" transform="translate(13 13)"/>
</clipPath>
</defs>
</svg>
