<svg width="49" height="48" viewBox="0 0 49 48" fill="none" xmlns="http://www.w3.org/2000/svg">
<circle cx="24.3999" cy="24" r="24" fill="#26262C"/>
<path fill-rule="evenodd" clip-rule="evenodd" d="M20.7998 14.4004H27.9998C31.313 14.4004 33.9998 17.0872 33.9998 20.4004V27.6004C33.9998 30.9136 31.313 33.6004 27.9998 33.6004H20.7998C17.4866 33.6004 14.7998 30.9136 14.7998 27.6004V20.4004C14.7998 17.0872 17.4866 14.4004 20.7998 14.4004ZM27.9998 31.8C30.3158 31.8 32.1998 29.916 32.1998 27.6V20.4C32.1998 18.084 30.3158 16.2 27.9998 16.2H20.7998C18.4838 16.2 16.5998 18.084 16.5998 20.4V27.6C16.5998 29.916 18.4838 31.8 20.7998 31.8H27.9998Z" fill="white"/>
<path fill-rule="evenodd" clip-rule="evenodd" d="M19.5996 24.0002C19.5996 21.3494 21.7488 19.2002 24.3996 19.2002C27.0504 19.2002 29.1996 21.3494 29.1996 24.0002C29.1996 26.651 27.0504 28.8002 24.3996 28.8002C21.7488 28.8002 19.5996 26.651 19.5996 24.0002ZM21.3996 24C21.3996 25.6536 22.746 27 24.3996 27C26.0532 27 27.3996 25.6536 27.3996 24C27.3996 22.3452 26.0532 21 24.3996 21C22.746 21 21.3996 22.3452 21.3996 24Z" fill="white"/>
<circle cx="29.5595" cy="18.8398" r="0.6396" fill="white"/>
</svg>
