<svg viewBox="0 0 467 341" width="42" xmlns="http://www.w3.org/2000/svg"><path d="M265.003 206H32.004c-12.65 0-23-10.35-23-23V32c0-12.65 10.35-23 23-23h232.999c12.65 0 23 10.35 23 23v151c0 12.65-10.35 23-23 23z" fill="none" stroke="#9DA9B9" stroke-linejoin="round" stroke-miterlimit="10" stroke-width="18"></path><path d="M9.004 228.001V262s-1 20 28 20h397.998s23 0 23-22v-74s2-15-10-35-49-82-49-82-8-11-21-11h-89.999" fill="none" stroke="#9DA9B9" stroke-linecap="round" stroke-linejoin="round" stroke-miterlimit="10" stroke-width="18"></path><path d="M168.004 285.5c0 25.681-20.819 46.5-46.5 46.5s-46.5-20.819-46.5-46.5 20.819-46.5 46.5-46.5 46.5 20.819 46.5 46.5" fill="#FFF"></path><circle cx="121.504" cy="285.5" fill="none" r="46.5" stroke="#9DA9B9" stroke-linejoin="round" stroke-miterlimit="10" stroke-width="18"></circle><path d="M414.003 285.5c0 25.681-20.818 46.5-46.5 46.5-25.681 0-46.5-20.819-46.5-46.5s20.819-46.5 46.5-46.5c25.682 0 46.5 20.819 46.5 46.5" fill="#FFF"></path><circle cx="367.503" cy="285.5" fill="none" r="46.5" stroke="#9DA9B9" stroke-linejoin="round" stroke-miterlimit="10" stroke-width="18"></circle><path d="M451.271 157H343.003c-9.35 0-17-7.65-17-17v-34c0-9.35 7.65-17 17-17h67.939M104.003 9v76l45-27 46 27V9M92.004 169.999h-51c-.55 0-1-.45-1-1v-29c0-.55.45-1 1-1h51c.55 0 1 .45 1 1v29c0 .55-.45 1-1 1z" fill="none" stroke="#9DA9B9" stroke-linejoin="round" stroke-miterlimit="10" stroke-width="18"></path></svg>