<svg viewBox="0 0 464 467" width="37" xmlns="http://www.w3.org/2000/svg"><path d="M346.068 168.289c0-61.415-50.869-111.201-113.618-111.201-62.75 0-113.619 49.786-113.619 111.201 0 2.53.095 5.037.265 7.525-.17 3.421-.265 7.02-.265 10.847 0 92.923 50.869 168.252 113.619 168.252 62.749 0 113.618-75.329 113.618-168.252 0-3.827-.095-7.426-.266-10.847.171-2.488.266-4.995.266-7.525z" fill="none" stroke="#9DA9B9" stroke-miterlimit="10" stroke-width="23.207"></path><path d="M87.949 141h-14c-13.2 0-24 10.8-24 24v79c0 13.2 10.8 24 24 24h14c3.85 0 7-3.149 7-7v-24.547M369.95 237.383v23.618c0 3.85 3.15 7 7 7h14c13.2 0 24-10.801 24-24v-79c0-13.2-10.8-24-24-24h-14" fill="none" stroke="#9DA9B9" stroke-linecap="round" stroke-miterlimit="10" stroke-width="24"></path><path d="M73.909 140.421C88.314 67.244 153.595 12 231.949 12c78.562 0 143.98 55.535 158.154 129M87.949 268.056l5 25.567s7.375 18.425 36 14.938 71-9.958 71-9.958" fill="none" stroke="#9DA9B9" stroke-miterlimit="10" stroke-width="24"></path><path d="M222.369 306.976l-26.579 4.188c-8.354 1.315-16.265-4.441-17.582-12.795l-.953-6.052c-1.316-8.354 4.441-16.265 12.795-17.582l26.579-4.188c8.354-1.316 16.265 4.442 17.581 12.795l.954 6.052c1.316 8.354-4.442 16.266-12.795 17.582" fill="#9DA9B9"></path><path d="M170.614 333.97C96.273 354.531 36.786 391.642 12 455.159M452.003 455.159c-24.715-63.272-83.908-100.281-157.924-121" fill="none" stroke="#9DA9B9" stroke-linecap="round" stroke-miterlimit="10" stroke-width="24"></path></svg>