<svg viewBox="0 0 966 852" width="35" xmlns="http://www.w3.org/2000/svg"><path d="M28.143 767.144V109.505M908.143 622.045v201.16c0 .517-.422.938-.938.938H130.143M735.402 174.144h171.802c.517 0 .938.422.938.938v205.681" fill="none" stroke="#9DA9B9" stroke-miterlimit="10" stroke-width="56.285"></path><path d="M937.141 622.045H688.413c-47.428 0-86.231-38.269-86.231-85.039v-71.204c0-46.771 38.804-85.039 86.231-85.039h248.728v241.282z" fill="none" stroke="#9DA9B9" stroke-miterlimit="10" stroke-width="58.297"></path><path d="M786.902 501.403c0 28.443-23.057 51.5-51.5 51.5s-51.5-23.057-51.5-51.5 23.057-51.5 51.5-51.5 51.5 23.057 51.5 51.5" fill="#9DA9B9"></path><path d="M829.147 175.082H90.005c-33.799 0-61.862-34.063-61.862-68.363V95.505c0-34.299 30-67.362 79.363-67.362h709.279s19.362 2 19.362 23v116.001M225.143 824.144H90.005c-33.799 0-61.862-28.063-61.862-62.362" fill="none" stroke="#9DA9B9" stroke-miterlimit="10" stroke-width="56.285"></path></svg>