<svg width="49" height="48" viewBox="0 0 49 48" fill="none" xmlns="http://www.w3.org/2000/svg">
<circle cx="24.3999" cy="24" r="24" fill="#26262C"/>
<path fill-rule="evenodd" clip-rule="evenodd" d="M20.7998 14.3999H27.9998C31.313 14.3999 33.9998 17.0867 33.9998 20.3999V27.5999C33.9998 30.9131 31.313 33.5999 27.9998 33.5999H20.7998C17.4866 33.5999 14.7998 30.9131 14.7998 27.5999V20.3999C14.7998 17.0867 17.4866 14.3999 20.7998 14.3999ZM27.9998 31.7995C30.3158 31.7995 32.1998 29.9155 32.1998 27.5995V20.3995C32.1998 18.0835 30.3158 16.1995 27.9998 16.1995H20.7998C18.4838 16.1995 16.5998 18.0835 16.5998 20.3995V27.5995C16.5998 29.9155 18.4838 31.7995 20.7998 31.7995H27.9998Z" fill="white"/>
<path fill-rule="evenodd" clip-rule="evenodd" d="M19.5999 23.9997C19.5999 21.3489 21.7491 19.1997 24.3999 19.1997C27.0507 19.1997 29.1999 21.3489 29.1999 23.9997C29.1999 26.6505 27.0507 28.7997 24.3999 28.7997C21.7491 28.7997 19.5999 26.6505 19.5999 23.9997ZM21.3999 23.9995C21.3999 25.6531 22.7463 26.9995 24.3999 26.9995C26.0535 26.9995 27.3999 25.6531 27.3999 23.9995C27.3999 22.3447 26.0535 20.9995 24.3999 20.9995C22.7463 20.9995 21.3999 22.3447 21.3999 23.9995Z" fill="white"/>
<circle cx="29.5598" cy="18.8393" r="0.6396" fill="white"/>
</svg>
