<svg width="49" height="48" viewBox="0 0 49 48" fill="none" xmlns="http://www.w3.org/2000/svg">
<circle cx="24.2" cy="24" r="24" fill="#26262C"/>
<g clip-path="url(#clip0_510_132)">
<path d="M34.8561 19.3918C34.8561 17.4577 33.4335 15.903 31.6753 15.903C29.2477 15.7953 26.8178 15.7443 24.3878 15.7499H23.6141C21.1391 15.7499 18.7072 15.793 16.3266 15.9048C14.574 15.9048 13.1513 17.4687 13.1513 19.4019C13.0459 20.9292 12.9955 22.4598 13.0001 23.9908C12.9955 25.5207 13.0441 27.0515 13.1467 28.5833C13.1467 30.5174 14.5685 32.0858 16.3211 32.0858C18.8227 32.2023 21.3876 32.2536 23.9955 32.249C26.608 32.2582 29.1664 32.2032 31.6698 32.0858C33.4271 32.0858 34.8497 30.5183 34.8497 28.5842C34.9533 27.0497 35.0001 25.5207 34.9964 23.9862C35.0056 22.4572 34.9588 20.9254 34.8561 19.3937V19.3918ZM21.8945 28.2047V19.7622L28.1251 23.9816L21.8945 28.2047Z" fill="white"/>
</g>
<defs>
<clipPath id="clip0_510_132">
<rect width="22" height="22" fill="white" transform="translate(13 13)"/>
</clipPath>
</defs>
</svg>
