<svg width="133" height="48" viewBox="0 0 133 48" fill="none" xmlns="http://www.w3.org/2000/svg">
<path d="M75.0252 16.9205H70.6684C72.2235 26.9493 73.7739 36.9472 75.323 46.9357H79.3128C80.0089 41.5738 80.7033 36.2284 81.3976 30.8828C81.5338 31.4754 81.6233 32.0685 81.709 32.6621C82.0096 34.7457 82.3069 36.8298 82.6092 38.9129C82.9846 41.5014 83.3666 44.0886 83.7363 46.6779C83.7655 46.8829 83.823 46.9538 84.0374 46.9521C85.1796 46.9415 86.322 46.9415 87.4645 46.9516C87.7002 46.9536 87.7819 46.8731 87.8038 46.6417C87.8475 46.1793 87.9221 45.7199 87.9867 45.2597C88.2328 43.5086 88.4818 41.7582 88.7256 40.0074C89.0281 37.8315 89.3237 35.6549 89.627 33.4793C90.002 30.7895 90.3825 28.1005 90.7582 25.4105C91.107 22.9102 91.4528 20.4094 91.7986 17.9089C91.8466 17.5623 91.8876 17.2148 91.9323 16.8622H87.5902C86.9493 22.1254 86.3107 27.3707 85.6722 32.6163C85.6568 32.6158 85.6412 32.6158 85.6259 32.6156C84.9087 27.377 84.1914 22.1385 83.4737 16.8959H79.1175C78.4859 22.146 77.8554 27.3843 77.2251 32.6226L77.1744 32.6188C76.4586 27.3918 75.7429 22.1648 75.0252 16.9205ZM77.1568 24.5372C77.2879 23.451 77.4191 22.3651 77.5498 21.279C77.7197 19.8643 77.8866 18.4492 78.0607 17.0351C78.1082 16.6503 78.1748 16.2513 78.5593 16.0532C78.7787 15.9406 79.0401 15.8572 79.2836 15.8532C80.6269 15.8323 81.9704 15.8369 83.3134 15.8394C83.9296 15.8406 84.4018 16.1676 84.4807 16.7634C84.6116 17.7501 84.7627 18.7337 84.8996 19.7196C85.123 21.3287 85.3417 22.9386 85.6108 24.5508C85.684 23.9597 85.7576 23.3689 85.8297 22.7778C86.0667 20.8377 86.3012 18.8971 86.5409 16.9572C86.5879 16.5797 86.6648 16.195 87.0478 16.0128C87.2715 15.9062 87.5318 15.8283 87.7771 15.824C89.1018 15.8009 90.4269 15.7946 91.7518 15.8037C92.6169 15.8095 93.0564 16.3714 92.9348 17.2289C92.5535 19.9144 92.1823 22.6011 91.8086 25.2876C91.343 28.6346 90.8783 31.9815 90.4126 35.3287C90.0178 38.1688 89.6238 41.0096 89.2267 43.8496C89.0799 44.8986 88.9334 45.9473 88.7713 46.994C88.6595 47.718 88.1674 47.9606 87.5801 47.9741C86.3562 48.0025 85.1311 48.004 83.907 47.9799C83.3302 47.9684 82.8623 47.7278 82.7557 47.0006C82.5569 45.6452 82.3554 44.2904 82.1581 42.9346C81.9503 41.5069 81.7457 40.0785 81.5389 38.6503C81.5298 38.5885 81.5105 38.5279 81.4547 38.4648C81.377 39.0599 81.2999 39.655 81.222 40.2501C80.9357 42.4415 80.6515 44.6335 80.359 46.8241C80.3303 47.0378 80.2798 47.2602 80.1848 47.4514C79.9815 47.8603 79.5829 47.9771 79.171 47.9829C77.9195 48.0013 76.667 48.0063 75.4154 47.9907C74.8661 47.9842 74.4265 47.7326 74.3217 47.087C74.1126 45.7983 73.9096 44.5083 73.7085 43.2183C73.0742 39.1489 72.4407 35.0792 71.8096 31.0092C71.2153 27.1737 70.6247 23.3377 70.0319 19.502C69.9117 18.7259 69.7803 17.9516 69.6697 17.1741C69.6036 16.7079 69.7177 16.2837 70.1543 16.0454C70.3608 15.9326 70.6232 15.8781 70.8617 15.8743C72.1771 15.8547 73.4929 15.8539 74.8088 15.8565C75.5871 15.858 75.958 16.1952 76.0736 17.0014C76.2249 18.0592 76.3659 19.1185 76.5104 20.1772C76.6984 21.5526 76.8848 22.9283 77.0733 24.3037C77.0841 24.3829 77.108 24.4606 77.1256 24.539C77.1362 24.5382 77.1465 24.5377 77.1568 24.5372Z" fill="white"/>
<path d="M39.9442 41.1735C40.9618 33.1899 41.9746 25.2447 42.9891 17.2837H39.8015C39.3416 21.41 38.884 25.5161 38.4261 29.6221L38.3633 29.6163C37.8463 25.5114 37.3294 21.4065 36.8117 17.295H33.6218C33.1644 21.4391 32.7093 25.5631 32.2541 29.6871C32.1994 29.5962 32.1762 29.5077 32.1652 29.418C31.9923 28.0247 31.8239 26.631 31.6492 25.2379C31.3271 22.6693 30.9996 20.1012 30.6812 17.532C30.6563 17.3325 30.5774 17.2807 30.3836 17.2837C29.5614 17.2975 28.7388 17.295 27.9163 17.2983C27.7745 17.2988 27.6328 17.2983 27.4594 17.2983C27.5305 17.8225 27.5923 18.2998 27.6604 18.7765C27.9804 21.0137 28.3041 23.2501 28.6227 25.4875C28.9248 27.6078 29.2196 29.7289 29.5219 31.8489C29.9542 34.881 30.3927 37.912 30.8192 40.9451C30.8471 41.1419 30.9054 41.2097 31.1042 41.2039C31.5975 41.1901 32.091 41.1959 32.5846 41.1946C32.9747 41.1939 33.3649 41.1944 33.7763 41.1944C34.2807 36.9656 34.7813 32.7702 35.2819 28.5753C35.3028 28.5761 35.3239 28.5771 35.345 28.5779C35.9049 32.7742 36.4646 36.9704 37.0253 41.1735H39.9442ZM35.3407 36.8058C35.1719 38.2199 35.0052 39.6345 34.8326 41.0481C34.7856 41.4326 34.7233 41.833 34.338 42.031C34.1191 42.1433 33.8573 42.2192 33.6122 42.2263C32.754 42.2514 31.8945 42.2504 31.0358 42.2383C30.3922 42.2295 29.9393 42.0061 29.8305 41.2369C29.6182 39.7358 29.3978 38.2362 29.1834 36.7354C28.7366 33.6073 28.2915 30.4788 27.8457 27.3505C27.432 24.4481 27.0184 21.5457 26.6047 18.6436C26.5572 18.3088 26.5125 17.9741 26.4612 17.6398C26.3348 16.8186 26.7655 16.278 27.5976 16.2609C28.5659 16.241 29.535 16.2385 30.5033 16.2513C31.2401 16.2611 31.6028 16.6281 31.6993 17.4041C31.8332 18.4827 31.9669 19.5614 32.1024 20.6397C32.1124 20.7184 32.1355 20.7953 32.1868 20.8689C32.3014 19.827 32.415 18.7848 32.5313 17.7431C32.5514 17.5619 32.5836 17.382 32.611 17.2015C32.7173 16.4956 33.191 16.2579 33.7801 16.2451C34.7301 16.2245 35.6815 16.2124 36.6307 16.2415C37.3422 16.2634 37.7445 16.5059 37.8571 17.3611C37.986 18.339 38.1064 19.3181 38.2301 20.2967C38.2542 20.4867 38.2771 20.6767 38.3097 20.941C38.3494 20.8264 38.3766 20.7779 38.3823 20.7269C38.4992 19.6739 38.6088 18.6199 38.7304 17.5675C38.7797 17.1425 38.799 16.6811 39.2323 16.4426C39.4469 16.3245 39.71 16.2438 39.9535 16.2373C40.9032 16.2116 41.854 16.2169 42.8044 16.2212C43.6486 16.225 44.0974 16.7238 43.9926 17.5521C43.5815 20.8051 43.1623 24.057 42.7481 27.3095C42.4091 29.9734 42.0733 32.6375 41.7351 35.3014C41.4938 37.2041 41.2546 39.107 41.0058 41.0089C40.9548 41.3987 40.8962 41.8191 40.4939 42.0127C40.2478 42.131 39.9581 42.2019 39.6854 42.2112C38.8913 42.2381 38.0956 42.2235 37.3005 42.2255C36.4734 42.2273 36.0957 41.9101 35.9778 41.0851C35.8421 40.1359 35.722 39.1844 35.5943 38.234C35.5305 37.758 35.4649 37.2825 35.4001 36.8068C35.3802 36.8065 35.3606 36.806 35.3407 36.8058Z" fill="white"/>
<path d="M112.179 17.0079C111.361 23.1625 110.545 29.302 109.728 35.442C109.706 35.4413 109.684 35.4405 109.662 35.4398C108.821 29.306 107.981 23.1721 107.139 17.0288H103.911C103.998 17.6284 104.077 18.2047 104.164 18.7792C104.756 22.6611 105.351 26.5426 105.942 30.4244C106.477 33.9374 107.013 37.45 107.534 40.9651C107.571 41.2171 107.667 41.2473 107.88 41.2453C109.095 41.2342 110.31 41.235 111.526 41.2317C111.615 41.2315 111.704 41.2317 111.81 41.2317C113.012 33.143 114.21 25.0825 115.41 17.0079H112.179ZM109.71 27.7499C109.793 27.1289 109.877 26.5079 109.959 25.8872C110.346 22.9625 110.731 20.0377 111.125 17.114C111.173 16.7526 111.238 16.3646 111.601 16.1753C111.827 16.0577 112.096 15.9688 112.348 15.9617C113.298 15.9348 114.248 15.9416 115.199 15.9456C116.085 15.9494 116.529 16.4963 116.397 17.3713C115.965 20.2433 115.542 23.1165 115.116 25.9892C114.653 29.1057 114.19 32.2225 113.726 35.3387C113.441 37.254 113.158 39.1692 112.867 41.0834C112.833 41.3063 112.785 41.5391 112.685 41.7373C112.475 42.1535 112.064 42.2659 111.644 42.2716C110.337 42.2892 109.03 42.2963 107.724 42.2782C107.146 42.2701 106.677 42.0673 106.562 41.3219C106.36 40.0134 106.156 38.7048 105.957 37.3957C105.378 33.5949 104.799 29.7938 104.222 25.9928C103.78 23.0854 103.339 20.1779 102.9 17.2703C102.789 16.5375 103.261 15.9899 104.057 15.9715C105.053 15.9486 106.049 15.9441 107.045 15.97C107.576 15.9841 108.03 16.1897 108.138 16.8737C108.302 17.9199 108.444 18.9699 108.588 20.0191C108.944 22.5971 109.295 25.1758 109.648 27.7539C109.669 27.7524 109.689 27.7514 109.71 27.7499Z" fill="white"/>
<path d="M126.835 27.2043H122.762V20.634H128.31V16.9568H119.696V41.1872H128.37V37.4642H122.787V30.9294H126.835V27.2043ZM123.795 21.683V26.1736C123.916 26.1736 124.021 26.1739 124.127 26.1736C124.968 26.1719 125.809 26.1621 126.649 26.1716C127.074 26.1764 127.486 26.2716 127.696 26.6886C127.804 26.9009 127.871 27.156 127.876 27.3932C127.897 28.5078 127.896 29.6229 127.891 30.7379C127.887 31.5343 127.442 31.9694 126.641 31.9739C125.709 31.9787 124.778 31.9746 123.825 31.9746V36.4326C123.941 36.4326 124.037 36.4329 124.133 36.4326C125.477 36.4301 126.82 36.4233 128.163 36.4276C128.588 36.4289 129.001 36.5203 129.22 36.9282C129.336 37.1446 129.411 37.4095 129.416 37.6542C129.437 38.7781 129.432 39.9022 129.428 41.0261C129.426 41.7712 128.982 42.2258 128.234 42.2296C125.465 42.2434 122.696 42.2517 119.928 42.2542C119.102 42.2552 118.678 41.8094 118.675 40.9673C118.654 33.5926 118.635 26.2179 118.614 18.8432C118.613 18.3134 118.611 17.7834 118.608 17.2534C118.604 16.3245 119.013 15.9054 119.934 15.9026C122.666 15.8946 125.399 15.8885 128.131 15.8832C128.923 15.8817 129.361 16.3213 129.365 17.1272C129.372 18.2239 129.374 19.3207 129.372 20.4171C129.371 21.2326 128.934 21.6684 128.116 21.6724C126.846 21.6785 125.576 21.6797 124.305 21.683C124.143 21.6835 123.98 21.683 123.795 21.683Z" fill="white"/>
<path d="M50.2334 20.8351H55.6959V17.2142H47.1988V41.1178H55.7461V37.4743H50.2562V30.9951H54.2352V27.3498H50.2334V20.8351ZM51.2678 26.3044C52.0257 26.3044 52.7457 26.3046 53.4655 26.3044C53.6939 26.3044 53.9226 26.2956 54.1508 26.3044C54.855 26.3315 55.2694 26.7122 55.2837 27.4116C55.3076 28.5719 55.3098 29.733 55.2933 30.893C55.2825 31.6382 54.8308 32.038 54.0508 32.0458C53.2282 32.0538 52.406 32.0556 51.5837 32.0601C51.4937 32.0604 51.404 32.0601 51.2964 32.0601V36.4445C51.4279 36.4445 51.5525 36.445 51.6769 36.4445C52.9651 36.4384 54.2536 36.4302 55.5421 36.4269C56.3468 36.4251 56.8036 36.8727 56.8099 37.6789C56.8187 38.7754 56.8212 39.8718 56.8162 40.9686C56.8127 41.7175 56.3724 42.1646 55.6195 42.1676C52.8598 42.1801 50.1002 42.1869 47.3405 42.1862C46.572 42.1862 46.1745 41.7522 46.1709 40.9472C46.1586 38.133 46.1468 35.3184 46.138 32.5039C46.1224 27.5421 46.1064 22.5802 46.1011 17.6183C46.1008 17.3241 46.1405 17.0069 46.2549 16.7403C46.4459 16.2942 46.8711 16.1675 47.3229 16.165C50.0459 16.1504 52.7688 16.1389 55.492 16.1341C56.3015 16.1328 56.7471 16.5865 56.7524 17.3939C56.7589 18.463 56.7609 19.5321 56.7602 20.6014C56.7597 21.4269 56.3158 21.8692 55.4893 21.8723C54.1915 21.877 52.894 21.8788 51.5962 21.8818C51.4894 21.8821 51.3824 21.8818 51.2678 21.8818V26.3044Z" fill="white"/>
<path d="M64.4845 32.1296C64.5074 32.2291 64.5315 32.3248 64.5513 32.4216C65.1306 35.232 65.7116 38.0416 66.2834 40.8538C66.3246 41.0561 66.4017 41.1161 66.6048 41.1134C67.5095 41.1026 68.4142 41.1091 69.319 41.1084C69.4069 41.1081 69.4949 41.0986 69.6082 41.0923C69.5871 40.9598 69.5753 40.8525 69.5529 40.7477C68.853 37.488 68.1549 34.228 67.4449 30.9705C67.3957 30.7443 67.4427 30.5951 67.5819 30.4264C68.4361 29.3915 68.8955 28.1958 68.9375 26.8588C68.9724 25.7453 68.9508 24.6295 68.954 23.5146C68.9568 22.583 68.9453 21.6529 68.7284 20.7382C68.1682 18.3746 66.6699 17.1849 64.2437 17.1849C62.9002 17.1849 61.5567 17.1829 60.2132 17.1867C59.9624 17.1872 59.7116 17.21 59.4957 17.2211V41.0955H62.561V32.1296H64.4845ZM63.579 33.1861C63.579 33.2876 63.5788 33.3896 63.579 33.4911C63.5871 35.9402 63.6004 38.3892 63.5961 40.8382C63.5956 41.1038 63.5406 41.3903 63.43 41.6298C63.2398 42.0425 62.8336 42.1495 62.4185 42.1566C61.505 42.1719 60.5907 42.1714 59.6772 42.1646C58.9039 42.1586 58.4709 41.6964 58.4684 40.8854C58.4614 38.6468 58.4591 36.4076 58.4531 34.1689C58.4375 28.5949 58.4209 23.0206 58.4043 17.4463C58.402 16.6418 58.7863 16.1812 59.5802 16.1719C61.3612 16.151 63.1448 16.1286 64.924 16.1952C66.0449 16.2372 67.0868 16.6215 67.9591 17.3764C68.8482 18.1462 69.3556 19.1318 69.6587 20.2534C69.997 21.5064 70.0111 22.7821 69.998 24.0617C69.9869 25.1665 70.0183 26.2765 69.9203 27.3743C69.81 28.6077 69.4021 29.764 68.6231 30.7574C68.51 30.9019 68.4957 31.0338 68.5339 31.2103C69.2212 34.3685 69.899 37.5284 70.5835 40.6874C70.7622 41.5137 70.3217 42.1096 69.4783 42.1314C68.4828 42.1573 67.4856 42.1656 66.4905 42.1402C65.9094 42.1257 65.4634 41.9171 65.3153 41.1845C64.7969 38.6161 64.2618 36.0507 63.7328 33.4841C63.712 33.3821 63.6873 33.2811 63.6642 33.1795L63.579 33.1861Z" fill="white"/>
<path d="M102.915 41.2666C102.915 41.1801 102.922 41.1251 102.915 41.0721C102.701 39.5562 102.486 38.0405 102.27 36.5251C101.949 34.2784 101.625 32.0324 101.305 29.7857C101.004 27.6747 100.708 25.5632 100.408 23.4517C100.117 21.4038 99.8209 19.3569 99.5357 17.3082C99.506 17.0943 99.4316 17.0084 99.2087 17.0111C97.9662 17.026 96.7235 17.0333 95.481 17.0323C95.2998 17.032 95.2428 17.1074 95.2212 17.2637C94.9975 18.8892 94.7716 20.5139 94.5467 22.1391C94.2685 24.1521 93.9908 26.1654 93.7128 28.1786C93.4097 30.3723 93.1072 32.5662 92.8026 34.7599C92.5553 36.5382 92.3042 38.316 92.0572 40.094C92.0029 40.4853 91.9572 40.8776 91.9071 41.2724H95.098C95.1207 41.1555 95.1455 41.0583 95.1584 40.9592C95.3737 39.2963 95.5904 37.6334 95.7984 35.9695C95.8213 35.7833 95.8959 35.7212 96.0776 35.7222C96.9731 35.7277 97.869 35.7277 98.7644 35.7222C98.9247 35.7212 98.9765 35.7692 98.9979 35.9358C99.2148 37.6357 99.4462 39.3335 99.6661 41.0329C99.6912 41.2256 99.7639 41.2867 99.9609 41.2842C100.866 41.2731 101.77 41.2797 102.675 41.2789C102.747 41.2789 102.818 41.2719 102.915 41.2666ZM98.0665 36.7792H96.7388C96.6662 37.3276 96.5956 37.8686 96.5227 38.4097C96.3883 39.4054 96.2661 40.4026 96.1133 41.3955C96.006 42.0919 95.5532 42.309 94.9809 42.3244C94.0036 42.3502 93.0252 42.345 92.0474 42.3339C91.2218 42.3246 90.7853 41.7768 90.8999 40.9628C91.264 38.376 91.6174 35.7875 91.9773 33.2003C92.4261 29.9705 92.8775 26.7411 93.3268 23.5113C93.6236 21.3764 93.9184 19.2408 94.2149 17.1056C94.2662 16.7357 94.3459 16.364 94.7181 16.1881C94.9417 16.0823 95.2021 16.0064 95.4476 16.0016C96.6901 15.977 97.9333 15.9705 99.1761 15.9785C99.654 15.9818 100.122 16.0913 100.363 16.5648C100.48 16.7945 100.534 17.0654 100.572 17.324C101.325 22.5772 102.072 27.831 102.819 33.0849C103.194 35.7164 103.569 38.3479 103.934 40.9806C104.052 41.8308 103.555 42.2766 102.818 42.3C101.823 42.3316 100.825 42.346 99.8305 42.3095C99.1828 42.2862 98.7767 42.0469 98.6621 41.2183C98.5309 40.2681 98.4075 39.3172 98.2801 38.3665C98.2098 37.8427 98.1391 37.319 98.0665 36.7792Z" fill="white"/>
<path d="M1.08969 17.357V41.2747H4.14486V32.2858C4.23232 32.2793 4.31249 32.2695 4.39265 32.2687C4.95006 32.2632 5.50747 32.2624 6.06487 32.2546C6.60268 32.2469 7.12414 32.1353 7.59108 31.8742C9.4651 30.8249 10.3947 29.1696 10.5053 27.0686C10.5771 25.7017 10.5249 24.3281 10.5244 22.9574C10.5244 21.9801 10.359 21.0347 9.97576 20.1304C9.22334 18.3534 7.72628 17.357 5.79899 17.357H1.08969ZM5.17096 33.3524C5.17096 33.4363 5.17071 33.5346 5.17096 33.6326C5.18026 36.0356 5.19484 38.4384 5.19283 40.8412C5.19257 41.1452 5.1594 41.4719 5.0448 41.7479C4.85959 42.1947 4.43538 42.3264 3.98327 42.3317C3.09715 42.3425 2.21078 42.341 1.32466 42.3402C0.493579 42.3397 0.0552938 41.9042 0.0512729 41.0739C0.0432309 39.3836 0.0366969 37.6932 0.0334298 36.0032C0.0213669 29.8722 0.0110632 23.7418 5.60303e-06 17.6111C-0.000748327 17.1738 0.0741421 16.7586 0.492071 16.5241C0.676784 16.4203 0.902209 16.3367 1.11029 16.3349C2.80915 16.3201 4.51127 16.2638 6.20711 16.3412C8.91046 16.4651 10.5799 18.3474 11.1946 20.4991C11.462 21.4357 11.5897 22.3902 11.5766 23.3671C11.5608 24.5271 11.606 25.6889 11.5633 26.8477C11.4856 28.9534 10.7211 30.7553 9.08059 32.136C8.14673 32.9224 7.05302 33.2687 5.84749 33.3031C5.64669 33.3089 5.4459 33.3091 5.2451 33.3142C5.22927 33.3144 5.21394 33.3295 5.17096 33.3524Z" fill="white"/>
<path d="M23.8192 29.2924H23.7908C23.7908 29.0549 23.7923 28.8172 23.7906 28.5797C23.775 26.4509 23.7943 24.3213 23.7317 22.1939C23.6827 20.525 22.9663 19.1287 21.715 18.0242C20.4094 16.8722 18.4243 16.6558 16.9434 17.5575C15.1427 18.6537 14.2523 20.3458 14.234 22.4065C14.1935 26.9658 14.2327 31.5261 14.2692 36.0854C14.283 37.8297 14.9349 39.3217 16.2533 40.4963C17.8913 41.956 20.4082 41.8941 21.9723 40.3569C23.2575 39.0943 23.8157 37.5384 23.8185 35.7617C23.8217 33.6054 23.8192 31.4489 23.8192 29.2924ZM24.8533 29.2585C24.8533 31.3781 24.8526 33.4976 24.8536 35.6174C24.8546 37.7053 24.2439 39.561 22.7371 41.055C20.8296 42.9459 17.549 43.2135 15.3714 41.0965C13.9404 39.7055 13.2581 37.991 13.2315 36.0363C13.1787 32.1996 13.1802 28.3623 13.1777 24.5253C13.177 23.5133 13.1609 22.4905 13.2956 21.4918C13.563 19.5052 14.5154 17.8822 16.2244 16.7867C17.3093 16.0916 18.513 15.8189 19.8103 16.063C22.3103 16.5334 23.6943 18.1828 24.4636 20.4687C24.8028 21.4767 24.8239 22.5309 24.8197 23.5852C24.8124 25.476 24.8177 27.3674 24.8177 29.2585H24.8533Z" fill="white"/>
<path d="M63.58 27.4608C63.7718 27.4608 63.9444 27.4455 64.1136 27.4641C64.5255 27.5088 64.7423 27.2769 64.8748 26.9374C64.926 26.8059 64.9464 26.6541 64.9466 26.5116C64.9482 25.3066 64.9434 24.1013 64.9358 22.8963C64.9346 22.7234 64.9441 22.5364 64.8828 22.3824C64.8217 22.2293 64.6936 22.016 64.5664 21.9943C64.244 21.9388 63.9055 21.9758 63.58 21.9758V27.4608ZM62.5381 28.4982V20.9625C63.2885 20.9625 64.0394 20.9039 64.7768 20.9796C65.4611 21.0497 65.8933 21.6438 65.9393 22.4379C65.9798 23.1393 65.979 23.843 65.9868 24.5459C65.9939 25.2129 65.9921 25.8798 65.9871 26.5468C65.982 27.1952 65.7315 27.7345 65.2379 28.1567C64.972 28.3839 64.6689 28.5063 64.3111 28.5008C63.7363 28.4915 63.1613 28.4982 62.5381 28.4982Z" fill="white"/>
<path d="M98.4995 32.1097H96.2996C96.6526 29.0419 97.0037 25.9948 97.3543 22.9474L97.3935 22.9471C97.7609 25.9895 98.1278 29.0321 98.4995 32.1097Z" fill="white"/>
<path d="M5.16076 27.6337C5.36482 27.6337 5.53822 27.6179 5.70761 27.6372C6.07854 27.6797 6.30145 27.4917 6.43213 27.1794C6.49697 27.0243 6.53944 26.8484 6.54321 26.6808C6.55653 26.0779 6.55151 25.4745 6.54849 24.8713C6.54547 24.2134 6.54497 23.5552 6.52738 22.8975C6.51682 22.4949 6.31 22.164 6.02928 22.1298C5.74555 22.0953 5.45454 22.1222 5.16076 22.1222V27.6337ZM4.12134 28.6714V21.1235C4.8519 21.1235 5.57667 21.0587 6.28386 21.1426C6.93274 21.2198 7.29161 21.7284 7.46703 22.3379C7.53161 22.5628 7.5678 22.8038 7.56931 23.0375C7.5776 24.3343 7.60223 25.6318 7.55951 26.927C7.53011 27.8217 6.82041 28.603 6.04713 28.6606C5.52013 28.6998 4.98811 28.6701 4.45834 28.6714H4.12134Z" fill="white"/>
<path d="M18.2465 29.1988H18.2739C18.2739 31.391 18.2764 33.5829 18.2714 35.7751C18.2706 36.0933 18.351 36.3685 18.5775 36.5954C18.8212 36.8394 19.0434 36.8387 19.2899 36.6012C19.5656 36.3353 19.5965 35.9988 19.5955 35.6424C19.585 32.0804 19.5794 28.518 19.5709 24.956C19.5689 24.1706 19.5792 23.3843 19.543 22.6002C19.5319 22.3614 19.4249 22.1011 19.2887 21.9C19.0861 21.601 18.8054 21.61 18.5433 21.8598C18.3241 22.0687 18.2427 22.321 18.2435 22.6228C18.2493 24.8147 18.2465 27.0067 18.2465 29.1988ZM17.2129 29.1626C17.2129 26.9328 17.2113 24.7029 17.2139 22.473C17.2146 21.6661 17.8288 20.8624 18.578 20.6832C19.1876 20.5374 19.6704 20.7711 20.0705 21.2119C20.4811 21.6646 20.5998 22.221 20.601 22.8113C20.6073 25.9185 20.6121 29.0259 20.6161 32.1329C20.6179 33.4301 20.6415 34.7282 20.6081 36.0244C20.5862 36.8839 19.977 37.6102 19.2422 37.7793C18.7461 37.8931 18.3171 37.7486 17.9482 37.4252C17.4431 36.9829 17.2297 36.4077 17.2302 35.7427C17.2317 33.5495 17.2307 31.3561 17.2307 29.1626H17.2129Z" fill="white"/>
<path d="M121.27 13.8656C121.273 13.8739 121.276 13.8822 121.279 13.8905C121.312 13.8759 121.345 13.8611 121.378 13.8465C121.376 13.84 121.373 13.8335 121.37 13.8267C121.337 13.8395 121.304 13.8526 121.27 13.8656ZM114.81 7.37428L114.843 7.38483C114.849 7.35769 114.856 7.3303 114.862 7.30291C114.854 7.3009 114.845 7.29863 114.837 7.29662C114.828 7.32251 114.819 7.34839 114.81 7.37428ZM112.98 12.6902C112.988 12.6923 112.997 12.694 113.006 12.696C113.017 12.6593 113.028 12.6229 113.039 12.5865C113.027 12.5832 113.015 12.5802 113.004 12.5772C112.995 12.6149 112.988 12.6525 112.98 12.6902ZM116.026 6.68971C116.035 6.69373 116.044 6.698 116.053 6.70202C116.065 6.68468 116.081 6.66885 116.088 6.64975C116.095 6.63316 116.091 6.61281 116.092 6.59396C116.084 6.59321 116.076 6.5922 116.067 6.5912C116.053 6.62412 116.04 6.65679 116.026 6.68971ZM113.343 10.9464C113.324 10.9683 113.318 10.9718 113.317 10.9766C113.305 11.0065 113.295 11.0361 113.285 11.0663C113.283 11.0698 113.29 11.0753 113.293 11.0798C113.306 11.0562 113.32 11.0331 113.331 11.009C113.336 10.9994 113.336 10.9876 113.343 10.9464ZM121.523 7.59292C121.473 7.55949 121.457 7.54215 121.439 7.53838C121.42 7.53436 121.398 7.54341 121.377 7.54668C121.377 7.55648 121.377 7.56603 121.377 7.57558C121.413 7.57985 121.449 7.58412 121.523 7.59292ZM116.101 6.99857C116.09 6.99455 116.079 6.99028 116.069 6.986C116.048 7.03752 116.028 7.08854 116.007 7.13981C116.016 7.14358 116.026 7.1476 116.036 7.15137C116.057 7.1006 116.08 7.04959 116.101 6.99857ZM122.326 3.36839C122.323 3.37342 122.321 3.37844 122.318 3.38372H122.473C122.472 3.37844 122.472 3.37342 122.472 3.36839H122.326ZM115.104 6.66935C115.117 6.67438 115.13 6.67915 115.143 6.68393C115.165 6.63442 115.187 6.58466 115.209 6.53515C115.198 6.53038 115.188 6.52585 115.177 6.52108C115.153 6.57059 115.129 6.61984 115.104 6.66935ZM113.884 10.7828C113.873 10.78 113.862 10.777 113.851 10.7743C113.832 10.8318 113.813 10.8891 113.794 10.9464C113.884 10.914 113.88 10.8466 113.884 10.7828ZM123.713 3.07788C123.71 3.09446 123.707 3.1113 123.704 3.12789C123.776 3.14472 123.848 3.16156 123.92 3.17865C123.923 3.16307 123.927 3.14749 123.931 3.13216L123.713 3.07788ZM119.879 3.56919C120.061 3.60362 120.065 3.60311 120.176 3.54104C120.059 3.5521 119.969 3.56064 119.879 3.56919ZM115.778 7.64544C115.748 7.71053 115.666 7.76205 115.713 7.86358C115.793 7.80226 115.806 7.73089 115.778 7.64544ZM114.598 8.09378C114.708 8.04151 114.723 7.94676 114.721 7.84373L114.598 8.09378ZM113.307 11.485C113.325 11.393 113.343 11.3008 113.361 11.2085C113.348 11.206 113.336 11.2037 113.323 11.2012C113.267 11.2842 113.287 11.3824 113.307 11.485ZM113.679 14.0061C113.691 14.0104 113.702 14.0147 113.713 14.0187C113.748 13.8686 113.784 13.7184 113.82 13.5681C113.809 13.5658 113.799 13.5635 113.789 13.5613C113.753 13.7093 113.716 13.8578 113.679 14.0061ZM113.677 11.5455C113.788 11.3422 113.815 11.2452 113.785 11.1475C113.749 11.2801 113.713 11.4128 113.677 11.5455ZM113.225 11.9961C113.213 11.9896 113.201 11.9828 113.188 11.9763C113.099 12.0944 113.062 12.2298 113.077 12.3836C113.126 12.2545 113.175 12.1253 113.225 11.9961ZM114.003 11.7637C114.018 11.7662 114.031 11.7689 114.045 11.7715L114.117 11.2754C114.103 11.2734 114.089 11.2713 114.075 11.2691C114.051 11.4339 114.027 11.5988 114.003 11.7637ZM112.616 13.9639C112.662 13.7234 112.708 13.4829 112.754 13.2421C112.679 13.4774 112.593 13.7101 112.616 13.9639ZM113.842 14.2547C113.854 14.2137 113.87 14.1735 113.878 14.1315C113.921 13.888 113.962 13.644 114.002 13.3999C114.007 13.3683 114.003 13.3351 114.003 13.3027C113.926 13.6181 113.775 13.9171 113.842 14.2547ZM113.332 12.8717C113.179 13.3808 113.042 13.8933 113.042 14.4313C113.139 13.9114 113.236 13.3917 113.332 12.8717ZM113.876 14.4399C113.888 14.4436 113.901 14.4472 113.914 14.4512C113.937 14.3783 113.965 14.3067 113.982 14.2328C114.024 14.0493 114.053 13.8626 114.103 13.6814C114.334 12.8325 114.571 11.9851 114.806 11.1369C114.82 11.0846 114.832 11.0316 114.844 10.9791L114.799 10.969C114.491 12.1258 114.114 13.2642 113.876 14.4399ZM121.462 7.83191L121.46 7.79472C121.402 7.79472 121.344 7.78944 121.287 7.79573C121.068 7.8196 120.847 7.84172 120.629 7.87439C120.07 7.95732 119.511 8.04427 118.952 8.13273C118.872 8.1453 118.793 8.17395 118.714 8.19531C119.635 8.09102 120.551 7.98069 121.462 7.83191ZM118.395 15.1541C118.42 15.1488 118.447 15.1478 118.47 15.138C119.306 14.7796 120.142 14.4205 120.977 14.0606C121.012 14.0456 121.044 14.0227 121.076 14.0011C121.101 13.9832 121.124 13.9616 121.148 13.9415C120.213 14.3107 119.259 14.6266 118.395 15.1541ZM120.009 14.2401C120.013 14.2519 120.018 14.2634 120.022 14.275C120.569 14.0682 121.117 13.8616 121.664 13.6543C121.705 13.6389 121.744 13.6178 121.783 13.5985C121.786 13.597 121.787 13.5892 121.787 13.5844C121.787 13.5791 121.785 13.5739 121.778 13.5495C121.095 13.5442 120.571 13.941 120.009 14.2401ZM118.096 2.70493C118.095 2.71373 118.093 2.72277 118.092 2.73157C118.163 2.72755 118.235 2.72428 118.306 2.71875C118.516 2.70217 118.726 2.68357 118.936 2.66698C119.605 2.61421 120.274 2.55892 120.943 2.51042C121.22 2.49056 121.497 2.47976 121.774 2.47624C121.945 2.47398 122.117 2.49308 122.289 2.50288C122.742 2.52927 123.198 2.5363 123.636 2.68483C123.713 2.71071 123.798 2.71423 123.878 2.7283C123.883 2.71775 123.888 2.70719 123.893 2.69664C123.849 2.66774 123.809 2.63029 123.762 2.61144C123.654 2.56847 123.544 2.52901 123.432 2.4981C123.12 2.4114 122.797 2.40512 122.476 2.38325C121.357 2.3061 120.239 2.27946 119.119 2.39004C118.091 2.49157 117.074 2.65618 116.072 2.90824C115.878 2.957 115.687 3.0158 115.494 3.06983C116.433 2.97559 117.336 2.67327 118.296 2.64411C118.221 2.66673 118.159 2.68583 118.096 2.70493ZM119.839 3.23268C119.897 3.22213 119.956 3.20956 120.015 3.20127C120.097 3.19021 120.179 3.18167 120.261 3.17363C120.343 3.16533 120.425 3.1588 120.507 3.15176C119.932 3.14146 119.36 3.16558 118.796 3.294H119.044C118.892 3.31763 118.74 3.33899 118.589 3.36512C118.473 3.38523 118.351 3.38045 118.245 3.44027C118.247 3.45183 118.249 3.46288 118.25 3.47444C118.453 3.45032 118.656 3.42619 118.859 3.40207C118.098 3.58527 117.31 3.62473 116.56 3.86272C116.576 3.87629 116.591 3.88031 116.605 3.87805C117.098 3.8009 117.589 3.71771 118.082 3.64709C118.707 3.55763 119.323 3.40383 119.959 3.42443C119.878 3.43675 119.798 3.45233 119.716 3.46087C119.564 3.47645 119.411 3.48776 119.269 3.56341C119.596 3.53702 119.923 3.51088 120.25 3.48475C120.249 3.47545 120.249 3.46615 120.249 3.4566C120.151 3.4468 120.053 3.43675 119.955 3.42669C120.009 3.41865 120.063 3.40182 120.117 3.40408C120.333 3.41338 120.554 3.33396 120.764 3.44127C121.122 3.42594 121.481 3.41061 121.839 3.39553C121.839 3.38774 121.84 3.3797 121.84 3.37191C121.743 3.36512 121.647 3.35834 121.55 3.35155C121.889 3.33497 122.227 3.33145 122.565 3.33597C122.9 3.3405 123.235 3.35306 123.566 3.36236C123.563 3.33924 123.558 3.30883 123.553 3.27239C123.799 3.26912 124.029 3.34577 124.295 3.32517C124.037 3.18619 122.162 3.02158 121.911 3.11532C122.265 3.13241 122.589 3.14799 122.913 3.16357C122.912 3.17488 122.911 3.18619 122.91 3.1975C122.774 3.18519 122.637 3.16382 122.5 3.16307C122.034 3.16005 121.567 3.15628 121.101 3.1686C120.68 3.17941 120.26 3.21057 119.839 3.23268ZM114.47 11.2726C114.478 11.3043 114.486 11.3362 114.5 11.3935C114.522 11.3204 114.536 11.2716 114.551 11.2231C114.541 11.2176 114.532 11.212 114.522 11.2065C114.504 11.2306 114.485 11.2545 114.466 11.2784C114.483 11.1919 114.5 11.1057 114.517 11.0193L114.486 11.012C114.457 11.0821 114.427 11.1525 114.399 11.2226C114.392 11.2206 114.385 11.2186 114.378 11.2166C114.388 11.148 114.399 11.0791 114.409 11.0102C114.358 11.0432 114.326 11.0854 114.314 11.1329C114.224 11.4983 114.137 11.8647 114.047 12.2374C114.069 12.2364 114.086 12.2351 114.112 12.2339C114.092 12.3269 114.072 12.4181 114.051 12.5096C114.114 12.4125 114.137 12.2796 114.216 12.2216C114.312 12.1489 114.318 12.0587 114.343 11.9695C114.379 11.8423 114.403 11.7116 114.427 11.5815C114.445 11.4797 114.456 11.3764 114.47 11.2726ZM119.755 7.90555C120.223 7.8588 120.692 7.81307 121.16 7.76431C121.223 7.75753 121.284 7.73566 121.347 7.72084C121.309 7.69294 121.276 7.68942 121.243 7.69344C120.765 7.7515 120.287 7.81005 119.809 7.87062C119.791 7.87288 119.775 7.89499 119.757 7.90706H119.534C119.535 7.91359 119.535 7.91987 119.535 7.92641L119.755 7.90555ZM115.215 7.83091C115.144 7.85705 115.137 7.91837 115.113 8.00331C115.209 7.95506 115.213 7.89323 115.212 7.8284C115.255 7.78718 115.28 7.74094 115.247 7.67711C115.236 7.72837 115.226 7.77964 115.215 7.83091ZM114.478 5.66311C114.178 5.63948 113.899 5.63546 113.628 5.59173C113.149 5.51483 112.748 5.29016 112.463 4.88706C112.255 4.59177 112.146 4.26607 112.202 3.89941C112.26 3.50963 112.479 3.22942 112.807 3.02686C113.108 2.84014 113.443 2.73861 113.786 2.66648C114.85 2.44332 115.919 2.25106 117 2.1239C118.519 1.94522 120.041 1.87033 121.569 1.90652C122.196 1.9216 122.824 1.93265 123.445 2.03041C123.747 2.07791 124.048 2.13295 124.327 2.26187C124.452 2.31917 124.576 2.38954 124.678 2.47925C124.9 2.67427 124.916 2.94468 124.71 3.15352C124.579 3.28546 124.422 3.39779 124.26 3.49002C123.871 3.71168 123.449 3.85091 123.009 3.92906C122.491 4.02155 121.969 4.09543 121.451 4.19118C120.606 4.34724 119.762 4.5116 118.919 4.67847C118.55 4.75185 118.184 4.84333 117.814 4.91998C117.73 4.93757 117.672 4.97301 117.634 5.04765C117.565 5.18059 117.487 5.30926 117.425 5.44522C117.112 6.1318 116.804 6.81989 116.494 7.50798C116.47 7.56125 116.449 7.61629 116.417 7.69394C116.666 7.64243 116.887 7.59719 117.108 7.5512C118.113 7.34186 119.124 7.16921 120.145 7.05411C120.464 7.01792 120.781 6.95987 121.099 6.91363C121.277 6.88774 121.453 6.90056 121.626 6.94981C121.792 6.99681 121.828 7.08804 121.738 7.24309C121.73 7.25717 121.723 7.27174 121.714 7.29034C121.736 7.31924 121.758 7.34764 121.781 7.37805C121.65 7.41248 121.658 7.52029 121.663 7.60749C121.666 7.6751 121.646 7.69797 121.589 7.70324C121.608 7.75677 121.625 7.80176 121.645 7.85805C121.581 7.89072 121.508 7.92817 121.423 7.97114C121.439 8.0023 121.454 8.03422 121.469 8.06614C121.43 8.10886 121.372 8.1453 121.354 8.19581C121.305 8.32574 121.216 8.32423 121.1 8.31493C120.588 8.27372 120.08 8.30538 119.58 8.43003C119.438 8.46547 119.305 8.54086 119.168 8.60017C119.139 8.61299 119.113 8.6351 119.077 8.65898C119.119 8.68662 119.135 8.69743 119.173 8.7218C118.18 8.95653 117.199 9.17743 116.265 9.56621C116.33 9.55892 116.396 9.55817 116.459 9.54384C117.374 9.33877 118.287 9.12842 119.202 8.92712C119.504 8.86053 119.812 8.8168 120.117 8.76176C120.181 8.7502 120.245 8.73512 120.307 8.69517C120.005 8.71879 119.703 8.74191 119.401 8.76528C119.4 8.75623 119.399 8.74719 119.399 8.73814C119.56 8.70522 119.722 8.6738 119.883 8.63862C120.013 8.61022 120.14 8.57479 120.261 8.51875C120.43 8.44084 120.871 8.38379 121.092 8.41219C120.976 8.49186 120.878 8.55594 120.784 8.6243C120.755 8.64541 120.726 8.67506 120.711 8.70723C120.66 8.81881 120.576 8.89596 120.473 8.95527C120.377 9.01131 120.283 9.07163 120.181 9.1146C119.232 9.5177 118.283 9.92382 117.329 10.3154C116.811 10.5282 116.275 10.6938 115.724 10.8054C115.578 10.8351 115.428 10.8466 115.262 10.869C115.247 10.918 115.228 10.9746 115.213 11.0316C114.939 12.0147 114.665 12.9976 114.394 13.981C114.364 14.0875 114.34 14.1971 114.33 14.3069C114.303 14.5706 114.437 14.7862 114.68 14.8912C114.853 14.9656 115.036 14.9729 115.22 14.9679C115.556 14.9591 115.878 14.8784 116.197 14.7801C116.202 14.7786 116.207 14.7766 116.213 14.7746C117.254 14.3595 118.337 14.0622 119.388 13.6756C119.835 13.511 120.274 13.323 120.715 13.1431C120.963 13.0428 121.209 12.9428 121.478 12.9179C122.059 12.8639 122.431 13.3361 122.249 13.895C122.19 14.073 122.088 14.2227 121.964 14.36C121.719 14.6306 121.431 14.8485 121.115 15.0242C120.582 15.3207 120.049 15.6195 119.498 15.8816C118.883 16.1747 118.252 16.4378 117.62 16.6921C117.424 16.7708 117.229 16.859 117.024 16.9173C116.817 16.9766 116.609 17.0382 116.398 17.0854C116.182 17.1339 115.964 17.1761 115.744 17.2033C115.226 17.2676 114.705 17.3289 114.184 17.2538C113.29 17.1251 112.56 16.7105 112.04 15.9611C111.69 15.4574 111.569 14.8922 111.632 14.2838C111.713 13.512 111.929 12.7724 112.164 12.0378C112.24 11.8004 112.323 11.5654 112.406 11.3209C112.37 11.295 112.336 11.2691 112.3 11.2452C112.042 11.0718 111.84 10.8454 111.69 10.574C111.515 10.2568 111.516 9.92332 111.631 9.59084C111.778 9.16285 112.071 8.85877 112.49 8.69416C112.778 8.58107 113.077 8.49336 113.375 8.40716C113.468 8.38027 113.52 8.33856 113.545 8.2506C113.558 8.2026 113.58 8.15711 113.593 8.10886C113.795 7.34538 114.113 6.62311 114.395 5.88803C114.424 5.81163 114.452 5.73448 114.478 5.66311Z" fill="white"/>
<path d="M103.079 6.37311L103.115 6.38015C103.118 6.34597 103.122 6.31154 103.125 6.27736C103.116 6.27635 103.108 6.27535 103.099 6.27434C103.093 6.30727 103.086 6.34019 103.079 6.37311ZM102.988 6.16653C102.979 6.16276 102.97 6.15899 102.961 6.15547C102.95 6.19091 102.939 6.2266 102.928 6.26203C102.934 6.26379 102.941 6.26555 102.947 6.26756C102.96 6.23388 102.974 6.20021 102.988 6.16653ZM104.793 8.04332V8.04709H104.858L104.858 8.04332H104.793ZM103.031 6.03937C103.039 6.03384 103.045 6.03208 103.047 6.02856C103.059 5.99941 103.071 5.97001 103.083 5.93985C103.084 5.93709 103.076 5.93131 103.074 5.92703C103.059 5.9484 103.043 5.96875 103.032 5.99187C103.026 6.00419 103.031 6.02128 103.031 6.03937ZM99.7858 13.2133C99.7745 13.2087 99.7635 13.2045 99.7522 13.1999C99.7411 13.2532 99.7298 13.3068 99.7187 13.3603C99.7283 13.3625 99.7378 13.3646 99.7476 13.3666C99.7602 13.3156 99.773 13.2643 99.7858 13.2133ZM103.184 9.13149C103.175 9.11918 103.165 9.10711 103.156 9.09505C103.13 9.1144 103.103 9.13375 103.076 9.15335C103.084 9.16391 103.092 9.17446 103.099 9.18502C103.127 9.16718 103.156 9.14933 103.184 9.13149ZM102.684 7.13357C102.673 7.12905 102.661 7.12478 102.65 7.12051C102.628 7.18911 102.607 7.25772 102.585 7.32608C102.624 7.30823 102.64 7.2826 102.651 7.2542C102.665 7.215 102.673 7.17403 102.684 7.13357ZM103.153 5.66316C103.163 5.66944 103.173 5.67598 103.183 5.68226C103.249 5.60762 103.29 5.52343 103.259 5.4116C103.224 5.49528 103.189 5.57922 103.153 5.66316ZM103.192 6.29746L103.082 6.53596C103.093 6.54073 103.104 6.54576 103.115 6.55053C103.18 6.48117 103.217 6.3995 103.192 6.29746ZM102.631 5.80515C102.681 5.67899 102.73 5.55308 102.793 5.393C102.672 5.52268 102.643 5.59204 102.631 5.80515ZM106.097 9.00382C105.981 8.93446 105.857 8.89677 105.696 8.90229C105.83 9.00282 105.965 8.99679 106.097 9.00382ZM100.469 11.0774C100.542 10.9434 100.592 10.8019 100.615 10.6517C100.519 10.7783 100.49 10.9263 100.469 11.0774ZM101.186 8.17601C101.393 8.20566 101.638 8.1735 101.767 8.09107C101.565 8.12072 101.397 8.1451 101.186 8.17601ZM106.209 8.66104C106.092 8.56051 105.842 8.51528 105.68 8.54996C105.859 8.58765 106.034 8.62435 106.209 8.66104ZM103.058 5.56691C102.967 5.79937 102.875 6.03158 102.783 6.26379C102.93 6.09793 103.083 5.71895 103.058 5.56691ZM104.432 9.4313C104.096 9.35214 103.708 9.3441 103.593 9.41296C103.885 9.42703 104.156 9.48081 104.432 9.4313ZM102.772 6.38467C102.675 6.50379 102.261 7.56784 102.264 7.6945C102.444 7.26199 102.651 6.83979 102.772 6.38467ZM100.702 11.1299C100.847 10.9527 100.951 10.76 101.004 10.5225C100.862 10.5308 100.779 10.5743 100.718 10.6961C100.645 10.8419 100.709 10.9829 100.702 11.1299ZM105.08 9.04127C104.658 8.95205 104.229 8.91536 103.795 8.87189C103.786 8.91511 103.78 8.94627 103.771 8.9905C104.212 9.02921 104.643 9.07419 105.08 9.04127ZM99.6099 16.0124C99.6004 15.8664 99.7074 15.7322 99.6205 15.5814C99.5953 15.5374 99.6039 15.4728 99.6009 15.4175C99.5863 15.1185 99.5727 14.8194 99.5581 14.5201C99.5571 14.4977 99.5536 14.4751 99.5509 14.4527C99.5117 14.5392 99.4948 14.6249 99.4878 14.7113C99.4802 14.8046 99.4936 14.9008 99.476 14.9913C99.4534 15.1094 99.488 15.2464 99.3765 15.3394C99.3568 15.5394 99.3619 15.7379 99.4209 15.9319C99.4265 15.9498 99.4476 15.9629 99.4614 15.9782C99.527 15.9091 99.5383 16.0204 99.6099 16.0124ZM103.104 9.27373C103.103 9.28403 103.103 9.29409 103.103 9.30414C103.412 9.30414 103.722 9.29308 104.03 9.3069C104.358 9.32173 104.684 9.32374 105.01 9.29107C105.125 9.27951 105.244 9.277 105.37 9.19683C105.185 9.16919 105.027 9.13224 104.868 9.12445C104.408 9.10234 103.948 9.09203 103.487 9.07771C103.46 9.07696 103.431 9.0767 103.405 9.08223C103.351 9.09304 103.316 9.12194 103.327 9.18527C103.388 9.19985 103.446 9.21392 103.503 9.22774C103.502 9.23578 103.5 9.24357 103.498 9.25162C103.367 9.25915 103.235 9.26644 103.104 9.27373ZM106.753 8.61304L106.768 8.56956C106.688 8.52282 106.613 8.46401 106.528 8.43209C106.383 8.37806 106.235 8.32529 106.083 8.29965C105.46 8.1936 104.828 8.18053 104.197 8.16118C104.177 8.16043 104.157 8.16822 104.138 8.17199C105.02 8.27628 105.871 8.54468 106.753 8.61304ZM100.047 14.7103L100.099 14.7229C100.118 14.6671 100.141 14.6126 100.154 14.5555C100.179 14.4419 100.195 14.3261 100.223 14.2132C100.238 14.1497 100.252 14.0763 100.293 14.0308C100.467 13.8358 100.519 13.6015 100.528 13.3532C100.541 12.9876 100.681 12.6672 100.865 12.3583C100.883 12.3754 100.897 12.3882 100.912 12.4028C101.004 12.1945 101.123 12.006 101.149 11.7778C101.181 11.4936 101.284 11.2312 101.417 10.9784C101.518 10.7871 101.603 10.5878 101.693 10.3913C101.708 10.3591 101.713 10.3222 101.727 10.2692C101.639 10.2946 101.573 10.3189 101.504 10.3328C101.383 10.3574 101.324 10.4275 101.283 10.5461C101.005 11.3362 100.718 12.1226 100.437 12.9114C100.392 13.0363 100.357 13.1653 100.329 13.2949C100.271 13.5545 100.219 13.8159 100.167 14.0768C100.125 14.2876 100.087 14.4992 100.047 14.7103ZM100.301 12.3694C100.194 12.4422 100.121 12.535 100.072 12.6619C99.8911 13.1346 99.7647 13.6194 99.7054 14.1218C99.6763 14.3713 99.6549 14.6219 99.6298 14.8719C99.6421 14.8744 99.6544 14.8767 99.6667 14.8792C99.6984 14.7772 99.7376 14.6766 99.7607 14.5726C99.8534 14.1572 99.9336 13.7388 100.033 13.3249C100.11 13.0027 100.209 12.6855 100.297 12.3656C100.377 12.1563 100.457 11.9472 100.538 11.7358C100.487 11.724 100.457 11.717 100.427 11.7099C100.288 11.912 100.282 12.1382 100.301 12.3694ZM102.748 7.25596C102.768 7.23636 102.789 7.21801 102.807 7.1969C102.83 7.16976 102.85 7.14061 102.872 7.11246C102.821 7.25169 102.77 7.39066 102.712 7.54974C102.757 7.52109 102.782 7.50451 102.809 7.48767C102.822 7.52285 102.833 7.55427 102.854 7.61207C102.885 7.54673 102.907 7.50953 102.923 7.47008C103.123 6.95338 103.324 6.43669 103.521 5.91874C103.547 5.85164 103.551 5.77625 103.565 5.70462C103.553 5.70136 103.542 5.69784 103.53 5.69432C103.517 5.72347 103.5 5.75112 103.491 5.78153C103.351 6.25776 103.115 6.68951 102.867 7.11724C102.856 7.09512 102.845 7.07301 102.824 7.03029C102.797 7.11749 102.774 7.18811 102.752 7.25898C102.732 7.29868 102.713 7.33839 102.693 7.37785C102.705 7.38162 102.716 7.38539 102.727 7.38916L102.748 7.25596ZM99.7243 10.8185C99.5853 10.7989 99.4632 10.7901 99.3455 10.7635C99.0678 10.7007 98.8814 10.527 98.7987 10.2574C98.6188 9.6713 98.6924 9.11591 99.0324 8.60298C99.1943 8.35896 99.429 8.20315 99.6964 8.09358C100.039 7.95285 100.401 7.89429 100.766 7.86589C100.898 7.85584 100.952 7.80533 101.003 7.68671C101.401 6.75359 101.809 5.82425 102.214 4.89365C102.229 4.86022 102.239 4.82529 102.263 4.76045C102.016 4.84188 101.797 4.91174 101.578 4.98713C101.274 5.09268 100.976 5.21482 100.668 5.30554C100.479 5.36133 100.277 5.39124 100.08 5.39828C99.7894 5.40858 99.5863 5.24825 99.4918 4.97331C99.4116 4.7401 99.4224 4.50336 99.4717 4.26638C99.5785 3.74943 99.8484 3.33628 100.271 3.02113C100.571 2.79671 100.907 2.63889 101.253 2.49941C102.249 2.09757 103.283 1.86838 104.354 1.79198C105.255 1.72789 106.15 1.77891 107.044 1.88974C107.795 1.98247 108.532 2.13225 109.253 2.36446C109.586 2.47227 109.91 2.60295 110.207 2.79093C110.483 2.96509 110.718 3.18072 110.896 3.45666C110.989 3.60091 111.037 3.75773 111.029 3.92912C111.015 4.24904 110.782 4.45285 110.464 4.41766C110.354 4.4056 110.245 4.37921 110.14 4.34554C109.428 4.11609 108.694 4.01205 107.95 3.95953C107.083 3.89846 106.22 3.95249 105.359 4.06156C105.269 4.07312 105.226 4.10931 105.193 4.19098C104.754 5.26383 104.311 6.33516 103.87 7.40675C103.843 7.47259 103.818 7.53894 103.783 7.62539C103.855 7.62916 103.912 7.63368 103.97 7.63494C104.737 7.65253 105.499 7.71661 106.247 7.90007C106.451 7.95008 106.651 8.01793 106.846 8.09509C106.958 8.13907 107.064 8.20767 107.157 8.28432C107.37 8.46049 107.391 8.67461 107.233 8.9028C107.135 9.04428 107.001 9.14682 106.842 9.2011C106.627 9.27398 106.409 9.3441 106.187 9.38682C105.48 9.52378 104.77 9.65145 104.06 9.77484C103.716 9.8344 103.369 9.87813 103.023 9.92538C102.945 9.93618 102.893 9.96584 102.854 10.0385C102.238 11.2018 101.665 12.3834 101.319 13.6614C101.178 14.1838 101.124 14.7186 101.09 15.2564C101.069 15.5944 101.047 15.9334 100.953 16.2602C100.904 16.4295 100.837 16.5954 100.761 16.755C100.712 16.8585 100.641 16.955 100.563 17.0412C100.186 17.4624 99.6343 17.5036 99.1927 17.1485C99.0163 17.0068 98.8884 16.8266 98.7904 16.6248C98.6328 16.3014 98.5509 15.9573 98.525 15.6C98.4737 14.8918 98.6102 14.2087 98.8057 13.5334C98.9633 12.9894 99.1731 12.4644 99.3767 11.9364C99.5036 11.6059 99.5994 11.2634 99.7079 10.9261C99.7177 10.8954 99.718 10.8618 99.7243 10.8185Z" fill="white"/>
<path d="M82.3648 7.41194C82.3714 7.4142 82.3779 7.41671 82.3844 7.41898C82.3937 7.39234 82.4028 7.36595 82.4118 7.33931C82.4058 7.3373 82.3995 7.33504 82.3932 7.33303C82.3837 7.35942 82.3741 7.38555 82.3648 7.41194ZM87.1053 12.609C87.1053 12.6055 87.1055 12.6017 87.1055 12.5982C87.0854 12.5982 87.0651 12.5982 87.045 12.5987C87.0432 12.5987 87.0417 12.6033 87.0402 12.6058C87.0618 12.6068 87.0837 12.6078 87.1053 12.609ZM81.3247 11.204C81.3334 11.2072 81.3427 11.2102 81.3518 11.2135C81.3568 11.1896 81.3618 11.166 81.3666 11.1421C81.3634 11.1409 81.3598 11.1396 81.3561 11.1381C81.3455 11.1602 81.335 11.1821 81.3247 11.204ZM82.5025 5.28887C82.5123 5.29314 82.5221 5.29742 82.5319 5.30194C82.5571 5.25042 82.582 5.1989 82.6073 5.14763C82.596 5.14261 82.5847 5.13733 82.5737 5.1323C82.5498 5.18433 82.5262 5.2366 82.5025 5.28887ZM81.4556 8.49081C81.4692 8.49559 81.4825 8.50036 81.496 8.50514C81.5134 8.45488 81.5312 8.40462 81.5488 8.35435C81.5378 8.35033 81.527 8.34631 81.5162 8.34229C81.496 8.3918 81.4757 8.44131 81.4556 8.49081ZM82.3759 5.63719C82.4498 5.56682 82.4498 5.56682 82.4329 5.46981C82.4091 5.53918 82.3922 5.58818 82.3759 5.63719ZM81.1256 15.7889C81.1837 15.7748 81.2417 15.7607 81.3347 15.7378C81.1995 15.6898 81.1995 15.6898 81.1256 15.7889ZM79.6964 14.4177C79.7952 14.3526 79.7952 14.3526 79.7716 14.2476C79.7479 14.3011 79.7296 14.3428 79.6964 14.4177ZM86.6524 12.6935C86.6509 12.6814 86.6494 12.6694 86.6477 12.6573L86.3039 12.6945C86.3059 12.7098 86.3076 12.7249 86.3099 12.7402L86.6524 12.6935ZM86.5605 13.0792C86.0817 13.1159 84.991 13.3788 84.8184 13.4987C84.8284 13.5014 84.8395 13.5087 84.8485 13.5065C85.4087 13.3753 85.9691 13.2438 86.5288 13.1107C86.5403 13.1079 86.5481 13.088 86.5582 13.0767C86.6949 13.0669 86.8316 13.0571 86.9686 13.0473C86.9671 13.0348 86.9656 13.0222 86.9641 13.0094C86.8296 13.0327 86.6949 13.0559 86.5605 13.0792ZM81.2915 8.3438C81.3608 8.32696 81.3641 8.27544 81.349 8.21488C81.3312 8.25911 81.3131 8.30309 81.2963 8.34782C81.2787 8.39532 81.2608 8.44256 81.2432 8.49006C81.256 8.49207 81.2686 8.49433 81.2812 8.49634C81.2844 8.44558 81.288 8.39456 81.2915 8.3438ZM81.8961 9.84613C81.9233 9.80869 81.9504 9.77099 81.9776 9.73329L81.9449 9.71696C81.9301 9.76119 81.915 9.80542 81.9002 9.85015C81.8808 9.89137 81.8615 9.93258 81.8421 9.97355C81.8534 9.97731 81.8645 9.98083 81.8755 9.98435C81.8823 9.93836 81.8891 9.89237 81.8961 9.84613ZM88.2249 12.6301C88.2548 12.6535 88.2787 12.6731 88.3126 12.7C88.1032 12.7402 87.905 12.7782 87.7067 12.8159C87.8183 12.8983 87.955 12.9171 88.0628 13.0425C85.4695 13.3889 82.9976 14.0543 80.6881 15.2526C80.6913 15.2629 80.6946 15.2732 80.6981 15.2832C80.763 15.2571 80.8286 15.232 80.8929 15.2043C82.024 14.7178 83.1771 14.2926 84.359 13.946C84.4688 13.9138 84.5869 13.9093 84.6995 13.8852C84.9104 13.8397 85.1197 13.7867 85.3305 13.7414C85.7206 13.6575 86.1111 13.5766 86.5019 13.4962C86.5373 13.4889 86.5753 13.4952 86.613 13.5012C85.6809 13.7022 84.7603 13.9422 83.8657 14.2762C84.9325 13.9704 86.0096 13.7118 87.1138 13.5773L86.129 13.7937C86.1295 13.8033 86.1302 13.8126 86.131 13.8219C86.3235 13.8116 86.516 13.8013 86.7439 13.7889C86.0061 14.0005 85.3004 14.194 84.6002 14.4059C83.8951 14.6195 83.2042 14.8748 82.5284 15.1804C82.5616 15.1757 82.596 15.1752 82.6274 15.1651C83.3819 14.9216 84.1343 14.6718 84.891 14.4351C85.2818 14.3127 85.6799 14.2131 86.0752 14.1038C86.0905 14.0996 86.1073 14.1003 86.1345 14.1219C86.0872 14.1453 86.0402 14.1699 85.9925 14.1923C84.6724 14.8125 83.35 15.428 82.0331 16.055C81.4671 16.3244 80.9133 16.6184 80.3531 16.8999C80.0251 17.0648 79.6909 17.2123 79.323 17.2656C79.1006 17.298 78.8804 17.2907 78.6633 17.2314C78.1549 17.0927 77.839 16.6943 77.7724 16.1269C77.7209 15.6904 77.7794 15.2631 77.8578 14.8366C78.0518 13.7834 78.4175 12.7842 78.8266 11.7993C79.3627 10.5088 79.9113 9.22313 80.4373 7.92838C81.0718 6.36574 81.6287 4.77469 82.1376 3.16681C82.2042 2.95621 82.2927 2.75089 82.3897 2.5521C82.4571 2.41388 82.5485 2.28521 82.643 2.16282C82.9137 1.81149 83.2771 1.7072 83.6963 1.80998C84.1936 1.93187 84.5972 2.2073 84.9008 2.6197C85.1536 2.96299 85.2024 3.35051 85.1187 3.76116C85.0586 4.0567 84.9463 4.33414 84.8219 4.60681C83.6558 7.16591 82.489 9.7245 81.3224 12.2833C81.1751 12.6063 81.0266 12.9287 80.8808 13.2524C80.8444 13.3331 80.8092 13.4157 80.7871 13.5009C80.7197 13.7613 80.8834 13.9485 81.1497 13.9035C81.29 13.8797 81.4269 13.8261 81.5596 13.7729C82.0638 13.5698 82.5591 13.3449 83.0692 13.1581C84.3336 12.6947 85.6364 12.3796 86.9736 12.2147C87.3644 12.1665 87.7567 12.1293 88.1492 12.0974C88.2571 12.0883 88.3704 12.1059 88.4775 12.129C88.576 12.1504 88.6443 12.2205 88.6504 12.3281C88.6559 12.4291 88.5953 12.4972 88.5089 12.5341C88.4194 12.5723 88.3239 12.5972 88.2249 12.6301Z" fill="white"/>
<path d="M92.4659 9.54304C92.4734 9.54681 92.4812 9.55058 92.4888 9.55409C92.5023 9.52218 92.5154 9.49001 92.529 9.45809C92.5225 9.45533 92.5159 9.45257 92.5096 9.4498C92.4951 9.48071 92.4807 9.51187 92.4659 9.54304ZM91.9226 11.6412C92.01 11.6596 92.0417 11.646 92.0208 11.5764C92.0188 11.5691 92.0055 11.5653 91.9892 11.5543C91.9718 11.5766 91.9545 11.5995 91.9226 11.6412ZM93.2374 7.68761C93.2246 7.68284 93.2115 7.67781 93.1985 7.67279L93.1248 7.87333C93.1341 7.8766 93.1434 7.88012 93.1527 7.88339L93.2374 7.68761ZM92.1957 10.2203C92.2076 10.2238 92.2191 10.2276 92.2307 10.2314C92.2528 10.1625 92.2747 10.0934 92.2965 10.0248C92.2857 10.0213 92.2749 10.018 92.2641 10.0145L92.1957 10.2203ZM95.1577 5.06947C95.1705 5.0765 95.1833 5.08329 95.1964 5.09033C95.2208 5.01996 95.2451 4.94959 95.2693 4.87923C95.2572 4.87495 95.2454 4.87068 95.2331 4.86641C95.208 4.93426 95.1828 5.00187 95.1577 5.06947ZM94.2972 6.86106C94.3088 6.86659 94.3203 6.87211 94.3321 6.87739C94.3874 6.81029 94.4387 6.74194 94.4007 6.63739C94.3663 6.71203 94.3316 6.78642 94.2972 6.86106ZM93.6742 7.44359C93.6619 7.43857 93.6496 7.43379 93.637 7.42902C93.5981 7.51371 93.5483 7.59438 93.5315 7.68736C93.5425 7.69164 93.5533 7.69591 93.5644 7.70043L93.6742 7.44359ZM93.9642 5.86537C93.873 5.9385 93.8318 6.04028 93.8534 6.16443C93.8903 6.06466 93.927 5.96514 93.9642 5.86537ZM94.1012 7.49863C94.0891 7.4936 94.0773 7.48833 94.0652 7.48305C94.0311 7.60946 93.9471 7.71878 93.9632 7.86303C94.0095 7.74165 94.0552 7.62026 94.1012 7.49863ZM92.9665 8.4046L92.9245 8.38601C92.8585 8.53729 92.7926 8.68833 92.7265 8.83912C92.7396 8.8449 92.7527 8.85068 92.7655 8.85621L92.9665 8.4046ZM91.7371 12.0014C91.7067 12.0918 91.6796 12.1939 91.6376 12.2891C91.5888 12.4004 91.6027 12.4949 91.6876 12.6C91.7467 12.4228 91.8014 12.2577 91.8505 12.1109C91.8045 12.0667 91.7708 12.034 91.7371 12.0014ZM94.8943 5.8626C94.6146 6.28078 94.3663 6.9357 94.3847 7.1571C94.5573 6.71831 94.7257 6.29058 94.8943 5.8626ZM93.4362 8.01331C93.3269 8.10479 93.2829 8.22869 93.2314 8.34806C93.1766 8.47497 93.1223 8.60263 93.0766 8.73306C93.0354 8.85093 92.967 8.96301 92.9844 9.09947C93.0437 9.03112 93.0887 8.95698 93.1196 8.87732C93.2141 8.63556 93.3033 8.39153 93.3937 8.14827C93.4103 8.10404 93.4224 8.0583 93.4362 8.01331ZM91.6607 11.7779C91.4225 12.4753 91.1151 13.1483 90.9756 13.8754C90.9553 13.9814 90.9437 14.089 90.9284 14.196C91.0103 13.9465 91.0689 13.6937 91.1387 13.4439C91.1611 13.3645 91.2435 13.2943 91.246 13.2182C91.2526 13.0111 91.3642 12.8377 91.4031 12.6422C91.4285 12.5123 91.474 12.3833 91.53 12.2635C91.5901 12.1363 91.5971 11.9963 91.6502 11.8687C91.6615 11.8415 91.6577 11.8083 91.6607 11.7779ZM91.0204 16.1537C91.0342 16.1502 91.048 16.1467 91.0618 16.1434C91.0729 16.0846 91.0659 15.9904 91.0983 15.9741C91.1875 15.9288 91.1558 15.8703 91.1408 15.814C91.1204 15.7396 91.0855 15.6692 91.0646 15.5951C91.0153 15.4184 91.053 15.2488 91.1144 15.0817C91.1269 15.0894 91.1395 15.0977 91.1568 15.1085C91.2139 14.3134 91.3958 13.5562 91.6145 12.8045C91.569 12.8654 91.5248 12.9267 91.4966 12.9948C91.4722 13.0536 91.3923 13.0184 91.3737 13.0956C91.3016 13.3964 91.2099 13.6929 91.1402 13.9942C91.1096 14.1274 91.1081 14.2682 91.1036 14.4061C91.1013 14.4823 91.1204 14.5592 91.1297 14.6358C91.1239 14.6363 91.1186 14.6368 91.1129 14.6373C91.1048 14.5951 91.0965 14.5529 91.0885 14.5104C91.0829 14.5114 91.0779 14.5124 91.0724 14.5134C91.0558 14.717 91.0392 14.9206 91.0226 15.1241C91.0174 15.1241 91.0123 15.1244 91.0071 15.1246C90.9937 14.9475 90.9802 14.7703 90.9666 14.5929C90.9535 14.5924 90.9405 14.5916 90.9274 14.5908C90.942 14.7331 90.807 14.8512 90.8887 15.007C90.9033 15.0354 90.8796 15.0824 90.8781 15.1209C90.8749 15.2035 90.8653 15.2875 90.8749 15.3689C90.8995 15.578 90.9309 15.7861 90.9646 15.9937C90.9739 16.0487 91.0013 16.1005 91.0204 16.1537ZM92.0688 11.2163C92.0947 11.1225 92.1178 11.0278 92.1475 10.9353C92.1854 10.8174 92.2287 10.7013 92.2694 10.5845C92.2563 10.5802 92.2432 10.5757 92.2304 10.5714C92.1508 10.7956 92.0714 11.0197 91.9844 11.2645C92.0311 11.2369 92.0528 11.2238 92.0746 11.2107C92.0585 11.2987 92.0419 11.3866 92.0193 11.5088C92.1276 11.3929 92.3485 10.8524 92.3727 10.6822C92.3103 10.6624 92.2988 10.7119 92.2814 10.7501C92.2101 10.9051 92.1397 11.0604 92.0688 11.2163ZM94.4905 5.7176C94.5126 5.68367 94.5407 5.65175 94.5558 5.61481C94.6327 5.42658 94.7061 5.23709 94.7795 5.0461C94.793 4.99533 94.8064 4.94482 94.8199 4.8938C94.8104 4.8928 94.8006 4.89129 94.7908 4.89003C94.788 4.94331 94.7852 4.99684 94.7827 5.05012C94.7626 5.0657 94.7322 5.07726 94.7242 5.09787C94.6455 5.30469 94.5701 5.51278 94.494 5.72111C94.4754 5.78093 94.4565 5.84074 94.4379 5.9003C94.3098 6.07018 94.2721 6.27576 94.2027 6.46952C94.3047 6.36497 94.3839 6.24937 94.406 6.10361C94.4163 6.03475 94.4244 5.96539 94.4329 5.89552C94.452 5.83621 94.4711 5.77691 94.4905 5.7176ZM90.8874 15.8557C90.8784 15.916 90.8693 15.9766 90.8603 16.0369C90.8693 16.0379 90.8784 16.0386 90.8874 16.0397V15.8554C90.8615 15.7363 90.8359 15.6172 90.81 15.4981C90.7995 15.5006 90.7889 15.5026 90.7784 15.5051C90.7967 15.6051 90.813 15.7057 90.8357 15.8049C90.8399 15.8245 90.8696 15.8384 90.8874 15.8557ZM93.7765 8.07086C93.7076 8.10228 93.6973 8.16184 93.6998 8.22793C93.6772 8.28297 93.6546 8.33826 93.6322 8.39329C93.6151 8.42018 93.5935 8.44506 93.582 8.47396C93.4267 8.864 93.2721 9.25453 93.1191 9.64557C93.1057 9.68 93.1055 9.71946 93.099 9.75665C93.0728 9.80239 93.0409 9.84587 93.0216 9.89437C92.771 10.5224 92.5227 11.1514 92.2721 11.7794C92.2525 11.8279 92.2206 11.8712 92.1945 11.9169L92.198 11.9197C92.2123 11.8614 92.2206 11.8008 92.242 11.7453C92.8187 10.2379 93.3978 8.73156 93.9735 7.2237C94.0258 7.08673 94.059 6.94248 94.1009 6.8015C94.0037 6.94776 93.9285 7.10106 93.8665 7.25963C93.3998 8.45285 92.9354 9.64683 92.4712 10.8411C92.2862 11.3165 92.0879 11.7877 91.9243 12.2705C91.7462 12.7952 91.5996 13.3308 91.4428 13.8628C91.4154 13.9555 91.4064 14.0535 91.3865 14.1619C91.4247 14.1455 91.4383 14.1397 91.4602 14.1305C91.3134 14.995 91.2925 15.2644 91.3501 15.4428C91.3772 15.2694 91.4049 15.0789 91.4375 14.8892C91.469 14.7062 91.5054 14.524 91.5393 14.3413C91.5587 14.4064 91.5464 14.4652 91.5401 14.525C91.5341 14.5846 91.5341 14.6446 91.5313 14.7044C91.7504 14.3828 91.8904 14.038 91.9934 13.6811C92.2088 12.9382 92.5503 12.2464 92.8449 11.5359C93.0909 10.9416 93.3676 10.3598 93.6229 9.76922C93.876 9.18291 94.1233 8.59384 94.3658 8.00301C94.5887 7.45968 94.8026 6.91232 95.0187 6.36623C95.0431 6.30466 95.064 6.24032 95.0753 6.17548C95.0813 6.13904 95.065 6.09858 95.0584 6.06013C94.8873 6.41046 94.7463 6.76229 94.5533 7.09603C94.5337 7.07065 94.5224 7.05607 94.506 7.03521C94.4417 7.18801 94.3816 7.3305 94.314 7.49059C94.2995 7.43832 94.2904 7.40539 94.2731 7.34407C94.0142 7.86403 93.8486 8.39179 93.6227 8.89466L93.6531 8.90999C93.7157 8.80393 93.778 8.69763 93.8403 8.59133C93.8489 8.59535 93.8574 8.59912 93.8657 8.60314C93.6657 9.09772 93.4656 9.59229 93.2701 10.0751C93.2146 10.0112 93.1673 9.95745 93.1238 9.90794C93.0929 9.92905 93.0766 9.94011 93.0598 9.95142L93.0635 9.95393C93.0741 9.88708 93.0849 9.82023 93.0954 9.75338C93.157 9.65939 93.2249 9.75288 93.2862 9.75941C93.2907 9.66794 93.2756 9.58124 93.3023 9.51087C93.4252 9.18618 93.5601 8.86576 93.6908 8.54408C93.7325 8.44205 93.778 8.34152 93.8169 8.23849C93.828 8.20959 93.822 8.1744 93.8235 8.14198C93.8167 8.14123 93.8097 8.14048 93.8026 8.13997C93.7672 8.20079 93.7313 8.26136 93.6958 8.32217C93.6958 8.2895 93.6958 8.25658 93.6956 8.22366C93.7212 8.17139 93.7473 8.11911 93.772 8.06609C93.7888 8.01934 93.8056 7.97285 93.8222 7.92636C93.8114 7.9246 93.8009 7.92259 93.7901 7.92058C93.7855 7.97084 93.7808 8.02085 93.7765 8.07086ZM89.7842 15.1882C89.7862 14.577 89.9216 13.9887 90.0817 13.4044C90.4283 12.1401 90.895 10.9182 91.379 9.70212C91.8258 8.57926 92.2701 7.45515 92.7074 6.32828C93.0329 5.48991 93.2736 4.62465 93.4943 3.75336C93.5719 3.44651 93.6835 3.15046 93.8318 2.8695C93.9783 2.5918 94.163 2.34451 94.4133 2.1505C94.9044 1.76977 95.4572 1.76575 95.9408 2.15653C96.4087 2.53476 96.6814 3.03587 96.7917 3.62192C96.8907 4.14741 96.8078 4.65983 96.6397 5.1617C96.4642 5.68518 96.2004 6.16644 95.932 6.64619C95.1569 8.03015 94.3751 9.41035 93.6151 10.8029C93.0758 11.792 92.6185 12.8201 92.2568 13.8902C92.0507 14.5001 91.9547 15.1259 91.8932 15.7627C91.8625 16.0814 91.7909 16.3965 91.7326 16.7122C91.7185 16.7875 91.6879 16.8609 91.6569 16.9318C91.5225 17.2409 91.2551 17.3739 90.9244 17.2959C90.6246 17.2251 90.3903 17.0572 90.2194 16.8024C89.9691 16.4297 89.8445 16.0135 89.802 15.5705C89.7902 15.4435 89.79 15.3156 89.7842 15.1882Z" fill="white"/>
<path d="M129.664 2.33647L129.697 2.34527C129.702 2.28973 129.748 2.23796 129.679 2.17488L129.664 2.33647ZM129.187 3.80513C129.199 3.80865 129.212 3.81217 129.224 3.81568C129.241 3.7526 129.258 3.68978 129.275 3.62695C129.263 3.62368 129.251 3.62042 129.239 3.61715C129.222 3.67998 129.205 3.74255 129.187 3.80513ZM129.09 4.26653C129.033 4.3942 128.972 4.5196 129.015 4.692C129.099 4.54222 129.11 4.40676 129.09 4.26653ZM128.941 4.89054C128.894 5.0564 128.846 5.22201 128.799 5.38788C128.909 5.23533 128.961 5.06696 128.941 4.89054ZM127.832 6.00962C127.916 5.81988 127.971 5.62336 128.016 5.42432C128.001 5.4208 127.987 5.41728 127.973 5.41376C127.926 5.6123 127.879 5.81108 127.832 6.00962ZM129.335 3.8853C129.349 3.8868 129.361 3.88831 129.374 3.88982C129.469 3.61891 129.506 3.33719 129.503 3.04818C129.448 3.32714 129.391 3.60609 129.335 3.8853ZM128.248 5.73946C128.314 5.65477 128.46 5.09586 128.466 4.9031C128.347 5.14134 128.223 5.61557 128.248 5.73946ZM128.397 3.94611C128.505 3.68073 128.593 3.41334 128.583 3.12307C128.415 3.37237 128.397 3.65836 128.397 3.94611ZM126.994 9.26182C127.009 9.21558 127.023 9.16884 127.039 9.12335C127.056 9.07686 127.062 9.0173 127.094 8.98815C127.175 8.91627 127.173 8.82404 127.183 8.73256C127.188 8.67979 127.192 8.62626 127.203 8.57474C127.233 8.4418 127.242 8.26488 127.216 8.15204C127.124 8.52724 127.023 8.88586 126.994 9.26182ZM127.675 7.71953C127.761 7.5989 127.895 7.19455 127.89 7.07668C127.89 7.06688 127.867 7.05808 127.852 7.04678C127.805 7.17092 127.814 7.31769 127.665 7.42123C127.705 7.26743 127.738 7.14127 127.77 7.01511C127.76 7.0126 127.749 7.01008 127.738 7.00732C127.681 7.20711 127.624 7.4069 127.573 7.58257C127.608 7.6077 127.628 7.61574 127.637 7.63057C127.653 7.65545 127.661 7.6846 127.675 7.71953ZM126.931 10.1897C126.788 10.4292 126.88 10.6837 126.813 10.9127C126.91 11.0014 126.851 11.1069 126.846 11.207C126.84 11.3379 126.829 11.4696 126.873 11.6033C126.89 11.5905 126.898 11.5857 126.904 11.5792C126.908 11.5756 126.908 11.5688 126.911 11.5641C126.913 11.5601 126.918 11.5568 126.92 11.5545C126.936 11.5952 126.953 11.637 126.97 11.6784C126.982 11.6767 126.994 11.6744 127.007 11.6724C126.982 11.1853 126.957 10.6986 126.931 10.1897ZM127.407 8.76121C127.354 8.83032 127.322 8.87154 127.274 8.93437C127.253 8.77554 127.282 8.66396 127.38 8.55262C127.399 8.59887 127.41 8.62877 127.433 8.68582C127.481 8.50035 127.523 8.33801 127.57 8.15581C127.475 8.25457 127.448 8.17742 127.417 8.09976C127.256 8.66119 127.115 9.20251 127.048 9.75816C127.016 10.0155 127.019 10.2771 127.011 10.537C127.01 10.585 126.991 10.6558 127.085 10.6661C127.124 10.355 127.152 10.0426 127.204 9.73429C127.257 9.41965 127.333 9.10852 127.407 8.76121ZM128.898 4.25472L128.902 4.25774C128.914 4.1165 128.895 3.96195 128.947 3.8373C129.028 3.6463 129.022 3.42791 129.148 3.25501C129.153 3.24873 129.155 3.2339 129.15 3.22837C129.081 3.13539 129.132 3.04291 129.166 2.96173C129.258 2.73907 129.283 2.51189 129.247 2.25002C129.195 2.48424 129.147 2.69459 129.103 2.90594C129.015 3.32864 128.939 3.75487 128.838 4.1743C128.727 4.63144 128.594 5.08354 128.466 5.53665C128.23 6.3803 127.989 7.22269 127.753 8.06609C127.596 8.62676 127.441 9.18794 127.289 9.74987C127.273 9.81094 127.281 9.87929 127.282 9.94438C127.283 10.0087 127.308 10.0791 127.289 10.1359C127.232 10.309 127.233 10.4865 127.231 10.6631C127.231 10.8044 127.25 10.9459 127.26 11.0873C127.273 10.7968 127.374 10.5317 127.474 10.2648C127.461 10.3887 127.448 10.5128 127.435 10.6367C127.494 10.5164 127.521 10.3925 127.554 10.2703C127.637 9.9675 127.722 9.66543 127.806 9.3626C127.816 9.32566 127.829 9.2867 127.826 9.25001C127.824 9.22337 127.804 9.21885 127.839 9.18492C127.91 9.11606 127.961 9.03137 127.979 8.91878C128.014 8.70718 128.105 8.51041 128.213 8.32494C128.225 8.32821 128.236 8.33147 128.248 8.33474C128.212 8.48603 128.175 8.63732 128.139 8.78861C128.191 8.73508 128.224 8.67451 128.249 8.61043C128.334 8.38475 128.404 8.15355 128.492 7.92812C128.627 7.58232 128.731 7.2247 128.853 6.87387C128.941 6.62282 129.047 6.37779 129.125 6.12397C129.202 5.87441 129.258 5.61808 129.324 5.36501C129.425 4.9795 129.508 4.58922 129.597 4.20094C129.667 3.89836 129.736 3.59554 129.804 3.29246C129.815 3.24345 129.846 3.18741 129.762 3.13765C129.728 3.21329 129.69 3.27989 129.668 3.35151C129.617 3.52115 129.575 3.6938 129.527 3.86469C129.51 3.92827 129.486 3.99009 129.465 4.05292C129.457 4.05041 129.448 4.04815 129.44 4.04563C129.448 3.98833 129.455 3.93104 129.463 3.87374C129.191 4.78524 129.006 5.7186 128.682 6.61377C128.678 6.5806 128.683 6.54918 128.691 6.51877C128.865 5.84853 129.041 5.17829 129.215 4.50754C129.23 4.452 129.23 4.39319 129.238 4.3359C129.2 4.36429 129.189 4.39495 129.181 4.42662C129.049 4.92296 128.918 5.41954 128.785 5.91588C128.771 5.96941 128.756 6.02344 128.732 6.07295C128.718 6.1021 128.686 6.12296 128.651 6.15915C128.64 6.1016 128.633 6.06516 128.621 6.00334C128.59 6.10637 128.561 6.18302 128.545 6.26194C128.528 6.33984 128.533 6.42302 128.511 6.49892C128.49 6.57406 128.44 6.64066 128.417 6.71555C128.341 6.97038 128.272 7.22747 128.2 7.4833C128.177 7.56221 128.151 7.64012 128.126 7.71828C128.489 6.17775 128.893 4.64853 129.266 3.11101C129.234 3.15273 129.214 3.19746 129.201 3.2442C129.122 3.52693 129.046 3.81066 128.966 4.09313C128.95 4.14867 128.921 4.20094 128.898 4.25472ZM131.206 1.60667C131.214 2.07813 131.114 2.49354 130.947 2.88936C130.783 3.27713 130.606 3.66113 130.408 4.03181C129.587 5.56254 128.921 7.15534 128.423 8.81977C128.229 9.47066 128.098 10.1324 128.005 10.8034C127.936 11.3052 127.816 11.795 127.639 12.2692C127.587 12.4085 127.524 12.5482 127.441 12.6706C127.214 13.0056 126.805 13.0048 126.565 12.6769C126.42 12.4796 126.356 12.2489 126.309 12.0144C126.022 10.5955 126.035 9.18341 126.384 7.77356C126.684 6.5625 126.966 5.34692 127.253 4.13284C127.391 3.54904 127.476 2.95671 127.538 2.35984C127.577 1.97333 127.64 1.58983 127.769 1.22116C127.809 1.10631 127.855 0.992216 127.91 0.88365C128.203 0.300611 128.691 0.0281905 129.331 0.00180294C129.617 -0.00975731 129.895 0.0342224 130.163 0.135249C130.878 0.404151 131.207 0.880132 131.206 1.60667Z" fill="white"/>
<path d="M125.944 15.8143C125.954 15.8045 125.963 15.7947 125.973 15.7849L125.897 15.7188C125.891 15.7263 125.884 15.7341 125.877 15.7416C125.9 15.766 125.922 15.7901 125.944 15.8143ZM126.606 14.6007C126.582 14.7092 126.651 14.7321 126.704 14.7645C126.676 14.7173 126.648 14.67 126.606 14.6007ZM126.301 14.8118C126.315 14.8947 126.326 14.9568 126.337 15.0174C126.388 14.9671 126.426 14.9304 126.477 14.8801C126.422 14.859 126.374 14.8404 126.301 14.8118ZM127.304 16.106C127.315 16.105 127.325 16.104 127.337 16.1033C127.324 15.8178 127.314 15.5323 127.297 15.247C127.294 15.2001 127.259 15.1551 127.238 15.1091C127.226 15.1134 127.215 15.1179 127.203 15.1221C127.204 15.4534 127.25 15.7801 127.304 16.106ZM127.947 16.0367C127.939 16.1596 127.939 16.3659 127.906 16.5667C127.854 16.8821 127.661 17.104 127.365 17.211C126.776 17.4247 126.218 17.3407 125.711 16.9738C125.41 16.7567 125.337 16.4375 125.414 16.097C125.545 15.5215 125.808 15.0131 126.276 14.6356C126.4 14.5361 126.543 14.4529 126.69 14.3941C127.075 14.2406 127.42 14.3632 127.675 14.6896C127.819 14.8744 127.88 15.0945 127.902 15.3234C127.922 15.533 127.929 15.7439 127.947 16.0367Z" fill="white"/>
<path d="M118.836 2.60149C119.436 2.52358 120.033 2.40647 120.642 2.4507C120.04 2.50096 119.438 2.55123 118.836 2.60149Z" fill="white"/>
<path d="M118.682 2.61794H118.52C118.52 2.61467 118.52 2.61141 118.519 2.60789L118.678 2.59985C118.679 2.60588 118.68 2.61191 118.682 2.61794Z" fill="white"/>
<path d="M119.039 3.29536C119.225 3.27425 119.411 3.25037 119.597 3.23253C119.68 3.22474 119.764 3.22825 119.847 3.22675C119.578 3.24962 119.308 3.27249 119.039 3.29536Z" fill="white"/>
<path d="M93.0603 9.95633C93.0598 9.98297 93.0663 10.0124 93.0575 10.036C92.8401 10.6278 92.6263 11.2212 92.4004 11.8097C92.2581 12.1807 92.0968 12.5443 91.9307 12.9092C91.9651 12.7863 91.9897 12.6597 92.0357 12.5413C92.3556 11.7105 92.6801 10.8814 93.0042 10.0521C93.0176 10.0187 93.044 9.99 93.0641 9.95909L93.0603 9.95633Z" fill="white"/>
<path d="M94.2595 7.87473C94.2484 8.05743 94.2258 8.12805 94.123 8.28285C94.1328 8.14187 94.1374 8.02878 94.1502 7.91644C94.1572 7.85663 94.2123 7.88126 94.2595 7.87473Z" fill="white"/>
<path d="M91.9701 12.5311C91.944 12.6082 91.9181 12.6856 91.8917 12.7628C91.8885 12.6746 91.8955 12.5901 91.9739 12.5348L91.9701 12.5311Z" fill="white"/>
<path d="M91.9751 12.5304C91.9538 12.4578 91.9828 12.4017 92.0336 12.353L92.0298 12.3498C92.0105 12.4085 91.9905 12.4674 91.9713 12.5264L91.9751 12.5304Z" fill="white"/>
<path d="M91.2606 13.6737C91.2807 13.5874 91.3008 13.5008 91.3206 13.4144C91.3334 13.4175 91.3461 13.4203 91.3587 13.4233L91.2962 13.6822L91.2606 13.6737Z" fill="white"/>
<path d="M128.237 6.62918C128.183 6.84154 128.131 7.05465 128.073 7.26625C128.055 7.33084 128.022 7.39115 127.996 7.45348L127.999 7.45624C128.08 7.18156 128.16 6.90663 128.24 6.63195L128.237 6.62918Z" fill="white"/>
<path d="M127.998 7.45676C127.997 7.4942 128.004 7.53391 127.994 7.56884C127.934 7.78974 127.87 8.00964 127.806 8.22903C127.8 8.2519 127.78 8.2705 127.766 8.2911L127.769 8.29362C127.792 8.19234 127.809 8.08981 127.837 7.99054C127.888 7.81261 127.946 7.63644 128.001 7.45952L127.998 7.45676Z" fill="white"/>
<path d="M127.766 8.29011C127.749 8.38083 127.734 8.47225 127.713 8.56192C127.687 8.67268 127.654 8.78194 127.617 8.91849C127.604 8.77941 127.685 8.46807 127.769 8.29269L127.766 8.29011Z" fill="white"/>
<path d="M128.301 6.38787C128.359 6.1912 128.418 5.99461 128.476 5.79771L128.473 5.79491C128.437 5.99844 128.399 6.20113 128.298 6.38506L128.301 6.38787Z" fill="white"/>
<path d="M129.297 4.93398C129.271 4.8317 129.278 4.73343 129.354 4.61456C129.38 4.75128 129.351 4.84351 129.297 4.93398Z" fill="white"/>
<path d="M128.637 6.21121V6.44091C128.563 6.3429 128.563 6.3429 128.637 6.21121Z" fill="white"/>
<path d="M128.598 5.32539L128.705 4.96564L128.709 4.96692L128.602 5.32668L128.598 5.32539Z" fill="white"/>
<path d="M128.474 5.80091C128.466 5.71442 128.478 5.63422 128.545 5.57115L128.542 5.56786C128.518 5.64448 128.494 5.7211 128.471 5.79772L128.474 5.80091Z" fill="white"/>
<path d="M128.545 5.56437C128.52 5.4727 128.559 5.39587 128.602 5.32L128.598 5.31664C128.579 5.39811 128.56 5.47944 128.541 5.56096L128.545 5.56437Z" fill="white"/>
<path d="M128.764 4.71619C128.787 4.63957 128.811 4.56289 128.834 4.48589L128.83 4.48247C128.841 4.56928 128.83 4.64986 128.759 4.7124L128.764 4.71619Z" fill="white"/>
<path d="M128.707 4.9665C128.725 4.88438 128.744 4.80277 128.762 4.7206L128.758 4.71688C128.785 4.80879 128.746 4.88656 128.703 4.96342L128.707 4.9665Z" fill="white"/>
<path d="M127.132 9.48813C127.138 9.43952 127.143 9.39105 127.15 9.34244C127.164 9.34484 127.178 9.3469 127.192 9.3492C127.182 9.39709 127.173 9.44508 127.163 9.49311C127.153 9.49129 127.142 9.48971 127.132 9.48813Z" fill="white"/>
</svg>
