<svg width="40" height="40" viewBox="0 0 40 40" fill="none" xmlns="http://www.w3.org/2000/svg">
<path d="M36.1314 20.6405C36.4411 20.2694 36.4411 19.7299 36.1314 19.3588L33.234 15.8882C33.0645 15.6851 32.9824 15.4232 33.0056 15.1597L33.4088 10.5744C33.4523 10.0802 33.1268 9.62885 32.6442 9.51399L28.4399 8.51352C28.1689 8.44903 27.9371 8.27444 27.8003 8.03179L25.5997 4.12854C25.3457 3.67799 24.79 3.49548 24.3183 3.70768L20.4099 5.46591C20.149 5.58328 19.8503 5.58328 19.5894 5.46591L15.6799 3.70717C15.2087 3.49519 14.6536 3.67711 14.3992 4.12687L12.2 8.01547C12.0626 8.25836 11.83 8.43281 11.5584 8.49667L7.35785 9.48405C6.87395 9.5978 6.54706 10.0497 6.5905 10.5449L6.99399 15.145C7.01704 15.4078 6.93532 15.669 6.76661 15.8718L3.8659 19.359C3.55721 19.7301 3.55768 20.2688 3.86703 20.6394L6.76539 24.1113C6.93485 24.3143 7.01701 24.5761 6.9939 24.8395L6.59029 29.441C6.54694 29.9351 6.87239 30.3864 7.35496 30.5012L11.5603 31.5019C11.8308 31.5663 12.0623 31.7404 12.1992 31.9825L14.398 35.8704C14.6529 36.3211 15.2095 36.5027 15.6811 36.2891L19.5885 34.5193C19.8499 34.4008 20.1496 34.4005 20.4113 34.5182L24.3195 36.2763C24.7907 36.4883 25.3458 36.3064 25.6002 35.8566L27.8001 31.9666C27.937 31.7245 28.1685 31.5504 28.4391 31.486L32.6442 30.4854C33.1268 30.3705 33.4523 29.9191 33.4088 29.4249L33.0056 24.8397C32.9824 24.5762 33.0645 24.3142 33.234 24.1112L36.1314 20.6405Z" fill="#30C5FF"/>
<path fill-rule="evenodd" clip-rule="evenodd" d="M27.0731 14.0583C27.5927 14.5129 27.6453 15.3026 27.1907 15.8222L18.4407 25.8222C18.2129 26.0825 17.8874 26.2368 17.5416 26.2483C17.1958 26.2599 16.8607 26.1276 16.6161 25.8829L12.8661 22.1329C12.378 21.6448 12.378 20.8533 12.8661 20.3652C13.3543 19.877 14.1457 19.877 14.6339 20.3652L17.4391 23.1704L25.3093 14.1759C25.7639 13.6564 26.5536 13.6037 27.0731 14.0583Z" fill="white"/>
</svg>
