<svg width="25" height="24" viewBox="0 0 25 24" fill="none" xmlns="http://www.w3.org/2000/svg">
<path d="M20 3.74902H5C4.40326 3.74902 3.83097 3.98608 3.40901 4.40803C2.98705 4.82999 2.75 5.40229 2.75 5.99902V19.499C2.75 20.0958 2.98705 20.6681 3.40901 21.09C3.83097 21.512 4.40326 21.749 5 21.749H20C20.5967 21.749 21.169 21.512 21.591 21.09C22.0129 20.6681 22.25 20.0958 22.25 19.499V5.99902C22.25 5.40229 22.0129 4.82999 21.591 4.40803C21.169 3.98608 20.5967 3.74902 20 3.74902V3.74902Z" stroke="black" stroke-width="1.5" stroke-linejoin="round"/>
<path d="M19.148 3.74902H5.852C4.142 3.74902 2.75 5.16202 2.75 6.89902V9.74902H3.5C3.5 8.99902 4.25 8.24902 5 8.24902H20C20.75 8.24902 21.5 8.99902 21.5 9.74902H22.25V6.89902C22.25 5.16202 20.858 3.74902 19.148 3.74902Z" fill="black"/>
<path d="M14.375 11.999C14.6734 11.999 14.9595 11.8805 15.1705 11.6695C15.3815 11.4585 15.5 11.1724 15.5 10.874C15.5 10.5757 15.3815 10.2895 15.1705 10.0785C14.9595 9.86755 14.6734 9.74902 14.375 9.74902C14.0766 9.74902 13.7905 9.86755 13.5795 10.0785C13.3685 10.2895 13.25 10.5757 13.25 10.874C13.25 11.1724 13.3685 11.4585 13.5795 11.6695C13.7905 11.8805 14.0766 11.999 14.375 11.999Z" fill="black"/>
<path d="M18.125 11.999C18.4234 11.999 18.7095 11.8805 18.9205 11.6695C19.1315 11.4585 19.25 11.1724 19.25 10.874C19.25 10.5757 19.1315 10.2895 18.9205 10.0785C18.7095 9.86755 18.4234 9.74902 18.125 9.74902C17.8266 9.74902 17.5405 9.86755 17.3295 10.0785C17.1185 10.2895 17 10.5757 17 10.874C17 11.1724 17.1185 11.4585 17.3295 11.6695C17.5405 11.8805 17.8266 11.999 18.125 11.999Z" fill="black"/>
<path d="M14.375 15.748C14.6734 15.748 14.9595 15.6295 15.1705 15.4185C15.3815 15.2076 15.5 14.9214 15.5 14.623C15.5 14.3247 15.3815 14.0385 15.1705 13.8276C14.9595 13.6166 14.6734 13.498 14.375 13.498C14.0766 13.498 13.7905 13.6166 13.5795 13.8276C13.3685 14.0385 13.25 14.3247 13.25 14.623C13.25 14.9214 13.3685 15.2076 13.5795 15.4185C13.7905 15.6295 14.0766 15.748 14.375 15.748Z" fill="black"/>
<path d="M18.125 15.748C18.4234 15.748 18.7095 15.6295 18.9205 15.4185C19.1315 15.2076 19.25 14.9214 19.25 14.623C19.25 14.3247 19.1315 14.0385 18.9205 13.8276C18.7095 13.6166 18.4234 13.498 18.125 13.498C17.8266 13.498 17.5405 13.6166 17.3295 13.8276C17.1185 14.0385 17 14.3247 17 14.623C17 14.9214 17.1185 15.2076 17.3295 15.4185C17.5405 15.6295 17.8266 15.748 18.125 15.748Z" fill="black"/>
<path d="M6.875 15.748C7.17337 15.748 7.45952 15.6295 7.6705 15.4185C7.88147 15.2076 8 14.9214 8 14.623C8 14.3247 7.88147 14.0385 7.6705 13.8276C7.45952 13.6166 7.17337 13.498 6.875 13.498C6.57663 13.498 6.29048 13.6166 6.0795 13.8276C5.86853 14.0385 5.75 14.3247 5.75 14.623C5.75 14.9214 5.86853 15.2076 6.0795 15.4185C6.29048 15.6295 6.57663 15.748 6.875 15.748Z" fill="black"/>
<path d="M10.625 15.748C10.9234 15.748 11.2095 15.6295 11.4205 15.4185C11.6315 15.2076 11.75 14.9214 11.75 14.623C11.75 14.3247 11.6315 14.0385 11.4205 13.8276C11.2095 13.6166 10.9234 13.498 10.625 13.498C10.3266 13.498 10.0405 13.6166 9.8295 13.8276C9.61853 14.0385 9.5 14.3247 9.5 14.623C9.5 14.9214 9.61853 15.2076 9.8295 15.4185C10.0405 15.6295 10.3266 15.748 10.625 15.748Z" fill="black"/>
<path d="M6.875 19.499C7.02274 19.499 7.16903 19.4699 7.30552 19.4134C7.44201 19.3569 7.56603 19.274 7.6705 19.1695C7.77496 19.0651 7.85783 18.941 7.91436 18.8045C7.9709 18.6681 8 18.5218 8 18.374C8 18.2263 7.9709 18.08 7.91436 17.9435C7.85783 17.807 7.77496 17.683 7.6705 17.5785C7.56603 17.4741 7.44201 17.3912 7.30552 17.3347C7.16903 17.2781 7.02274 17.249 6.875 17.249C6.57663 17.249 6.29048 17.3675 6.0795 17.5785C5.86853 17.7895 5.75 18.0757 5.75 18.374C5.75 18.6724 5.86853 18.9585 6.0795 19.1695C6.29048 19.3805 6.57663 19.499 6.875 19.499Z" fill="black"/>
<path d="M10.625 19.499C10.7727 19.499 10.919 19.4699 11.0555 19.4134C11.192 19.3569 11.316 19.274 11.4205 19.1695C11.525 19.0651 11.6078 18.941 11.6644 18.8045C11.7209 18.6681 11.75 18.5218 11.75 18.374C11.75 18.2263 11.7209 18.08 11.6644 17.9435C11.6078 17.807 11.525 17.683 11.4205 17.5785C11.316 17.4741 11.192 17.3912 11.0555 17.3347C10.919 17.2781 10.7727 17.249 10.625 17.249C10.3266 17.249 10.0405 17.3675 9.8295 17.5785C9.61853 17.7895 9.5 18.0757 9.5 18.374C9.5 18.6724 9.61853 18.9585 9.8295 19.1695C10.0405 19.3805 10.3266 19.499 10.625 19.499Z" fill="black"/>
<path d="M14.375 19.499C14.5227 19.499 14.669 19.4699 14.8055 19.4134C14.942 19.3569 15.066 19.274 15.1705 19.1695C15.275 19.0651 15.3578 18.941 15.4144 18.8045C15.4709 18.6681 15.5 18.5218 15.5 18.374C15.5 18.2263 15.4709 18.08 15.4144 17.9435C15.3578 17.807 15.275 17.683 15.1705 17.5785C15.066 17.4741 14.942 17.3912 14.8055 17.3347C14.669 17.2781 14.5227 17.249 14.375 17.249C14.0766 17.249 13.7905 17.3675 13.5795 17.5785C13.3685 17.7895 13.25 18.0757 13.25 18.374C13.25 18.6724 13.3685 18.9585 13.5795 19.1695C13.7905 19.3805 14.0766 19.499 14.375 19.499Z" fill="black"/>
<path d="M6.5 2.24902V3.74902" stroke="black" stroke-width="1.5" stroke-linecap="round" stroke-linejoin="round"/>
<path d="M18.5 2.24902V3.74902" stroke="black" stroke-width="1.5" stroke-linecap="round" stroke-linejoin="round"/>
</svg>
