<svg width="24" height="24" viewBox="0 0 24 24" fill="none" xmlns="http://www.w3.org/2000/svg">
<path d="M13.5901 11.9989L18.0441 7.54587C18.1526 7.44236 18.2394 7.31819 18.2993 7.18068C18.3592 7.04316 18.391 6.89505 18.3929 6.74506C18.3948 6.59508 18.3667 6.44622 18.3102 6.30725C18.2538 6.16827 18.1701 6.04198 18.0642 5.93578C17.9583 5.82958 17.8322 5.74562 17.6933 5.68882C17.5545 5.63202 17.4057 5.60354 17.2557 5.60504C17.1057 5.60654 16.9576 5.63799 16.8199 5.69755C16.6822 5.75711 16.5578 5.84358 16.4541 5.95187L12.0001 10.4049L7.54705 5.95187C7.33568 5.7405 7.04899 5.62175 6.75005 5.62175C6.45112 5.62175 6.16443 5.7405 5.95305 5.95187C5.74168 6.16325 5.62292 6.44994 5.62292 6.74887C5.62292 7.04781 5.74168 7.3345 5.95305 7.54587L10.4061 11.9989L5.95305 16.4519C5.74168 16.6633 5.62292 16.9499 5.62292 17.2489C5.62292 17.5478 5.74168 17.8345 5.95305 18.0459C6.16443 18.2573 6.45112 18.376 6.75005 18.376C7.04899 18.376 7.33568 18.2573 7.54705 18.0459L12.0001 13.5929L16.4531 18.0459C16.6644 18.2573 16.9511 18.376 17.2501 18.376C17.549 18.376 17.8357 18.2573 18.0471 18.0459C18.2584 17.8345 18.3772 17.5478 18.3772 17.2489C18.3772 16.9499 18.2584 16.6633 18.0471 16.4519L13.5901 11.9999V11.9989Z" fill="black"/>
</svg>
