<svg width="16" height="16" viewBox="0 0 16 16" fill="none" xmlns="http://www.w3.org/2000/svg">
<path d="M9.06044 7.99941L12.0298 5.03075C12.1021 4.96173 12.16 4.87896 12.1999 4.78728C12.2399 4.6956 12.2611 4.59687 12.2623 4.49687C12.2636 4.39688 12.2449 4.29765 12.2072 4.205C12.1696 4.11235 12.1138 4.02815 12.0432 3.95735C11.9726 3.88655 11.8885 3.83057 11.796 3.79271C11.7034 3.75484 11.6042 3.73585 11.5042 3.73685C11.4042 3.73785 11.3054 3.75882 11.2137 3.79853C11.1219 3.83824 11.039 3.89588 10.9698 3.96808L8.00044 6.93674L5.03178 3.96808C4.89086 3.82716 4.69973 3.74799 4.50044 3.74799C4.30115 3.74799 4.11003 3.82716 3.96911 3.96808C3.82819 4.109 3.74902 4.30012 3.74902 4.49941C3.74902 4.6987 3.82819 4.88983 3.96911 5.03075L6.93778 7.99941L3.96911 10.9681C3.82819 11.109 3.74902 11.3001 3.74902 11.4994C3.74902 11.6987 3.82819 11.8898 3.96911 12.0307C4.11003 12.1717 4.30115 12.2508 4.50044 12.2508C4.69973 12.2508 4.89086 12.1717 5.03178 12.0307L8.00044 9.06208L10.9691 12.0307C11.11 12.1717 11.3012 12.2508 11.5004 12.2508C11.6997 12.2508 11.8909 12.1717 12.0318 12.0307C12.1727 11.8898 12.2519 11.6987 12.2519 11.4994C12.2519 11.3001 12.1727 11.109 12.0318 10.9681L9.06044 8.00008V7.99941Z" fill="#C6217F"/>
</svg>
