<svg width="120" height="120" viewBox="0 0 120 120" fill="none" xmlns="http://www.w3.org/2000/svg">
<rect width="120" height="120" rx="60" fill="#26262C"/>
<path d="M60 69C66.0751 69 71 64.0751 71 58C71 51.9249 66.0751 47 60 47C53.9249 47 49 51.9249 49 58C49 64.0751 53.9249 69 60 69Z" fill="white"/>
<path d="M59.9999 34C54.8576 34 49.8307 35.5249 45.5551 38.3818C41.2794 41.2387 37.9469 45.2994 35.979 50.0502C34.0111 54.8011 33.4963 60.0288 34.4995 65.0723C35.5027 70.1159 37.9789 74.7486 41.6151 78.3848C45.2513 82.0209 49.884 84.4972 54.9275 85.5004C59.971 86.5036 65.1988 85.9887 69.9497 84.0209C74.7005 82.053 78.7612 78.7205 81.6181 74.4448C84.475 70.1691 85.9999 65.1423 85.9999 60C85.9921 53.1068 83.2503 46.4981 78.376 41.6238C73.5018 36.7496 66.8931 34.0078 59.9999 34ZM76.4394 74.6025C74.8339 72.2765 72.7519 70.3186 70.3317 68.8589C67.5486 71.5168 63.8483 73 59.9999 73C56.1515 73 52.4511 71.5168 49.6681 68.8589C47.2479 70.3186 45.1659 72.2765 43.5603 74.6025C40.7416 71.433 38.8992 67.5162 38.255 63.3238C37.6108 59.1314 38.1923 54.8421 39.9295 50.9725C41.6666 47.103 44.4853 43.8181 48.0462 41.5134C51.6071 39.2087 55.7582 37.9825 59.9999 37.9825C64.2415 37.9825 68.3927 39.2087 71.9535 41.5134C75.5144 43.8181 78.3331 47.103 80.0703 50.9725C81.8074 54.8421 82.3889 59.1314 81.7447 63.3238C81.1005 67.5162 79.2581 71.433 76.4394 74.6025Z" fill="white"/>
</svg>
