<svg width="164" height="95" viewBox="0 0 164 95" fill="none" xmlns="http://www.w3.org/2000/svg">
<rect width="164" height="95" rx="3" fill="#ECECF0" fill-opacity="0.5"/>
<path d="M55.7421 62.46L57.1941 58.464H57.2181L58.6461 62.46H55.7421ZM56.5941 57.432L53.2581 66H54.4221L55.3821 63.42H59.0061L59.9421 66H61.2021L57.8541 57.432H56.5941ZM62.6233 62.952C62.6233 62.648 62.6553 62.352 62.7193 62.064C62.7833 61.776 62.8873 61.52 63.0313 61.296C63.1753 61.072 63.3673 60.892 63.6073 60.756C63.8473 60.62 64.1393 60.552 64.4833 60.552C64.8353 60.552 65.1353 60.62 65.3833 60.756C65.6313 60.884 65.8313 61.056 65.9833 61.272C66.1433 61.488 66.2593 61.74 66.3313 62.028C66.4033 62.308 66.4393 62.6 66.4393 62.904C66.4393 63.192 66.4033 63.476 66.3313 63.756C66.2673 64.036 66.1593 64.288 66.0073 64.512C65.8553 64.728 65.6593 64.904 65.4193 65.04C65.1793 65.176 64.8873 65.244 64.5433 65.244C64.2153 65.244 63.9273 65.18 63.6793 65.052C63.4393 64.924 63.2393 64.752 63.0793 64.536C62.9273 64.32 62.8113 64.076 62.7313 63.804C62.6593 63.524 62.6233 63.24 62.6233 62.952ZM67.4233 66V57.432H66.4033V60.624H66.3793C66.2673 60.44 66.1273 60.288 65.9593 60.168C65.7993 60.04 65.6273 59.94 65.4433 59.868C65.2593 59.788 65.0753 59.732 64.8913 59.7C64.7073 59.668 64.5353 59.652 64.3753 59.652C63.9033 59.652 63.4873 59.74 63.1273 59.916C62.7753 60.084 62.4793 60.316 62.2393 60.612C62.0073 60.9 61.8313 61.24 61.7113 61.632C61.5993 62.024 61.5433 62.44 61.5433 62.88C61.5433 63.32 61.6033 63.736 61.7233 64.128C61.8433 64.52 62.0193 64.864 62.2513 65.16C62.4913 65.456 62.7873 65.692 63.1393 65.868C63.4993 66.044 63.9193 66.132 64.3993 66.132C64.8313 66.132 65.2273 66.056 65.5873 65.904C65.9473 65.752 66.2113 65.504 66.3793 65.16H66.4033V66H67.4233ZM69.7366 62.952C69.7366 62.648 69.7686 62.352 69.8326 62.064C69.8966 61.776 70.0006 61.52 70.1446 61.296C70.2886 61.072 70.4806 60.892 70.7206 60.756C70.9606 60.62 71.2526 60.552 71.5966 60.552C71.9486 60.552 72.2486 60.62 72.4966 60.756C72.7446 60.884 72.9446 61.056 73.0966 61.272C73.2566 61.488 73.3726 61.74 73.4446 62.028C73.5166 62.308 73.5526 62.6 73.5526 62.904C73.5526 63.192 73.5166 63.476 73.4446 63.756C73.3806 64.036 73.2726 64.288 73.1206 64.512C72.9686 64.728 72.7726 64.904 72.5326 65.04C72.2926 65.176 72.0006 65.244 71.6566 65.244C71.3286 65.244 71.0406 65.18 70.7926 65.052C70.5526 64.924 70.3526 64.752 70.1926 64.536C70.0406 64.32 69.9246 64.076 69.8446 63.804C69.7726 63.524 69.7366 63.24 69.7366 62.952ZM74.5366 66V57.432H73.5166V60.624H73.4926C73.3806 60.44 73.2406 60.288 73.0726 60.168C72.9126 60.04 72.7406 59.94 72.5566 59.868C72.3726 59.788 72.1886 59.732 72.0046 59.7C71.8206 59.668 71.6486 59.652 71.4886 59.652C71.0166 59.652 70.6006 59.74 70.2406 59.916C69.8886 60.084 69.5926 60.316 69.3526 60.612C69.1206 60.9 68.9446 61.24 68.8246 61.632C68.7126 62.024 68.6566 62.44 68.6566 62.88C68.6566 63.32 68.7166 63.736 68.8366 64.128C68.9566 64.52 69.1326 64.864 69.3646 65.16C69.6046 65.456 69.9006 65.692 70.2526 65.868C70.6126 66.044 71.0326 66.132 71.5126 66.132C71.9446 66.132 72.3406 66.056 72.7006 65.904C73.0606 65.752 73.3246 65.504 73.4926 65.16H73.5166V66H74.5366ZM85.6377 60.012H86.7777C86.7137 59.556 86.5777 59.156 86.3697 58.812C86.1617 58.46 85.9017 58.168 85.5897 57.936C85.2777 57.704 84.9217 57.528 84.5217 57.408C84.1217 57.288 83.6977 57.228 83.2497 57.228C82.5937 57.228 82.0097 57.348 81.4977 57.588C80.9937 57.82 80.5697 58.14 80.2257 58.548C79.8897 58.956 79.6337 59.436 79.4577 59.988C79.2817 60.532 79.1937 61.116 79.1937 61.74C79.1937 62.364 79.2737 62.948 79.4337 63.492C79.6017 64.036 79.8497 64.508 80.1777 64.908C80.5057 65.308 80.9177 65.624 81.4137 65.856C81.9097 66.08 82.4897 66.192 83.1537 66.192C84.2497 66.192 85.1137 65.892 85.7457 65.292C86.3777 64.692 86.7497 63.852 86.8617 62.772H85.7217C85.6977 63.124 85.6257 63.452 85.5057 63.756C85.3857 64.06 85.2177 64.324 85.0017 64.548C84.7937 64.764 84.5417 64.936 84.2457 65.064C83.9577 65.184 83.6257 65.244 83.2497 65.244C82.7377 65.244 82.2977 65.148 81.9297 64.956C81.5617 64.764 81.2577 64.508 81.0177 64.188C80.7857 63.86 80.6137 63.48 80.5017 63.048C80.3897 62.608 80.3337 62.144 80.3337 61.656C80.3337 61.208 80.3897 60.776 80.5017 60.36C80.6137 59.944 80.7857 59.576 81.0177 59.256C81.2577 58.928 81.5577 58.668 81.9177 58.476C82.2857 58.284 82.7257 58.188 83.2377 58.188C83.8377 58.188 84.3537 58.34 84.7857 58.644C85.2257 58.948 85.5097 59.404 85.6377 60.012ZM88.8499 62.904C88.8499 62.528 88.8979 62.196 88.9939 61.908C89.0979 61.612 89.2379 61.364 89.4139 61.164C89.5899 60.964 89.7939 60.812 90.0259 60.708C90.2659 60.604 90.5179 60.552 90.7819 60.552C91.0459 60.552 91.2939 60.604 91.5259 60.708C91.7659 60.812 91.9739 60.964 92.1499 61.164C92.3259 61.364 92.4619 61.612 92.5579 61.908C92.6619 62.196 92.7139 62.528 92.7139 62.904C92.7139 63.28 92.6619 63.616 92.5579 63.912C92.4619 64.2 92.3259 64.444 92.1499 64.644C91.9739 64.836 91.7659 64.984 91.5259 65.088C91.2939 65.192 91.0459 65.244 90.7819 65.244C90.5179 65.244 90.2659 65.192 90.0259 65.088C89.7939 64.984 89.5899 64.836 89.4139 64.644C89.2379 64.444 89.0979 64.2 88.9939 63.912C88.8979 63.616 88.8499 63.28 88.8499 62.904ZM87.7699 62.904C87.7699 63.36 87.8339 63.784 87.9619 64.176C88.0899 64.568 88.2819 64.912 88.5379 65.208C88.7939 65.496 89.1099 65.724 89.4859 65.892C89.8619 66.052 90.2939 66.132 90.7819 66.132C91.2779 66.132 91.7099 66.052 92.0779 65.892C92.4539 65.724 92.7699 65.496 93.0259 65.208C93.2819 64.912 93.4739 64.568 93.6019 64.176C93.7299 63.784 93.7939 63.36 93.7939 62.904C93.7939 62.448 93.7299 62.024 93.6019 61.632C93.4739 61.232 93.2819 60.888 93.0259 60.6C92.7699 60.304 92.4539 60.072 92.0779 59.904C91.7099 59.736 91.2779 59.652 90.7819 59.652C90.2939 59.652 89.8619 59.736 89.4859 59.904C89.1099 60.072 88.7939 60.304 88.5379 60.6C88.2819 60.888 88.0899 61.232 87.9619 61.632C87.8339 62.024 87.7699 62.448 87.7699 62.904ZM97.7925 66L100.061 59.796H98.9925L97.3005 64.968H97.2765L95.5365 59.796H94.3965L96.7005 66H97.7925ZM105.305 62.304H101.741C101.757 62.064 101.809 61.84 101.897 61.632C101.985 61.416 102.105 61.228 102.257 61.068C102.409 60.908 102.589 60.784 102.797 60.696C103.013 60.6 103.253 60.552 103.517 60.552C103.773 60.552 104.005 60.6 104.213 60.696C104.429 60.784 104.613 60.908 104.765 61.068C104.925 61.22 105.049 61.404 105.137 61.62C105.233 61.836 105.289 62.064 105.305 62.304ZM106.289 64.032H105.281C105.193 64.44 105.009 64.744 104.729 64.944C104.457 65.144 104.105 65.244 103.673 65.244C103.337 65.244 103.045 65.188 102.797 65.076C102.549 64.964 102.345 64.816 102.185 64.632C102.025 64.44 101.909 64.224 101.837 63.984C101.765 63.736 101.733 63.476 101.741 63.204H106.385C106.401 62.828 106.365 62.432 106.277 62.016C106.197 61.6 106.045 61.216 105.821 60.864C105.605 60.512 105.313 60.224 104.945 60C104.585 59.768 104.129 59.652 103.577 59.652C103.153 59.652 102.761 59.732 102.401 59.892C102.049 60.052 101.741 60.276 101.477 60.564C101.221 60.852 101.021 61.192 100.877 61.584C100.733 61.976 100.661 62.408 100.661 62.88C100.677 63.352 100.745 63.788 100.865 64.188C100.993 64.588 101.181 64.932 101.429 65.22C101.677 65.508 101.981 65.732 102.341 65.892C102.709 66.052 103.141 66.132 103.637 66.132C104.341 66.132 104.925 65.956 105.389 65.604C105.853 65.252 106.153 64.728 106.289 64.032ZM107.406 59.796V66H108.426V63.24C108.426 62.84 108.466 62.488 108.546 62.184C108.626 61.872 108.754 61.608 108.93 61.392C109.106 61.176 109.338 61.012 109.626 60.9C109.914 60.788 110.262 60.732 110.67 60.732V59.652C110.118 59.636 109.662 59.748 109.302 59.988C108.942 60.228 108.638 60.6 108.39 61.104H108.366V59.796H107.406Z" fill="#C6217F"/>
<path d="M83 44.75C83.7956 44.75 84.5587 44.4339 85.1213 43.8713C85.6839 43.3087 86 42.5456 86 41.75C86 40.9544 85.6839 40.1913 85.1213 39.6287C84.5587 39.0661 83.7956 38.75 83 38.75C82.2044 38.75 81.4413 39.0661 80.8787 39.6287C80.3161 40.1913 80 40.9544 80 41.75C80 42.5456 80.3161 43.3087 80.8787 43.8713C81.4413 44.4339 82.2044 44.75 83 44.75Z" fill="#C6217F"/>
<path d="M91.251 35.751H88.486C88.346 35.751 88.171 35.66 88.036 35.517L86.819 33.597C86.7997 33.5668 86.7783 33.5381 86.755 33.511C86.335 33.021 85.767 32.751 85.158 32.751H80.845C80.236 32.751 79.668 33.021 79.248 33.511C79.2245 33.5384 79.2031 33.5674 79.184 33.598L77.968 35.519C77.864 35.633 77.718 35.754 77.564 35.754V35.379C77.564 35.1801 77.4849 34.9893 77.3443 34.8486C77.2036 34.708 77.0129 34.629 76.814 34.629H75.689C75.49 34.629 75.2993 34.708 75.1586 34.8486C75.018 34.9893 74.939 35.1801 74.939 35.379V35.754H74.752C74.1554 35.7545 73.5834 35.9917 73.1615 36.4136C72.7397 36.8354 72.5025 37.4074 72.502 38.004V47C72.5025 47.5966 72.7397 48.1685 73.1615 48.5904C73.5834 49.0122 74.1554 49.2494 74.752 49.25H91.252C91.8485 49.2494 92.4205 49.0122 92.8424 48.5904C93.2642 48.1685 93.5014 47.5966 93.502 47V38C93.5014 37.4034 93.2642 36.8314 92.8424 36.4096C92.4205 35.9877 91.8485 35.7505 91.252 35.75L91.251 35.751ZM83.001 46.251C81.8075 46.251 80.6629 45.7769 79.819 44.933C78.9751 44.089 78.501 42.9445 78.501 41.751C78.501 40.5575 78.9751 39.4129 79.819 38.569C80.6629 37.7251 81.8075 37.251 83.001 37.251C84.1944 37.251 85.339 37.7251 86.1829 38.569C87.0268 39.4129 87.501 40.5575 87.501 41.751C87.501 42.9445 87.0268 44.089 86.1829 44.933C85.339 45.7769 84.1944 46.251 83.001 46.251Z" fill="#C6217F"/>
</svg>
