<svg width="24" height="24" viewBox="0 0 24 24" fill="none" xmlns="http://www.w3.org/2000/svg">
<path d="M21.5599 2.49623C21.4913 2.42105 21.4082 2.36053 21.3156 2.31834C21.2229 2.27614 21.1227 2.25313 21.021 2.2507C20.9192 2.24827 20.818 2.26647 20.7235 2.3042C20.629 2.34193 20.543 2.39841 20.4709 2.47023L19.8909 3.04723C19.8207 3.11754 19.7812 3.21285 19.7812 3.31223C19.7812 3.4116 19.8207 3.50692 19.8909 3.57723L20.4229 4.10723C20.4577 4.14227 20.499 4.17008 20.5446 4.18906C20.5902 4.20804 20.6391 4.21782 20.6884 4.21782C20.7378 4.21782 20.7867 4.20804 20.8322 4.18906C20.8778 4.17008 20.9192 4.14227 20.9539 4.10723L21.5199 3.54523C21.6598 3.40884 21.7419 3.22393 21.7494 3.02872C21.7568 2.8335 21.689 2.64288 21.5599 2.49623Z" fill="black"/>
<path d="M18.7198 4.22039L10.2578 12.6674C10.2066 12.7185 10.1694 12.7818 10.1498 12.8514L9.75778 14.0174C9.74824 14.0491 9.74746 14.0827 9.75553 14.1148C9.7636 14.1469 9.78021 14.1762 9.8036 14.1996C9.82699 14.223 9.85628 14.2396 9.88836 14.2476C9.92044 14.2557 9.9541 14.2549 9.98577 14.2454L11.1508 13.8534C11.2203 13.8337 11.2837 13.7966 11.3348 13.7454L19.7818 5.28239C19.8598 5.20341 19.9035 5.09689 19.9035 4.98589C19.9035 4.8749 19.8598 4.76837 19.7818 4.68939L19.3158 4.21939C19.2367 4.1405 19.1295 4.09619 19.0178 4.09619C18.906 4.09619 18.7989 4.1405 18.7198 4.21939V4.22039Z" fill="black"/>
<path d="M18.11 9.078L12.396 14.803C12.176 15.023 11.904 15.188 11.606 15.281L10.391 15.687C10.1029 15.7685 9.79835 15.7718 9.50863 15.6964C9.21891 15.6209 8.95455 15.4696 8.74281 15.258C8.53107 15.0463 8.37962 14.7821 8.30406 14.4924C8.22851 14.2027 8.2316 13.8981 8.313 13.61L8.72 12.396C8.812 12.097 8.976 11.826 9.197 11.605L14.922 5.89C14.9744 5.83756 15.01 5.77077 15.0245 5.69807C15.0389 5.62537 15.0315 5.55002 15.0031 5.48154C14.9748 5.41306 14.9268 5.35451 14.8652 5.3133C14.8036 5.27209 14.7311 5.25007 14.657 5.25H4.875C4.17881 5.25 3.51113 5.52656 3.01884 6.01884C2.52656 6.51113 2.25 7.17881 2.25 7.875V19.125C2.25 19.8212 2.52656 20.4889 3.01884 20.9812C3.51113 21.4734 4.17881 21.75 4.875 21.75H16.125C16.8212 21.75 17.4889 21.4734 17.9812 20.9812C18.4734 20.4889 18.75 19.8212 18.75 19.125V9.343C18.7499 9.26888 18.7279 9.19644 18.6867 9.13483C18.6455 9.07323 18.5869 9.02521 18.5185 8.99686C18.45 8.9685 18.3746 8.96108 18.3019 8.97552C18.2292 8.98996 18.1624 9.02562 18.11 9.078Z" fill="black"/>
</svg>
