<svg width="18" height="18" viewBox="0 0 18 18" fill="none" xmlns="http://www.w3.org/2000/svg">
<path d="M16.3118 3.92409C16.3116 3.91369 16.311 3.90331 16.3102 3.89294C16.3096 3.88447 16.3087 3.87607 16.3077 3.86772C16.3065 3.858 16.305 3.84834 16.3033 3.83867C16.3018 3.82996 16.3001 3.8213 16.2981 3.81274C16.2961 3.80357 16.2936 3.79449 16.2911 3.78543C16.2887 3.77676 16.2862 3.76817 16.2834 3.75969C16.2804 3.75083 16.2771 3.74211 16.2737 3.73339C16.2705 3.72505 16.2671 3.71679 16.2635 3.70868C16.2597 3.70009 16.2555 3.69166 16.2513 3.68325C16.2472 3.67527 16.2431 3.66737 16.2387 3.65961C16.2341 3.6516 16.2292 3.64372 16.2243 3.63587C16.2192 3.62796 16.214 3.6202 16.2086 3.61256C16.2035 3.60537 16.1982 3.59831 16.1927 3.59131C16.1866 3.58343 16.1802 3.57577 16.1736 3.56824C16.1705 3.56468 16.1679 3.56091 16.1647 3.55741C16.162 3.55446 16.159 3.55195 16.1562 3.54907C16.1494 3.54196 16.1424 3.53515 16.1352 3.5284C16.1286 3.52215 16.122 3.51595 16.1151 3.51007C16.1083 3.5043 16.1014 3.49884 16.0943 3.49338C16.0866 3.4874 16.079 3.48148 16.071 3.47597C16.0642 3.47118 16.0571 3.46674 16.05 3.46226C16.0416 3.45697 16.0333 3.4517 16.0247 3.44689C16.0172 3.44271 16.0095 3.43891 16.0019 3.43507C15.9934 3.43083 15.985 3.42655 15.9763 3.42276C15.9679 3.41905 15.9593 3.41583 15.9507 3.41253C15.9424 3.40937 15.9342 3.40616 15.9258 3.40342C15.9167 3.40041 15.9074 3.39791 15.8981 3.39537C15.8898 3.3931 15.8815 3.39082 15.8731 3.38895C15.8638 3.38687 15.8544 3.38524 15.845 3.38362C15.8361 3.38211 15.8272 3.38064 15.8183 3.37956C15.8094 3.37847 15.8004 3.37775 15.7914 3.3771C15.7815 3.37638 15.7717 3.37581 15.7619 3.37561C15.7579 3.37551 15.754 3.375 15.75 3.375H2.25C2.24622 3.375 2.24258 3.3755 2.23881 3.37557C2.22844 3.37577 2.21807 3.37636 2.20774 3.37713C2.19919 3.37778 2.19071 3.37845 2.1823 3.37946C2.17286 3.3806 2.16348 3.38214 2.15408 3.38377C2.14511 3.38532 2.13615 3.38684 2.12737 3.38882C2.11851 3.39079 2.10979 3.3932 2.101 3.3956C2.09214 3.39804 2.08328 3.40042 2.0746 3.40327C2.06581 3.40616 2.05716 3.4095 2.04847 3.41284C2.04026 3.41599 2.03202 3.41908 2.02399 3.4226C2.01503 3.42653 2.00627 3.43096 1.99748 3.43539C1.9901 3.4391 1.98272 3.44272 1.97554 3.44674C1.96676 3.45166 1.95817 3.45707 1.94959 3.46251C1.94272 3.46687 1.93579 3.4712 1.92913 3.47585C1.92106 3.48145 1.91327 3.48745 1.90547 3.49353C1.89854 3.49891 1.89167 3.5043 1.88501 3.51C1.87808 3.51592 1.87138 3.52215 1.86465 3.52848C1.85755 3.53518 1.85058 3.54198 1.84381 3.54903C1.84107 3.55193 1.83805 3.55446 1.83533 3.55741C1.83214 3.56091 1.82946 3.56469 1.82637 3.56824C1.81982 3.57577 1.81343 3.58343 1.80725 3.59131C1.80179 3.59831 1.79647 3.60537 1.79139 3.61256C1.78596 3.6202 1.78078 3.62796 1.77573 3.63587C1.77075 3.64372 1.76591 3.6516 1.76131 3.65961C1.75692 3.66737 1.75276 3.67527 1.74871 3.68325C1.74446 3.69166 1.7403 3.70009 1.73646 3.70867C1.73285 3.71679 1.72952 3.72505 1.72629 3.73339C1.7229 3.74211 1.7196 3.75083 1.71665 3.75969C1.71383 3.76817 1.71133 3.77675 1.70889 3.78542C1.70635 3.79449 1.70394 3.80357 1.70185 3.81273C1.69993 3.8213 1.69824 3.82995 1.6967 3.83867C1.69498 3.84834 1.69347 3.858 1.69227 3.86772C1.69124 3.87608 1.6904 3.88448 1.68976 3.89293C1.68894 3.90332 1.68841 3.91371 1.68818 3.92409C1.68808 3.92859 1.6875 3.93297 1.6875 3.9375V13.5C1.68784 13.7983 1.80648 14.0842 2.01738 14.2951C2.22829 14.506 2.51424 14.6247 2.8125 14.625H15.1875C15.4858 14.6247 15.7717 14.506 15.9826 14.2951C16.1935 14.0842 16.3122 13.7983 16.3125 13.5V3.9375C16.3125 3.93297 16.3119 3.92859 16.3118 3.92409ZM2.8125 5.21622L6.94027 9.00002L2.8125 12.7838V5.21622ZM3.69614 13.5L7.77276 9.76312L8.61987 10.5396C8.72363 10.6347 8.85926 10.6875 9 10.6875C9.14074 10.6875 9.27637 10.6347 9.38013 10.5396L10.2273 9.7631L14.3039 13.5H3.69614ZM11.0597 9L15.1876 5.21612L15.1882 12.7843L11.0597 9Z" fill="#C6217F"/>
</svg>
