<svg width="24" height="25" viewBox="0 0 24 25" fill="none" xmlns="http://www.w3.org/2000/svg">
<path d="M11.984 5.75C8.331 5.75 4.583 7.864 1.633 12.093C1.54873 12.215 1.50252 12.3593 1.5002 12.5075C1.49789 12.6558 1.53958 12.8014 1.62 12.926C3.887 16.474 7.584 19.249 11.984 19.249C16.336 19.249 20.109 16.466 22.381 12.909C22.4596 12.7869 22.5013 12.6447 22.5013 12.4995C22.5013 12.3543 22.4596 12.2121 22.381 12.09C20.104 8.575 16.303 5.75 11.984 5.75V5.75Z" stroke="#81828B" stroke-width="1.5" stroke-linecap="round" stroke-linejoin="round"/>
<path d="M12 16.249C12.9946 16.249 13.9484 15.8539 14.6517 15.1507C15.3549 14.4474 15.75 13.4936 15.75 12.499C15.75 11.5045 15.3549 10.5506 14.6517 9.84737C13.9484 9.14411 12.9946 8.74902 12 8.74902C11.0054 8.74902 10.0516 9.14411 9.34835 9.84737C8.64509 10.5506 8.25 11.5045 8.25 12.499C8.25 13.4936 8.64509 14.4474 9.34835 15.1507C10.0516 15.8539 11.0054 16.249 12 16.249V16.249Z" stroke="#81828B" stroke-width="1.5" stroke-miterlimit="10"/>
</svg>
