<svg width="47" height="36" viewBox="0 0 47 36" fill="none" xmlns="http://www.w3.org/2000/svg">
<path d="M2 35.9447H44.9278C46.0323 35.9447 46.9278 35.0492 46.9278 33.9447V4.58211C46.9278 3.47754 46.0323 2.58211 44.9278 2.58211H23.4721C22.7477 2.58211 22.08 2.19047 21.7265 1.55826L21.4276 1.02385C21.0741 0.391644 20.4064 0 19.682 0H2C0.895428 0 -3.8147e-06 0.895428 -3.8147e-06 2V33.9447C-3.8147e-06 35.0492 0.895428 35.9447 2 35.9447Z" fill="#7BD6FF"/>
<rect x="1.99695" y="3.88306" width="41.9355" height="30.2867" rx="2" fill="black" fill-opacity="0.05"/>
<rect x="2.44067" y="4.4375" width="41.9355" height="30.2867" rx="2" fill="white"/>
<path d="M44.9278 35.612H2C0.89543 35.612 0 34.7166 0 33.612V11.2576C0 10.153 0.89543 9.25759 2 9.25759H23.4108C24.2027 9.25759 24.9199 8.79041 25.2401 8.06617L25.6307 7.18239C25.9509 6.45814 26.6682 5.99097 27.46 5.99097H44.9278C46.0323 5.99097 46.9278 6.8864 46.9278 7.99096V33.612C46.9278 34.7166 46.0323 35.612 44.9278 35.612Z" fill="black" fill-opacity="0.06"/>
<path d="M44.9278 35.9446H2C0.89543 35.9446 0 35.0491 0 33.9446V11.5901C0 10.4855 0.89543 9.59011 2 9.59011H23.4108C24.2027 9.59011 24.9199 9.12293 25.2401 8.39869L25.6307 7.51491C25.9509 6.79066 26.6682 6.32349 27.46 6.32349H44.9278C46.0323 6.32349 46.9278 7.21891 46.9278 8.32348V33.9446C46.9278 35.0491 46.0323 35.9446 44.9278 35.9446Z" fill="#5AC8FA"/>
<path fill-rule="evenodd" clip-rule="evenodd" d="M18.8975 35.9999H44.8723C45.9769 35.9999 46.8723 35.1044 46.8723 33.9999V20.2341C38.977 28.588 28.163 33.4366 18.8975 35.9999Z" fill="#58C2F2"/>
</svg>
