<?xml version="1.0" encoding="iso-8859-1"?>
<!-- Generator: Adobe Illustrator 19.0.0, SVG Export Plug-In . SVG Version: 6.00 Build 0)  -->
<svg version="1.1" id="Capa_1" xmlns="http://www.w3.org/2000/svg" xmlns:xlink="http://www.w3.org/1999/xlink" x="0px" y="0px"
	 viewBox="0 0 512 512" style="enable-background:new 0 0 512 512;" xml:space="preserve">
<path style="fill:#61729B;" d="M434.811,136.166v342.481c0,18.393-14.971,33.353-33.363,33.353H82.063
	C63.67,512,48.7,497.039,48.7,478.647V33.363C48.7,14.971,63.67,0,82.063,0h212.75c8.676,0,16.902,3.322,23.156,9.347
	l106.635,102.802C431.089,118.403,434.811,127.159,434.811,136.166z"/>
<path style="fill:#57658C;" d="M434.811,136.166v342.481c0,18.393-14.971,33.353-33.363,33.353H241.755V0h53.057
	c8.676,0,16.902,3.322,23.156,9.347l106.635,102.802C431.089,118.403,434.811,127.159,434.811,136.166z"/>
<g>
	<path style="fill:#A5F4FF;" d="M434.811,136.166v15.011H294.813c-8.286,0-15.011-6.715-15.011-15.011V0h15.011
		c8.676,0,16.902,3.322,23.156,9.347l106.635,102.802C431.089,118.403,434.811,127.159,434.811,136.166z"/>
	<path style="fill:#A5F4FF;" d="M439.063,298.744H246.819c-13.364,0-24.238,10.873-24.238,24.238v103.237
		c0,13.364,10.873,24.238,24.238,24.238h192.243c13.364,0,24.238-10.873,24.238-24.238V322.982
		C463.3,309.617,452.428,298.744,439.063,298.744z"/>
</g>
<g>
	<path style="fill:#61729B;" d="M267.084,395.8v-42.982c0-1.036,0.517-1.824,1.554-2.365c1.036-0.54,2.275-0.812,3.717-0.812
		c1.441,0,2.68,0.271,3.717,0.812c1.036,0.54,1.554,1.329,1.554,2.365v16.558h13.448v-16.558c0-1.036,0.517-1.824,1.554-2.365
		c1.036-0.54,2.275-0.812,3.717-0.812c1.441,0,2.68,0.271,3.717,0.812c1.036,0.54,1.554,1.329,1.554,2.365V395.8
		c0,1.037-0.518,1.836-1.554,2.399c-1.037,0.563-2.276,0.845-3.717,0.845c-1.442,0-2.681-0.28-3.717-0.845
		c-1.037-0.563-1.554-1.362-1.554-2.399v-18.315h-13.448V395.8c0,1.037-0.518,1.836-1.554,2.399
		c-1.037,0.563-2.276,0.845-3.717,0.845c-1.442,0-2.681-0.28-3.717-0.845C267.602,397.637,267.084,396.837,267.084,395.8z"/>
	<path style="fill:#61729B;" d="M305.808,354.172c0-1.226,0.271-2.287,0.812-3.184c0.541-0.898,1.329-1.347,2.366-1.347h29.195
		c1.036,0,1.825,0.448,2.366,1.347c0.541,0.897,0.812,1.958,0.812,3.184c0,1.314-0.282,2.418-0.845,3.315
		c-0.563,0.897-1.341,1.345-2.332,1.345h-9.326v36.945c0,1.043-0.518,1.849-1.554,2.416c-1.038,0.566-2.276,0.851-3.717,0.851
		c-1.442,0-2.681-0.283-3.717-0.851c-1.037-0.566-1.554-1.373-1.554-2.416v-36.945h-9.327c-0.992,0-1.769-0.447-2.332-1.345
		C306.088,356.59,305.808,355.486,305.808,354.172z"/>
	<path style="fill:#61729B;" d="M345.545,395.8v-40.887c0-1.801,0.506-3.131,1.521-3.987c1.014-0.855,2.264-1.284,3.751-1.284
		c2.027,0,3.57,0.304,4.629,0.913c1.058,0.607,2.241,2.061,3.548,4.358l6.961,12.165l6.961-12.165
		c1.306-2.298,2.489-3.751,3.547-4.358c1.058-0.608,2.602-0.913,4.629-0.913c1.487,0,2.737,0.429,3.751,1.284
		c1.014,0.856,1.521,2.187,1.521,3.987V395.8c0,1.037-0.518,1.836-1.554,2.399c-1.037,0.563-2.276,0.845-3.717,0.845
		c-1.442,0-2.681-0.28-3.717-0.845c-1.037-0.563-1.554-1.362-1.554-2.399v-25.343l-6.488,11.083
		c-0.767,1.308-1.937,1.959-3.514,1.959c-1.532,0-2.636-0.651-3.311-1.959l-6.421-11.759V395.8c0,1.037-0.518,1.836-1.554,2.399
		c-1.037,0.563-2.276,0.845-3.717,0.845c-1.442,0-2.681-0.28-3.717-0.845C346.063,397.637,345.545,396.837,345.545,395.8z"/>
	<path style="fill:#61729B;" d="M393.662,395.8v-42.982c0-1.036,0.517-1.824,1.554-2.365c1.036-0.54,2.275-0.812,3.717-0.812
		c1.441,0,2.68,0.271,3.717,0.812c1.036,0.54,1.554,1.329,1.554,2.365v37.035h15.408c0.947,0,1.689,0.45,2.231,1.352
		c0.541,0.902,0.812,1.982,0.812,3.244c0,1.262-0.27,2.343-0.812,3.243c-0.54,0.902-1.284,1.352-2.231,1.352h-21.355
		c-1.262,0-2.344-0.28-3.244-0.845C394.112,397.637,393.662,396.837,393.662,395.8z"/>
</g>
<g>
</g>
<g>
</g>
<g>
</g>
<g>
</g>
<g>
</g>
<g>
</g>
<g>
</g>
<g>
</g>
<g>
</g>
<g>
</g>
<g>
</g>
<g>
</g>
<g>
</g>
<g>
</g>
<g>
</g>
</svg>
