<svg width="18" height="18" viewBox="0 0 18 18" fill="none" xmlns="http://www.w3.org/2000/svg">
<path d="M7.0545 12.375H5.0625C4.16739 12.375 3.30895 12.0194 2.67601 11.3865C2.04308 10.7535 1.6875 9.89511 1.6875 9C1.6875 8.10489 2.04308 7.24645 2.67601 6.61351C3.30895 5.98058 4.16739 5.625 5.0625 5.625H7.01025" stroke="#C6217F" stroke-width="1.5" stroke-linecap="round" stroke-linejoin="round"/>
<path d="M10.9896 5.625H12.9373C13.8324 5.625 14.6909 5.98058 15.3238 6.61351C15.9567 7.24645 16.3123 8.10489 16.3123 9C16.3123 9.89511 15.9567 10.7535 15.3238 11.3865C14.6909 12.0194 13.8324 12.375 12.9373 12.375H10.9453" stroke="#C6217F" stroke-width="1.5" stroke-linecap="round" stroke-linejoin="round"/>
<path d="M5.94336 8.99854H12.1264" stroke="#C6217F" stroke-width="1.5" stroke-linecap="round" stroke-linejoin="round"/>
</svg>
