<svg width="24" height="24" viewBox="0 0 24 24" fill="none" xmlns="http://www.w3.org/2000/svg">
<circle cx="12" cy="12" r="12" fill="url(#paint0_linear_623_20570)"/>
<path d="M14.4251 6H9.57486C7.60368 6 6 7.60368 6 9.57486V14.4251C6 16.3963 7.60368 18 9.57486 18H14.4251C16.3963 18 18 16.3963 18 14.4251V9.57486C18 7.60368 16.3963 6 14.4251 6ZM16.7928 14.4251C16.7928 15.7327 15.7327 16.7928 14.4251 16.7928H9.57486C8.26725 16.7928 7.2072 15.7327 7.2072 14.4251V9.57486C7.2072 8.26723 8.26725 7.2072 9.57486 7.2072H14.4251C15.7327 7.2072 16.7928 8.26723 16.7928 9.57486V14.4251Z" fill="white"/>
<path d="M12.0001 8.89648C10.2888 8.89648 8.89648 10.2888 8.89648 12.0001C8.89648 13.7114 10.2888 15.1037 12.0001 15.1037C13.7115 15.1037 15.1037 13.7114 15.1037 12.0001C15.1037 10.2887 13.7115 8.89648 12.0001 8.89648ZM12.0001 13.8965C10.9527 13.8965 10.1037 13.0475 10.1037 12.0001C10.1037 10.9527 10.9528 10.1037 12.0001 10.1037C13.0475 10.1037 13.8965 10.9527 13.8965 12.0001C13.8965 13.0475 13.0475 13.8965 12.0001 13.8965Z" fill="white"/>
<path d="M15.1109 9.66341C15.5216 9.66341 15.8546 9.33045 15.8546 8.91972C15.8546 8.50899 15.5216 8.17603 15.1109 8.17603C14.7001 8.17603 14.3672 8.50899 14.3672 8.91972C14.3672 9.33045 14.7001 9.66341 15.1109 9.66341Z" fill="white"/>
<defs>
<linearGradient id="paint0_linear_623_20570" x1="12" y1="23.9301" x2="12" y2="0.186412" gradientUnits="userSpaceOnUse">
<stop stop-color="#E09B3D"/>
<stop offset="0.3" stop-color="#C74C4D"/>
<stop offset="0.6" stop-color="#C21975"/>
<stop offset="1" stop-color="#7024C4"/>
</linearGradient>
</defs>
</svg>
