<svg width="40" height="40" viewBox="0 0 40 40" fill="none" xmlns="http://www.w3.org/2000/svg">
<circle cx="20" cy="20" r="20" fill="white"/>
<path d="M20 23.75C20.7956 23.75 21.5587 23.4339 22.1213 22.8713C22.6839 22.3087 23 21.5456 23 20.75C23 19.9544 22.6839 19.1913 22.1213 18.6287C21.5587 18.0661 20.7956 17.75 20 17.75C19.2044 17.75 18.4413 18.0661 17.8787 18.6287C17.3161 19.1913 17 19.9544 17 20.75C17 21.5456 17.3161 22.3087 17.8787 22.8713C18.4413 23.4339 19.2044 23.75 20 23.75V23.75Z" fill="#C6217F"/>
<path d="M28.25 14.751H25.485C25.345 14.751 25.17 14.66 25.035 14.517L23.818 12.597C23.7988 12.5668 23.7774 12.5381 23.754 12.511C23.334 12.021 22.766 11.751 22.157 11.751H17.844C17.235 11.751 16.667 12.021 16.247 12.511C16.2235 12.5384 16.2021 12.5674 16.183 12.598L14.967 14.519C14.863 14.633 14.717 14.754 14.563 14.754V14.379C14.563 14.1801 14.484 13.9893 14.3433 13.8486C14.2027 13.708 14.0119 13.629 13.813 13.629H12.688C12.4891 13.629 12.2983 13.708 12.1576 13.8486C12.017 13.9893 11.938 14.1801 11.938 14.379V14.754H11.751C11.1544 14.7545 10.5824 14.9917 10.1606 15.4136C9.73873 15.8354 9.50151 16.4074 9.50098 17.004V26C9.50151 26.5966 9.73873 27.1685 10.1606 27.5904C10.5824 28.0122 11.1544 28.2494 11.751 28.25H28.251C28.8476 28.2494 29.4195 28.0122 29.8414 27.5904C30.2632 27.1685 30.5004 26.5966 30.501 26V17C30.5004 16.4034 30.2632 15.8314 29.8414 15.4096C29.4195 14.9877 28.8476 14.7505 28.251 14.75L28.25 14.751ZM20 25.251C18.8065 25.251 17.6619 24.7769 16.818 23.933C15.9741 23.089 15.5 21.9445 15.5 20.751C15.5 19.5575 15.9741 18.4129 16.818 17.569C17.6619 16.7251 18.8065 16.251 20 16.251C21.1935 16.251 22.338 16.7251 23.182 17.569C24.0259 18.4129 24.5 19.5575 24.5 20.751C24.5 21.9445 24.0259 23.089 23.182 23.933C22.338 24.7769 21.1935 25.251 20 25.251Z" fill="#C6217F"/>
</svg>
