<svg width="730" height="730" viewBox="0 0 730 730" fill="none" xmlns="http://www.w3.org/2000/svg">
<path d="M280.277 358.568C271.23 354.897 265.841 352.242 264.116 350.606C261.432 348.074 260.094 345.071 260.094 341.584C260.094 337.835 261.613 334.58 264.662 331.821C267.707 329.062 271.277 327.683 275.371 327.683C281.326 327.683 286.967 329.994 292.284 334.609C297.606 339.23 300.924 344.707 302.24 351.044C302.604 352.765 303.196 353.624 304.013 353.624C305.147 353.624 305.714 352.65 305.714 350.696C305.714 350.336 305.669 349.879 305.577 349.335L304.898 343.139L304.013 336.463C303.919 335.692 303.876 334.876 303.876 334.013L304.013 328.499C304.013 327 303.534 326.252 302.58 326.252C302.214 326.252 301.85 326.344 301.486 326.523L298.895 327.816C298.213 328.135 297.557 328.294 296.919 328.294C296.054 328.294 294.603 327.887 292.561 327.067L288 325.162C283.914 323.53 279.738 322.711 275.474 322.711C268.215 322.711 262.144 325.232 257.264 330.275C252.384 335.314 249.945 341.584 249.945 349.079C249.945 355.531 251.695 360.695 255.196 364.579C258.699 368.461 265.333 372.584 275.108 376.946L285.472 381.572C290.11 383.609 293.37 385.781 295.258 388.087C297.144 390.398 298.087 393.339 298.087 396.916C298.087 401.44 296.281 405.456 292.665 408.968C289.054 412.472 284.949 414.229 280.358 414.229C274.449 414.229 268.741 411.578 263.242 406.279C257.74 400.981 253.876 394.435 251.646 386.645C251.376 385.559 250.92 385.018 250.286 385.018C248.88 385.018 248.175 386.107 248.175 388.284C248.175 390.008 249.037 393.957 250.763 400.132C251.899 404.173 252.578 407.258 252.807 409.394C253.034 411.344 253.315 412.517 253.656 412.897C253.997 413.288 255.21 413.681 257.302 414.092C258.796 414.408 261.136 415.089 264.313 416.132C271.121 418.268 276.095 419.335 279.228 419.335C286.899 419.335 293.592 416.406 299.314 410.544C305.033 404.688 307.893 397.81 307.893 389.908C307.893 382.733 305.826 376.6 301.686 371.512C298.186 367.289 291.049 362.977 280.277 358.568Z" fill="white"/>
<path d="M327.437 342.46L330.622 346.338C331.213 346.883 331.824 347.158 332.458 347.158C333.403 347.158 335.146 345.637 337.679 342.594C340.211 339.553 341.453 337.487 341.41 336.397C341.365 335.674 341.001 334.878 340.325 334.013L337.474 330.338C335.032 327.253 333.335 325.707 332.386 325.707C331.664 325.707 329.969 327.319 327.3 330.542C324.63 333.764 323.296 335.83 323.296 336.738C323.296 337.327 323.681 338.099 324.449 339.052L327.437 342.46Z" fill="white"/>
<path d="M349.514 414.089C345.744 413.867 343.169 412.847 341.784 411.034C340.4 409.224 339.706 406.009 339.706 401.389V362.874C339.706 361.245 339.73 360.225 339.778 359.817L339.843 359.205C339.843 358.39 339.526 357.96 338.891 357.916C338.618 357.916 338.23 358.075 337.731 358.39C333.771 361.342 328.327 363.544 321.404 364.999C318.627 365.594 317.236 366.474 317.236 367.627C317.236 368.09 317.306 368.413 317.439 368.595C317.758 368.969 318.348 369.151 319.212 369.151H320.777C322.731 369.151 324.081 369.829 324.83 371.186C325.58 372.544 325.953 374.991 325.953 378.521V401.534L326.02 404.385C326.02 406.421 325.668 408.367 324.967 410.221C324.262 412.076 323.41 413.254 322.412 413.755L320.099 414.908C319.505 415.235 319.212 415.698 319.212 416.302C319.212 417.189 319.69 417.634 320.643 417.634C321.188 417.634 321.965 417.54 322.965 417.36C327.058 416.722 330.311 416.403 332.721 416.403C333.629 416.403 335.494 416.536 338.32 416.789L343.433 417.304C344.936 417.434 345.915 417.493 346.369 417.493C349.963 417.493 351.762 416.891 351.762 415.687C351.762 414.716 351.008 414.186 349.514 414.089Z" fill="white"/>
<path d="M410.073 355.941C409.257 355.941 408.806 356.397 408.712 357.302C408.348 359.835 407.362 361.753 405.749 363.042C404.14 364.332 401.696 365.159 398.43 365.52C393.258 361.811 387.262 359.956 380.453 359.956C373.37 359.956 367.538 361.785 362.954 365.43C358.368 369.079 356.076 373.688 356.076 379.26C356.076 381.846 356.836 384.586 358.361 387.486C359.877 390.389 361.639 392.404 363.633 393.534C365.494 394.668 366.426 395.551 366.426 396.185C366.426 396.641 366.22 397.072 365.814 397.483L363.633 399.523C360.547 402.385 359.006 405.789 359.006 409.734C359.006 412.504 360.021 414.955 362.061 417.087L364.096 419.131L364.642 420.017C364.593 420.377 363.506 420.791 361.376 421.247C359.473 421.608 357.819 422.657 356.413 424.385C355.009 426.117 354.307 427.959 354.307 429.921C354.307 433.744 356.524 436.669 360.963 438.698C365.397 440.726 371.831 441.739 380.253 441.739C389.946 441.739 397.235 439.78 402.127 435.869C407.018 431.953 409.46 427.18 409.46 421.541C409.46 416.446 407.292 413.067 402.954 411.407C398.616 409.745 389.83 408.918 376.589 408.918C369.771 408.918 366.359 406.964 366.359 403.061C366.359 401.428 366.841 400.056 367.801 398.944C368.765 397.831 369.962 397.275 371.398 397.275C372.08 397.275 372.873 397.364 373.781 397.546C376.234 397.998 378.525 398.229 380.656 398.229C387.558 398.229 393.357 396.549 398.056 393.188C402.754 389.834 405.104 385.68 405.104 380.733C405.104 380.237 404.988 378.898 404.763 376.721C404.67 376.265 404.603 375.564 404.56 374.612C406.874 373.525 408.305 372.731 408.849 372.235C409.395 371.738 409.709 370.966 409.802 369.924C409.848 369.157 410.051 367.506 410.419 364.97C410.96 361.259 411.23 358.837 411.23 357.707C411.23 356.53 410.845 355.941 410.073 355.941ZM366.61 423.179C367.774 421.93 369.225 421.307 370.964 421.307C371.461 421.307 372.006 421.355 372.595 421.444L374.361 421.786C376.448 422.149 379.442 422.467 383.339 422.738C389.957 423.239 394.168 423.888 395.983 424.682C397.796 425.471 398.7 427.051 398.7 429.413C398.7 432.227 397.224 434.485 394.276 436.188C391.324 437.889 387.442 438.742 382.633 438.742C377.137 438.742 372.804 437.752 369.629 435.779C366.451 433.804 364.86 431.136 364.86 427.777C364.86 425.96 365.442 424.43 366.61 423.179ZM388.64 391.476C386.613 394.159 383.928 395.502 380.59 395.502C377.338 395.502 374.635 393.857 372.465 390.56C370.301 387.271 369.217 383.099 369.217 378.045C369.217 373.354 370.222 369.654 372.233 366.947C374.239 364.24 376.979 362.887 380.453 362.887C387.943 362.887 391.688 368.886 391.688 380.886C391.688 385.265 390.672 388.791 388.64 391.476Z" fill="white"/>
<path d="M523.332 414.091C520.151 413.731 518.006 412.855 516.891 411.472C515.778 410.09 515.226 407.653 515.226 404.164V385.19C515.226 367.963 508.514 359.348 495.098 359.348C491.646 359.348 488.168 360.312 484.664 362.241C481.165 364.173 478.275 366.724 476.001 369.902C475.32 370.81 474.862 371.262 474.64 371.262C474.408 371.262 474.026 370.536 473.478 369.085C472.568 366.679 470.466 364.455 467.165 362.411C463.868 360.368 460.722 359.348 457.721 359.348C452.037 359.348 447.261 361.503 443.396 365.816L440.601 369.015C440.234 369.426 439.915 369.628 439.644 369.628C438.869 369.586 438.487 368.674 438.487 366.905C438.487 366.36 438.509 365.838 438.55 365.337L438.754 360.775L438.824 359.074C438.824 358.032 438.46 357.531 437.734 357.576C437.463 357.576 437.145 357.713 436.786 357.983C433.911 359.939 431.316 361.276 428.991 362.004L425.102 363.226L419.565 364.929C417.287 365.347 416.15 366.108 416.15 367.217C416.15 368.193 416.716 368.674 417.851 368.674C420.937 368.674 422.914 369.242 423.778 370.373C424.637 371.507 425.071 374.083 425.071 378.111V402.418L425.001 406.015C425.001 408.277 424.637 410.034 423.914 411.276C423.184 412.522 421.916 413.574 420.099 414.432C419.235 414.807 418.805 415.292 418.805 415.897C418.805 417.009 419.443 417.566 420.719 417.566C421.397 417.566 422.305 417.427 423.443 417.157C425.95 416.564 428.654 416.27 431.564 416.27C433.475 416.27 435.728 416.405 438.32 416.683L444.46 417.361C445.92 417.494 447.212 417.566 448.351 417.566C449.946 417.566 450.721 417.031 450.676 415.967C450.627 415.088 449.9 414.484 448.495 414.161C444.498 413.163 441.892 412.036 440.664 410.768C439.437 409.501 438.824 407.237 438.824 403.975V379.398C438.824 375.961 439.992 373.108 442.333 370.844C444.673 368.581 447.632 367.45 451.217 367.45C455.349 367.45 458.39 368.896 460.343 371.796C462.293 374.692 463.268 379.243 463.268 385.442V403.025L463.339 405.88C463.339 408.459 463.009 410.305 462.349 411.413C461.689 412.522 460.316 413.527 458.229 414.432C457.506 414.758 457.142 415.318 457.142 416.1C457.142 417.168 457.759 417.676 458.982 417.636C459.894 417.587 460.918 417.476 462.051 417.294C465.42 416.705 467.855 416.405 469.356 416.405C471.271 416.405 473.654 416.589 476.522 416.953C481.071 417.587 484.3 417.906 486.214 417.906C487.894 417.906 488.736 417.257 488.736 415.964C488.736 414.947 487.897 414.369 486.218 414.232C482.68 413.868 480.258 412.826 478.964 411.105C477.674 409.389 477.021 406.311 477.021 401.872V377.361C477.021 374.373 478.115 371.929 480.292 370.028C482.473 368.13 485.265 367.18 488.669 367.18C493.07 367.18 496.304 368.626 498.372 371.522C500.438 374.422 501.472 378.967 501.472 385.172V403.708L501.539 406.963C501.539 409 501.254 410.46 500.687 411.342C500.119 412.229 498.836 413.186 496.837 414.232C495.889 414.787 495.41 415.389 495.41 416.037C495.41 416.964 495.822 417.427 496.637 417.427C497.226 417.427 498.161 417.317 499.436 417.087C503.256 416.405 506.149 416.066 508.103 416.066C509.512 416.066 511.469 416.249 513.973 416.612C518.797 417.384 522.027 417.77 523.662 417.77C525.03 417.77 525.713 417.168 525.713 415.964C525.713 414.951 524.916 414.324 523.332 414.091Z" fill="white"/>
<path d="M587.046 410.82C586.727 410.82 586.203 410.984 585.48 411.298C584.842 411.617 583.864 411.777 582.555 411.777C578.828 411.777 576.97 409.441 576.97 404.768C576.97 402.777 577.105 398.788 577.375 392.803C577.65 387.589 577.786 383.258 577.786 379.814C577.786 372.968 576.289 368.162 573.292 365.4C569.388 361.774 563.507 359.957 555.656 359.957C548.846 359.957 543.03 361.685 538.225 365.133C536.045 366.676 534.662 368.9 534.064 371.807C533.932 372.486 533.797 373.076 533.66 373.576C533.434 374.258 533.319 374.759 533.319 375.074C533.226 376.665 534.094 377.458 535.919 377.458C542.945 377.458 546.461 375.92 546.461 372.85L546.256 371.563C546.167 370.933 546.119 370.277 546.119 369.597C546.119 365.986 548.304 364.18 552.679 364.18C556.106 364.18 558.908 365.618 561.096 368.496C563.277 371.369 564.366 375.082 564.366 379.621C564.366 381.103 564.122 382.88 563.621 384.949C552.342 387.039 544.776 389.065 540.924 391.019C534.676 394.293 531.549 399.525 531.549 406.711C531.549 410.667 532.64 413.765 534.821 415.993C537.001 418.218 540.016 419.334 543.872 419.334C549.457 419.334 556.471 416.631 564.916 411.228C567.636 416.405 570.994 418.993 574.994 418.993C576.944 418.993 578.736 418.563 580.375 417.703L582.688 416.337L585.343 414.972C587.113 413.979 587.998 412.911 587.998 411.777C587.998 411.139 587.679 410.82 587.046 410.82ZM564.1 392.165L564.029 397.408C564.029 401.49 563.803 404.424 563.347 406.192C562.895 407.965 562.053 409.214 560.826 409.937C558.605 411.347 555.997 412.047 552.998 412.047C548.188 412.047 545.782 409.054 545.782 403.059C545.782 399.428 547.55 396.092 551.092 393.05C554.632 390.011 558.356 388.623 562.26 388.898C562.984 388.943 563.462 389.058 563.689 389.238L564.1 390.734V392.165Z" fill="white"/>
<path d="M627.223 407.23C632.14 411.476 637.999 414.727 644.799 416.991C651.593 419.256 659.087 420.39 667.285 420.39C675.477 420.39 682.97 419.256 689.772 416.991C696.565 414.727 702.426 411.476 707.342 407.23C712.26 402.989 716.065 397.757 718.765 391.541C721.465 385.32 722.818 378.307 722.818 370.498C722.818 362.689 721.465 355.676 718.765 349.455C716.065 343.239 712.26 338.012 707.342 333.766C702.426 329.524 696.565 326.272 689.772 324.007C682.97 321.74 675.477 320.606 667.285 320.606C659.087 320.606 651.593 321.74 644.799 324.007C637.999 326.272 632.14 329.524 627.223 333.766C622.31 338.012 618.502 343.239 615.799 349.455C613.099 355.676 611.749 362.689 611.749 370.498C611.749 378.307 613.099 385.32 615.799 391.541C618.502 397.757 622.31 402.989 627.223 407.23ZM634.603 353.508C635.948 348.154 638.048 343.407 640.891 339.261C643.732 335.116 647.347 331.838 651.738 329.428C656.124 327.021 661.304 325.811 667.285 325.811C673.258 325.811 678.443 327.021 682.826 329.428C687.217 331.838 690.832 335.116 693.676 339.261C696.519 343.407 698.614 348.154 699.964 353.508C701.318 358.859 701.989 364.52 701.989 370.498C701.989 376.379 701.318 382.02 699.964 387.418C698.614 392.817 696.519 397.589 693.676 401.735C690.832 405.88 687.217 409.162 682.826 411.568C678.443 413.979 673.258 415.185 667.285 415.185C661.304 415.185 656.124 413.979 651.738 411.568C647.347 409.162 643.732 405.88 640.891 401.735C638.048 397.589 635.948 392.817 634.603 387.418C633.248 382.02 632.578 376.379 632.578 370.498C632.578 364.52 633.248 358.859 634.603 353.508Z" fill="white"/>
<path d="M726.868 424.294C723.112 428.821 719.23 432.051 715.228 433.983C711.227 435.908 706.285 436.876 700.407 436.876C696.161 436.876 691.56 436.101 686.595 434.563C681.629 433.02 676.591 431.307 671.485 429.427C666.371 427.55 661.339 425.815 656.371 424.22C651.406 422.63 646.752 421.836 642.414 421.836C638.271 421.836 634.17 422.243 630.124 423.067C626.077 423.883 622.263 425.499 618.7 427.909L619.998 430.946C621.737 429.883 623.952 429.016 626.653 428.34C629.35 427.669 631.905 427.331 634.315 427.331C637.694 427.331 640.967 427.909 644.152 429.066C647.329 430.223 650.516 431.692 653.696 433.476C656.875 435.263 660.056 437.165 663.241 439.189C666.422 441.215 669.693 443.117 673.076 444.901C676.446 446.685 679.943 448.156 683.558 449.313C687.169 450.47 690.908 451.045 694.767 451.045C699.005 451.045 702.887 450.347 706.407 448.949C709.926 447.55 713.131 445.719 716.026 443.459C718.914 441.188 721.492 438.585 723.761 435.645C726.026 432.703 728.025 429.693 729.764 426.608L726.868 424.294Z" fill="white"/>
<path d="M113.578 251.308C50.8519 251.308 0 302.156 0 364.882C0 427.608 50.8519 478.453 113.578 478.453C176.304 478.453 227.153 427.608 227.153 364.882C227.153 302.156 176.304 251.308 113.578 251.308ZM113.577 470.41C55.2935 470.41 8.04538 423.162 8.04538 364.882C8.04538 306.599 55.2935 259.355 113.577 259.355C171.86 259.355 219.109 306.599 219.109 364.882C219.109 423.162 171.86 470.41 113.577 470.41Z" fill="white"/>
<path d="M164.529 334.06C162.674 330.989 160.324 328.561 157.469 326.773C154.61 324.986 151.239 324.092 147.349 324.092C143.46 324.092 140.088 324.986 137.23 326.773C134.371 328.561 132.021 330.989 130.17 334.06C128.32 337.138 126.955 340.652 126.077 344.621C125.198 348.588 124.756 352.785 124.756 357.221C124.756 361.577 125.198 365.76 126.077 369.761C126.955 373.766 128.32 377.303 130.17 380.374C132.021 383.447 134.371 385.88 137.23 387.663C140.088 389.451 143.46 390.344 147.349 390.344C151.239 390.344 154.61 389.451 157.469 387.663C160.324 385.88 162.674 383.447 164.529 380.374C166.379 377.303 167.744 373.766 168.623 369.761C169.501 365.76 169.943 361.577 169.943 357.221C169.943 352.785 169.501 348.588 168.623 344.621C167.744 340.652 166.379 337.138 164.529 334.06Z" fill="white"/>
<path d="M113.61 266.693C59.381 266.693 15.4162 310.653 15.4162 364.883C15.4162 419.113 59.381 463.073 113.61 463.073C167.838 463.073 211.8 419.113 211.8 364.883C211.8 310.653 167.838 266.693 113.61 266.693ZM99.8737 400.253H41.8759L63.7024 360.692L42.3278 323.93H98.5978V340.671L95.4306 340.772C94.7969 336.504 94.7563 332.555 91.638 332.251C90.4251 332.132 78.667 332.106 78.667 332.106L59.188 332.276L77.0218 360.692L59.174 391.947L80.3695 392.017C87.0733 392.017 92.1864 392.41 95.4306 390.137C98.339 388.106 98.6943 386.051 99.8219 383.882L103.023 383.93L99.8737 400.253ZM188.071 398.81C186.94 401.102 185.639 403.326 184.163 405.511C182.687 407.687 181.011 409.619 179.127 411.303C177.244 412.982 175.155 414.336 172.868 415.374C170.577 416.408 168.052 416.928 165.289 416.928C162.779 416.928 160.35 416.497 157.996 415.637C155.641 414.788 153.364 413.691 151.173 412.379C148.974 411.05 146.841 409.634 144.772 408.14C142.697 406.638 140.627 405.226 138.557 403.905C136.488 402.582 134.417 401.495 132.343 400.635C130.273 399.774 128.142 399.352 125.942 399.352C124.373 399.352 122.71 399.597 120.956 400.1C119.197 400.597 117.751 401.243 116.625 402.029L115.778 399.774C118.096 397.995 120.577 396.793 123.214 396.185C125.851 395.576 128.517 395.277 131.216 395.277C134.042 395.277 137.063 395.863 140.296 397.045C143.529 398.221 146.808 399.511 150.134 400.902C153.46 402.299 156.738 403.568 159.973 404.701C163.204 405.851 166.197 406.424 168.959 406.424C172.79 406.424 176.006 405.703 178.612 404.276C181.214 402.845 183.741 400.457 186.188 397.097L188.071 398.81ZM180.918 372.817C179.156 377.426 176.683 381.304 173.479 384.449C170.28 387.594 166.468 390.004 162.044 391.687C157.617 393.363 152.736 394.201 147.404 394.201C142.073 394.201 137.192 393.363 132.769 391.687C128.341 390.004 124.533 387.594 121.329 384.449C118.13 381.304 115.652 377.426 113.895 372.817C112.138 368.208 111.258 363.008 111.258 357.221C111.258 351.428 112.138 346.229 113.895 341.62C115.652 337.012 118.13 333.132 121.329 329.989C124.533 326.844 128.341 324.431 132.769 322.754C137.192 321.074 142.073 320.233 147.404 320.233C152.736 320.233 157.617 321.074 162.044 322.754C166.468 324.431 170.28 326.844 173.479 329.989C176.683 333.132 179.156 337.012 180.918 341.62C182.673 346.229 183.556 351.428 183.556 357.221C183.556 363.008 182.673 368.208 180.918 372.817Z" fill="white"/>
</svg>
