<svg width="159" height="40" viewBox="0 0 159 40" fill="none" xmlns="http://www.w3.org/2000/svg">
<path d="M6.8968 24.958C10.714 24.958 12.1887 21.4878 12.1887 17.9022C12.1887 15.4731 10.9742 14.403 8.7764 14.403C5.97136 14.403 3.65793 16.8322 3.65793 21.1987C3.65793 23.9168 4.87236 24.958 6.8968 24.958ZM4.93016 13.8246L4.75676 14.75C5.56644 13.5932 6.98349 12.7259 9.03666 12.7259C12.2176 12.7259 14.0684 14.3162 14.0684 17.6708C14.0684 22.1817 11.9286 26.6354 6.60747 26.6354C4.72787 26.6354 3.60013 25.8546 3.05055 24.4955L1.86502 31.1464C1.77816 31.6668 1.3445 32.0719 0.794924 32.0719C0.245508 32.0719 -0.0725494 31.6668 0.0141487 31.1464L3.07945 13.8246C3.16631 13.304 3.62903 12.8993 4.14955 12.8993C4.67007 12.8993 5.01719 13.304 4.93016 13.8246Z" fill="white"/>
<path d="M25.7226 16.08C25.7226 15.2416 24.9708 14.4031 23.0332 14.4031C20.1703 14.4031 18.3196 16.5429 17.8568 19.0586C23.2067 19.0586 25.7226 17.9311 25.7226 16.08ZM23.3223 12.7257C26.2141 12.7257 27.5733 14.2004 27.5733 15.8777C27.5733 18.943 24.566 20.5622 17.6545 20.5622C17.5678 20.996 17.5678 21.2852 17.5678 21.4588C17.5678 24.0902 18.8111 24.929 21.1247 24.929C22.5995 24.929 23.7562 24.3507 24.6527 23.7146C24.8552 23.5699 24.9997 23.5119 25.2021 23.5119C25.6648 23.5119 26.0407 23.8589 26.0407 24.3216C26.0407 24.6976 25.8093 24.9001 25.607 25.0736C24.4502 26.028 22.8598 26.6352 20.7777 26.6352C17.5967 26.6352 15.7169 25.0446 15.7169 21.6903C15.7169 16.3983 18.6088 12.7257 23.3223 12.7257Z" fill="white"/>
<path d="M32.7501 15.0971C33.5598 13.7668 35.1793 12.7837 37.1747 12.7837C37.6083 12.7837 37.9266 13.1306 37.9266 13.5646C37.9266 14.1137 37.4059 14.5766 36.8566 14.5766C34.1961 14.5766 32.5188 16.4275 32.056 19.0877L30.8994 25.5654C30.8125 26.0859 30.35 26.4907 29.8295 26.4907C29.3088 26.4907 28.9618 26.0859 29.0485 25.5654L31.1306 13.8246C31.2176 13.3042 31.6513 12.8995 32.2007 12.8995C32.7212 12.8995 33.0683 13.3042 32.9815 13.8246L32.7501 15.0971Z" fill="white"/>
<path d="M40.9922 16.4851C40.9922 19.2609 47.5277 18.3936 47.5277 22.2686C47.5277 25.1892 45.3008 26.6061 42.0043 26.6061C39.7776 26.6061 38.0425 25.5075 37.2906 24.4085C37.2037 24.2638 37.1748 24.1193 37.1748 23.9746C37.1748 23.5119 37.5509 23.1359 38.0136 23.1359C38.1871 23.1359 38.4474 23.1939 38.6497 23.4251C39.4016 24.3216 40.5584 24.8423 42.1777 24.8423C43.9997 24.8423 45.6479 24.206 45.6479 22.5577C45.6479 20.013 39.0835 20.7648 39.0835 16.803C39.0835 14.0557 41.2524 12.7545 44.1153 12.7545C46.024 12.7545 47.6433 13.7088 48.2505 14.6922C48.3372 14.8365 48.3952 14.9813 48.3952 15.1547C48.3952 15.6175 48.0192 15.9935 47.5566 15.9935C47.4119 15.9935 47.1806 15.9644 46.9492 15.7331C46.2551 15.0391 45.3877 14.5186 43.8839 14.5186C42.4669 14.5186 40.9922 14.9813 40.9922 16.4851Z" fill="white"/>
<path d="M60.6856 17.9022C60.6856 15.4731 59.471 14.4032 57.2732 14.4032C53.456 14.4032 51.9812 17.8731 51.9812 21.4588C51.9812 23.8881 53.1957 24.958 55.3936 24.958C59.2108 24.958 60.6856 21.4878 60.6856 17.9022ZM50.1015 21.6904C50.1015 17.1792 52.2414 12.7259 57.5623 12.7259C60.7145 12.7259 62.5652 14.3163 62.5652 17.6708C62.5652 22.1819 60.4252 26.6354 55.1044 26.6354C51.9523 26.6354 50.1015 25.0447 50.1015 21.6904Z" fill="white"/>
<path d="M76.7932 16.2826C76.7932 16.7452 76.7354 17.3816 76.6487 17.8442L75.2895 25.5654C75.2026 26.0858 74.7688 26.4907 74.2196 26.4907C73.67 26.4907 73.3519 26.0858 73.4386 25.5654L74.7399 18.2202C74.8268 17.7286 74.8846 17.2082 74.8846 16.8032C74.8846 15.2705 74.046 14.3741 71.9349 14.3741C69.072 14.3741 67.7996 16.1091 67.3949 18.4225L66.1223 25.5654C66.0356 26.0858 65.602 26.4907 65.0524 26.4907C64.503 26.4907 64.1849 26.0858 64.2716 25.5654L66.3537 13.8246C66.4405 13.304 66.8742 12.8993 67.4238 12.8993C67.9443 12.8993 68.2914 13.304 68.2044 13.8246L68.031 14.7502C68.7251 13.651 70.2577 12.7259 72.2242 12.7259C75.5786 12.7259 76.7932 14.3162 76.7932 16.2826Z" fill="white"/>
<path d="M83.7628 24.958C86.9437 24.958 88.6499 21.9794 89.1704 18.9719L89.7198 15.7043C88.939 14.9236 87.7535 14.3452 86.3074 14.3452C83.1265 14.3452 80.6106 17.237 80.6106 21.4588C80.6106 23.3674 81.4492 24.958 83.7628 24.958ZM83.4734 26.6354C80.3503 26.6354 78.7599 24.6111 78.7599 21.7482C78.7599 16.4851 81.941 12.7259 86.4521 12.7259C87.7824 12.7259 89.0835 13.1306 90.0379 13.9692L90.0668 13.8246C90.1825 13.304 90.5297 12.8993 91.1369 12.8993C91.7152 12.8993 92.0043 13.3331 91.9176 13.8246L89.8356 25.5654C89.7487 26.0858 89.3151 26.4905 88.7655 26.4905C88.2161 26.4905 87.9269 26.0858 88.0136 25.5654L88.3607 23.7146C87.3775 25.5364 85.6424 26.6354 83.4734 26.6354Z" fill="white"/>
<path d="M98.8003 6.59495L95.8796 23.1072C95.8217 23.4543 95.8217 23.5989 95.8217 23.7723C95.8217 24.4663 96.1977 24.7554 96.776 24.7554C97.2097 24.7554 97.4988 25.0736 97.4988 25.5075C97.4988 26.0567 97.0074 26.4905 96.4578 26.4905C94.8095 26.4905 93.9421 25.681 93.9421 24.0615C93.9421 23.7723 93.971 23.4543 94.0288 23.1072L96.9496 6.59495C97.0363 6.07443 97.4699 5.66968 98.0195 5.66968C98.5689 5.66968 98.887 6.07443 98.8003 6.59495Z" fill="white"/>
<path d="M118.353 6.06739L117.402 11.5806H124.677L123.767 16.9945H116.451L114.853 26.3523H109.095L112.998 3.87383C113.388 1.62772 115.325 0 117.601 0H130.508L129.598 5.41403H119.129C118.747 5.41403 118.42 5.68825 118.353 6.06739Z" fill="white"/>
<path d="M158.074 0L157.164 5.41403H151.108L147.488 26.3523H141.736L145.356 5.41403H138.801L139.77 0H158.074Z" fill="white"/>
<path d="M103.566 3.71429C103.406 5.78758 105.83 7.93029 105.83 7.93029C105.83 7.93029 108.875 6.23871 109.081 4.16091C109.232 2.64022 108.07 1.303 106.547 1.17967C105.024 1.05633 103.683 2.19059 103.566 3.71429Z" fill="#CB0080"/>
<path d="M131.774 3.59109C131.614 5.66438 134.038 7.80709 134.038 7.80709C134.038 7.80709 137.083 6.11551 137.29 4.03771C137.44 2.51702 136.278 1.1798 134.755 1.05647C133.232 0.933127 131.891 2.06739 131.774 3.59109Z" fill="#CB0080"/>
<path d="M108.101 9.53482L107.453 13.4377L105.68 24.2132C105.677 24.2249 105.677 24.2365 105.677 24.2452L105.645 24.4379C105.645 24.4436 105.645 24.4466 105.642 24.4495C105.42 25.5375 104.464 26.3514 103.311 26.3514C101.996 26.3514 100.928 25.2866 100.928 23.971C100.928 23.8894 100.931 23.8078 100.94 23.729C100.94 23.7203 100.943 23.7144 100.943 23.7086L100.969 23.5423L101.611 19.3563L103.288 9.21692C103.311 9.0652 103.443 8.97177 103.577 8.97177C103.653 8.97177 103.731 9.00396 103.793 9.07095L105.403 10.8883L107.64 9.2519C107.693 9.21101 107.754 9.19361 107.809 9.19361C107.979 9.19361 108.13 9.34516 108.101 9.53482Z" fill="#CB0080"/>
<path d="M136.309 9.40939L135.661 13.3211L133.958 24.0878L133.887 24.5398V24.5428C133.631 25.5346 132.761 26.2814 131.708 26.3513H131.536C130.705 26.3513 129.97 25.9313 129.535 25.2896C129.535 25.2896 129.532 25.2896 129.535 25.2866C129.471 25.1904 129.413 25.0912 129.36 24.9861C129.206 24.6683 129.121 24.3124 129.121 23.9361C129.121 23.8602 129.124 23.7844 129.13 23.7115L129.179 23.411L130.772 13.461L131.495 9.0915C131.522 8.93977 131.653 8.84634 131.787 8.84634C131.863 8.84634 131.942 8.87853 132.003 8.94552L133.61 10.7659L135.848 9.12647C135.9 9.08558 135.961 9.06818 136.017 9.06818C136.186 9.06818 136.338 9.21974 136.309 9.40939Z" fill="#CB0080"/>
<path d="M133.365 27.6227C131.332 35.0902 124.891 40 116.648 40C116.187 40 115.697 39.9826 115.198 39.9504C108.938 39.5363 104.07 36.6659 101.835 32.0717C101.194 30.7532 100.806 28.8169 100.683 27.3147C102.292 28.443 103.894 28.4266 105.461 27.3147C105.47 27.3959 105.479 27.4792 105.489 27.567C105.663 29.0874 106.26 30.5458 107.277 31.6888C109.056 33.6879 111.934 34.9428 115.513 35.1782C121.514 35.572 126.248 32.8855 128.176 27.979C128.196 27.9237 128.554 27.0547 128.571 26.9964C129.967 28.3721 131.549 28.7501 133.365 27.6227Z" fill="#CB0080"/>
</svg>
