<svg width="18" height="18" viewBox="0 0 18 18" fill="none" xmlns="http://www.w3.org/2000/svg">
<path d="M15.6074 11.1393L12.3141 9.72786C12.1421 9.65384 11.9544 9.62403 11.768 9.64116C11.5816 9.65829 11.4024 9.7218 11.2468 9.82591L9.48601 10.9997C8.40984 10.4762 7.53882 9.60907 7.01065 8.53522L7.01079 8.53509L8.18042 6.74788C8.28223 6.59273 8.344 6.41476 8.3602 6.22989C8.3764 6.04503 8.34653 5.85903 8.27325 5.68853L6.86055 2.39243C6.76439 2.16869 6.59834 1.98211 6.38726 1.86065C6.17619 1.73918 5.93145 1.68935 5.68968 1.71862C4.73967 1.84077 3.86661 2.3046 3.23361 3.02346C2.60061 3.74232 2.25097 4.66704 2.25 5.62488C2.25 11.2079 6.79202 15.7499 12.375 15.7499C13.3328 15.7489 14.2576 15.3993 14.9764 14.7662C15.6953 14.1332 16.1591 13.2602 16.2813 12.3101C16.3104 12.0684 16.2606 11.8236 16.1391 11.6126C16.0176 11.4015 15.8311 11.2355 15.6074 11.1393Z" fill="#C6217F"/>
</svg>
