<svg width="10" height="6" viewBox="0 0 10 6" fill="none" xmlns="http://www.w3.org/2000/svg">
<path d="M0.0346003 5.69134C0.069005 5.78271 0.127267 5.86079 0.202017 5.91573C0.276767 5.97067 0.364649 6 0.45455 6L9.54545 6C9.63535 6 9.72324 5.97068 9.79799 5.91573C9.87274 5.86079 9.931 5.7827 9.9654 5.69134C9.9998 5.59997 10.0088 5.49944 9.99126 5.40245C9.97372 5.30545 9.93043 5.21636 9.86686 5.14644L5.32141 0.146452C5.2792 0.100021 5.22909 0.0631896 5.17395 0.0380607C5.1188 0.0129319 5.05969 -1.38557e-06 5 -1.39079e-06C4.94031 -1.39601e-06 4.8812 0.0129319 4.82606 0.0380607C4.77091 0.0631895 4.7208 0.100021 4.6786 0.146452L0.133144 5.14644C0.0695716 5.21636 0.0262776 5.30546 0.00873666 5.40245C-0.00880428 5.49944 0.000196492 5.59998 0.0346003 5.69134Z" fill="#C6217F"/>
</svg>
