<svg width="24" height="24" viewBox="0 0 24 24" fill="none" xmlns="http://www.w3.org/2000/svg">
<path d="M12 15.75C12.7956 15.75 13.5587 15.4339 14.1213 14.8713C14.6839 14.3087 15 13.5456 15 12.75C15 11.9544 14.6839 11.1913 14.1213 10.6287C13.5587 10.0661 12.7956 9.75 12 9.75C11.2044 9.75 10.4413 10.0661 9.87868 10.6287C9.31607 11.1913 9 11.9544 9 12.75C9 13.5456 9.31607 14.3087 9.87868 14.8713C10.4413 15.4339 11.2044 15.75 12 15.75Z" fill="white"/>
<path d="M20.25 6.75098H17.485C17.345 6.75098 17.17 6.65998 17.035 6.51698L15.818 4.59698C15.7988 4.5668 15.7774 4.53805 15.754 4.51098C15.334 4.02098 14.766 3.75098 14.157 3.75098H9.84398C9.23498 3.75098 8.66698 4.02098 8.24698 4.51098C8.22352 4.53835 8.20213 4.56743 8.18298 4.59798L6.96698 6.51898C6.86298 6.63298 6.71698 6.75398 6.56298 6.75398V6.37898C6.56298 6.18006 6.48396 5.9893 6.34331 5.84865C6.20265 5.70799 6.01189 5.62898 5.81298 5.62898H4.68798C4.48906 5.62898 4.2983 5.70799 4.15765 5.84865C4.01699 5.9893 3.93798 6.18006 3.93798 6.37898V6.75398H3.75098C3.1544 6.75451 2.58241 6.99173 2.16057 7.41357C1.73873 7.83541 1.50151 8.4074 1.50098 9.00398V18C1.50151 18.5966 1.73873 19.1685 2.16057 19.5904C2.58241 20.0122 3.1544 20.2494 3.75098 20.25H20.251C20.8476 20.2494 21.4195 20.0122 21.8414 19.5904C22.2632 19.1685 22.5004 18.5966 22.501 18V8.99998C22.5004 8.4034 22.2632 7.83141 21.8414 7.40957C21.4195 6.98773 20.8476 6.75051 20.251 6.74998L20.25 6.75098ZM12 17.251C10.8065 17.251 9.66191 16.7769 8.818 15.933C7.97408 15.089 7.49998 13.9445 7.49998 12.751C7.49998 11.5575 7.97408 10.4129 8.818 9.569C9.66191 8.72508 10.8065 8.25098 12 8.25098C13.1934 8.25098 14.338 8.72508 15.182 9.569C16.0259 10.4129 16.5 11.5575 16.5 12.751C16.5 13.9445 16.0259 15.089 15.182 15.933C14.338 16.7769 13.1934 17.251 12 17.251Z" fill="white"/>
</svg>
