<svg width="10" height="6" viewBox="0 0 10 6" fill="none" xmlns="http://www.w3.org/2000/svg">
<path d="M9.9654 0.308655C9.93099 0.217292 9.87273 0.139204 9.79798 0.0842643C9.72323 0.0293243 9.63535 5.83729e-08 9.54545 0H0.454547C0.364646 -3.89443e-07 0.276763 0.0293245 0.202012 0.0842662C0.127262 0.139208 0.0690015 0.217299 0.0345985 0.308663C0.000195557 0.400028 -0.00880479 0.500563 0.00873578 0.597554C0.0262763 0.694546 0.0695701 0.783637 0.133142 0.853562L4.67859 5.85355C4.7208 5.89998 4.77091 5.93681 4.82605 5.96194C4.8812 5.98707 4.94031 6 5 6C5.05969 6 5.1188 5.98707 5.17394 5.96194C5.22909 5.93681 5.2792 5.89998 5.3214 5.85355L9.86686 0.853562C9.93043 0.783636 9.97372 0.694543 9.99126 0.59755C10.0088 0.500557 9.9998 0.400021 9.9654 0.308655Z" fill="#C6217F"/>
</svg>
