<svg width="127" height="127" viewBox="0 0 127 127" fill="none" xmlns="http://www.w3.org/2000/svg">
<rect width="127" height="127" rx="3" fill="#ECECF0" fill-opacity="0.5"/>
<path d="M37.7421 76.46L39.1941 72.464H39.2181L40.6461 76.46H37.7421ZM38.5941 71.432L35.2581 80H36.4221L37.3821 77.42H41.0061L41.9421 80H43.2021L39.8541 71.432H38.5941ZM44.6233 76.952C44.6233 76.648 44.6553 76.352 44.7193 76.064C44.7833 75.776 44.8873 75.52 45.0313 75.296C45.1753 75.072 45.3673 74.892 45.6073 74.756C45.8473 74.62 46.1393 74.552 46.4833 74.552C46.8353 74.552 47.1353 74.62 47.3833 74.756C47.6313 74.884 47.8313 75.056 47.9833 75.272C48.1433 75.488 48.2593 75.74 48.3313 76.028C48.4033 76.308 48.4393 76.6 48.4393 76.904C48.4393 77.192 48.4033 77.476 48.3313 77.756C48.2673 78.036 48.1593 78.288 48.0073 78.512C47.8553 78.728 47.6593 78.904 47.4193 79.04C47.1793 79.176 46.8873 79.244 46.5433 79.244C46.2153 79.244 45.9273 79.18 45.6793 79.052C45.4393 78.924 45.2393 78.752 45.0793 78.536C44.9273 78.32 44.8113 78.076 44.7313 77.804C44.6593 77.524 44.6233 77.24 44.6233 76.952ZM49.4233 80V71.432H48.4033V74.624H48.3793C48.2673 74.44 48.1273 74.288 47.9593 74.168C47.7993 74.04 47.6273 73.94 47.4433 73.868C47.2593 73.788 47.0753 73.732 46.8913 73.7C46.7073 73.668 46.5353 73.652 46.3753 73.652C45.9033 73.652 45.4873 73.74 45.1273 73.916C44.7753 74.084 44.4793 74.316 44.2393 74.612C44.0073 74.9 43.8313 75.24 43.7113 75.632C43.5993 76.024 43.5433 76.44 43.5433 76.88C43.5433 77.32 43.6033 77.736 43.7233 78.128C43.8433 78.52 44.0193 78.864 44.2513 79.16C44.4913 79.456 44.7873 79.692 45.1393 79.868C45.4993 80.044 45.9193 80.132 46.3993 80.132C46.8313 80.132 47.2273 80.056 47.5873 79.904C47.9473 79.752 48.2113 79.504 48.3793 79.16H48.4033V80H49.4233ZM51.7366 76.952C51.7366 76.648 51.7686 76.352 51.8326 76.064C51.8966 75.776 52.0006 75.52 52.1446 75.296C52.2886 75.072 52.4806 74.892 52.7206 74.756C52.9606 74.62 53.2526 74.552 53.5966 74.552C53.9486 74.552 54.2486 74.62 54.4966 74.756C54.7446 74.884 54.9446 75.056 55.0966 75.272C55.2566 75.488 55.3726 75.74 55.4446 76.028C55.5166 76.308 55.5526 76.6 55.5526 76.904C55.5526 77.192 55.5166 77.476 55.4446 77.756C55.3806 78.036 55.2726 78.288 55.1206 78.512C54.9686 78.728 54.7726 78.904 54.5326 79.04C54.2926 79.176 54.0006 79.244 53.6566 79.244C53.3286 79.244 53.0406 79.18 52.7926 79.052C52.5526 78.924 52.3526 78.752 52.1926 78.536C52.0406 78.32 51.9246 78.076 51.8446 77.804C51.7726 77.524 51.7366 77.24 51.7366 76.952ZM56.5366 80V71.432H55.5166V74.624H55.4926C55.3806 74.44 55.2406 74.288 55.0726 74.168C54.9126 74.04 54.7406 73.94 54.5566 73.868C54.3726 73.788 54.1886 73.732 54.0046 73.7C53.8206 73.668 53.6486 73.652 53.4886 73.652C53.0166 73.652 52.6006 73.74 52.2406 73.916C51.8886 74.084 51.5926 74.316 51.3526 74.612C51.1206 74.9 50.9446 75.24 50.8246 75.632C50.7126 76.024 50.6566 76.44 50.6566 76.88C50.6566 77.32 50.7166 77.736 50.8366 78.128C50.9566 78.52 51.1326 78.864 51.3646 79.16C51.6046 79.456 51.9006 79.692 52.2526 79.868C52.6126 80.044 53.0326 80.132 53.5126 80.132C53.9446 80.132 54.3406 80.056 54.7006 79.904C55.0606 79.752 55.3246 79.504 55.4926 79.16H55.5166V80H56.5366ZM67.6377 74.012H68.7777C68.7137 73.556 68.5777 73.156 68.3697 72.812C68.1617 72.46 67.9017 72.168 67.5897 71.936C67.2777 71.704 66.9217 71.528 66.5217 71.408C66.1217 71.288 65.6977 71.228 65.2497 71.228C64.5937 71.228 64.0097 71.348 63.4977 71.588C62.9937 71.82 62.5697 72.14 62.2257 72.548C61.8897 72.956 61.6337 73.436 61.4577 73.988C61.2817 74.532 61.1937 75.116 61.1937 75.74C61.1937 76.364 61.2737 76.948 61.4337 77.492C61.6017 78.036 61.8497 78.508 62.1777 78.908C62.5057 79.308 62.9177 79.624 63.4137 79.856C63.9097 80.08 64.4897 80.192 65.1537 80.192C66.2497 80.192 67.1137 79.892 67.7457 79.292C68.3777 78.692 68.7497 77.852 68.8617 76.772H67.7217C67.6977 77.124 67.6257 77.452 67.5057 77.756C67.3857 78.06 67.2177 78.324 67.0017 78.548C66.7937 78.764 66.5417 78.936 66.2457 79.064C65.9577 79.184 65.6257 79.244 65.2497 79.244C64.7377 79.244 64.2977 79.148 63.9297 78.956C63.5617 78.764 63.2577 78.508 63.0177 78.188C62.7857 77.86 62.6137 77.48 62.5017 77.048C62.3897 76.608 62.3337 76.144 62.3337 75.656C62.3337 75.208 62.3897 74.776 62.5017 74.36C62.6137 73.944 62.7857 73.576 63.0177 73.256C63.2577 72.928 63.5577 72.668 63.9177 72.476C64.2857 72.284 64.7257 72.188 65.2377 72.188C65.8377 72.188 66.3537 72.34 66.7857 72.644C67.2257 72.948 67.5097 73.404 67.6377 74.012ZM70.8499 76.904C70.8499 76.528 70.8979 76.196 70.9939 75.908C71.0979 75.612 71.2379 75.364 71.4139 75.164C71.5899 74.964 71.7939 74.812 72.0259 74.708C72.2659 74.604 72.5179 74.552 72.7819 74.552C73.0459 74.552 73.2939 74.604 73.5259 74.708C73.7659 74.812 73.9739 74.964 74.1499 75.164C74.3259 75.364 74.4619 75.612 74.5579 75.908C74.6619 76.196 74.7139 76.528 74.7139 76.904C74.7139 77.28 74.6619 77.616 74.5579 77.912C74.4619 78.2 74.3259 78.444 74.1499 78.644C73.9739 78.836 73.7659 78.984 73.5259 79.088C73.2939 79.192 73.0459 79.244 72.7819 79.244C72.5179 79.244 72.2659 79.192 72.0259 79.088C71.7939 78.984 71.5899 78.836 71.4139 78.644C71.2379 78.444 71.0979 78.2 70.9939 77.912C70.8979 77.616 70.8499 77.28 70.8499 76.904ZM69.7699 76.904C69.7699 77.36 69.8339 77.784 69.9619 78.176C70.0899 78.568 70.2819 78.912 70.5379 79.208C70.7939 79.496 71.1099 79.724 71.4859 79.892C71.8619 80.052 72.2939 80.132 72.7819 80.132C73.2779 80.132 73.7099 80.052 74.0779 79.892C74.4539 79.724 74.7699 79.496 75.0259 79.208C75.2819 78.912 75.4739 78.568 75.6019 78.176C75.7299 77.784 75.7939 77.36 75.7939 76.904C75.7939 76.448 75.7299 76.024 75.6019 75.632C75.4739 75.232 75.2819 74.888 75.0259 74.6C74.7699 74.304 74.4539 74.072 74.0779 73.904C73.7099 73.736 73.2779 73.652 72.7819 73.652C72.2939 73.652 71.8619 73.736 71.4859 73.904C71.1099 74.072 70.7939 74.304 70.5379 74.6C70.2819 74.888 70.0899 75.232 69.9619 75.632C69.8339 76.024 69.7699 76.448 69.7699 76.904ZM79.7925 80L82.0605 73.796H80.9925L79.3005 78.968H79.2765L77.5365 73.796H76.3965L78.7005 80H79.7925ZM87.3045 76.304H83.7405C83.7565 76.064 83.8085 75.84 83.8965 75.632C83.9845 75.416 84.1045 75.228 84.2565 75.068C84.4085 74.908 84.5885 74.784 84.7965 74.696C85.0125 74.6 85.2525 74.552 85.5165 74.552C85.7725 74.552 86.0045 74.6 86.2125 74.696C86.4285 74.784 86.6125 74.908 86.7645 75.068C86.9245 75.22 87.0485 75.404 87.1365 75.62C87.2325 75.836 87.2885 76.064 87.3045 76.304ZM88.2885 78.032H87.2805C87.1925 78.44 87.0085 78.744 86.7285 78.944C86.4565 79.144 86.1045 79.244 85.6725 79.244C85.3365 79.244 85.0445 79.188 84.7965 79.076C84.5485 78.964 84.3445 78.816 84.1845 78.632C84.0245 78.44 83.9085 78.224 83.8365 77.984C83.7645 77.736 83.7325 77.476 83.7405 77.204H88.3845C88.4005 76.828 88.3645 76.432 88.2765 76.016C88.1965 75.6 88.0445 75.216 87.8205 74.864C87.6045 74.512 87.3125 74.224 86.9445 74C86.5845 73.768 86.1285 73.652 85.5765 73.652C85.1525 73.652 84.7605 73.732 84.4005 73.892C84.0485 74.052 83.7405 74.276 83.4765 74.564C83.2205 74.852 83.0205 75.192 82.8765 75.584C82.7325 75.976 82.6605 76.408 82.6605 76.88C82.6765 77.352 82.7445 77.788 82.8645 78.188C82.9925 78.588 83.1805 78.932 83.4285 79.22C83.6765 79.508 83.9805 79.732 84.3405 79.892C84.7085 80.052 85.1405 80.132 85.6365 80.132C86.3405 80.132 86.9245 79.956 87.3885 79.604C87.8525 79.252 88.1525 78.728 88.2885 78.032ZM89.4058 73.796V80H90.4258V77.24C90.4258 76.84 90.4658 76.488 90.5458 76.184C90.6258 75.872 90.7538 75.608 90.9298 75.392C91.1058 75.176 91.3378 75.012 91.6258 74.9C91.9138 74.788 92.2618 74.732 92.6698 74.732V73.652C92.1178 73.636 91.6618 73.748 91.3018 73.988C90.9418 74.228 90.6378 74.6 90.3898 75.104H90.3658V73.796H89.4058Z" fill="#C6217F"/>
<path d="M65 58.75C65.7956 58.75 66.5587 58.4339 67.1213 57.8713C67.6839 57.3087 68 56.5456 68 55.75C68 54.9544 67.6839 54.1913 67.1213 53.6287C66.5587 53.0661 65.7956 52.75 65 52.75C64.2044 52.75 63.4413 53.0661 62.8787 53.6287C62.3161 54.1913 62 54.9544 62 55.75C62 56.5456 62.3161 57.3087 62.8787 57.8713C63.4413 58.4339 64.2044 58.75 65 58.75Z" fill="#C6217F"/>
<path d="M73.25 49.751H70.485C70.345 49.751 70.17 49.66 70.035 49.517L68.818 47.597C68.7988 47.5668 68.7774 47.5381 68.754 47.511C68.334 47.021 67.766 46.751 67.157 46.751H62.844C62.235 46.751 61.667 47.021 61.247 47.511C61.2235 47.5384 61.2021 47.5674 61.183 47.598L59.967 49.519C59.863 49.633 59.717 49.754 59.563 49.754V49.379C59.563 49.1801 59.484 48.9893 59.3433 48.8486C59.2027 48.708 59.0119 48.629 58.813 48.629H57.688C57.4891 48.629 57.2983 48.708 57.1576 48.8486C57.017 48.9893 56.938 49.1801 56.938 49.379V49.754H56.751C56.1544 49.7545 55.5824 49.9917 55.1606 50.4136C54.7387 50.8354 54.5015 51.4074 54.501 52.004V61C54.5015 61.5966 54.7387 62.1685 55.1606 62.5904C55.5824 63.0122 56.1544 63.2494 56.751 63.25H73.251C73.8476 63.2494 74.4195 63.0122 74.8414 62.5904C75.2632 62.1685 75.5004 61.5966 75.501 61V52C75.5004 51.4034 75.2632 50.8314 74.8414 50.4096C74.4195 49.9877 73.8476 49.7505 73.251 49.75L73.25 49.751ZM65 60.251C63.8065 60.251 62.6619 59.7769 61.818 58.933C60.9741 58.089 60.5 56.9445 60.5 55.751C60.5 54.5575 60.9741 53.4129 61.818 52.569C62.6619 51.7251 63.8065 51.251 65 51.251C66.1934 51.251 67.338 51.7251 68.182 52.569C69.0259 53.4129 69.5 54.5575 69.5 55.751C69.5 56.9445 69.0259 58.089 68.182 58.933C67.338 59.7769 66.1934 60.251 65 60.251Z" fill="#C6217F"/>
</svg>
