<svg width="24" height="24" viewBox="0 0 24 24" fill="none" xmlns="http://www.w3.org/2000/svg">
<path d="M20.25 4.5H15.75V3.375C15.75 3.12877 15.7015 2.88495 15.6073 2.65747C15.513 2.42998 15.3749 2.22328 15.2008 2.04917C15.0267 1.87506 14.82 1.73695 14.5925 1.64273C14.365 1.5485 14.1212 1.5 13.875 1.5H10.125C9.62772 1.5 9.15081 1.69754 8.79917 2.04917C8.44754 2.40081 8.25 2.87772 8.25 3.375V4.5H3.75C3.55109 4.5 3.36032 4.57902 3.21967 4.71967C3.07902 4.86032 3 5.05109 3 5.25C3 5.44891 3.07902 5.63968 3.21967 5.78033C3.36032 5.92098 3.55109 6 3.75 6H4.547L5.437 20.293C5.504 21.552 6.469 22.5 7.687 22.5H16.312C17.537 22.5 18.482 21.573 18.562 20.297L19.453 6H20.25C20.4489 6 20.6397 5.92098 20.7803 5.78033C20.921 5.63968 21 5.44891 21 5.25C21 5.05109 20.921 4.86032 20.7803 4.71967C20.6397 4.57902 20.4489 4.5 20.25 4.5ZM9.027 19.5H9C8.80568 19.5001 8.61889 19.4248 8.47899 19.29C8.33909 19.1551 8.257 18.9712 8.25 18.777L7.875 8.277C7.86784 8.07809 7.93999 7.88448 8.07558 7.73876C8.21117 7.59305 8.39909 7.50716 8.598 7.5C8.79691 7.49284 8.99052 7.56499 9.13624 7.70058C9.28195 7.83617 9.36784 8.02409 9.375 8.223L9.75 18.723C9.75361 18.8215 9.73777 18.9198 9.70337 19.0121C9.66898 19.1045 9.61672 19.1892 9.54957 19.2614C9.48242 19.3335 9.4017 19.3918 9.31204 19.4327C9.22237 19.4737 9.12551 19.4965 9.027 19.5V19.5ZM12.75 18.75C12.75 18.9489 12.671 19.1397 12.5303 19.2803C12.3897 19.421 12.1989 19.5 12 19.5C11.8011 19.5 11.6103 19.421 11.4697 19.2803C11.329 19.1397 11.25 18.9489 11.25 18.75V8.25C11.25 8.05109 11.329 7.86032 11.4697 7.71967C11.6103 7.57902 11.8011 7.5 12 7.5C12.1989 7.5 12.3897 7.57902 12.5303 7.71967C12.671 7.86032 12.75 8.05109 12.75 8.25V18.75ZM14.25 4.5H9.75V3.375C9.74933 3.32557 9.75857 3.2765 9.77717 3.2307C9.79578 3.1849 9.82338 3.14329 9.85834 3.10834C9.89329 3.07338 9.9349 3.04578 9.9807 3.02717C10.0265 3.00857 10.0756 2.99933 10.125 3H13.875C13.9244 2.99933 13.9735 3.00857 14.0193 3.02717C14.0651 3.04578 14.1067 3.07338 14.1417 3.10834C14.1766 3.14329 14.2042 3.1849 14.2228 3.2307C14.2414 3.2765 14.2507 3.32557 14.25 3.375V4.5ZM15.75 18.777C15.743 18.9712 15.6609 19.1551 15.521 19.29C15.3811 19.4248 15.1943 19.5001 15 19.5H14.973C14.7741 19.4927 14.5863 19.4068 14.4507 19.2611C14.3152 19.1154 14.243 18.9219 14.25 18.723L14.625 8.223C14.6392 8.02915 14.728 7.84835 14.8727 7.7186C15.0174 7.58885 15.2068 7.52026 15.401 7.52725C15.5953 7.53425 15.7792 7.61627 15.9142 7.75609C16.0493 7.89591 16.1248 8.08263 16.125 8.277L15.75 18.777Z" fill="black"/>
</svg>
