<svg width="24" height="25" viewBox="0 0 24 25" fill="none" xmlns="http://www.w3.org/2000/svg">
<path d="M12 22.25C6.624 22.25 2.25 17.876 2.25 12.5C2.25 7.123 6.624 2.75 12 2.75C17.376 2.75 21.75 7.123 21.75 12.5C21.75 17.876 17.376 22.25 12 22.25ZM12 4.25C7.453 4.25 3.75 7.953 3.75 12.5C3.75 17.046 7.453 20.75 12 20.75C16.547 20.75 20.25 17.049 20.25 12.5C20.25 7.95 16.55 4.25 12 4.25Z" fill="#81828B"/>
<path d="M15.172 14.186C14.356 14.186 13.568 13.825 12.952 13.168C12.3435 12.5075 11.98 11.6582 11.922 10.762C11.852 9.79202 12.15 8.89902 12.76 8.24902C13.37 7.59902 14.22 7.24902 15.172 7.24902C16.116 7.24902 16.971 7.60602 17.578 8.25502C18.186 8.90402 18.491 9.80202 18.422 10.763C18.3625 11.6588 17.9987 12.5073 17.391 13.168C16.775 13.825 15.987 14.186 15.172 14.186Z" fill="#81828B"/>
<path d="M7.68 14.3452C6.284 14.3452 5.057 13.0552 4.945 11.4702C4.887 10.6582 5.139 9.90818 5.656 9.35718C6.173 8.80718 6.886 8.51318 7.679 8.51318C8.472 8.51318 9.184 8.81518 9.698 9.36318C10.211 9.91218 10.471 10.6682 10.412 11.4732C10.298 13.0562 9.072 14.3452 7.679 14.3452H7.68Z" fill="#81828B"/>
<path d="M19.705 17.1518C19.63 16.9318 19.449 16.6968 19.085 16.4738C17.985 15.8028 16.633 15.4468 15.172 15.4468C13.739 15.4468 12.349 15.8168 11.257 16.4898C10.027 17.2478 9.199 18.3528 8.866 19.6858C8.787 19.9998 8.672 20.5828 8.796 20.9098C10.7668 21.6591 12.9381 21.6934 14.9316 21.0067C16.9251 20.32 18.6147 18.9559 19.706 17.1518H19.705Z" fill="#81828B"/>
<path d="M7.67 19.3132C8.002 17.9912 8.707 16.8882 9.802 15.9972C9.85387 15.9545 9.89332 15.8986 9.91621 15.8355C9.93911 15.7723 9.9446 15.7041 9.93214 15.6381C9.91967 15.5721 9.88969 15.5106 9.84533 15.4601C9.80098 15.4097 9.74388 15.372 9.68 15.3512C9.118 15.1712 8.476 15.0752 7.68 15.0752C6.563 15.0752 5.377 15.3782 4.485 15.9272C4.232 16.0832 3.983 16.1432 3.792 16.1972C4.56006 17.8938 5.83343 19.3118 7.438 20.2572L7.522 20.2512C7.54034 19.9344 7.58991 19.6202 7.67 19.3132Z" fill="#81828B"/>
</svg>
