<svg width="135" height="40" viewBox="0 0 135 40" fill="none" xmlns="http://www.w3.org/2000/svg">
<path d="M0 5.33333C0 2.38781 2.38781 0 5.33333 0H129.6C132.546 0 134.933 2.38782 134.933 5.33333V34.6667C134.933 37.6122 132.546 40 129.6 40H5.33333C2.38781 40 0 37.6122 0 34.6667V5.33333Z" fill="black"/>
<path fill-rule="evenodd" clip-rule="evenodd" d="M0 34.6667V5.33333C0 2.38782 2.38781 0 5.33333 0H129.6C132.546 0 134.933 2.38781 134.933 5.33333V34.6667C134.933 37.6122 132.546 40 129.6 40H5.33333C2.38781 40 0 37.6122 0 34.6667ZM0.8 34.6667V5.33333C0.8 2.82964 2.82964 0.8 5.33333 0.8H129.6C132.104 0.8 134.133 2.82964 134.133 5.33333V34.6667C134.133 37.1704 132.104 39.2 129.6 39.2H5.33333C2.82964 39.2 0.8 37.1704 0.8 34.6667Z" fill="white" fill-opacity="0.5"/>
<path d="M30.4918 20.8147C30.4781 18.4703 31.5403 16.7034 33.6853 15.4006C32.4856 13.6819 30.6706 12.7366 28.2781 12.5544C26.0128 12.3756 23.5343 13.8744 22.6268 13.8744C21.6678 13.8744 19.4746 12.6163 17.749 12.6163C14.1878 12.6713 10.4031 15.4556 10.4031 21.1206C10.4031 22.7947 10.709 24.5238 11.3209 26.3044C12.139 28.6488 15.0884 34.3928 18.165 34.3C19.7737 34.2622 20.9115 33.1587 23.005 33.1587C25.0365 33.1587 26.0884 34.3 27.8828 34.3C30.9868 34.2553 33.6543 29.0338 34.4312 26.6825C30.2684 24.7197 30.4918 20.935 30.4918 20.8147V20.8147ZM26.879 10.3303C28.6218 8.26094 28.4637 6.37719 28.4121 5.7C26.8721 5.78937 25.0915 6.74844 24.0775 7.9275C22.9603 9.1925 22.3037 10.7566 22.4446 12.52C24.1084 12.6472 25.6278 11.7912 26.879 10.3303V10.3303Z" fill="white"/>
<path d="M48.9149 27.8502C49.0893 28.3917 48.6854 28.9461 48.1165 28.9461V28.9461C47.7508 28.9461 47.4273 28.7092 47.3168 28.3606L47.0187 27.4196C46.7308 26.5107 45.8873 25.8931 44.9339 25.8931H44.7681C43.8214 25.8931 42.9864 26.5132 42.713 27.4196L42.4269 28.3677C42.3232 28.7111 42.0069 28.9461 41.6482 28.9461V28.9461C41.097 28.9461 40.7054 28.4095 40.8736 27.8846L43.5499 19.5324C43.737 18.9484 44.28 18.5522 44.8932 18.5522V18.5522C45.5058 18.5522 46.0483 18.9474 46.236 19.5305L48.9149 27.8502ZM44.851 24.6122C45.5391 24.6122 46.0276 23.9416 45.8165 23.2866L45.369 21.8981C45.277 21.6222 45.1049 20.9743 44.8511 19.9552C44.849 19.9464 44.841 19.9401 44.832 19.9401V19.9401C44.8228 19.9401 44.8149 19.9463 44.8128 19.9552C44.7107 20.397 44.5478 21.0449 44.325 21.8981L43.8839 23.2917C43.6769 23.9456 44.1651 24.6122 44.851 24.6122V24.6122Z" fill="white"/>
<path d="M57.8327 25.1066C57.8327 26.3813 57.4899 27.3888 56.8042 28.1284C56.19 28.7868 55.4274 29.1157 54.517 29.1157C53.5388 29.1157 52.8348 28.7643 52.4044 28.0615C52.4007 28.0556 52.3943 28.0519 52.3873 28.0519V28.0519C52.3763 28.0519 52.3674 28.0608 52.3674 28.0718V31.1713C52.3674 31.629 51.9964 32 51.5387 32V32C51.081 32 50.7099 31.629 50.7099 31.1713V23.9187C50.7099 23.3643 50.6999 22.7999 50.6803 22.2253C50.666 21.8039 51.0015 21.4514 51.4231 21.4514H51.5104C51.8467 21.4514 52.1264 21.7101 52.1525 22.0454L52.1972 22.62C52.1981 22.6309 52.2072 22.6394 52.2181 22.6394V22.6394C52.2254 22.6394 52.2322 22.6355 52.236 22.6294C52.7888 21.741 53.6256 21.2975 54.7471 21.2975C55.6272 21.2975 56.3618 21.6467 56.9496 22.3457C57.5389 23.0455 57.8327 23.9655 57.8327 25.1066ZM56.1442 25.1675C56.1442 24.4381 55.9809 23.8367 55.6528 23.3634C55.2944 22.8698 54.8132 22.623 54.2099 22.623C53.801 22.623 53.4294 22.7604 53.0974 23.0314C52.7647 23.3048 52.547 23.6617 52.4452 24.1038C52.3939 24.31 52.3682 24.4787 52.3682 24.6115V25.8611C52.3682 26.4063 52.5346 26.8663 52.8673 27.242C53.2 27.6176 53.6323 27.8051 54.1641 27.8051C54.7883 27.8051 55.2742 27.563 55.6217 27.0803C55.97 26.5968 56.1442 25.9595 56.1442 25.1675Z" fill="white"/>
<path d="M66.4135 25.1066C66.4135 26.3813 66.0706 27.3888 65.3842 28.1284C64.7708 28.7868 64.0081 29.1157 63.0977 29.1157C62.1195 29.1157 61.4156 28.7643 60.9859 28.0615C60.9823 28.0556 60.9758 28.0519 60.9688 28.0519V28.0519C60.9578 28.0519 60.9489 28.0608 60.9489 28.0718V31.1713C60.9489 31.629 60.5779 32 60.1202 32V32C59.6625 32 59.2915 31.629 59.2915 31.1713V23.9187C59.2915 23.3643 59.2814 22.7999 59.2618 22.2253C59.2475 21.8039 59.583 21.4514 60.0046 21.4514H60.092C60.4282 21.4514 60.7079 21.7101 60.734 22.0454L60.7787 22.62C60.7796 22.6309 60.7887 22.6394 60.7996 22.6394V22.6394C60.8069 22.6394 60.8137 22.6355 60.8175 22.6293C61.3696 21.741 62.2064 21.2975 63.3286 21.2975C64.2079 21.2975 64.9426 21.6467 65.5319 22.3457C66.1188 23.0455 66.4135 23.9655 66.4135 25.1066ZM64.7249 25.1675C64.7249 24.4381 64.5609 23.8367 64.2328 23.3634C63.8744 22.8698 63.3947 22.623 62.7907 22.623C62.381 22.623 62.0101 22.7604 61.6774 23.0314C61.3446 23.3048 61.1277 23.6617 61.0259 24.1038C60.9754 24.31 60.9489 24.4787 60.9489 24.6115V25.8611C60.9489 26.4063 61.1153 26.8663 61.4465 27.242C61.7792 27.6169 62.2115 27.8051 62.7448 27.8051C63.3691 27.8051 63.855 27.563 64.2025 27.0803C64.5508 26.5968 64.7249 25.9595 64.7249 25.1675Z" fill="white"/>
<path d="M76.0071 26.0314C76.0071 26.9156 75.7015 27.6349 75.0881 28.1902C74.4141 28.7971 73.4758 29.1001 72.27 29.1001C71.3904 29.1001 70.6487 28.9656 70.0429 28.6961C69.7627 28.5714 69.6444 28.251 69.7262 27.9554V27.9554C69.8498 27.5086 70.3684 27.3067 70.8048 27.4632C71.2976 27.64 71.8189 27.7286 72.3687 27.7286C72.993 27.7286 73.4789 27.5865 73.8279 27.3037C74.1754 27.021 74.3488 26.6414 74.3488 26.1681C74.3488 25.7464 74.2058 25.391 73.9189 25.1028C73.6336 24.8146 73.157 24.5467 72.4915 24.2991C70.6801 23.6204 69.7752 22.6262 69.7752 21.3187C69.7752 20.4643 70.0924 19.7637 70.7276 19.2185C71.3604 18.6726 72.2047 18.4 73.2604 18.4C73.9547 18.4 74.5623 18.4896 75.0838 18.6685C75.3974 18.7761 75.5382 19.123 75.4414 19.44V19.44C75.3137 19.8586 74.8314 20.0507 74.4103 19.9315C74.0372 19.8259 73.6385 19.7731 73.2138 19.7731C72.6307 19.7731 72.1751 19.9175 71.8486 20.205C71.5726 20.4619 71.4342 20.7751 71.4342 21.1461C71.4342 21.5569 71.592 21.8967 71.9092 22.1638C72.1852 22.4106 72.6867 22.6777 73.4143 22.9659C74.3045 23.326 74.9583 23.7469 75.3789 24.2296C75.7979 24.7107 76.0071 25.3129 76.0071 26.0314Z" fill="white"/>
<path d="M81.4869 22.0756C81.4869 22.4211 81.2068 22.7012 80.8613 22.7012H80.5734C80.0689 22.7012 79.6599 23.1102 79.6599 23.6147V26.34C79.6599 27.2655 79.9818 27.7279 80.627 27.7279V27.7279C81.0073 27.7279 81.3764 28.0123 81.3902 28.3924L81.3924 28.4535C81.4024 28.7292 81.235 28.9851 80.9634 29.0337C80.719 29.0775 80.4378 29.0994 80.1202 29.0994C79.4656 29.0994 78.954 28.8987 78.5847 28.498C78.217 28.0966 78.032 27.4233 78.032 26.4775V23.2438C78.032 22.9433 77.7883 22.6996 77.4878 22.6996V22.6996C77.1872 22.6996 76.9436 22.456 76.9436 22.1555V21.9942C76.9436 21.6936 77.1872 21.45 77.4878 21.45V21.45C77.7883 21.45 78.032 21.2064 78.032 20.9058V20.6621C78.032 20.3151 78.2591 20.0089 78.5912 19.9082L78.6347 19.895C79.145 19.7402 79.6599 20.1221 79.6599 20.6554V20.6554C79.6599 21.0942 80.0157 21.45 80.4545 21.45H80.8613C81.2068 21.45 81.4869 21.7301 81.4869 22.0756V22.0756Z" fill="white"/>
<path d="M89.73 25.1371C89.73 26.2891 89.4019 27.2349 88.7473 27.9746C88.0609 28.7361 87.1497 29.1157 86.0139 29.1157C84.9193 29.1157 84.0478 28.7509 83.3979 28.0214C82.7479 27.292 82.423 26.3711 82.423 25.2613C82.423 24.0999 82.7573 23.1486 83.4282 22.409C84.0976 21.6685 85.0009 21.2983 86.1367 21.2983C87.2314 21.2983 88.1122 21.6631 88.7769 22.3933C89.4128 23.1017 89.73 24.0163 89.73 25.1371ZM88.0103 25.191C88.0103 24.4998 87.8634 23.907 87.5657 23.4126C87.2181 22.8143 86.7214 22.516 86.0777 22.516C85.4114 22.516 84.9053 22.8151 84.5578 23.4126C84.26 23.9078 84.1131 24.5099 84.1131 25.2222C84.1131 25.9134 84.26 26.5062 84.5578 26.9998C84.9162 27.5981 85.4168 27.8965 86.0629 27.8965C86.6957 27.8965 87.1925 27.5919 87.5509 26.9842C87.8564 26.4805 88.0103 25.8814 88.0103 25.191Z" fill="white"/>
<path d="M95.1175 22.3906C95.1175 22.6637 94.8681 22.8698 94.595 22.8698V22.8698C94.012 22.8698 93.561 23.0908 93.2439 23.5336C92.9679 23.9241 92.8295 24.4178 92.8295 25.0137V28.1191C92.8295 28.5759 92.4592 28.9462 92.0024 28.9462V28.9462C91.5446 28.9462 91.1739 28.5743 91.1753 28.1166L91.1883 23.8117C91.1883 23.2442 91.1793 22.7101 91.1614 22.2094C91.1467 21.7983 91.4728 21.4522 91.8842 21.4522V21.4522C92.2674 21.4522 92.5826 21.7543 92.5988 22.1372L92.6293 22.8598C92.63 22.8745 92.6421 22.8862 92.6569 22.8862V22.8862C92.6685 22.8862 92.6789 22.8788 92.6829 22.8678C92.8581 22.3835 93.1319 21.9929 93.5051 21.699C93.8743 21.4311 94.2732 21.2975 94.7031 21.2975V21.2975C94.9427 21.2975 95.1175 21.5044 95.1175 21.7439V22.3906Z" fill="white"/>
<path d="M102.53 24.8443V24.8443C102.53 25.2856 102.152 25.5995 101.71 25.5995H99.3998C98.357 25.5995 97.4219 26.6233 98.2182 27.2967V27.2967C98.6372 27.6458 99.1791 27.8208 99.8446 27.8208C100.322 27.8208 100.772 27.7712 101.194 27.6718C101.55 27.5882 101.929 27.7872 102.009 28.1432V28.1432C102.071 28.4213 101.929 28.7082 101.657 28.7955C101.057 28.9889 100.376 29.0852 99.6152 29.0852C98.4584 29.0852 97.5504 28.7432 96.8896 28.0598C96.2303 27.3764 95.8999 26.4586 95.8999 25.3074C95.8999 24.1773 96.207 23.2361 96.822 22.4855C97.4657 21.6842 98.3356 21.2835 99.4302 21.2835C100.505 21.2835 101.319 21.6842 101.872 22.4855C102.31 23.1221 102.53 23.9094 102.53 24.8443ZM100.949 24.4123C100.96 23.9187 100.852 23.4923 100.627 23.1322C100.341 22.6691 99.8998 22.4379 99.3066 22.4379C98.7647 22.4379 98.3239 22.6636 97.9873 23.1166V23.1166C97.5304 23.7127 98.1487 24.4116 98.8998 24.4116H100.949C100.949 24.4116 100.949 24.4119 100.949 24.4123V24.4123Z" fill="white"/>
<path d="M45.9061 11.5626C45.9061 12.6862 45.5707 13.5319 44.9009 14.0998C44.2804 14.6239 43.3987 14.8864 42.2566 14.8864V14.8864C41.4235 14.8864 40.8 14.1857 40.8 13.3526V10.395C40.8 9.40245 41.5225 8.5434 42.5151 8.5434V8.5434C43.603 8.5434 44.423 8.78108 44.976 9.25645C45.5954 9.79386 45.9061 10.5623 45.9061 11.5626ZM44.8562 11.5903C44.8562 10.862 44.6643 10.3036 44.2804 9.91414C43.8966 9.52563 43.336 9.33091 42.5977 9.33091V9.33091C42.1294 9.33091 41.7958 9.73325 41.7958 10.2016V13.3889C41.7958 13.7767 42.0807 14.0903 42.4685 14.0903V14.0903C43.2305 14.0903 43.8187 13.8774 44.2329 13.4517C44.6472 13.026 44.8562 12.4055 44.8562 11.5903Z" fill="white"/>
<path d="M51.4731 12.5441C51.4731 13.2361 51.2765 13.8031 50.8831 14.248C50.4707 14.7052 49.9244 14.9333 49.2422 14.9333C48.5847 14.9333 48.0612 14.7147 47.6706 14.2756C47.2811 13.8375 47.0863 13.2848 47.0863 12.6185C47.0863 11.9217 47.2868 11.3499 47.6896 10.9061C48.0925 10.4622 48.6341 10.2398 49.3163 10.2398C49.9738 10.2398 50.5021 10.4584 50.9021 10.8965C51.2822 11.3223 51.4731 11.8721 51.4731 12.5441ZM50.4403 12.5765C50.4403 12.1613 50.351 11.8053 50.1733 11.5084C49.9643 11.1495 49.6669 10.97 49.2802 10.97C48.8802 10.97 48.5761 11.1495 48.3671 11.5084C48.1885 11.8053 48.1001 12.167 48.1001 12.5947C48.1001 13.0099 48.1894 13.366 48.3671 13.6628C48.5828 14.0217 48.883 14.2012 49.2707 14.2012C49.6507 14.2012 49.9491 14.0189 50.1638 13.6533C50.3482 13.3507 50.4403 12.9918 50.4403 12.5765Z" fill="white"/>
<path d="M58.9378 10.3322C58.9378 10.3321 58.9376 10.332 58.9375 10.3322L57.671 14.3987C57.5909 14.6559 57.3528 14.8311 57.0833 14.8311V14.8311C56.8109 14.8311 56.5709 14.6521 56.4934 14.391L56.0436 12.8772C55.8972 12.3924 55.7781 11.9104 55.6852 11.4322C55.6842 11.4271 55.6798 11.4234 55.6746 11.4234V11.4234C55.6693 11.4234 55.6648 11.4272 55.6639 11.4324C55.5775 11.9237 55.4583 12.4047 55.3053 12.8772L54.826 14.396C54.7443 14.655 54.504 14.8311 54.2324 14.8311V14.8311C53.956 14.8311 53.7127 14.6489 53.635 14.3836L52.6289 10.9481C52.5386 10.6399 52.7697 10.3314 53.0908 10.3314V10.3314C53.314 10.3314 53.5079 10.4847 53.5593 10.7019L53.978 12.4705C54.0998 12.9731 54.2 13.4522 54.2804 13.9058C54.2814 13.911 54.2859 13.9148 54.2912 13.9148V13.9148C54.2963 13.9148 54.3008 13.9112 54.3018 13.9061C54.3761 13.5313 54.4981 13.055 54.6697 12.4801L55.1905 10.7202C55.2586 10.4902 55.4699 10.3323 55.7098 10.3323V10.3323C55.9509 10.3323 56.1629 10.4917 56.23 10.7232L56.7258 12.4343C56.8717 12.9421 56.9906 13.4312 57.0824 13.9025C57.0839 13.9102 57.0906 13.9157 57.0984 13.9157V13.9157C57.1065 13.9157 57.1134 13.9098 57.1146 13.9018C57.182 13.4429 57.283 12.954 57.4166 12.4343L57.8532 10.7454C57.9161 10.5022 58.1355 10.3323 58.3867 10.3323H58.9376C58.9377 10.3323 58.9378 10.3323 58.9378 10.3322V10.3322Z" fill="white"/>
<path d="M64.0996 14.3333C64.0996 14.6083 63.8766 14.8312 63.6017 14.8312V14.8312C63.3267 14.8312 63.1038 14.6083 63.1038 14.3333V12.2539C63.1038 11.4597 62.8036 11.0626 62.2012 11.0626C61.9057 11.0626 61.6672 11.1714 61.4819 11.39C61.2985 11.6086 61.2054 11.8663 61.2054 12.1613V14.3323C61.2054 14.6073 60.9825 14.8302 60.7075 14.8302V14.8302C60.4326 14.8302 60.2097 14.6073 60.2097 14.3323V11.6172C60.2097 11.3569 60.2043 11.0821 60.1939 10.7922C60.1848 10.5405 60.3849 10.3295 60.6367 10.3295H60.6961C60.8945 10.3295 61.0588 10.4833 61.0719 10.6813L61.0941 11.0163C61.0947 11.0257 61.1025 11.033 61.112 11.033V11.033C61.1186 11.033 61.1247 11.0293 61.1278 11.0235C61.2437 10.8092 61.4149 10.6319 61.6387 10.4899C61.9085 10.3219 62.2107 10.2369 62.5413 10.2369C62.9594 10.2369 63.3071 10.3725 63.5836 10.6445C63.9276 10.9776 64.0996 11.475 64.0996 12.1355V14.3333Z" fill="white"/>
<path d="M66.8453 14.3337C66.8453 14.6084 66.6226 14.8311 66.3479 14.8311V14.8311C66.0732 14.8311 65.8505 14.6084 65.8505 14.3337V8.76406C65.8505 8.48936 66.0732 8.26667 66.3479 8.26667V8.26667C66.6226 8.26667 66.8453 8.48936 66.8453 8.76406V14.3337Z" fill="white"/>
<path d="M72.7077 12.5441C72.7077 13.2361 72.5111 13.8031 72.1177 14.248C71.7053 14.7052 71.158 14.9333 70.4768 14.9333C69.8183 14.9333 69.2948 14.7147 68.9052 14.2756C68.5157 13.8375 68.3209 13.2848 68.3209 12.6185C68.3209 11.9217 68.5214 11.3499 68.9242 10.9061C69.3271 10.4622 69.8687 10.2398 70.55 10.2398C71.2084 10.2398 71.7357 10.4584 72.1367 10.8965C72.5168 11.3223 72.7077 11.8721 72.7077 12.5441ZM71.674 12.5765C71.674 12.1613 71.5847 11.8053 71.407 11.5084C71.1989 11.1495 70.9006 10.97 70.5148 10.97C70.1138 10.97 69.8098 11.1495 69.6017 11.5084C69.4231 11.8053 69.3347 12.167 69.3347 12.5947C69.3347 13.0099 69.424 13.366 69.6017 13.6628C69.8174 14.0217 70.1176 14.2012 70.5053 14.2012C70.8854 14.2012 71.1827 14.0189 71.3975 13.6533C71.5828 13.3507 71.674 12.9918 71.674 12.5765Z" fill="white"/>
<path d="M77.4761 14.3198C77.4907 14.5891 77.2824 14.8312 77.0127 14.8312H76.8947C76.7444 14.8312 76.6171 14.7207 76.5958 14.572L76.5612 14.3301C76.5598 14.3202 76.5513 14.3129 76.5413 14.3129V14.3129C76.5349 14.3129 76.5289 14.3159 76.5251 14.321C76.2195 14.7289 75.7854 14.9333 75.2228 14.9333C74.8 14.9333 74.458 14.7968 74.2005 14.5257C73.9667 14.2795 73.8499 13.9731 73.8499 13.6094C73.8499 13.0595 74.0779 12.6405 74.5368 12.3503C74.9792 12.07 75.5954 11.9278 76.3844 11.9244C76.4307 11.9242 76.4685 11.8869 76.4685 11.8406V11.8406C76.4685 11.2478 76.1587 10.9519 75.5383 10.9519C75.2567 10.9519 74.9964 10.9973 74.7575 11.0875C74.5538 11.1644 74.3065 11.0771 74.2423 10.869V10.869C74.1986 10.7272 74.2551 10.5715 74.389 10.5075C74.7619 10.3292 75.2015 10.2398 75.7046 10.2398C76.8751 10.2398 77.4623 10.8603 77.4623 12.1012V13.7583C77.4623 13.9648 77.4669 14.152 77.4761 14.3198ZM76.4932 13.2848V13.2848C76.4932 12.8996 76.1813 12.571 75.801 12.6321C75.1641 12.7344 74.8456 13.023 74.8456 13.4977C74.8456 13.7325 74.9083 13.9081 75.0366 14.0256C75.1649 14.143 75.3283 14.2012 75.5231 14.2012C75.7416 14.2012 75.9459 14.1315 76.1321 13.9931C76.3193 13.8537 76.4343 13.6771 76.477 13.4605C76.4875 13.4118 76.4932 13.3526 76.4932 13.2848Z" fill="white"/>
<path d="M83.162 14.3615C83.1709 14.616 82.9694 14.8311 82.7148 14.8311H82.6634C82.4598 14.8311 82.2911 14.673 82.278 14.4698L82.2558 14.1252C82.2552 14.1158 82.2475 14.1085 82.2381 14.1085V14.1085C82.2314 14.1085 82.2253 14.1123 82.2222 14.1182C81.9393 14.6616 81.4602 14.9333 80.7887 14.9333C80.249 14.9333 79.7996 14.7204 79.4433 14.2947C79.087 13.8689 78.9093 13.3162 78.9093 12.6376C78.9093 11.9092 79.1022 11.3193 79.4898 10.8688C79.8651 10.4488 80.325 10.2388 80.8723 10.2388C81.4708 10.2388 81.8905 10.4401 82.1306 10.8437C82.1327 10.8474 82.1367 10.8497 82.141 10.8497V10.8497C82.1477 10.8497 82.1531 10.8443 82.1531 10.8376V8.76502C82.1531 8.48979 82.3762 8.26667 82.6514 8.26667V8.26667C82.9267 8.26667 83.1498 8.48979 83.1498 8.76502V13.6188C83.1498 13.8784 83.1538 14.1259 83.162 14.3615ZM82.1531 12.9335V12.1832C82.1531 12.0534 82.1436 11.9484 82.1255 11.8682C82.0695 11.6276 81.9488 11.4253 81.7654 11.262C81.5802 11.0988 81.3569 11.0167 81.0994 11.0167C80.7279 11.0167 80.4371 11.1647 80.2233 11.4615C80.0115 11.7584 79.9041 12.1374 79.9041 12.6003C79.9041 13.0452 80.0058 13.406 80.21 13.6837C80.4257 13.9797 80.7165 14.1276 81.0804 14.1276C81.4072 14.1276 81.6685 14.0045 81.8671 13.7572C82.059 13.5291 82.1531 13.2542 82.1531 12.9335Z" fill="white"/>
<path d="M91.7016 12.5441C91.7016 13.2361 91.5049 13.8031 91.1115 14.248C90.6991 14.7052 90.1538 14.9333 89.4706 14.9333C88.8141 14.9333 88.2905 14.7147 87.8991 14.2756C87.5095 13.8375 87.3147 13.2848 87.3147 12.6185C87.3147 11.9217 87.5152 11.3499 87.9181 10.9061C88.3209 10.4622 88.8625 10.2398 89.5457 10.2398C90.2022 10.2398 90.7315 10.4584 91.1305 10.8965C91.5106 11.3223 91.7016 11.8721 91.7016 12.5441ZM90.6697 12.5765C90.6697 12.1613 90.5804 11.8053 90.4027 11.5084C90.1927 11.1495 89.8963 10.97 89.5086 10.97C89.1096 10.97 88.8055 11.1495 88.5955 11.5084C88.4169 11.8053 88.3285 12.167 88.3285 12.5947C88.3285 13.0099 88.4178 13.366 88.5955 13.6628C88.8112 14.0217 89.1115 14.2012 89.4991 14.2012C89.8792 14.2012 90.1785 14.0189 90.3932 13.6533C90.5766 13.3507 90.6697 12.9918 90.6697 12.5765Z" fill="white"/>
<path d="M97.0553 14.3338C97.0553 14.6085 96.8327 14.8312 96.5579 14.8312V14.8312C96.2832 14.8312 96.0605 14.6085 96.0605 14.3338V12.2539C96.0605 11.4597 95.7603 11.0626 95.157 11.0626C94.8615 11.0626 94.623 11.1714 94.4386 11.39C94.2543 11.6086 94.1621 11.8663 94.1621 12.1613V14.3319C94.1621 14.6071 93.939 14.8302 93.6638 14.8302V14.8302C93.3886 14.8302 93.1654 14.6071 93.1654 14.3319V11.6172C93.1654 11.3567 93.1605 11.0818 93.1503 10.7917C93.1415 10.5403 93.3414 10.3295 93.593 10.3295H93.6519C93.8502 10.3295 94.0146 10.4833 94.0277 10.6813L94.0499 11.0162C94.0505 11.0257 94.0583 11.033 94.0678 11.033V11.033C94.0744 11.033 94.0805 11.0294 94.0836 11.0235C94.2004 10.8092 94.3716 10.6319 94.5945 10.4899C94.8653 10.3219 95.1665 10.2369 95.4981 10.2369C95.9152 10.2369 96.2629 10.3725 96.5394 10.6445C96.8843 10.9776 97.0553 11.475 97.0553 12.1355V14.3338Z" fill="white"/>
<path d="M103.756 11.0807V11.0807C103.151 11.0807 102.66 11.5717 102.66 12.1772V13.2667C102.66 13.8222 102.855 14.1 103.241 14.1V14.1C103.469 14.1 103.692 14.2719 103.699 14.5004L103.701 14.5372C103.706 14.7016 103.607 14.8541 103.445 14.8835C103.297 14.9103 103.128 14.9238 102.937 14.9238C102.543 14.9238 102.237 14.8035 102.016 14.563C101.793 14.3224 101.683 13.9177 101.683 13.3497V11.4081C101.683 11.2273 101.537 11.0807 101.356 11.0807V11.0807C101.175 11.0807 101.029 10.9342 101.029 10.7534V10.6587C101.029 10.478 101.175 10.3314 101.356 10.3314V10.3314C101.537 10.3314 101.683 10.1849 101.683 10.0041V9.85791C101.683 9.64932 101.82 9.4653 102.019 9.40477L102.044 9.39734C102.35 9.30448 102.659 9.53365 102.659 9.85365V9.85365C102.659 10.117 102.873 10.3305 103.136 10.3305H103.38C103.588 10.3305 103.756 10.4984 103.756 10.7056V11.0798C103.756 11.0803 103.756 11.0807 103.756 11.0807V11.0807Z" fill="white"/>
<path d="M109.028 14.3328C109.028 14.608 108.805 14.8311 108.53 14.8311V14.8311C108.255 14.8311 108.032 14.608 108.032 14.3328V12.2729C108.032 11.4663 107.731 11.0625 107.13 11.0625C106.668 11.0625 106.353 11.2964 106.18 11.7641C106.15 11.8625 106.133 11.9827 106.133 12.124V14.3328C106.133 14.6075 105.91 14.8302 105.636 14.8302V14.8302C105.361 14.8302 105.138 14.6075 105.138 14.3328V8.76407C105.138 8.48936 105.361 8.26667 105.636 8.26667V8.26667C105.91 8.26667 106.133 8.48936 106.133 8.76407V10.9663C106.133 10.9731 106.139 10.9785 106.145 10.9785V10.9785C106.15 10.9785 106.153 10.9764 106.156 10.9728C106.469 10.4831 106.917 10.2388 107.498 10.2388C107.91 10.2388 108.251 10.3743 108.522 10.6464C108.859 10.9852 109.028 11.4892 109.028 12.1555V14.3328Z" fill="white"/>
<path d="M114.466 12.3684V12.3684C114.466 12.6329 114.238 12.8218 113.974 12.8218H112.584C111.96 12.8218 111.399 13.4359 111.875 13.8403V13.8403C112.128 14.0503 112.454 14.1553 112.853 14.1553C113.139 14.1553 113.409 14.1256 113.663 14.066C113.876 14.0158 114.104 14.1354 114.152 14.3493V14.3493C114.189 14.5165 114.104 14.6889 113.94 14.7413C113.579 14.8572 113.171 14.9151 112.713 14.9151C112.02 14.9151 111.473 14.7099 111.078 14.2994C110.681 13.889 110.484 13.3382 110.484 12.6471C110.484 11.9684 110.668 11.4033 111.037 10.9528C111.423 10.4717 111.945 10.2311 112.603 10.2311C113.247 10.2311 113.737 10.4717 114.067 10.9528C114.334 11.3346 114.466 11.8071 114.466 12.3684ZM112.712 12.1097C113.16 12.1097 113.561 11.7205 113.323 11.3413V11.3413C113.15 11.0635 112.887 10.9241 112.531 10.9241C112.206 10.9241 111.941 11.0597 111.739 11.3317V11.3317C111.465 11.6897 111.836 12.1097 112.286 12.1097H112.712Z" fill="white"/>
</svg>
