<svg width="193" height="50" viewBox="0 0 193 50" fill="none" xmlns="http://www.w3.org/2000/svg">
<path d="M9.05395 31.1109C13.6843 31.1109 15.4732 26.9014 15.4732 22.5519C15.4732 19.6054 14 18.3073 11.334 18.3073C7.93136 18.3073 5.12508 21.254 5.12508 26.5507C5.12508 29.8479 6.59823 31.1109 9.05395 31.1109ZM6.66834 17.6056L6.45801 18.7282C7.44018 17.3249 9.15912 16.2729 11.6497 16.2729C15.5082 16.2729 17.7534 18.2019 17.7534 22.2712C17.7534 27.7432 15.1577 33.1456 8.70299 33.1456C6.42295 33.1456 5.05497 32.1985 4.38831 30.5498L2.95021 38.6177C2.84484 39.2489 2.3188 39.7403 1.65214 39.7403C0.985677 39.7403 0.599861 39.2489 0.705029 38.6177L4.42336 17.6056C4.52873 16.9742 5.09002 16.4832 5.72143 16.4832C6.35284 16.4832 6.77391 16.9742 6.66834 17.6056Z" fill="white"/>
<path d="M31.8904 20.3418C31.8904 19.3247 30.9784 18.3075 28.628 18.3075C25.1553 18.3075 22.9103 20.9032 22.3488 23.9549C28.8385 23.9549 31.8904 22.5871 31.8904 20.3418ZM28.9788 16.2729C32.4866 16.2729 34.1354 18.0617 34.1354 20.0964C34.1354 23.8147 30.4874 25.7788 22.1034 25.7788C21.9982 26.3051 21.9982 26.6558 21.9982 26.8664C21.9982 30.0585 23.5064 31.0759 26.3129 31.0759C28.102 31.0759 29.505 30.3744 30.5925 29.6027C30.8381 29.4272 31.0134 29.3569 31.259 29.3569C31.8203 29.3569 32.2762 29.7778 32.2762 30.3391C32.2762 30.7952 31.9956 31.0408 31.7502 31.2514C30.347 32.409 28.4177 33.1456 25.892 33.1456C22.0333 33.1456 19.7531 31.2161 19.7531 27.1472C19.7531 20.7278 23.261 16.2729 28.9788 16.2729Z" fill="white"/>
<path d="M40.4148 19.1494C41.397 17.5356 43.3615 16.3431 45.782 16.3431C46.308 16.3431 46.694 16.764 46.694 17.2904C46.694 17.9565 46.0624 18.518 45.3962 18.518C42.1688 18.518 40.1342 20.7632 39.5729 23.9901L38.1698 31.8478C38.0645 32.4792 37.5034 32.9702 36.872 32.9702C36.2404 32.9702 35.8195 32.4792 35.9247 31.8478L38.4503 17.6057C38.5559 16.9745 39.0819 16.4835 39.7484 16.4835C40.3798 16.4835 40.8008 16.9745 40.6955 17.6057L40.4148 19.1494Z" fill="white"/>
<path d="M50.4131 20.8329C50.4131 24.2001 58.3409 23.148 58.3409 27.8485C58.3409 31.3914 55.6396 33.1101 51.6408 33.1101C48.9397 33.1101 46.8349 31.7774 45.9229 30.4443C45.8175 30.2688 45.7825 30.0935 45.7825 29.918C45.7825 29.3568 46.2386 28.9006 46.7999 28.9006C47.0104 28.9006 47.3261 28.9709 47.5715 29.2514C48.4836 30.3389 49.8868 30.9705 51.8512 30.9705C54.0613 30.9705 56.0607 30.1987 56.0607 28.1993C56.0607 25.1124 48.0978 26.0244 48.0978 21.2186C48.0978 17.886 50.7288 16.3075 54.2015 16.3075C56.5168 16.3075 58.4811 17.4652 59.2177 18.6581C59.3229 18.8332 59.3932 19.0088 59.3932 19.2192C59.3932 19.7805 58.9371 20.2366 58.376 20.2366C58.2005 20.2366 57.9198 20.2013 57.6392 19.9207C56.7972 19.0789 55.745 18.4475 53.9209 18.4475C52.2019 18.4475 50.4131 19.0088 50.4131 20.8329Z" fill="white"/>
<path d="M74.3021 22.5519C74.3021 19.6054 72.8288 18.3075 70.1627 18.3075C65.5323 18.3075 63.7433 22.5166 63.7433 26.8662C63.7433 29.8131 65.2166 31.1109 67.8827 31.1109C72.5131 31.1109 74.3021 26.9014 74.3021 22.5519ZM61.4633 27.1472C61.4633 21.6749 64.059 16.2729 70.5135 16.2729C74.3372 16.2729 76.5822 18.2021 76.5822 22.2712C76.5822 27.7434 73.9862 33.1456 67.5319 33.1456C63.7082 33.1456 61.4633 31.2161 61.4633 27.1472Z" fill="white"/>
<path d="M93.8413 20.5873C93.8413 21.1484 93.7712 21.9205 93.666 22.4816L92.0172 31.8477C91.9118 32.4789 91.3856 32.9701 90.7193 32.9701C90.0526 32.9701 89.6668 32.4789 89.772 31.8477L91.3505 22.9377C91.4559 22.3413 91.526 21.7101 91.526 21.2188C91.526 19.3596 90.5088 18.2722 87.9479 18.2722C84.4751 18.2722 82.9317 20.3768 82.4407 23.1831L80.897 31.8477C80.7919 32.4789 80.2658 32.9701 79.5992 32.9701C78.9327 32.9701 78.5469 32.4789 78.6521 31.8477L81.1777 17.6056C81.283 16.9742 81.8091 16.4832 82.4758 16.4832C83.1072 16.4832 83.5282 16.9742 83.4227 17.6056L83.2123 18.7284C84.0543 17.3951 85.9134 16.2729 88.2988 16.2729C92.3679 16.2729 93.8413 18.2019 93.8413 20.5873Z" fill="white"/>
<path d="M102.295 31.1109C106.154 31.1109 108.224 27.4978 108.855 23.8496L109.521 19.8858C108.574 18.9387 107.136 18.2372 105.382 18.2372C101.524 18.2372 98.4717 21.745 98.4717 26.8662C98.4717 29.1815 99.4889 31.1109 102.295 31.1109ZM101.944 33.1456C98.156 33.1456 96.2267 30.6901 96.2267 27.2173C96.2267 20.8329 100.085 16.2729 105.558 16.2729C107.171 16.2729 108.75 16.7638 109.907 17.7811L109.942 17.6056C110.083 16.9742 110.504 16.4832 111.24 16.4832C111.942 16.4832 112.293 17.0094 112.188 17.6056L109.662 31.8477C109.557 32.4789 109.031 32.9699 108.364 32.9699C107.697 32.9699 107.347 32.4789 107.452 31.8477L107.873 29.6025C106.68 31.8125 104.575 33.1456 101.944 33.1456Z" fill="white"/>
<path d="M120.537 8.83592L116.994 28.8659C116.923 29.287 116.923 29.4624 116.923 29.6728C116.923 30.5145 117.379 30.8653 118.081 30.8653C118.607 30.8653 118.958 31.2513 118.958 31.7775C118.958 32.4438 118.362 32.97 117.695 32.97C115.696 32.97 114.643 31.9881 114.643 30.0235C114.643 29.6728 114.678 29.287 114.748 28.8659L118.292 8.83592C118.397 8.20452 118.923 7.71353 119.589 7.71353C120.256 7.71353 120.642 8.20452 120.537 8.83592Z" fill="white"/>
<path d="M144.255 8.19592L143.101 14.8837H151.926L150.822 21.4509H141.948L140.009 32.8023H133.024L137.758 5.53504C138.232 2.81043 140.582 0.835938 143.342 0.835938H158.999L157.896 7.40337H145.196C144.732 7.40337 144.336 7.73601 144.255 8.19592Z" fill="white"/>
<path d="M192.438 0.835938L191.334 7.40337H183.988L179.597 32.8023H172.619L177.01 7.40337H169.059L170.234 0.835938H192.438Z" fill="white"/>
<path d="M126.317 5.34157C126.123 7.85655 129.064 10.4557 129.064 10.4557C129.064 10.4557 132.758 8.40379 133.008 5.88334C133.191 4.03868 131.781 2.41658 129.933 2.26698C128.086 2.11736 126.46 3.49326 126.317 5.34157Z" fill="#CB0080"/>
<path d="M160.535 5.19224C160.34 7.70723 163.282 10.3064 163.282 10.3064C163.282 10.3064 166.975 8.25446 167.225 5.73402C167.408 3.88936 165.998 2.26726 164.151 2.11765C162.303 1.96803 160.677 3.34394 160.535 5.19224Z" fill="#CB0080"/>
<path d="M131.819 12.402L131.033 17.1364L128.882 30.2075C128.878 30.2216 128.878 30.2358 128.878 30.2463L128.839 30.48C128.839 30.487 128.839 30.4905 128.836 30.4941C128.567 31.8139 127.406 32.8013 126.009 32.8013C124.413 32.8013 123.118 31.5096 123.118 29.9137C123.118 29.8147 123.121 29.7157 123.132 29.6201C123.132 29.6096 123.135 29.6024 123.135 29.5954L123.167 29.3936L123.946 24.3159L125.98 12.0164C126.009 11.8324 126.168 11.719 126.331 11.719C126.423 11.719 126.518 11.7581 126.592 11.8393L128.546 14.0439L131.26 12.0588C131.323 12.0092 131.398 11.9881 131.465 11.9881C131.67 11.9881 131.854 12.172 131.819 12.402Z" fill="#CB0080"/>
<path d="M166.035 12.2499L165.25 16.995L163.183 30.0554L163.098 30.6038V30.6073C162.787 31.8104 161.733 32.7163 160.455 32.8011H160.247C159.238 32.8011 158.346 32.2916 157.819 31.5132C157.819 31.5132 157.816 31.5132 157.819 31.5096C157.741 31.3929 157.671 31.2726 157.607 31.1451C157.419 30.7595 157.317 30.3279 157.317 29.8714C157.317 29.7793 157.32 29.6873 157.327 29.5989L157.387 29.2344L159.319 17.1647L160.197 11.8643C160.229 11.6803 160.388 11.5669 160.551 11.5669C160.643 11.5669 160.738 11.606 160.813 11.6872L162.762 13.8954L165.476 11.9067C165.54 11.8571 165.614 11.836 165.682 11.836C165.887 11.836 166.071 12.0199 166.035 12.2499Z" fill="#CB0080"/>
<path d="M162.465 34.3433C159.999 43.4017 152.186 49.3574 142.186 49.3574C141.627 49.3574 141.033 49.3363 140.428 49.2972C132.834 48.7949 126.929 45.313 124.218 39.7401C123.44 38.1407 122.969 35.7919 122.82 33.9696C124.772 35.3384 126.715 35.3184 128.616 33.9696C128.627 34.0682 128.638 34.1692 128.65 34.2757C128.861 36.12 129.585 37.8891 130.819 39.2756C132.978 41.7006 136.468 43.2228 140.81 43.5084C148.088 43.9861 153.831 40.7272 156.17 34.7755C156.195 34.7084 156.628 33.6543 156.65 33.5836C158.343 35.2523 160.261 35.7108 162.465 34.3433Z" fill="#CB0080"/>
<path d="M10.5767 9.99977C10.5496 10.1098 10.5112 10.1991 10.4615 10.2679C10.4163 10.332 10.3462 10.3825 10.2514 10.4191C10.1565 10.4512 10.0345 10.4718 9.88537 10.481C9.73627 10.4947 9.5465 10.5016 9.31607 10.5016C9.05853 10.5016 8.85068 10.4947 8.69254 10.481C8.53892 10.4718 8.41693 10.4512 8.32656 10.4191C8.2362 10.3825 8.17068 10.332 8.13002 10.2679C8.08935 10.1991 8.05772 10.1098 8.03513 9.99977L6.6322 4.3626H6.61865L5.29027 9.99977C5.26768 10.1052 5.23605 10.1923 5.19539 10.261C5.15472 10.3252 5.08921 10.3756 4.99884 10.4122C4.91299 10.4489 4.79326 10.4718 4.63964 10.481C4.49053 10.4947 4.29173 10.5016 4.04322 10.5016C3.78116 10.5016 3.57106 10.4947 3.41292 10.481C3.2593 10.4718 3.1373 10.4512 3.04694 10.4191C2.95657 10.3825 2.89106 10.332 2.85039 10.2679C2.80973 10.1991 2.77584 10.1098 2.74873 9.99977L0.756162 2.23835C0.715497 2.07336 0.692906 1.94504 0.688388 1.85338C0.683869 1.75713 0.70872 1.6838 0.762939 1.63339C0.821677 1.58298 0.914302 1.55319 1.04081 1.54402C1.17184 1.53027 1.35258 1.5234 1.58301 1.5234C1.79537 1.5234 1.96255 1.52798 2.08454 1.53715C2.21105 1.54173 2.30594 1.55777 2.36919 1.58527C2.43245 1.60818 2.47537 1.64485 2.49796 1.69526C2.52056 1.74109 2.53863 1.80755 2.55218 1.89463L4.09066 8.70735H4.09744L5.69692 1.94275C5.71499 1.85567 5.73758 1.78463 5.76469 1.72963C5.79632 1.67464 5.84602 1.63339 5.91379 1.60589C5.98609 1.57381 6.08323 1.55319 6.20522 1.54402C6.32722 1.53027 6.48988 1.5234 6.6932 1.5234C6.91008 1.5234 7.08177 1.52798 7.20829 1.53715C7.33932 1.54631 7.43872 1.56694 7.50649 1.59902C7.57879 1.62652 7.63075 1.66776 7.66237 1.72276C7.694 1.77776 7.71885 1.85109 7.73693 1.94275L9.39062 8.70735H9.40418L10.9427 1.91525C10.9562 1.84192 10.9743 1.78005 10.9969 1.72963C11.0195 1.67464 11.0624 1.63339 11.1256 1.60589C11.1889 1.57381 11.2793 1.55319 11.3967 1.54402C11.5142 1.53027 11.6791 1.5234 11.8915 1.5234C12.0903 1.5234 12.2439 1.53027 12.3524 1.54402C12.4653 1.55319 12.5466 1.58298 12.5963 1.63339C12.6461 1.6838 12.6664 1.75942 12.6573 1.86025C12.6528 1.9565 12.6302 2.08941 12.5896 2.25898L10.5767 9.99977Z" fill="white"/>
<path d="M20.7699 10.2129C20.7699 10.2587 20.7541 10.3 20.7225 10.3366C20.6954 10.3733 20.6479 10.4031 20.5802 10.426C20.5124 10.4489 20.422 10.4672 20.3091 10.481C20.1961 10.4947 20.0538 10.5016 19.8821 10.5016C19.7059 10.5016 19.559 10.4947 19.4416 10.481C19.3286 10.4672 19.2382 10.4489 19.1705 10.426C19.1072 10.4031 19.0598 10.3733 19.0281 10.3366C19.001 10.3 18.9875 10.2587 18.9875 10.2129V6.61747H15.7072V10.2129C15.7072 10.2587 15.6936 10.3 15.6665 10.3366C15.6394 10.3733 15.592 10.4031 15.5242 10.426C15.4564 10.4489 15.3661 10.4672 15.2531 10.481C15.1401 10.4947 14.9956 10.5016 14.8194 10.5016C14.6477 10.5016 14.5031 10.4947 14.3856 10.481C14.2726 10.4672 14.1823 10.4489 14.1145 10.426C14.0467 10.4031 13.997 10.3733 13.9654 10.3366C13.9383 10.3 13.9247 10.2587 13.9247 10.2129V1.81213C13.9247 1.7663 13.9383 1.72505 13.9654 1.68839C13.997 1.65172 14.0467 1.62193 14.1145 1.59902C14.1823 1.5761 14.2726 1.55777 14.3856 1.54402C14.5031 1.53027 14.6477 1.5234 14.8194 1.5234C14.9956 1.5234 15.1401 1.53027 15.2531 1.54402C15.3661 1.55777 15.4564 1.5761 15.5242 1.59902C15.592 1.62193 15.6394 1.65172 15.6665 1.68839C15.6936 1.72505 15.7072 1.7663 15.7072 1.81213V5.07756H18.9875V1.81213C18.9875 1.7663 19.001 1.72505 19.0281 1.68839C19.0598 1.65172 19.1072 1.62193 19.1705 1.59902C19.2382 1.5761 19.3286 1.55777 19.4416 1.54402C19.559 1.53027 19.7059 1.5234 19.8821 1.5234C20.0538 1.5234 20.1961 1.53027 20.3091 1.54402C20.422 1.55777 20.5124 1.5761 20.5802 1.59902C20.6479 1.62193 20.6954 1.65172 20.7225 1.68839C20.7541 1.72505 20.7699 1.7663 20.7699 1.81213V10.2129Z" fill="white"/>
<path d="M29.8653 9.78666C29.9195 9.95165 29.9534 10.0823 29.9669 10.1785C29.9805 10.2748 29.9624 10.3481 29.9127 10.3985C29.863 10.4443 29.7749 10.4718 29.6484 10.481C29.5219 10.4947 29.3479 10.5016 29.1265 10.5016C28.8961 10.5016 28.7154 10.497 28.5843 10.4879C28.4578 10.4833 28.3607 10.4718 28.2929 10.4535C28.2251 10.4306 28.1777 10.4008 28.1506 10.3641C28.1235 10.3275 28.1009 10.2793 28.0828 10.2198L27.4932 8.43236H24.1993L23.6436 10.1716C23.6255 10.2358 23.6007 10.2908 23.569 10.3366C23.5419 10.3779 23.4945 10.4122 23.4267 10.4397C23.3634 10.4627 23.2708 10.4787 23.1488 10.4879C23.0313 10.497 22.8755 10.5016 22.6812 10.5016C22.4733 10.5016 22.3107 10.4947 22.1932 10.481C22.0757 10.4672 21.9944 10.4352 21.9492 10.3847C21.904 10.3298 21.8882 10.2541 21.9018 10.1579C21.9153 10.0616 21.9492 9.93332 22.0034 9.77291L24.7076 1.88088C24.7347 1.80296 24.7664 1.74109 24.8025 1.69526C24.8387 1.64485 24.8951 1.60818 24.972 1.58527C25.0533 1.55777 25.164 1.54173 25.3041 1.53715C25.4441 1.52798 25.6294 1.5234 25.8598 1.5234C26.1264 1.5234 26.3387 1.52798 26.4969 1.53715C26.655 1.54173 26.777 1.55777 26.8629 1.58527C26.9532 1.60818 27.0165 1.64485 27.0526 1.69526C27.0933 1.74568 27.1272 1.81442 27.1543 1.9015L29.8653 9.78666ZM25.8395 3.26267H25.8327L24.5924 7.0437H27.0797L25.8395 3.26267Z" fill="white"/>
<path d="M35.8497 2.3071C35.8497 2.44001 35.843 2.55459 35.8294 2.65083C35.8204 2.74249 35.8046 2.81811 35.782 2.87769C35.7594 2.93269 35.73 2.97394 35.6939 3.00143C35.6622 3.02893 35.6261 3.04268 35.5854 3.04268H33.3895V10.2129C33.3895 10.2587 33.3737 10.3 33.3421 10.3366C33.315 10.3733 33.2675 10.4031 33.1998 10.426C33.132 10.4489 33.0394 10.4672 32.9219 10.481C32.8089 10.4947 32.6666 10.5016 32.4949 10.5016C32.3232 10.5016 32.1786 10.4947 32.0612 10.481C31.9482 10.4672 31.8578 10.4489 31.7901 10.426C31.7223 10.4031 31.6726 10.3733 31.641 10.3366C31.6138 10.3 31.6003 10.2587 31.6003 10.2129V3.04268H29.4044C29.3592 3.04268 29.3208 3.02893 29.2892 3.00143C29.2576 2.97394 29.2304 2.93269 29.2079 2.87769C29.1853 2.81811 29.1672 2.74249 29.1536 2.65083C29.1446 2.55459 29.1401 2.44001 29.1401 2.3071C29.1401 2.16961 29.1446 2.05274 29.1536 1.9565C29.1672 1.86025 29.1853 1.78463 29.2079 1.72963C29.2304 1.67005 29.2576 1.62881 29.2892 1.60589C29.3208 1.57839 29.3592 1.56464 29.4044 1.56464H35.5854C35.6261 1.56464 35.6622 1.57839 35.6939 1.60589C35.73 1.62881 35.7594 1.67005 35.782 1.72963C35.8046 1.78463 35.8204 1.86025 35.8294 1.9565C35.843 2.05274 35.8497 2.16961 35.8497 2.3071Z" fill="white"/>
<path d="M39.0487 1.56464C39.0487 1.74338 39.0397 1.90837 39.0216 2.05962C39.0035 2.20627 38.9741 2.34606 38.9335 2.47897C38.8928 2.61187 38.8409 2.74249 38.7776 2.87082C38.7143 2.99456 38.6353 3.12289 38.5404 3.25579L37.6322 4.57572C37.6006 4.62155 37.5644 4.6605 37.5238 4.69258C37.4876 4.72467 37.4424 4.75216 37.3882 4.77508C37.334 4.79341 37.2685 4.80716 37.1917 4.81633C37.1149 4.82549 37.0177 4.83008 36.9002 4.83008C36.7692 4.83008 36.663 4.82549 36.5817 4.81633C36.5004 4.80716 36.4416 4.79112 36.4055 4.76821C36.3694 4.74529 36.349 4.7155 36.3445 4.67884C36.3445 4.63759 36.3558 4.59176 36.3784 4.54134L37.2052 2.64396V1.56464C37.2052 1.40882 37.2233 1.28279 37.2595 1.18654C37.2956 1.0903 37.3521 1.01697 37.4289 0.966555C37.5057 0.911558 37.6028 0.877185 37.7203 0.863436C37.8378 0.845104 37.9801 0.835938 38.1473 0.835938C38.3054 0.835938 38.441 0.845104 38.5539 0.863436C38.6669 0.877185 38.7595 0.911558 38.8318 0.966555C38.9086 1.01697 38.9629 1.0903 38.9945 1.18654C39.0306 1.28279 39.0487 1.40882 39.0487 1.56464Z" fill="white"/>
<path d="M45.921 7.79303C45.921 8.2605 45.8352 8.67068 45.6635 9.02358C45.4918 9.37648 45.2591 9.67208 44.9654 9.9104C44.6717 10.1441 44.3283 10.3206 43.9352 10.4397C43.5421 10.5589 43.1219 10.6185 42.6746 10.6185C42.3719 10.6185 42.0895 10.5933 41.8274 10.5429C41.5699 10.4925 41.3417 10.4329 41.1429 10.3641C40.9441 10.2908 40.7769 10.2152 40.6414 10.1373C40.5104 10.0594 40.4155 9.99061 40.3567 9.93103C40.298 9.87145 40.2551 9.78666 40.228 9.67667C40.2054 9.56209 40.1941 9.39939 40.1941 9.18857C40.1941 9.04649 40.1986 8.92733 40.2076 8.83109C40.2167 8.73485 40.2302 8.65693 40.2483 8.59735C40.2709 8.53777 40.298 8.49653 40.3296 8.47361C40.3658 8.44611 40.4064 8.43236 40.4516 8.43236C40.5149 8.43236 40.603 8.47132 40.716 8.54923C40.8334 8.62256 40.9825 8.70506 41.1633 8.79672C41.344 8.88838 41.5586 8.97317 41.8071 9.05108C42.0601 9.12441 42.3516 9.16107 42.6814 9.16107C42.8983 9.16107 43.0926 9.13586 43.2643 9.08545C43.436 9.03045 43.5805 8.95483 43.698 8.85859C43.82 8.76234 43.9126 8.64319 43.9759 8.50111C44.0392 8.35904 44.0708 8.20092 44.0708 8.02676C44.0708 7.82511 44.0166 7.65324 43.9081 7.51117C43.7997 7.36451 43.6574 7.23618 43.4811 7.12619C43.3095 7.01161 43.1129 6.9062 42.8915 6.80996C42.6701 6.70913 42.4419 6.60372 42.207 6.49373C41.972 6.38374 41.7439 6.25999 41.5225 6.1225C41.3011 5.98043 41.1023 5.81314 40.9261 5.62066C40.7544 5.42358 40.6143 5.19214 40.5058 4.92632C40.3974 4.6605 40.3432 4.34198 40.3432 3.97075C40.3432 3.54453 40.42 3.17101 40.5736 2.85019C40.7318 2.5248 40.9419 2.25669 41.2039 2.04587C41.4705 1.83046 41.7823 1.67005 42.1392 1.56464C42.5007 1.45923 42.8825 1.40653 43.2846 1.40653C43.4924 1.40653 43.7003 1.42257 43.9081 1.45465C44.116 1.48673 44.3103 1.53027 44.491 1.58527C44.6717 1.64027 44.8321 1.70214 44.9722 1.77088C45.1123 1.83963 45.2049 1.89692 45.2501 1.94275C45.2952 1.98858 45.3246 2.02753 45.3382 2.05962C45.3562 2.0917 45.3698 2.13524 45.3788 2.19023C45.3924 2.24065 45.4014 2.3071 45.4059 2.3896C45.4105 2.46751 45.4127 2.56604 45.4127 2.6852C45.4127 2.81811 45.4082 2.9304 45.3992 3.02206C45.3946 3.11372 45.3833 3.18934 45.3653 3.24892C45.3517 3.3085 45.3291 3.35204 45.2975 3.37954C45.2704 3.40704 45.232 3.42078 45.1823 3.42078C45.1326 3.42078 45.0535 3.3887 44.9451 3.32454C44.8366 3.26038 44.7033 3.19163 44.5452 3.1183C44.3871 3.04039 44.2041 2.97164 43.9962 2.91207C43.7884 2.8479 43.5602 2.81582 43.3117 2.81582C43.1174 2.81582 42.948 2.84103 42.8034 2.89144C42.6588 2.93727 42.5368 3.00373 42.4374 3.0908C42.3425 3.1733 42.2702 3.27413 42.2205 3.39329C42.1754 3.51245 42.1528 3.63848 42.1528 3.77139C42.1528 3.96846 42.2047 4.14033 42.3086 4.28698C42.4171 4.42906 42.5594 4.55738 42.7356 4.67196C42.9164 4.78195 43.1197 4.88736 43.3456 4.98819C43.5715 5.08444 43.8019 5.18756 44.0369 5.29755C44.2718 5.40754 44.5023 5.53358 44.7282 5.67565C44.9541 5.81314 45.1552 5.98043 45.3314 6.1775C45.5076 6.36999 45.6499 6.59914 45.7584 6.86496C45.8668 7.12619 45.921 7.43555 45.921 7.79303Z" fill="white"/>
<path d="M53.9726 7.08494V10.2129C53.9726 10.2587 53.9568 10.3 53.9252 10.3366C53.8981 10.3733 53.8506 10.4031 53.7829 10.426C53.7151 10.4489 53.6225 10.4672 53.505 10.481C53.392 10.4947 53.2497 10.5016 53.078 10.5016C52.9018 10.5016 52.7572 10.4947 52.6442 10.481C52.5313 10.4672 52.4387 10.4489 52.3664 10.426C52.2986 10.4031 52.2512 10.3733 52.224 10.3366C52.1969 10.3 52.1834 10.2587 52.1834 10.2129V7.08494L49.7842 2.23835C49.6983 2.06878 49.6418 1.93816 49.6147 1.8465C49.5921 1.75026 49.6057 1.67922 49.6554 1.63339C49.7096 1.58298 49.8068 1.55319 49.9468 1.54402C50.0869 1.53027 50.2812 1.5234 50.5297 1.5234C50.7375 1.5234 50.9024 1.52798 51.0244 1.53715C51.1509 1.54631 51.2504 1.56464 51.3226 1.59214C51.3949 1.61506 51.4469 1.64714 51.4785 1.68839C51.5147 1.72963 51.5486 1.78234 51.5802 1.8465L52.5561 4.03262C52.651 4.24344 52.7436 4.46572 52.834 4.69946C52.9289 4.9332 53.0238 5.17839 53.1187 5.43504H53.1322C53.2181 5.18756 53.3062 4.94694 53.3965 4.71321C53.4869 4.47947 53.575 4.25719 53.6609 4.04637L54.6233 1.874C54.6458 1.80067 54.673 1.74338 54.7046 1.70214C54.7407 1.65631 54.7927 1.61964 54.8605 1.59214C54.9282 1.56464 55.0209 1.54631 55.1383 1.53715C55.2558 1.52798 55.4117 1.5234 55.606 1.5234C55.8635 1.5234 56.0623 1.53027 56.2024 1.54402C56.347 1.55319 56.4441 1.58298 56.4938 1.63339C56.548 1.67922 56.5616 1.75026 56.5345 1.8465C56.5074 1.94275 56.4532 2.07336 56.3718 2.23835L53.9726 7.08494Z" fill="white"/>
<path d="M64.9995 5.90939C64.9995 6.64726 64.9091 7.30722 64.7284 7.88927C64.5477 8.47132 64.2789 8.96629 63.9219 9.37418C63.565 9.77749 63.1222 10.0869 62.5935 10.3023C62.0694 10.5131 61.4617 10.6185 60.7704 10.6185C60.0881 10.6185 59.4917 10.5291 58.9812 10.3504C58.4751 10.1671 58.0526 9.88978 57.7138 9.51855C57.3749 9.14732 57.1196 8.67527 56.9479 8.10238C56.7807 7.5295 56.6972 6.85121 56.6972 6.0675C56.6972 5.34796 56.7875 4.70175 56.9683 4.12887C57.149 3.5514 57.4178 3.06101 57.7748 2.6577C58.1317 2.2544 58.5722 1.94504 59.0964 1.72963C59.625 1.51423 60.2372 1.40653 60.9331 1.40653C61.5972 1.40653 62.1824 1.4959 62.6884 1.67464C63.199 1.85338 63.6237 2.12836 63.9626 2.49959C64.306 2.87082 64.5635 3.34058 64.7352 3.90888C64.9114 4.4726 64.9995 5.13943 64.9995 5.90939ZM63.1289 6.00563C63.1289 5.53816 63.0928 5.11423 63.0205 4.73383C62.9482 4.34886 62.824 4.02117 62.6477 3.75077C62.4761 3.47578 62.2456 3.26496 61.9564 3.1183C61.6673 2.96706 61.3058 2.89144 60.8721 2.89144C60.4338 2.89144 60.0678 2.97623 59.7741 3.1458C59.4804 3.31079 59.2432 3.53307 59.0625 3.81264C58.8817 4.0922 58.753 4.41989 58.6762 4.7957C58.6039 5.16693 58.5677 5.56108 58.5677 5.97813C58.5677 6.46394 58.6039 6.90162 58.6762 7.29118C58.7485 7.67616 58.8705 8.00614 59.0421 8.28112C59.2138 8.55611 59.4443 8.76693 59.7334 8.91359C60.0226 9.05566 60.3863 9.1267 60.8246 9.1267C61.2629 9.1267 61.6289 9.0442 61.9226 8.87921C62.2162 8.71422 62.4535 8.48965 62.6342 8.2055C62.8149 7.92135 62.9414 7.59137 63.0137 7.21556C63.0905 6.83517 63.1289 6.43186 63.1289 6.00563Z" fill="white"/>
<path d="M73.6611 7.14681C73.6611 7.6922 73.582 8.1803 73.4239 8.6111C73.2657 9.04191 73.033 9.40627 72.7258 9.70416C72.4186 10.0021 72.039 10.2289 71.5872 10.3847C71.1354 10.5406 70.6158 10.6185 70.0284 10.6185C69.4771 10.6185 68.9824 10.5497 68.5441 10.4122C68.1058 10.2702 67.7353 10.0571 67.4326 9.77291C67.1299 9.48876 66.8972 9.13586 66.7345 8.71422C66.5764 8.288 66.4973 7.79074 66.4973 7.22244V1.81213C66.4973 1.7663 66.5109 1.72505 66.538 1.68839C66.5651 1.65172 66.6125 1.62193 66.6803 1.59902C66.7526 1.5761 66.8452 1.55777 66.9582 1.54402C67.0712 1.53027 67.2157 1.5234 67.392 1.5234C67.5637 1.5234 67.706 1.53027 67.8189 1.54402C67.9319 1.55777 68.0223 1.5761 68.09 1.59902C68.1578 1.62193 68.2052 1.65172 68.2324 1.68839C68.264 1.72505 68.2798 1.7663 68.2798 1.81213V7.06432C68.2798 7.41722 68.3227 7.72428 68.4086 7.98552C68.4944 8.24217 68.6164 8.45528 68.7746 8.62485C68.9372 8.79443 69.1292 8.92275 69.3506 9.00983C69.5765 9.09233 69.8273 9.13357 70.1029 9.13357C70.3831 9.13357 70.6338 9.09003 70.8552 9.00296C71.0766 8.91588 71.2641 8.78984 71.4178 8.62485C71.5714 8.45528 71.6889 8.24904 71.7702 8.00614C71.856 7.75865 71.8989 7.47909 71.8989 7.16744V1.81213C71.8989 1.7663 71.9125 1.72505 71.9396 1.68839C71.9667 1.65172 72.0142 1.62193 72.0819 1.59902C72.1497 1.5761 72.2401 1.55777 72.353 1.54402C72.4705 1.53027 72.6151 1.5234 72.7868 1.5234C72.9585 1.5234 73.0986 1.53027 73.207 1.54402C73.32 1.55777 73.4103 1.5761 73.4781 1.59902C73.5459 1.62193 73.5933 1.65172 73.6204 1.68839C73.6475 1.72505 73.6611 1.7663 73.6611 1.81213V7.14681Z" fill="white"/>
<path d="M82.0787 10.2266C82.0787 10.277 82.0696 10.3206 82.0516 10.3573C82.0335 10.3893 81.9906 10.4168 81.9228 10.4397C81.855 10.4627 81.7556 10.4787 81.6246 10.4879C81.4935 10.497 81.3151 10.5016 81.0892 10.5016C80.8994 10.5016 80.748 10.497 80.6351 10.4879C80.5221 10.4787 80.4317 10.4627 80.364 10.4397C80.3007 10.4122 80.2555 10.3802 80.2284 10.3435C80.2013 10.3023 80.1787 10.2541 80.1607 10.1991L79.3745 8.21238C79.2796 7.98781 79.187 7.78844 79.0966 7.61429C79.0062 7.44013 78.9046 7.29576 78.7916 7.18119C78.6832 7.06203 78.5567 6.97266 78.4121 6.91308C78.2675 6.8535 78.1003 6.82371 77.9105 6.82371H77.3548V10.2129C77.3548 10.2587 77.339 10.3 77.3074 10.3366C77.2802 10.3733 77.2328 10.4031 77.165 10.426C77.0973 10.4489 77.0069 10.4672 76.8939 10.481C76.781 10.4947 76.6364 10.5016 76.4602 10.5016C76.2885 10.5016 76.1439 10.4947 76.0264 10.481C75.9135 10.4672 75.8231 10.4489 75.7553 10.426C75.6875 10.4031 75.6401 10.3733 75.613 10.3366C75.5859 10.3 75.5723 10.2587 75.5723 10.2129V2.13524C75.5723 1.93358 75.622 1.78921 75.7214 1.70214C75.8253 1.61048 75.9519 1.56464 76.101 1.56464H78.3714C78.6018 1.56464 78.7916 1.56923 78.9407 1.57839C79.0898 1.58756 79.2254 1.59902 79.3474 1.61277C79.6998 1.66318 80.0161 1.75026 80.2962 1.874C80.5809 1.99774 80.8203 2.16044 81.0146 2.3621C81.2134 2.55917 81.3648 2.7952 81.4687 3.07018C81.5726 3.34058 81.6246 3.65223 81.6246 4.00513C81.6246 4.30302 81.5862 4.57572 81.5094 4.8232C81.4371 5.0661 81.3286 5.2838 81.184 5.47629C81.0395 5.66878 80.861 5.83606 80.6486 5.97813C80.4363 6.12021 80.1945 6.23479 79.9234 6.32186C80.0545 6.38603 80.1765 6.46394 80.2894 6.5556C80.4069 6.64726 80.5153 6.75955 80.6147 6.89246C80.7187 7.02078 80.8158 7.16973 80.9062 7.3393C80.9965 7.50429 81.0846 7.6922 81.1705 7.90302L81.9092 9.65604C81.977 9.8302 82.0222 9.95852 82.0448 10.041C82.0674 10.1189 82.0787 10.1808 82.0787 10.2266ZM79.7811 4.19074C79.7811 3.89742 79.7156 3.64994 79.5846 3.44828C79.4535 3.24663 79.2389 3.10455 78.9407 3.02206C78.8503 2.99914 78.7464 2.98081 78.629 2.96706C78.516 2.95331 78.3578 2.94644 78.1545 2.94644H77.3548V5.46941H78.263C78.516 5.46941 78.7374 5.43962 78.9272 5.38004C79.1169 5.31588 79.2751 5.2288 79.4016 5.11881C79.5281 5.00423 79.623 4.86903 79.6862 4.71321C79.7495 4.55738 79.7811 4.38323 79.7811 4.19074Z" fill="white"/>
</svg>
