<svg width="21" height="20" viewBox="0 0 21 20" fill="none" xmlns="http://www.w3.org/2000/svg">
<path d="M10.5 1.875C8.89303 1.875 7.32214 2.35152 5.986 3.24431C4.64985 4.1371 3.60844 5.40605 2.99348 6.8907C2.37852 8.37535 2.21762 10.009 2.53112 11.5851C2.84463 13.1612 3.61846 14.6089 4.75476 15.7452C5.89106 16.8815 7.3388 17.6554 8.91489 17.9689C10.491 18.2824 12.1247 18.1215 13.6093 17.5065C15.094 16.8916 16.3629 15.8502 17.2557 14.514C18.1485 13.1779 18.625 11.607 18.625 10C18.6225 7.84588 17.7657 5.7807 16.2425 4.25751C14.7193 2.73431 12.6541 1.87749 10.5 1.875V1.875ZM13.5933 10.9155L10.9427 13.5661C10.8252 13.6833 10.666 13.7491 10.5 13.7491C10.334 13.7491 10.1749 13.6833 10.0573 13.5661L7.40674 10.9155C7.28975 10.7983 7.22409 10.6394 7.22417 10.4738C7.22426 10.3081 7.2901 10.1493 7.40721 10.0322C7.52433 9.91509 7.68315 9.84926 7.84877 9.84917C8.0144 9.84908 8.17329 9.91475 8.29053 10.0317L9.875 11.6162V6.875C9.875 6.70924 9.94085 6.55027 10.0581 6.43306C10.1753 6.31585 10.3342 6.25 10.5 6.25C10.6658 6.25 10.8247 6.31585 10.9419 6.43306C11.0592 6.55027 11.125 6.70924 11.125 6.875V11.6162L12.7095 10.0317C12.8267 9.91475 12.9856 9.84908 13.1512 9.84917C13.3169 9.84926 13.4757 9.91509 13.5928 10.0322C13.7099 10.1493 13.7757 10.3081 13.7758 10.4738C13.7759 10.6394 13.7103 10.7983 13.5933 10.9155V10.9155Z" fill="url(#paint0_diamond_642_1461)"/>
<defs>
<radialGradient id="paint0_diamond_642_1461" cx="0" cy="0" r="1" gradientUnits="userSpaceOnUse" gradientTransform="translate(18.4393 1.76382) rotate(115.885) scale(18.1857 30.5773)">
<stop stop-color="#E82C68"/>
<stop offset="1" stop-color="#C6217F"/>
</radialGradient>
</defs>
</svg>
