<svg width="133" height="48" viewBox="0 0 133 48" fill="none" xmlns="http://www.w3.org/2000/svg">
<path d="M75.0249 16.9211H70.6682C72.2233 26.9498 73.7736 36.9477 75.3227 46.9362H79.3125C80.0086 41.5743 80.703 36.2289 81.3973 30.8833C81.5336 31.4759 81.623 32.069 81.7087 32.6626C82.0093 34.7462 82.3066 36.8303 82.6089 38.9134C82.9844 41.5019 83.3664 44.0891 83.736 46.6784C83.7652 46.8834 83.8227 46.9543 84.0371 46.9526C85.1793 46.942 86.3218 46.942 87.4642 46.9521C87.6999 46.9541 87.7816 46.8736 87.8035 46.6422C87.8472 46.1798 87.9218 45.7204 87.9864 45.2602C88.2325 43.5091 88.4815 41.7587 88.7253 40.0079C89.0279 37.832 89.3234 35.6554 89.6267 33.4799C90.0017 30.7901 90.3822 28.1011 90.7579 25.4111C91.1067 22.9108 91.4525 20.41 91.7983 17.9095C91.8463 17.5629 91.8873 17.2154 91.932 16.8628H87.5899C86.949 22.1259 86.3104 27.3713 85.6719 32.6169C85.6565 32.6164 85.641 32.6164 85.6256 32.6161C84.9084 27.3776 84.1912 22.139 83.4734 16.8964H79.1172C78.4857 22.1466 77.8551 27.3848 77.2249 32.6231L77.1741 32.6194C76.4584 27.3924 75.7426 22.1654 75.0249 16.9211ZM77.1565 24.5378C77.2877 23.4516 77.4189 22.3657 77.5495 21.2795C77.7194 19.8649 77.8863 18.4498 78.0605 17.0357C78.108 16.6509 78.1746 16.2518 78.5591 16.0538C78.7785 15.9412 79.0398 15.8578 79.2833 15.8538C80.6266 15.8329 81.9701 15.8374 83.3131 15.8399C83.9293 15.8412 84.4015 16.1682 84.4804 16.764C84.6113 17.7507 84.7624 18.7343 84.8993 19.7202C85.1228 21.3293 85.3414 22.9392 85.6105 24.5513C85.6837 23.9603 85.7573 23.3694 85.8294 22.7783C86.0664 20.8382 86.3009 18.8976 86.5406 16.9578C86.5876 16.5803 86.6645 16.1955 87.0475 16.0133C87.2712 15.9068 87.5316 15.8289 87.7768 15.8246C89.1015 15.8015 90.4266 15.7952 91.7515 15.8043C92.6166 15.81 93.0561 16.372 92.9345 17.2294C92.5532 19.9149 92.182 22.6017 91.8083 25.2882C91.3427 28.6351 90.878 31.9821 90.4123 35.3292C90.0175 38.1693 89.6235 41.0101 89.2264 43.8501C89.0796 44.8991 88.9331 45.9478 88.771 46.9945C88.6592 47.7185 88.1671 47.9611 87.5798 47.9746C86.3559 48.003 85.1308 48.0045 83.9067 47.9804C83.3299 47.9689 82.862 47.7283 82.7554 47.0011C82.5566 45.6457 82.3551 44.2909 82.1578 42.9351C81.95 41.5074 81.7454 40.079 81.5386 38.6508C81.5295 38.589 81.5102 38.5284 81.4544 38.4653C81.3767 39.0604 81.2996 39.6555 81.2217 40.2506C80.9354 42.4421 80.6512 44.634 80.3587 46.8246C80.33 47.0383 80.2795 47.2607 80.1845 47.4519C79.9812 47.8608 79.5826 47.9776 79.1707 47.9834C77.9192 48.0018 76.6667 48.0068 75.4152 47.9912C74.8658 47.9847 74.4263 47.7331 74.3215 47.0875C74.1124 45.7988 73.9093 44.5088 73.7083 43.2189C73.074 39.1494 72.4404 35.0797 71.8094 31.0097C71.215 27.1743 70.6245 23.3383 70.0316 19.5025C69.9115 18.7265 69.7801 17.9522 69.6695 17.1746C69.6034 16.7085 69.7175 16.2843 70.154 16.046C70.3606 15.9332 70.623 15.8786 70.8614 15.8749C72.1768 15.8553 73.4927 15.8545 74.8085 15.857C75.5868 15.8585 75.9578 16.1958 76.0734 17.002C76.2246 18.0598 76.3656 19.119 76.5101 20.1778C76.6981 21.5532 76.8846 22.9289 77.0731 24.3043C77.0839 24.3835 77.1077 24.4611 77.1253 24.5395C77.1359 24.5388 77.1462 24.5383 77.1565 24.5378Z" fill="white"/>
<path d="M39.9442 41.1741C40.9618 33.1905 41.9745 25.2454 42.9891 17.2844H39.8015C39.3416 21.4106 38.8839 25.5168 38.4261 29.6227L38.3632 29.6169C37.8463 25.512 37.3293 21.4071 36.8116 17.2957H33.6218C33.1644 21.4398 32.7093 25.5638 32.2541 29.6878C32.1993 29.5968 32.1762 29.5083 32.1652 29.4186C31.9923 28.0253 31.8239 26.6316 31.6492 25.2386C31.3271 22.6699 30.9996 20.1018 30.6812 17.5327C30.6563 17.3331 30.5774 17.2813 30.3836 17.2844C29.5614 17.2982 28.7388 17.2957 27.9163 17.2989C27.7745 17.2994 27.6328 17.2989 27.4594 17.2989C27.5305 17.8232 27.5923 18.3004 27.6604 18.7771C27.9804 21.0143 28.3041 23.2507 28.6227 25.4881C28.9248 27.6084 29.2196 29.7295 29.5219 31.8495C29.9541 34.8816 30.3927 37.9126 30.8192 40.9457C30.8471 41.1424 30.9054 41.2103 31.1041 41.2045C31.5975 41.1907 32.091 41.1965 32.5846 41.1952C32.9746 41.1945 33.3649 41.195 33.7763 41.195C34.2807 36.9662 34.7813 32.7708 35.2819 28.576C35.3028 28.5767 35.3239 28.5777 35.345 28.5785C35.9049 32.7748 36.4646 36.971 37.0252 41.1741H39.9442ZM35.3407 36.8064C35.1718 38.2205 35.0052 39.6351 34.8326 41.0487C34.7856 41.4332 34.7233 41.8335 34.338 42.0316C34.1191 42.1439 33.8572 42.2198 33.6122 42.2268C32.754 42.252 31.8945 42.251 31.0358 42.2389C30.3922 42.2301 29.9393 42.0067 29.8305 41.2374C29.6181 39.7364 29.3977 38.2368 29.1834 36.736C28.7366 33.6079 28.2915 30.4794 27.8457 27.3511C27.432 24.4487 27.0183 21.5463 26.6047 18.6442C26.5572 18.3095 26.5125 17.9747 26.4612 17.6405C26.3348 16.8192 26.7655 16.2786 27.5976 16.2615C28.5659 16.2417 29.535 16.2392 30.5033 16.252C31.2401 16.2618 31.6027 16.6287 31.6992 17.4047C31.8332 18.4834 31.9669 19.562 32.1023 20.6404C32.1124 20.719 32.1355 20.7959 32.1868 20.8695C32.3014 19.8276 32.415 18.7854 32.5313 17.7438C32.5514 17.5626 32.5836 17.3826 32.611 17.2022C32.7173 16.4963 33.191 16.2585 33.7801 16.2457C34.73 16.2251 35.6815 16.213 36.6307 16.2422C37.3422 16.264 37.7445 16.5066 37.8571 17.3618C37.986 18.3396 38.1064 19.3187 38.23 20.2973C38.2542 20.4873 38.277 20.6773 38.3097 20.9417C38.3494 20.8271 38.3765 20.7786 38.3823 20.7276C38.4992 19.6746 38.6088 18.6206 38.7304 17.5681C38.7796 17.1431 38.799 16.6817 39.2323 16.4432C39.4469 16.3251 39.71 16.2444 39.9535 16.2379C40.9032 16.2123 41.8539 16.2176 42.8044 16.2218C43.6485 16.2256 44.0974 16.7244 43.9926 17.5528C43.5814 20.8057 43.1622 24.0577 42.7481 27.3101C42.4091 29.974 42.0733 32.6381 41.735 35.302C41.4938 37.2047 41.2545 39.1076 41.0057 41.0095C40.9547 41.3993 40.8962 41.8197 40.4938 42.0132C40.2478 42.1316 39.958 42.2025 39.6854 42.2118C38.8912 42.2387 38.0956 42.2241 37.3004 42.2261C36.4734 42.2279 36.0957 41.9107 35.9778 41.0857C35.8421 40.1365 35.722 39.185 35.5943 38.2345C35.5305 37.7586 35.4649 37.2831 35.4 36.8074C35.3802 36.8071 35.3606 36.8066 35.3407 36.8064Z" fill="white"/>
<path d="M112.179 17.0075C111.361 23.1621 110.544 29.3016 109.728 35.4416C109.706 35.4408 109.684 35.4401 109.661 35.4393C108.821 29.3056 107.98 23.1716 107.139 17.0284H103.911C103.998 17.628 104.077 18.2043 104.164 18.7788C104.756 22.6607 105.351 26.5422 105.942 30.4239C106.477 33.937 107.012 37.4495 107.533 40.9646C107.571 41.2167 107.667 41.2468 107.88 41.2448C109.095 41.2338 110.31 41.2345 111.525 41.2313C111.614 41.231 111.703 41.2313 111.809 41.2313C113.012 33.1426 114.21 25.0821 115.41 17.0075H112.179ZM109.709 27.7495C109.792 27.1285 109.876 26.5075 109.958 25.8868C110.346 22.9621 110.73 20.0373 111.124 17.1136C111.173 16.7522 111.238 16.3642 111.601 16.1749C111.827 16.0573 112.096 15.9684 112.348 15.9613C113.297 15.9344 114.248 15.9412 115.199 15.9452C116.085 15.949 116.529 16.4959 116.397 17.3709C115.965 20.2429 115.542 23.1161 115.115 25.9888C114.652 29.1053 114.189 32.2221 113.726 35.3383C113.441 37.2535 113.158 39.1688 112.867 41.083C112.833 41.3059 112.785 41.5386 112.685 41.7369C112.474 42.1531 112.064 42.2654 111.644 42.2712C110.337 42.2888 109.03 42.2958 107.723 42.2777C107.146 42.2697 106.676 42.0669 106.562 41.3215C106.36 40.0129 106.156 38.7043 105.956 37.3953C105.377 33.5945 104.799 29.7934 104.222 25.9923C103.78 23.0849 103.338 20.1775 102.899 17.2699C102.789 16.5371 103.261 15.9895 104.057 15.9711C105.052 15.9483 106.049 15.9437 107.044 15.9696C107.576 15.9837 108.03 16.1893 108.137 16.8733C108.302 17.9195 108.444 18.9695 108.588 20.0187C108.943 22.5966 109.295 25.1753 109.648 27.7535C109.669 27.752 109.689 27.751 109.709 27.7495Z" fill="white"/>
<path d="M126.835 27.2038H122.762V20.6336H128.31V16.9564H119.696V41.1867H128.369V37.4638H122.787V30.929H126.835V27.2038ZM123.795 21.6825V26.1732C123.915 26.1732 124.021 26.1734 124.127 26.1732C124.968 26.1714 125.808 26.1616 126.649 26.1712C127.073 26.176 127.485 26.2712 127.696 26.6881C127.803 26.9005 127.871 27.1556 127.876 27.3928C127.897 28.5073 127.896 29.6224 127.89 30.7375C127.886 31.5339 127.441 31.9689 126.641 31.9734C125.709 31.9782 124.777 31.9742 123.825 31.9742V36.4321C123.94 36.4321 124.037 36.4324 124.133 36.4321C125.476 36.4296 126.819 36.4228 128.163 36.4271C128.588 36.4284 129.001 36.5198 129.22 36.9277C129.336 37.1441 129.411 37.409 129.416 37.6538C129.437 38.7776 129.432 39.9017 129.428 41.0256C129.426 41.7707 128.981 42.2253 128.234 42.2291C125.465 42.2429 122.696 42.2512 119.928 42.2537C119.102 42.2547 118.678 41.8089 118.675 40.9668C118.654 33.5921 118.634 26.2174 118.614 18.8427C118.613 18.313 118.61 17.783 118.608 17.253C118.604 16.3241 119.012 15.9049 119.934 15.9022C122.666 15.8941 125.399 15.8881 128.131 15.8828C128.922 15.8813 129.36 16.3208 129.365 17.1268C129.372 18.2235 129.374 19.3202 129.372 20.4167C129.37 21.2322 128.933 21.668 128.116 21.672C126.846 21.678 125.575 21.6793 124.305 21.6825C124.142 21.683 123.979 21.6825 123.795 21.6825Z" fill="white"/>
<path d="M50.2334 20.8348H55.6958V17.2139H47.1988V41.1175H55.7461V37.474H50.2562V30.9947H54.2352V27.3495H50.2334V20.8348ZM51.2678 26.304C52.0257 26.304 52.7457 26.3043 53.4655 26.304C53.6939 26.304 53.9226 26.2952 54.1508 26.304C54.8549 26.3312 55.2694 26.7119 55.2837 27.4113C55.3076 28.5716 55.3098 29.7327 55.2932 30.8927C55.2824 31.6378 54.8308 32.0377 54.0508 32.0455C53.2282 32.0535 52.4059 32.0553 51.5837 32.0598C51.4937 32.06 51.404 32.0598 51.2964 32.0598V36.4441C51.4278 36.4441 51.5525 36.4446 51.6769 36.4441C52.9651 36.4381 54.2536 36.4298 55.542 36.4265C56.3467 36.4248 56.8036 36.8724 56.8099 37.6786C56.8187 38.775 56.8212 39.8715 56.8162 40.9682C56.8127 41.7171 56.3724 42.1642 55.6194 42.1672C52.8598 42.1798 50.1002 42.1865 47.3405 42.1858C46.572 42.1858 46.1745 41.7518 46.1709 40.9468C46.1586 38.1327 46.1468 35.318 46.138 32.5036C46.1224 27.5417 46.1064 22.5799 46.1011 17.618C46.1008 17.3237 46.1405 17.0066 46.2549 16.74C46.4459 16.2939 46.8711 16.1672 47.3229 16.1647C50.0459 16.1501 52.7688 16.1386 55.492 16.1338C56.3015 16.1325 56.7471 16.5861 56.7523 17.3936C56.7589 18.4627 56.7609 19.5317 56.7601 20.6011C56.7596 21.4266 56.3158 21.8689 55.4893 21.8719C54.1915 21.8767 52.894 21.8785 51.5962 21.8815C51.4894 21.8817 51.3824 21.8815 51.2678 21.8815V26.304Z" fill="white"/>
<path d="M64.4845 32.1287C64.5074 32.2282 64.5315 32.3239 64.5513 32.4207C65.1306 35.2311 65.7116 38.0407 66.2834 40.8529C66.3246 41.0552 66.4017 41.1152 66.6048 41.1125C67.5095 41.1017 68.4142 41.1082 69.3189 41.1074C69.4069 41.1072 69.4948 41.0976 69.6082 41.0914C69.5871 40.9589 69.5753 40.8516 69.5529 40.7468C68.853 37.4871 68.1549 34.2271 67.4449 30.9696C67.3957 30.7434 67.4426 30.5942 67.5819 30.4255C68.4361 29.3906 68.8955 28.1949 68.9374 26.8579C68.9724 25.7444 68.9508 24.6286 68.954 23.5138C68.9568 22.5822 68.9452 21.6521 68.7283 20.7373C68.1682 18.3737 66.6699 17.184 64.2437 17.184C62.9002 17.184 61.5567 17.182 60.2132 17.1858C59.9624 17.1863 59.7116 17.2092 59.4957 17.2202V41.0946H62.561V32.1287H64.4845ZM63.579 33.1852C63.579 33.2867 63.5788 33.3887 63.579 33.4903C63.5871 35.9393 63.6004 38.3883 63.5961 40.8373C63.5956 41.1029 63.5406 41.3894 63.43 41.6289C63.2398 42.0416 62.8336 42.1486 62.4185 42.1557C61.505 42.171 60.5907 42.1705 59.6772 42.1637C58.9039 42.1577 58.4709 41.6955 58.4684 40.8845C58.4614 38.6459 58.4591 36.4067 58.4531 34.168C58.4375 28.594 58.4209 23.0197 58.4043 17.4454C58.402 16.641 58.7863 16.1803 59.5802 16.171C61.3612 16.1502 63.1448 16.1278 64.924 16.1944C66.0449 16.2364 67.0868 16.6206 67.9591 17.3755C68.8482 18.1453 69.3556 19.1309 69.6587 20.2525C69.997 21.5056 70.011 22.7812 69.998 24.0609C69.9869 25.1656 70.0183 26.2757 69.9203 27.3734C69.81 28.6068 69.4021 29.7631 68.623 30.7565C68.51 30.901 68.4956 31.033 68.5338 31.2094C69.2212 34.3676 69.8989 37.5275 70.5835 40.6865C70.7622 41.5128 70.3216 42.1087 69.4783 42.1305C68.4828 42.1564 67.4856 42.1647 66.4904 42.1393C65.9094 42.1247 65.4633 41.9162 65.3153 41.1836C64.7969 38.6152 64.2618 36.0498 63.7328 33.4832C63.712 33.3812 63.6873 33.2802 63.6642 33.1786L63.579 33.1852Z" fill="white"/>
<path d="M102.915 41.2674C102.915 41.1809 102.921 41.1259 102.914 41.0728C102.7 39.5569 102.486 38.0413 102.269 36.5259C101.948 34.2792 101.625 32.0332 101.305 29.7865C101.004 27.6755 100.708 25.564 100.408 23.4525C100.117 21.4046 99.8204 19.3577 99.5352 17.309C99.5055 17.0951 99.4311 17.0092 99.2082 17.012C97.9657 17.0268 96.723 17.0341 95.4805 17.0331C95.2993 17.0328 95.2423 17.1082 95.2207 17.2645C94.997 18.89 94.7711 20.5147 94.5462 22.1399C94.268 24.1529 93.9903 26.1662 93.7123 28.1794C93.4092 30.3731 93.1067 32.567 92.8021 34.7607C92.5548 36.539 92.3037 38.3167 92.0567 40.0947C92.0024 40.486 91.9567 40.8783 91.9067 41.2731H95.0975C95.1202 41.1563 95.145 41.059 95.1579 40.96C95.3732 39.2971 95.5899 37.6342 95.7979 35.9702C95.8208 35.784 95.8954 35.722 96.0771 35.723C96.9726 35.7285 97.8685 35.7285 98.7639 35.723C98.9242 35.722 98.976 35.77 98.9974 35.9366C99.2142 37.6364 99.4457 39.3343 99.6656 41.0336C99.6907 41.2264 99.7634 41.2875 99.9604 41.2849C100.865 41.2739 101.77 41.2804 102.675 41.2797C102.746 41.2797 102.818 41.2726 102.915 41.2674ZM98.066 36.78H96.7383C96.6657 37.3283 96.5951 37.8694 96.5222 38.4105C96.3878 39.4062 96.2656 40.4033 96.1128 41.3963C96.0055 42.0927 95.5527 42.3098 94.9804 42.3251C94.0031 42.351 93.0247 42.3457 92.0469 42.3347C91.2213 42.3254 90.7848 41.7775 90.8994 40.9635C91.2636 38.3768 91.6169 35.7883 91.9768 33.2011C92.4256 29.9712 92.877 26.7419 93.3263 23.5121C93.6231 21.3772 93.9179 19.2416 94.2144 17.1065C94.2657 16.7365 94.3454 16.3648 94.7176 16.1889C94.9412 16.0831 95.2016 16.0072 95.4471 16.0025C96.6896 15.9778 97.9328 15.9713 99.1755 15.9793C99.6535 15.9826 100.121 16.0922 100.362 16.5656C100.479 16.7953 100.534 17.0662 100.571 17.3248C101.324 22.578 102.072 27.8318 102.819 33.0857C103.193 35.7172 103.568 38.3486 103.934 40.9814C104.052 41.8315 103.554 42.2774 102.818 42.3007C101.822 42.3324 100.825 42.3467 99.83 42.3103C99.1823 42.2869 98.7762 42.0477 98.6616 41.2191C98.5304 40.2689 98.407 39.3179 98.2796 38.3672C98.2093 37.8435 98.1386 37.3198 98.066 36.78Z" fill="white"/>
<path d="M1.08968 17.3565V41.2741H4.14485V32.2853C4.23231 32.2788 4.31248 32.269 4.39264 32.2682C4.95005 32.2627 5.50745 32.2619 6.06486 32.2541C6.60266 32.2464 7.12413 32.1348 7.59106 31.8737C9.46508 30.8244 10.3947 29.1691 10.5052 27.0681C10.5771 25.7013 10.5248 24.3276 10.5243 22.957C10.5243 21.9796 10.359 21.0342 9.97574 20.13C9.22332 18.353 7.72627 17.3565 5.79897 17.3565H1.08968ZM5.17095 33.3519C5.17095 33.4358 5.1707 33.5341 5.17095 33.6321C5.18025 36.0351 5.19482 38.4379 5.19281 40.8406C5.19256 41.1447 5.15939 41.4714 5.04479 41.7474C4.85958 42.1942 4.43537 42.3259 3.98326 42.3312C3.09714 42.342 2.21078 42.3405 1.32466 42.3397C0.493578 42.3392 0.0552937 41.9037 0.0512727 41.0733C0.0432308 39.383 0.0366968 37.6927 0.0334297 36.0027C0.0213669 29.8717 0.0110632 23.7413 5.60302e-06 17.6106C-0.000748326 17.1733 0.0741419 16.7582 0.49207 16.5237C0.676782 16.4199 0.902207 16.3362 1.11029 16.3344C2.80914 16.3196 4.51126 16.2633 6.2071 16.3407C8.91044 16.4646 10.5799 18.3469 11.1946 20.4986C11.462 21.4353 11.5896 22.3897 11.5766 23.3666C11.5607 24.5266 11.606 25.6884 11.5633 26.8472C11.4856 28.9529 10.7211 30.7548 9.08057 32.1355C8.14671 32.9219 7.05301 33.2682 5.84748 33.3026C5.64668 33.3084 5.44588 33.3086 5.24509 33.3137C5.22925 33.3139 5.21392 33.329 5.17095 33.3519Z" fill="white"/>
<path d="M23.8192 29.2932H23.7908C23.7908 29.0557 23.7923 28.818 23.7905 28.5805C23.7749 26.4517 23.7943 24.3221 23.7317 22.1947C23.6827 20.5258 22.9662 19.1295 21.715 18.025C20.4094 16.873 18.4243 16.6566 16.9433 17.5583C15.1427 18.6545 14.2523 20.3466 14.234 22.4073C14.1935 26.9666 14.2327 31.5269 14.2692 36.0861C14.283 37.8305 14.9349 39.3225 16.2533 40.4971C17.8913 41.9567 20.4082 41.8949 21.9723 40.3576C23.2575 39.0951 23.8157 37.5392 23.8184 35.7624C23.8217 33.6062 23.8192 31.4497 23.8192 29.2932ZM24.8533 29.2593C24.8533 31.3788 24.8526 33.4984 24.8536 35.6182C24.8546 37.7061 24.2439 39.5617 22.737 41.0558C20.8296 42.9466 17.549 43.2143 15.3714 41.0972C13.9404 39.7062 13.2581 37.9918 13.2315 36.0371C13.1787 32.2004 13.1802 28.3631 13.1777 24.5261C13.177 23.5141 13.1609 22.4913 13.2956 21.4926C13.563 19.506 14.5154 17.883 16.2244 16.7876C17.3093 16.0924 18.513 15.8198 19.8103 16.0638C22.3103 16.5342 23.6943 18.1836 24.4635 20.4695C24.8028 21.4775 24.8239 22.5317 24.8196 23.586C24.8124 25.4768 24.8176 27.3682 24.8176 29.2593H24.8533Z" fill="white"/>
<path d="M63.58 27.4609C63.7718 27.4609 63.9444 27.4456 64.1135 27.4642C64.5254 27.5089 64.7423 27.2769 64.8748 26.9374C64.926 26.806 64.9464 26.6542 64.9466 26.5117C64.9481 25.3067 64.9434 24.1014 64.9358 22.8964C64.9346 22.7235 64.9441 22.5365 64.8828 22.3824C64.8217 22.2294 64.6936 22.016 64.5664 21.9944C64.244 21.9389 63.9055 21.9758 63.58 21.9758V27.4609ZM62.5381 28.4983V20.9625C63.2885 20.9625 64.0394 20.904 64.7768 20.9796C65.4611 21.0497 65.8933 21.6438 65.9393 22.438C65.9798 23.1394 65.979 23.843 65.9868 24.5459C65.9939 25.2129 65.9921 25.8799 65.9871 26.5469C65.982 27.1952 65.7315 27.7346 65.2379 28.1568C64.972 28.3839 64.6689 28.5063 64.3111 28.5008C63.7363 28.4915 63.1613 28.4983 62.5381 28.4983Z" fill="white"/>
<path d="M98.4993 32.1093H96.2993C96.6524 29.0415 97.0035 25.9944 97.3541 22.947L97.3933 22.9468C97.7607 25.9891 98.1276 29.0317 98.4993 32.1093Z" fill="white"/>
<path d="M5.16075 27.6342C5.36482 27.6342 5.53822 27.6183 5.7076 27.6377C6.07854 27.6801 6.30145 27.4922 6.43213 27.1798C6.49697 27.0247 6.53944 26.8488 6.54321 26.6812C6.55653 26.0783 6.5515 25.4749 6.54848 24.8718C6.54547 24.2138 6.54497 23.5557 6.52737 22.898C6.51682 22.4954 6.30999 22.1644 6.02928 22.1302C5.74555 22.0958 5.45453 22.1227 5.16075 22.1227V27.6342ZM4.12134 28.6718V21.124C4.85189 21.124 5.57667 21.0592 6.28385 21.1431C6.93274 21.2202 7.29161 21.7289 7.46702 22.3383C7.53161 22.5632 7.56779 22.8042 7.5693 23.038C7.5776 24.3347 7.60222 25.6322 7.5595 26.9275C7.5301 27.8221 6.8204 28.6035 6.04712 28.661C5.52013 28.7002 4.9881 28.6706 4.45834 28.6718H4.12134Z" fill="white"/>
<path d="M18.2465 29.1991H18.2739C18.2739 31.3912 18.2764 33.5831 18.2714 35.7753C18.2706 36.0935 18.351 36.3687 18.5775 36.5956C18.8212 36.8396 19.0434 36.8389 19.2899 36.6014C19.5656 36.3355 19.5965 35.999 19.5955 35.6426C19.585 32.0806 19.5794 28.5183 19.5709 24.9562C19.5689 24.1709 19.5792 23.3845 19.543 22.6004C19.5319 22.3617 19.4249 22.1013 19.2887 21.9003C19.0861 21.6012 18.8054 21.6103 18.5433 21.8601C18.3241 22.0689 18.2427 22.3212 18.2435 22.623C18.2493 24.815 18.2465 27.0069 18.2465 29.1991ZM17.2129 29.1629C17.2129 26.933 17.2113 24.7031 17.2139 22.4733C17.2146 21.6663 17.8288 20.8626 18.578 20.6834C19.1876 20.5377 19.6704 20.7714 20.0705 21.2122C20.4811 21.6648 20.5998 22.2212 20.601 22.8115C20.6073 25.9187 20.6121 29.0262 20.6161 32.1331C20.6178 33.4303 20.6415 34.7284 20.608 36.0246C20.5862 36.8841 19.977 37.6104 19.2422 37.7795C18.7461 37.8934 18.3171 37.7488 17.9482 37.4254C17.4431 36.9831 17.2297 36.4079 17.2302 35.7429C17.2317 33.5497 17.2307 31.3563 17.2307 29.1629H17.2129Z" fill="white"/>
<path d="M121.27 13.8654C121.273 13.8737 121.276 13.882 121.279 13.8903C121.312 13.8757 121.345 13.8609 121.378 13.8463C121.375 13.8398 121.372 13.8332 121.37 13.8265C121.337 13.8393 121.303 13.8523 121.27 13.8654ZM114.81 7.37408L114.843 7.38464C114.849 7.3575 114.855 7.3301 114.862 7.30271C114.853 7.3007 114.845 7.29844 114.837 7.29643C114.828 7.32231 114.819 7.3482 114.81 7.37408ZM112.979 12.69C112.988 12.692 112.997 12.6938 113.006 12.6958C113.017 12.6591 113.028 12.6227 113.039 12.5862C113.027 12.583 113.015 12.58 113.003 12.5769C112.995 12.6146 112.987 12.6523 112.979 12.69ZM116.025 6.68951C116.034 6.69353 116.044 6.69781 116.053 6.70183C116.065 6.68449 116.081 6.66865 116.088 6.64956C116.094 6.63297 116.091 6.61261 116.092 6.59376C116.084 6.59301 116.076 6.59201 116.067 6.591C116.053 6.62392 116.039 6.65659 116.025 6.68951ZM113.343 10.9462C113.323 10.9681 113.318 10.9716 113.316 10.9764C113.305 11.0063 113.294 11.0359 113.284 11.0661C113.283 11.0696 113.29 11.0751 113.293 11.0796C113.306 11.056 113.319 11.0329 113.331 11.0088C113.336 10.9992 113.336 10.9874 113.343 10.9462ZM121.522 7.59272C121.473 7.5593 121.457 7.54196 121.438 7.53819C121.419 7.53417 121.397 7.54321 121.377 7.54648C121.377 7.55628 121.377 7.56583 121.377 7.57538C121.413 7.57965 121.449 7.58392 121.522 7.59272ZM116.101 6.99837C116.09 6.99435 116.079 6.99008 116.068 6.98581C116.048 7.03733 116.027 7.08834 116.007 7.13961C116.016 7.14338 116.026 7.1474 116.035 7.15117C116.057 7.10041 116.079 7.04939 116.101 6.99837ZM122.325 3.3682C122.323 3.37323 122.32 3.37826 122.318 3.38353H122.472C122.472 3.37826 122.472 3.37323 122.471 3.3682H122.325ZM115.104 6.66916C115.117 6.67418 115.13 6.67896 115.142 6.68373C115.165 6.63423 115.187 6.58447 115.209 6.53496C115.198 6.53018 115.188 6.52566 115.177 6.52088C115.152 6.57039 115.128 6.61965 115.104 6.66916ZM113.884 10.7826C113.873 10.7798 113.862 10.7768 113.851 10.7741C113.832 10.8316 113.813 10.8889 113.794 10.9462C113.884 10.9138 113.88 10.8464 113.884 10.7826ZM123.713 3.07769C123.71 3.09428 123.707 3.11111 123.704 3.1277C123.776 3.14454 123.848 3.16138 123.92 3.17847C123.923 3.16288 123.927 3.1473 123.93 3.13197L123.713 3.07769ZM119.879 3.569C120.061 3.60343 120.065 3.60293 120.176 3.54085C120.059 3.55191 119.969 3.56046 119.879 3.569ZM115.778 7.64525C115.747 7.71033 115.666 7.76185 115.713 7.86338C115.793 7.80206 115.806 7.73069 115.778 7.64525ZM114.598 8.09358C114.708 8.04131 114.723 7.94657 114.72 7.84353L114.598 8.09358ZM113.307 11.4848C113.325 11.3928 113.343 11.3005 113.36 11.2083C113.348 11.2058 113.336 11.2035 113.323 11.201C113.267 11.284 113.287 11.3822 113.307 11.4848ZM113.679 14.0059C113.69 14.0102 113.702 14.0144 113.713 14.0185C113.748 13.8684 113.784 13.7181 113.819 13.5679C113.809 13.5656 113.799 13.5633 113.789 13.5611C113.752 13.7091 113.716 13.8576 113.679 14.0059ZM113.677 11.5453C113.788 11.342 113.814 11.245 113.785 11.1472C113.749 11.2799 113.713 11.4126 113.677 11.5453ZM113.224 11.9959C113.212 11.9894 113.2 11.9826 113.188 11.9761C113.099 12.0942 113.061 12.2296 113.076 12.3834C113.126 12.2543 113.175 12.1251 113.224 11.9959ZM114.003 11.7635C114.017 11.766 114.031 11.7687 114.045 11.7712L114.117 11.2752C114.103 11.2732 114.089 11.2711 114.075 11.2689C114.051 11.4337 114.027 11.5986 114.003 11.7635ZM112.616 13.9637C112.662 13.7232 112.708 13.4827 112.754 13.2419C112.679 13.4771 112.593 13.7099 112.616 13.9637ZM113.841 14.2544C113.854 14.2135 113.87 14.1733 113.877 14.1313C113.92 13.8878 113.962 13.6438 114.002 13.3997C114.007 13.3681 114.002 13.3349 114.002 13.3025C113.926 13.6179 113.775 13.9169 113.841 14.2544ZM113.332 12.8715C113.179 13.3806 113.042 13.8931 113.042 14.4311C113.139 13.9112 113.235 13.3914 113.332 12.8715ZM113.875 14.4397C113.888 14.4434 113.901 14.4469 113.914 14.451C113.937 14.3781 113.965 14.3065 113.981 14.2326C114.024 14.0491 114.053 13.8624 114.103 13.6812C114.334 12.8323 114.571 11.9849 114.806 11.1367C114.82 11.0844 114.831 11.0314 114.844 10.9789L114.798 10.9688C114.49 12.1256 114.113 13.264 113.875 14.4397ZM121.462 7.83172L121.459 7.79452C121.402 7.79452 121.344 7.78925 121.287 7.79553C121.067 7.8194 120.847 7.84152 120.629 7.87419C120.069 7.95712 119.51 8.04407 118.952 8.13253C118.871 8.1451 118.793 8.17375 118.714 8.19511C119.635 8.09082 120.551 7.98049 121.462 7.83172ZM118.395 15.1539C118.42 15.1486 118.447 15.1476 118.47 15.1378C119.306 14.7794 120.142 14.4203 120.977 14.0604C121.012 14.0454 121.044 14.0225 121.076 14.0009C121.101 13.983 121.124 13.9614 121.148 13.9413C120.212 14.3105 119.258 14.6264 118.395 15.1539ZM120.008 14.2399C120.013 14.2517 120.017 14.2632 120.022 14.2748C120.569 14.068 121.117 13.8614 121.664 13.6541C121.705 13.6387 121.743 13.6176 121.783 13.5983C121.786 13.5968 121.787 13.589 121.787 13.5842C121.787 13.5789 121.784 13.5736 121.778 13.5493C121.094 13.544 120.57 13.9408 120.008 14.2399ZM118.096 2.70475C118.094 2.71354 118.093 2.72259 118.092 2.73139C118.163 2.72736 118.235 2.7241 118.306 2.71857C118.516 2.70198 118.726 2.68338 118.936 2.6668C119.605 2.61402 120.274 2.55874 120.943 2.51023C121.22 2.49038 121.497 2.47957 121.773 2.47605C121.945 2.47379 122.117 2.49289 122.289 2.50269C122.742 2.52908 123.198 2.53612 123.636 2.68464C123.713 2.71053 123.797 2.71404 123.878 2.72812C123.883 2.71756 123.887 2.70701 123.893 2.69645C123.849 2.66755 123.809 2.63011 123.762 2.61126C123.654 2.56829 123.544 2.52883 123.432 2.49792C123.119 2.41122 122.797 2.40493 122.476 2.38307C121.357 2.30592 120.238 2.27928 119.119 2.38986C118.091 2.49138 117.074 2.65599 116.072 2.90806C115.878 2.95681 115.686 3.01562 115.494 3.06965C116.432 2.97541 117.336 2.67308 118.296 2.64393C118.221 2.66655 118.158 2.68565 118.096 2.70475ZM119.839 3.2325C119.897 3.22194 119.956 3.20938 120.014 3.20108C120.096 3.19003 120.178 3.18148 120.261 3.17344C120.343 3.16515 120.425 3.15861 120.507 3.15157C119.932 3.14127 119.36 3.1654 118.796 3.29382H119.043C118.892 3.31744 118.74 3.3388 118.589 3.36494C118.473 3.38504 118.351 3.38027 118.245 3.44008C118.247 3.45164 118.249 3.4627 118.25 3.47426C118.453 3.45013 118.656 3.42601 118.859 3.40188C118.098 3.58508 117.309 3.62454 116.56 3.86253C116.576 3.8761 116.591 3.88012 116.605 3.87786C117.097 3.80071 117.589 3.71752 118.082 3.64691C118.706 3.55744 119.323 3.40364 119.959 3.42425C119.878 3.43656 119.797 3.45214 119.716 3.46069C119.563 3.47627 119.411 3.48758 119.269 3.56322C119.596 3.53683 119.923 3.5107 120.249 3.48456C120.249 3.47526 120.249 3.46596 120.249 3.45641C120.151 3.44661 120.053 3.43656 119.955 3.42651C120.009 3.41847 120.063 3.40163 120.117 3.40389C120.332 3.41319 120.553 3.33377 120.763 3.44108C121.122 3.42575 121.48 3.41042 121.839 3.39535C121.839 3.38755 121.839 3.37951 121.839 3.37172C121.743 3.36494 121.646 3.35815 121.55 3.35137C121.889 3.33478 122.227 3.33126 122.565 3.33579C122.9 3.34031 123.234 3.35287 123.566 3.36217C123.563 3.33905 123.558 3.30864 123.553 3.2722C123.799 3.26894 124.028 3.34559 124.295 3.32498C124.037 3.186 122.162 3.0214 121.91 3.11514C122.265 3.13222 122.589 3.14781 122.913 3.16339C122.912 3.1747 122.911 3.186 122.91 3.19731C122.773 3.185 122.636 3.16364 122.5 3.16288C122.033 3.15987 121.567 3.1561 121.101 3.16841C120.68 3.17922 120.26 3.21038 119.839 3.2325ZM114.47 11.2724C114.478 11.3041 114.486 11.336 114.5 11.3933C114.521 11.3201 114.536 11.2714 114.55 11.2229C114.541 11.2174 114.531 11.2118 114.522 11.2063C114.503 11.2304 114.485 11.2543 114.466 11.2782C114.483 11.1917 114.5 11.1055 114.516 11.0191L114.485 11.0118C114.457 11.0819 114.427 11.1523 114.398 11.2224C114.392 11.2204 114.385 11.2184 114.378 11.2164C114.388 11.1477 114.398 11.0789 114.408 11.01C114.358 11.043 114.326 11.0852 114.314 11.1327C114.223 11.4981 114.136 11.8645 114.047 12.2372C114.069 12.2362 114.086 12.2349 114.112 12.2337C114.092 12.3266 114.071 12.4179 114.051 12.5093C114.114 12.4123 114.137 12.2794 114.215 12.2213C114.312 12.1487 114.318 12.0585 114.343 11.9693C114.378 11.8421 114.403 11.7114 114.426 11.5813C114.445 11.4795 114.455 11.3762 114.47 11.2724ZM119.755 7.90535C120.223 7.85861 120.691 7.81287 121.16 7.76411C121.223 7.75733 121.284 7.73547 121.346 7.72064C121.308 7.69274 121.275 7.68922 121.243 7.69324C120.764 7.7513 120.286 7.80985 119.809 7.87042C119.79 7.87268 119.775 7.89479 119.757 7.90686H119.534C119.534 7.91339 119.535 7.91968 119.535 7.92621L119.755 7.90535ZM115.215 7.83071C115.143 7.85685 115.137 7.91817 115.113 8.00311C115.209 7.95486 115.213 7.89304 115.212 7.8282C115.254 7.78698 115.28 7.74074 115.247 7.67691C115.236 7.72818 115.226 7.77944 115.215 7.83071ZM114.478 5.66291C114.178 5.63929 113.899 5.63527 113.627 5.59154C113.149 5.51464 112.748 5.28997 112.463 4.88687C112.255 4.59158 112.146 4.26588 112.201 3.89922C112.26 3.50944 112.479 3.22923 112.806 3.02667C113.108 2.83995 113.443 2.73842 113.786 2.6663C114.85 2.44313 115.919 2.25088 117 2.12372C118.518 1.94504 120.041 1.87015 121.569 1.90634C122.196 1.92141 122.824 1.93247 123.445 2.03023C123.747 2.07773 124.048 2.13277 124.327 2.26169C124.451 2.31899 124.576 2.38935 124.678 2.47907C124.9 2.67409 124.916 2.9445 124.71 3.15333C124.579 3.28527 124.421 3.39761 124.259 3.48984C123.871 3.71149 123.449 3.85072 123.009 3.92888C122.49 4.02136 121.969 4.09524 121.451 4.19099C120.606 4.34706 119.762 4.51141 118.919 4.67828C118.549 4.75166 118.183 4.84314 117.814 4.91979C117.73 4.93738 117.672 4.97282 117.633 5.04746C117.565 5.1804 117.487 5.30907 117.425 5.44503C117.112 6.13161 116.803 6.81969 116.493 7.50778C116.469 7.56106 116.448 7.61609 116.417 7.69375C116.666 7.64223 116.887 7.59699 117.108 7.551C118.113 7.34166 119.124 7.16901 120.144 7.05391C120.464 7.01772 120.781 6.95967 121.099 6.91343C121.277 6.88755 121.453 6.90036 121.626 6.94962C121.792 6.99661 121.827 7.08784 121.738 7.2429C121.73 7.25697 121.723 7.27155 121.713 7.29014C121.736 7.31904 121.757 7.34744 121.781 7.37785C121.65 7.41228 121.657 7.52009 121.662 7.6073C121.666 7.6749 121.646 7.69777 121.589 7.70305C121.608 7.75658 121.624 7.80156 121.645 7.85785C121.581 7.89052 121.508 7.92797 121.423 7.97094C121.438 8.0021 121.454 8.03402 121.469 8.06594C121.429 8.10866 121.372 8.1451 121.353 8.19561C121.305 8.32554 121.216 8.32403 121.1 8.31473C120.588 8.27352 120.079 8.30518 119.58 8.42983C119.437 8.46527 119.304 8.54066 119.168 8.59997C119.138 8.61279 119.113 8.6349 119.076 8.65878C119.119 8.68642 119.135 8.69723 119.172 8.7216C118.179 8.95633 117.199 9.17723 116.265 9.566C116.33 9.55872 116.396 9.55796 116.459 9.54364C117.373 9.33857 118.287 9.12822 119.202 8.92692C119.504 8.86033 119.812 8.8166 120.117 8.76156C120.181 8.75 120.245 8.73492 120.307 8.69497C120.005 8.71859 119.703 8.74171 119.401 8.76508C119.4 8.75603 119.399 8.74699 119.398 8.73794C119.56 8.70502 119.722 8.6736 119.883 8.63842C120.013 8.61002 120.139 8.57459 120.261 8.51855C120.429 8.44064 120.871 8.38359 121.092 8.41199C120.975 8.49166 120.878 8.55574 120.784 8.6241C120.754 8.64521 120.726 8.67486 120.711 8.70703C120.66 8.81861 120.575 8.89576 120.473 8.95507C120.377 9.01111 120.282 9.07143 120.181 9.1144C119.231 9.5175 118.283 9.92362 117.329 10.3152C116.81 10.528 116.274 10.6936 115.724 10.8052C115.578 10.8349 115.428 10.8464 115.262 10.8688C115.247 10.9178 115.228 10.9743 115.212 11.0314C114.939 12.0145 114.665 12.9974 114.394 13.9808C114.364 14.0873 114.34 14.1969 114.329 14.3067C114.303 14.5703 114.437 14.786 114.68 14.891C114.853 14.9654 115.036 14.9727 115.22 14.9677C115.556 14.9589 115.878 14.8782 116.197 14.7799C116.202 14.7784 116.207 14.7764 116.212 14.7744C117.254 14.3592 118.336 14.0619 119.388 13.6754C119.835 13.5108 120.274 13.3228 120.715 13.1429C120.962 13.0426 121.209 12.9426 121.478 12.9177C122.059 12.8637 122.431 13.3359 122.248 13.8948C122.19 14.0727 122.087 14.2225 121.964 14.3597C121.719 14.6304 121.43 14.8483 121.115 15.024C120.582 15.3205 120.048 15.6193 119.498 15.8814C118.883 16.1744 118.252 16.4376 117.62 16.6919C117.424 16.7706 117.229 16.8588 117.024 16.9171C116.816 16.9764 116.609 17.0379 116.398 17.0852C116.182 17.1337 115.963 17.1759 115.744 17.2031C115.226 17.2674 114.705 17.3287 114.184 17.2536C113.29 17.1249 112.559 16.7102 112.04 15.9608C111.69 15.4572 111.569 14.892 111.632 14.2836C111.713 13.5118 111.929 12.7722 112.164 12.0376C112.24 11.8001 112.323 11.5652 112.406 11.3206C112.37 11.2948 112.336 11.2689 112.3 11.245C112.041 11.0716 111.84 10.8452 111.69 10.5738C111.515 10.2566 111.516 9.92312 111.631 9.59063C111.778 9.16265 112.07 8.85857 112.49 8.69396C112.778 8.58087 113.077 8.49316 113.375 8.40696C113.467 8.38007 113.519 8.33836 113.544 8.2504C113.558 8.2024 113.58 8.15691 113.593 8.10866C113.795 7.34518 114.113 6.62292 114.394 5.88784C114.424 5.81144 114.452 5.73429 114.478 5.66291Z" fill="white"/>
<path d="M103.079 6.37337L103.115 6.38041C103.118 6.34623 103.121 6.3118 103.124 6.27762C103.116 6.27662 103.107 6.27561 103.099 6.27461C103.092 6.30753 103.086 6.34045 103.079 6.37337ZM102.988 6.1668C102.979 6.16303 102.97 6.15926 102.961 6.15574C102.95 6.19117 102.939 6.22686 102.928 6.26229C102.934 6.26405 102.94 6.26581 102.947 6.26782C102.96 6.23415 102.974 6.20047 102.988 6.1668ZM104.793 8.04358V8.04735H104.858L104.858 8.04358H104.793ZM103.03 6.03963C103.039 6.0341 103.045 6.03235 103.046 6.02883C103.059 5.99968 103.071 5.97027 103.082 5.94011C103.083 5.93735 103.076 5.93157 103.073 5.9273C103.059 5.94866 103.042 5.96902 103.032 5.99214C103.025 6.00445 103.03 6.02154 103.03 6.03963ZM99.7856 13.2135C99.7743 13.209 99.7632 13.2047 99.7519 13.2002C99.7409 13.2535 99.7295 13.307 99.7185 13.3605C99.728 13.3628 99.7376 13.3648 99.7474 13.3668C99.76 13.3158 99.7728 13.2645 99.7856 13.2135ZM103.184 9.13175C103.175 9.11943 103.165 9.10737 103.156 9.09531C103.129 9.11466 103.103 9.13401 103.076 9.15361C103.084 9.16417 103.091 9.17472 103.099 9.18527C103.127 9.16743 103.156 9.14959 103.184 9.13175ZM102.684 7.13384C102.672 7.12931 102.661 7.12504 102.649 7.12077C102.628 7.18937 102.606 7.25798 102.585 7.32634C102.623 7.3085 102.64 7.28286 102.65 7.25446C102.664 7.21526 102.673 7.1743 102.684 7.13384ZM103.153 5.66342C103.163 5.66971 103.172 5.67624 103.182 5.68252C103.248 5.60788 103.29 5.5237 103.259 5.41186C103.224 5.49555 103.188 5.57949 103.153 5.66342ZM103.192 6.29773L103.082 6.53622C103.093 6.541 103.104 6.54602 103.115 6.5508C103.18 6.48144 103.217 6.39976 103.192 6.29773ZM102.631 5.80541C102.68 5.67926 102.73 5.55335 102.793 5.39327C102.671 5.52294 102.642 5.5923 102.631 5.80541ZM106.097 9.00408C105.981 8.93472 105.857 8.89702 105.696 8.90255C105.83 9.00308 105.965 8.99704 106.097 9.00408ZM100.469 11.0776C100.542 10.9437 100.592 10.8022 100.614 10.6519C100.519 10.7786 100.489 10.9266 100.469 11.0776ZM101.185 8.17627C101.393 8.20592 101.638 8.17375 101.767 8.09132C101.564 8.12098 101.397 8.14536 101.185 8.17627ZM106.209 8.66129C106.091 8.56077 105.842 8.51554 105.68 8.55022C105.859 8.58791 106.034 8.6246 106.209 8.66129ZM103.058 5.56717C102.966 5.79963 102.875 6.03184 102.783 6.26405C102.93 6.09819 103.083 5.71921 103.058 5.56717ZM104.432 9.43156C104.096 9.3524 103.707 9.34435 103.593 9.41321C103.884 9.42729 104.156 9.48107 104.432 9.43156ZM102.772 6.38493C102.674 6.50405 102.26 7.5681 102.264 7.69476C102.444 7.26225 102.651 6.84005 102.772 6.38493ZM100.701 11.1302C100.847 10.953 100.951 10.7602 101.003 10.5227C100.861 10.531 100.779 10.5745 100.718 10.6964C100.644 10.8422 100.709 10.9831 100.701 11.1302ZM105.08 9.04153C104.657 8.95231 104.228 8.91562 103.795 8.87214C103.786 8.91537 103.78 8.94653 103.771 8.99076C104.211 9.02946 104.643 9.07445 105.08 9.04153ZM99.6097 16.0126C99.6001 15.8666 99.7072 15.7324 99.6202 15.5816C99.5951 15.5376 99.6036 15.473 99.6006 15.4178C99.586 15.1187 99.5725 14.8196 99.5579 14.5203C99.5569 14.498 99.5534 14.4753 99.5506 14.453C99.5114 14.5394 99.4946 14.6251 99.4875 14.7116C99.48 14.8048 99.4933 14.9011 99.4757 14.9915C99.4531 15.1096 99.4878 15.2466 99.3762 15.3396C99.3566 15.5396 99.3616 15.7382 99.4207 15.9322C99.4262 15.95 99.4473 15.9631 99.4611 15.9784C99.5267 15.9093 99.538 16.0206 99.6097 16.0126ZM103.104 9.27399C103.103 9.28429 103.103 9.29434 103.102 9.3044C103.412 9.3044 103.722 9.29334 104.03 9.30716C104.358 9.32199 104.684 9.324 105.01 9.29133C105.125 9.27977 105.243 9.27725 105.37 9.19709C105.184 9.16944 105.027 9.1325 104.867 9.12471C104.408 9.10259 103.947 9.09229 103.487 9.07797C103.46 9.07721 103.431 9.07696 103.404 9.08249C103.35 9.0933 103.316 9.1222 103.327 9.18553C103.388 9.2001 103.445 9.21418 103.503 9.228C103.501 9.23604 103.499 9.24383 103.498 9.25187C103.366 9.25941 103.235 9.2667 103.104 9.27399ZM106.753 8.61329L106.768 8.56982C106.688 8.52307 106.613 8.46427 106.527 8.43235C106.383 8.37832 106.235 8.32555 106.083 8.29991C105.459 8.19386 104.828 8.18079 104.197 8.16144C104.177 8.16069 104.157 8.16848 104.137 8.17225C105.02 8.27654 105.871 8.54494 106.753 8.61329ZM100.046 14.7106L100.099 14.7231C100.117 14.6673 100.141 14.6128 100.153 14.5558C100.179 14.4422 100.195 14.3263 100.222 14.2135C100.237 14.1499 100.252 14.0765 100.292 14.031C100.466 13.836 100.518 13.6018 100.527 13.3535C100.541 12.9878 100.681 12.6674 100.864 12.3586C100.883 12.3756 100.896 12.3885 100.912 12.403C101.004 12.1947 101.123 12.0062 101.148 11.778C101.181 11.4938 101.284 11.2314 101.417 10.9786C101.518 10.7874 101.603 10.5881 101.693 10.3916C101.708 10.3594 101.713 10.3225 101.727 10.2694C101.639 10.2948 101.573 10.3192 101.504 10.333C101.383 10.3576 101.324 10.4277 101.282 10.5464C101.005 11.3365 100.718 12.1228 100.436 12.9117C100.392 13.0366 100.357 13.1655 100.328 13.2952C100.27 13.5548 100.219 13.8162 100.167 14.077C100.125 14.2879 100.086 14.4995 100.046 14.7106ZM100.301 12.3696C100.193 12.4425 100.121 12.5352 100.072 12.6621C99.8909 13.1349 99.7645 13.6196 99.7052 14.122C99.676 14.3715 99.6547 14.6221 99.6295 14.8722C99.6418 14.8747 99.6542 14.8769 99.6665 14.8794C99.6981 14.7774 99.7373 14.6769 99.7605 14.5728C99.8532 14.1574 99.9334 13.739 100.033 13.3251C100.11 13.0029 100.208 12.6858 100.297 12.3658C100.377 12.1565 100.457 11.9474 100.538 11.7361C100.486 11.7243 100.456 11.7172 100.427 11.7102C100.287 11.9122 100.281 12.1384 100.301 12.3696ZM102.748 7.25622C102.768 7.23662 102.789 7.21828 102.807 7.19717C102.83 7.17002 102.85 7.14087 102.871 7.11273C102.821 7.25195 102.77 7.39092 102.712 7.55C102.756 7.52135 102.782 7.50477 102.808 7.48793C102.821 7.52311 102.833 7.55453 102.854 7.61233C102.885 7.54699 102.907 7.50979 102.922 7.47034C103.123 6.95365 103.324 6.43695 103.521 5.919C103.546 5.85191 103.55 5.77651 103.564 5.70489C103.553 5.70162 103.541 5.6981 103.53 5.69459C103.517 5.72374 103.5 5.75138 103.491 5.78179C103.35 6.25802 103.115 6.68977 102.867 7.1175C102.856 7.09539 102.845 7.07327 102.824 7.03055C102.796 7.11775 102.774 7.18837 102.752 7.25924C102.732 7.29895 102.713 7.33865 102.693 7.37811C102.704 7.38188 102.715 7.38565 102.727 7.38942L102.748 7.25622ZM99.724 10.8188C99.585 10.7992 99.4629 10.7904 99.3453 10.7638C99.0676 10.7009 98.8811 10.5273 98.7984 10.2576C98.6185 9.67156 98.6921 9.11616 99.0322 8.60324C99.194 8.35922 99.4287 8.20341 99.6961 8.09384C100.039 7.9531 100.4 7.89455 100.766 7.86615C100.898 7.8561 100.952 7.80559 101.002 7.68697C101.401 6.75386 101.809 5.82451 102.214 4.89391C102.228 4.86049 102.239 4.82556 102.262 4.76072C102.016 4.84214 101.796 4.91201 101.578 4.9874C101.274 5.09295 100.976 5.21509 100.668 5.30581C100.479 5.3616 100.277 5.39151 100.08 5.39854C99.7891 5.40885 99.586 5.24851 99.4916 4.97358C99.4114 4.74036 99.4222 4.50363 99.4715 4.26665C99.5783 3.7497 99.8482 3.33655 100.271 3.02141C100.571 2.79699 100.907 2.63916 101.252 2.49969C102.248 2.09784 103.283 1.86865 104.354 1.79225C105.255 1.72817 106.15 1.77918 107.044 1.89001C107.795 1.98274 108.532 2.13252 109.252 2.36473C109.586 2.47255 109.909 2.60323 110.207 2.79121C110.483 2.96536 110.718 3.18099 110.896 3.45693C110.989 3.60118 111.036 3.758 111.029 3.92939C111.015 4.24931 110.782 4.45312 110.464 4.41793C110.354 4.40587 110.245 4.37948 110.14 4.34581C109.427 4.11636 108.694 4.01232 107.95 3.9598C107.082 3.89873 106.22 3.95276 105.359 4.06183C105.268 4.07339 105.226 4.10958 105.193 4.19125C104.754 5.26409 104.311 6.33542 103.87 7.40701C103.843 7.47285 103.817 7.5392 103.783 7.62565C103.855 7.62942 103.912 7.63394 103.97 7.6352C104.737 7.65279 105.499 7.71687 106.247 7.90033C106.45 7.95034 106.651 8.01819 106.846 8.09535C106.958 8.13932 107.064 8.20793 107.157 8.28458C107.37 8.46075 107.391 8.67487 107.232 8.90305C107.134 9.04454 107.001 9.14708 106.841 9.20136C106.627 9.27424 106.409 9.34435 106.187 9.38708C105.48 9.52404 104.77 9.65171 104.06 9.7751C103.716 9.83466 103.369 9.87839 103.023 9.92563C102.945 9.93644 102.893 9.96609 102.854 10.0387C102.237 11.202 101.665 12.3837 101.319 13.6616C101.178 14.1841 101.123 14.7189 101.09 15.2567C101.069 15.5947 101.047 15.9337 100.953 16.2604C100.904 16.4298 100.837 16.5956 100.761 16.7552C100.712 16.8588 100.64 16.9553 100.563 17.0415C100.186 17.4627 99.634 17.5039 99.1925 17.1488C99.0161 17.007 98.8882 16.8268 98.7902 16.625C98.6326 16.3016 98.5507 15.9576 98.5248 15.6002C98.4735 14.892 98.61 14.209 98.8055 13.5337C98.9631 12.9896 99.1729 12.4646 99.3765 11.9366C99.5034 11.6061 99.5991 11.2636 99.7077 10.9263C99.7175 10.8957 99.7177 10.862 99.724 10.8188Z" fill="white"/>
<path d="M82.3646 7.41208C82.3711 7.41434 82.3776 7.41685 82.3842 7.41911C82.3935 7.39248 82.4025 7.36609 82.4116 7.33945C82.4055 7.33744 82.3993 7.33518 82.393 7.33317C82.3834 7.35955 82.3739 7.38569 82.3646 7.41208ZM87.105 12.6092C87.105 12.6056 87.1053 12.6019 87.1053 12.5984C87.0852 12.5984 87.0648 12.5984 87.0447 12.5989C87.043 12.5989 87.0414 12.6034 87.0399 12.6059C87.0616 12.6069 87.0834 12.6079 87.105 12.6092ZM81.3244 11.2041C81.3332 11.2074 81.3425 11.2104 81.3515 11.2136C81.3566 11.1898 81.3616 11.1661 81.3664 11.1423C81.3631 11.141 81.3596 11.1398 81.3558 11.1382C81.3453 11.1604 81.3347 11.1822 81.3244 11.2041ZM82.5023 5.28901C82.5121 5.29329 82.5219 5.29756 82.5317 5.30208C82.5568 5.25056 82.5817 5.19904 82.6071 5.14778C82.5958 5.14275 82.5845 5.13747 82.5734 5.13245C82.5495 5.18447 82.5259 5.23674 82.5023 5.28901ZM81.4553 8.49095C81.4689 8.49572 81.4822 8.5005 81.4958 8.50527C81.5131 8.45501 81.531 8.40475 81.5486 8.35449C81.5375 8.35047 81.5267 8.34645 81.5159 8.34243C81.4958 8.39193 81.4754 8.44144 81.4553 8.49095ZM82.3756 5.63733C82.4495 5.56696 82.4495 5.56696 82.4327 5.46996C82.4088 5.53932 82.392 5.58832 82.3756 5.63733ZM81.1254 15.789C81.1834 15.7749 81.2415 15.7608 81.3345 15.738C81.1992 15.69 81.1992 15.69 81.1254 15.789ZM79.6962 14.4178C79.7949 14.3527 79.7949 14.3527 79.7713 14.2477C79.7477 14.3012 79.7293 14.3429 79.6962 14.4178ZM86.6522 12.6936C86.6507 12.6815 86.6492 12.6695 86.6474 12.6574L86.3036 12.6946C86.3056 12.7099 86.3074 12.725 86.3096 12.7403L86.6522 12.6936ZM86.5602 13.0794C86.0814 13.1161 84.9908 13.3789 84.8181 13.4988C84.8282 13.5016 84.8392 13.5088 84.8483 13.5066C85.4084 13.3754 85.9689 13.244 86.5285 13.1108C86.5401 13.108 86.5479 13.0882 86.5579 13.0768C86.6946 13.067 86.8314 13.0572 86.9683 13.0474C86.9668 13.0349 86.9653 13.0223 86.9638 13.0095C86.8293 13.0329 86.6946 13.056 86.5602 13.0794ZM81.2912 8.34393C81.3606 8.3271 81.3639 8.27558 81.3488 8.21501C81.3309 8.25924 81.3128 8.30322 81.296 8.34795C81.2784 8.39545 81.2606 8.4427 81.243 8.4902C81.2558 8.49221 81.2684 8.49447 81.2809 8.49648C81.2842 8.44571 81.2877 8.3947 81.2912 8.34393ZM81.8959 9.84626C81.923 9.80882 81.9502 9.77112 81.9773 9.73342L81.9446 9.71709C81.9298 9.76132 81.9147 9.80555 81.8999 9.85028C81.8805 9.8915 81.8612 9.93271 81.8418 9.97368C81.8532 9.97745 81.8642 9.98096 81.8753 9.98448C81.8821 9.93849 81.8888 9.8925 81.8959 9.84626ZM88.2246 12.6303C88.2545 12.6536 88.2784 12.6732 88.3123 12.7001C88.103 12.7403 87.9047 12.7783 87.7064 12.816C87.818 12.8984 87.9547 12.9173 88.0625 13.0427C85.4693 13.389 82.9974 14.0544 80.6878 15.2527C80.6911 15.263 80.6944 15.2733 80.6979 15.2833C80.7627 15.2572 80.8283 15.2321 80.8926 15.2044C82.0238 14.7179 83.1768 14.2927 84.3587 13.9461C84.4685 13.914 84.5867 13.9094 84.6992 13.8853C84.9101 13.8398 85.1194 13.7868 85.3303 13.7416C85.7203 13.6576 86.1108 13.5767 86.5016 13.4963C86.5371 13.489 86.575 13.4953 86.6127 13.5013C85.6806 13.7024 84.7601 13.9424 83.8654 14.2763C84.9322 13.9705 86.0093 13.7119 87.1136 13.5775L86.1287 13.7938C86.1292 13.8034 86.1299 13.8127 86.1307 13.822C86.3232 13.8117 86.5157 13.8014 86.7436 13.7891C86.0058 14.0007 85.3001 14.1942 84.6 14.406C83.8948 14.6196 83.2039 14.875 82.5282 15.1806C82.5613 15.1758 82.5958 15.1753 82.6272 15.1652C83.3816 14.9217 84.134 14.6719 84.8907 14.4352C85.2815 14.3128 85.6796 14.2133 86.0749 14.1039C86.0902 14.0997 86.1071 14.1004 86.1342 14.122C86.087 14.1454 86.04 14.17 85.9922 14.1924C84.6721 14.8126 83.3497 15.4281 82.0328 16.0551C81.4669 16.3245 80.913 16.6186 80.3528 16.9C80.0249 17.0649 79.6906 17.2124 79.3227 17.2657C79.1003 17.2981 78.8802 17.2908 78.663 17.2315C78.1546 17.0928 77.8387 16.6944 77.7721 16.127C77.7206 15.6905 77.7792 15.2632 77.8576 14.8368C78.0516 13.7835 78.4172 12.7843 78.8264 11.7994C79.3624 10.509 79.911 9.22327 80.437 7.92852C81.0716 6.36588 81.6285 4.77483 82.1374 3.16696C82.204 2.95636 82.2924 2.75104 82.3895 2.55225C82.4568 2.41403 82.5483 2.28536 82.6428 2.16297C82.9134 1.81164 83.2768 1.70735 83.696 1.81014C84.1934 1.93202 84.597 2.20746 84.9005 2.61985C85.1534 2.96314 85.2021 3.35066 85.1184 3.7613C85.0584 4.05684 84.946 4.33429 84.8216 4.60696C83.6555 7.16605 82.4887 9.72463 81.3221 12.2835C81.1749 12.6064 81.0263 12.9288 80.8806 13.2525C80.8441 13.3332 80.809 13.4159 80.7868 13.5011C80.7195 13.7614 80.8831 13.9486 81.1495 13.9037C81.2897 13.8798 81.4267 13.8263 81.5594 13.773C82.0635 13.5699 82.5588 13.345 83.069 13.1583C84.3333 12.6949 85.6361 12.3797 86.9733 12.2149C87.3641 12.1666 87.7564 12.1294 88.149 12.0975C88.2568 12.0884 88.3701 12.106 88.4772 12.1292C88.5757 12.1505 88.6441 12.2206 88.6501 12.3282C88.6556 12.4292 88.595 12.4973 88.5086 12.5343C88.4191 12.5725 88.3236 12.5973 88.2246 12.6303Z" fill="white"/>
<path d="M92.4659 9.54308C92.4734 9.54685 92.4812 9.55062 92.4888 9.55414C92.5023 9.52222 92.5154 9.49005 92.529 9.45814C92.5224 9.45537 92.5159 9.45261 92.5096 9.44984C92.4951 9.48075 92.4807 9.51192 92.4659 9.54308ZM91.9226 11.6413C92.01 11.6596 92.0417 11.646 92.0208 11.5764C92.0188 11.5691 92.0055 11.5654 91.9892 11.5543C91.9718 11.5767 91.9545 11.5995 91.9226 11.6413ZM93.2374 7.68766C93.2246 7.68289 93.2115 7.67786 93.1985 7.67283L93.1248 7.87338C93.1341 7.87665 93.1434 7.88017 93.1527 7.88343L93.2374 7.68766ZM92.1957 10.2204C92.2076 10.2239 92.2191 10.2276 92.2307 10.2314C92.2528 10.1626 92.2747 10.0934 92.2965 10.0248C92.2857 10.0213 92.2749 10.0181 92.2641 10.0145L92.1957 10.2204ZM95.1577 5.06952C95.1705 5.07656 95.1833 5.08334 95.1964 5.09038C95.2208 5.02001 95.2451 4.94965 95.2693 4.87928C95.2572 4.87501 95.2454 4.87074 95.2331 4.86646C95.2079 4.93432 95.1828 5.00192 95.1577 5.06952ZM94.2972 6.86111C94.3088 6.86663 94.3203 6.87216 94.3321 6.87744C94.3874 6.81034 94.4387 6.74199 94.4007 6.63744C94.3663 6.71208 94.3316 6.78647 94.2972 6.86111ZM93.6742 7.44364C93.6619 7.43861 93.6496 7.43384 93.637 7.42906C93.598 7.51376 93.5483 7.59443 93.5315 7.68741C93.5425 7.69168 93.5533 7.69596 93.5644 7.70048L93.6742 7.44364ZM93.9642 5.86542C93.873 5.93855 93.8318 6.04033 93.8534 6.16448C93.8903 6.06471 93.927 5.96519 93.9642 5.86542ZM94.1012 7.49868C94.0891 7.49365 94.0773 7.48837 94.0652 7.4831C94.0311 7.60951 93.9471 7.71882 93.9632 7.86308C94.0094 7.74169 94.0552 7.62031 94.1012 7.49868ZM92.9665 8.40465L92.9245 8.38605C92.8584 8.53734 92.7926 8.68838 92.7265 8.83916C92.7396 8.84494 92.7526 8.85072 92.7655 8.85625L92.9665 8.40465ZM91.7371 12.0014C91.7067 12.0919 91.6796 12.1939 91.6376 12.2891C91.5888 12.4005 91.6027 12.495 91.6876 12.6C91.7467 12.4228 91.8014 12.2577 91.8504 12.111C91.8045 12.0667 91.7708 12.0341 91.7371 12.0014ZM94.8943 5.86265C94.6146 6.28083 94.3663 6.93574 94.3846 7.15715C94.5573 6.71836 94.7257 6.29063 94.8943 5.86265ZM93.4362 8.01336C93.3269 8.10484 93.2829 8.22873 93.2314 8.3481C93.1766 8.47501 93.1223 8.60268 93.0766 8.73311C93.0354 8.85097 92.967 8.96306 92.9844 9.09952C93.0437 9.03116 93.0886 8.95703 93.1196 8.87736C93.214 8.6356 93.3033 8.39158 93.3937 8.14831C93.4103 8.10408 93.4224 8.05834 93.4362 8.01336ZM91.6607 11.778C91.4225 12.4754 91.1151 13.1484 90.9756 13.8754C90.9553 13.9815 90.9437 14.089 90.9284 14.1961C91.0103 13.9465 91.0689 13.6937 91.1387 13.4439C91.1611 13.3645 91.2435 13.2944 91.246 13.2182C91.2526 13.0111 91.3642 12.8377 91.4031 12.6422C91.4285 12.5123 91.474 12.3834 91.53 12.2635C91.5901 12.1363 91.5971 11.9964 91.6502 11.8687C91.6615 11.8416 91.6577 11.8084 91.6607 11.778ZM91.0204 16.1538C91.0342 16.1503 91.048 16.1467 91.0618 16.1435C91.0729 16.0847 91.0659 15.9904 91.0983 15.9741C91.1875 15.9289 91.1558 15.8703 91.1407 15.814C91.1204 15.7396 91.0855 15.6692 91.0646 15.5951C91.0153 15.4184 91.053 15.2488 91.1144 15.0817C91.1269 15.0895 91.1395 15.0978 91.1568 15.1086C91.2139 14.3134 91.3958 13.5562 91.6145 12.8046C91.569 12.8654 91.5247 12.9267 91.4966 12.9948C91.4722 13.0536 91.3923 13.0184 91.3737 13.0956C91.3016 13.3964 91.2099 13.693 91.1402 13.9943C91.1096 14.1275 91.1081 14.2682 91.1036 14.4062C91.1013 14.4823 91.1204 14.5592 91.1297 14.6359C91.1239 14.6364 91.1186 14.6369 91.1129 14.6374C91.1048 14.5952 91.0965 14.5529 91.0885 14.5105C91.0829 14.5115 91.0779 14.5125 91.0724 14.5135C91.0558 14.717 91.0392 14.9206 91.0226 15.1242C91.0174 15.1242 91.0123 15.1244 91.0071 15.1247C90.9937 14.9475 90.9802 14.7703 90.9666 14.5929C90.9535 14.5924 90.9405 14.5916 90.9274 14.5909C90.942 14.7331 90.807 14.8512 90.8887 15.007C90.9033 15.0354 90.8796 15.0824 90.8781 15.1209C90.8749 15.2036 90.8653 15.2875 90.8749 15.3689C90.8995 15.578 90.9309 15.7861 90.9646 15.9937C90.9739 16.0487 91.0013 16.1005 91.0204 16.1538ZM92.0688 11.2163C92.0947 11.1226 92.1178 11.0278 92.1475 10.9353C92.1854 10.8175 92.2287 10.7014 92.2694 10.5845C92.2563 10.5802 92.2432 10.5757 92.2304 10.5714C92.1508 10.7956 92.0713 11.0198 91.9844 11.2645C92.0311 11.2369 92.0527 11.2238 92.0746 11.2108C92.0585 11.2987 92.0419 11.3867 92.0193 11.5088C92.1276 11.393 92.3485 10.8524 92.3727 10.6823C92.3103 10.6624 92.2988 10.7119 92.2814 10.7501C92.2101 10.9052 92.1397 11.0605 92.0688 11.2163ZM94.4904 5.71765C94.5126 5.68372 94.5407 5.6518 94.5558 5.61486C94.6327 5.42663 94.7061 5.23714 94.7795 5.04615C94.793 4.99538 94.8063 4.94487 94.8199 4.89386C94.8104 4.89285 94.8006 4.89134 94.7908 4.89009C94.788 4.94336 94.7852 4.99689 94.7827 5.05017C94.7626 5.06575 94.7322 5.07731 94.7242 5.09792C94.6455 5.30475 94.5701 5.51283 94.494 5.72117C94.4754 5.78098 94.4565 5.84079 94.4379 5.90035C94.3098 6.07023 94.2721 6.27581 94.2027 6.46957C94.3047 6.36502 94.3839 6.24942 94.406 6.10366C94.4163 6.0348 94.4244 5.96544 94.4329 5.89558C94.452 5.83627 94.4711 5.77696 94.4904 5.71765ZM90.8874 15.8557C90.8784 15.916 90.8693 15.9766 90.8603 16.0369C90.8693 16.0379 90.8784 16.0387 90.8874 16.0397V15.8555C90.8615 15.7363 90.8359 15.6172 90.81 15.4981C90.7995 15.5006 90.7889 15.5026 90.7784 15.5051C90.7967 15.6052 90.813 15.7057 90.8357 15.805C90.8399 15.8246 90.8696 15.8384 90.8874 15.8557ZM93.7765 8.07091C93.7076 8.10232 93.6973 8.16188 93.6998 8.22798C93.6772 8.28301 93.6546 8.3383 93.6322 8.39334C93.6151 8.42023 93.5935 8.44511 93.582 8.47401C93.4267 8.86404 93.2721 9.25458 93.1191 9.64561C93.1057 9.68004 93.1055 9.7195 93.0989 9.75669C93.0728 9.80243 93.0409 9.84591 93.0215 9.89441C92.771 10.5224 92.5227 11.1515 92.2721 11.7795C92.2525 11.828 92.2206 11.8712 92.1945 11.9169L92.198 11.9197C92.2123 11.8614 92.2206 11.8008 92.242 11.7453C92.8187 10.238 93.3978 8.7316 93.9735 7.22375C94.0258 7.08678 94.059 6.94253 94.1009 6.80155C94.0037 6.94781 93.9285 7.10111 93.8664 7.25968C93.3998 8.4529 92.9353 9.64687 92.4712 10.8411C92.2862 11.3166 92.0879 11.7878 91.9243 12.2705C91.7462 12.7953 91.5996 13.3308 91.4428 13.8628C91.4154 13.9556 91.4064 14.0536 91.3865 14.1619C91.4247 14.1456 91.4383 14.1398 91.4602 14.1305C91.3134 14.995 91.2925 15.2644 91.3501 15.4428C91.3772 15.2694 91.4049 15.0789 91.4375 14.8892C91.469 14.7062 91.5054 14.524 91.5393 14.3413C91.5587 14.4064 91.5464 14.4652 91.5401 14.525C91.534 14.5846 91.534 14.6447 91.5313 14.7045C91.7504 14.3828 91.8904 14.038 91.9934 13.6811C92.2088 12.9383 92.5503 12.2464 92.8449 11.536C93.0909 10.9416 93.3676 10.3598 93.6229 9.76926C93.876 9.18295 94.1233 8.59388 94.3658 8.00306C94.5887 7.45972 94.8026 6.91237 95.0187 6.36628C95.0431 6.30471 95.0639 6.24037 95.0752 6.17553C95.0813 6.13909 95.0649 6.09863 95.0584 6.06018C94.8873 6.41051 94.7463 6.76234 94.5533 7.09608C94.5337 7.0707 94.5224 7.05612 94.506 7.03526C94.4417 7.18806 94.3816 7.33055 94.314 7.49064C94.2995 7.43836 94.2904 7.40544 94.2731 7.34412C94.0142 7.86408 93.8486 8.39183 93.6227 8.8947L93.6531 8.91003C93.7157 8.80398 93.778 8.69767 93.8403 8.59137C93.8489 8.59539 93.8574 8.59916 93.8657 8.60318C93.6657 9.09776 93.4656 9.59234 93.2701 10.0751C93.2146 10.0113 93.1673 9.95749 93.1238 9.90798C93.0929 9.92909 93.0766 9.94015 93.0597 9.95146L93.0635 9.95397C93.0741 9.88712 93.0849 9.82027 93.0954 9.75343C93.157 9.65944 93.2249 9.75292 93.2862 9.75946C93.2907 9.66798 93.2756 9.58128 93.3023 9.51091C93.4251 9.18622 93.5601 8.8658 93.6908 8.54412C93.7325 8.44209 93.778 8.34157 93.8169 8.23853C93.828 8.20963 93.822 8.17445 93.8235 8.14203C93.8167 8.14128 93.8097 8.14052 93.8026 8.14002C93.7672 8.20084 93.7312 8.2614 93.6958 8.32222C93.6958 8.28955 93.6958 8.25663 93.6956 8.22371C93.7212 8.17143 93.7473 8.11916 93.772 8.06613C93.7888 8.01939 93.8056 7.9729 93.8222 7.92641C93.8114 7.92465 93.8009 7.92264 93.7901 7.92063C93.7855 7.97089 93.7808 8.0209 93.7765 8.07091ZM89.7842 15.1882C89.7862 14.5771 89.9216 13.9887 90.0817 13.4044C90.4283 12.1401 90.895 10.9182 91.379 9.70216C91.8258 8.57931 92.2701 7.4552 92.7074 6.32833C93.0329 5.48996 93.2736 4.6247 93.4943 3.75341C93.5719 3.44657 93.6835 3.15052 93.8318 2.86956C93.9783 2.59186 94.163 2.34457 94.4133 2.15056C94.9044 1.76983 95.4572 1.76581 95.9408 2.15659C96.4087 2.53481 96.6814 3.03593 96.7917 3.62198C96.8907 4.14747 96.8078 4.65989 96.6396 5.16175C96.4642 5.68523 96.2004 6.16649 95.932 6.64624C95.1569 8.0302 94.3751 9.41039 93.6151 10.8029C93.0758 11.792 92.6184 12.8202 92.2568 13.8902C92.0507 14.5002 91.9547 15.1259 91.8932 15.7627C91.8625 16.0814 91.7909 16.3965 91.7326 16.7122C91.7185 16.7876 91.6878 16.861 91.6569 16.9318C91.5225 17.2409 91.2551 17.3739 90.9244 17.296C90.6246 17.2251 90.3903 17.0572 90.2194 16.8024C89.9691 16.4297 89.8445 16.0135 89.802 15.5705C89.7902 15.4436 89.79 15.3157 89.7842 15.1882Z" fill="white"/>
<path d="M129.663 2.33647L129.697 2.34526C129.702 2.28972 129.748 2.23795 129.679 2.17488L129.663 2.33647ZM129.187 3.80512C129.199 3.80864 129.211 3.81216 129.224 3.81567C129.24 3.7526 129.258 3.68977 129.274 3.62694C129.263 3.62367 129.251 3.62041 129.239 3.61714C129.222 3.67997 129.204 3.74254 129.187 3.80512ZM129.089 4.26652C129.033 4.39419 128.972 4.51959 129.014 4.69199C129.099 4.54221 129.11 4.40675 129.089 4.26652ZM128.941 4.89052C128.894 5.05639 128.846 5.222 128.799 5.38787C128.909 5.23532 128.96 5.06694 128.941 4.89052ZM127.832 6.00961C127.915 5.81987 127.971 5.62334 128.016 5.42431C128.001 5.42079 127.987 5.41727 127.972 5.41375C127.926 5.61229 127.878 5.81107 127.832 6.00961ZM129.335 3.88529C129.348 3.8868 129.361 3.8883 129.374 3.88981C129.469 3.6189 129.506 3.33718 129.503 3.04818C129.447 3.32713 129.391 3.60608 129.335 3.88529ZM128.248 5.73945C128.314 5.65476 128.46 5.09584 128.466 4.90309C128.347 5.14133 128.223 5.61555 128.248 5.73945ZM128.396 3.9461C128.505 3.68072 128.593 3.41333 128.583 3.12307C128.415 3.37236 128.397 3.65836 128.396 3.9461ZM126.993 9.2618C127.009 9.21556 127.022 9.16882 127.039 9.12333C127.055 9.07684 127.061 9.01728 127.094 8.98812C127.175 8.91625 127.172 8.82402 127.182 8.73254C127.188 8.67977 127.191 8.62624 127.203 8.57472C127.232 8.44178 127.242 8.26486 127.216 8.15202C127.124 8.52722 127.022 8.88584 126.993 9.2618ZM127.675 7.71951C127.76 7.59889 127.895 7.19453 127.89 7.07667C127.89 7.06686 127.867 7.05807 127.851 7.04676C127.805 7.17091 127.814 7.31767 127.665 7.42121C127.705 7.26741 127.737 7.14125 127.77 7.01509C127.759 7.01258 127.749 7.01007 127.738 7.0073C127.681 7.20709 127.623 7.40689 127.573 7.58255C127.607 7.60768 127.628 7.61572 127.637 7.63055C127.652 7.65543 127.66 7.68458 127.675 7.71951ZM126.93 10.1896C126.788 10.4291 126.88 10.6837 126.813 10.9127C126.91 11.0014 126.851 11.1069 126.846 11.2069C126.839 11.3379 126.829 11.4696 126.873 11.6033C126.89 11.5904 126.898 11.5857 126.904 11.5791C126.907 11.5756 126.907 11.5688 126.91 11.564C126.913 11.56 126.917 11.5568 126.92 11.5545C126.936 11.5952 126.953 11.6369 126.969 11.6784C126.982 11.6766 126.994 11.6744 127.007 11.6724C126.982 11.1853 126.957 10.6985 126.93 10.1896ZM127.407 8.76119C127.354 8.8303 127.322 8.87152 127.274 8.93434C127.253 8.77552 127.281 8.66393 127.38 8.5526C127.398 8.59885 127.41 8.62875 127.432 8.6858C127.481 8.50033 127.523 8.33799 127.57 8.15579C127.474 8.25455 127.448 8.1774 127.416 8.09975C127.256 8.66117 127.115 9.20249 127.048 9.75814C127.016 10.0155 127.019 10.2771 127.011 10.5369C127.01 10.5849 126.991 10.6558 127.085 10.6661C127.124 10.355 127.152 10.0426 127.203 9.73426C127.256 9.41962 127.333 9.1085 127.407 8.76119ZM128.898 4.25471L128.901 4.25773C128.914 4.11649 128.895 3.96194 128.947 3.83729C129.027 3.64629 129.022 3.4279 129.148 3.255C129.153 3.24872 129.154 3.23389 129.15 3.22836C129.081 3.13538 129.132 3.0429 129.165 2.96173C129.257 2.73907 129.283 2.51188 129.247 2.25002C129.195 2.48424 129.147 2.69458 129.103 2.90593C129.014 3.32864 128.939 3.75486 128.837 4.17429C128.726 4.63142 128.593 5.08353 128.466 5.53664C128.23 6.38029 127.989 7.22268 127.752 8.06607C127.595 8.62674 127.441 9.18792 127.289 9.74984C127.272 9.81091 127.281 9.87927 127.281 9.94436C127.282 10.0087 127.308 10.0791 127.289 10.1359C127.231 10.309 127.232 10.4864 127.231 10.6631C127.23 10.8043 127.25 10.9458 127.26 11.0873C127.272 10.7968 127.373 10.5317 127.474 10.2648C127.461 10.3887 127.448 10.5128 127.435 10.6367C127.494 10.5163 127.521 10.3924 127.554 10.2703C127.637 9.96748 127.722 9.6654 127.805 9.36258C127.816 9.32563 127.829 9.28668 127.826 9.24999C127.823 9.22335 127.804 9.21883 127.839 9.1849C127.91 9.11604 127.961 9.03135 127.979 8.91876C128.014 8.70716 128.105 8.51039 128.213 8.32492C128.225 8.32819 128.236 8.33145 128.248 8.33472C128.212 8.48601 128.175 8.6373 128.139 8.78858C128.191 8.73506 128.224 8.67449 128.248 8.61041C128.334 8.38473 128.404 8.15353 128.492 7.9281C128.627 7.5823 128.731 7.22469 128.853 6.87386C128.94 6.6228 129.047 6.37777 129.125 6.12395C129.202 5.8744 129.258 5.61807 129.324 5.365C129.425 4.97949 129.508 4.5892 129.597 4.20093C129.667 3.89836 129.736 3.59553 129.804 3.29245C129.815 3.24344 129.846 3.1874 129.762 3.13764C129.728 3.21329 129.69 3.27988 129.668 3.35151C129.617 3.52114 129.575 3.69379 129.527 3.86468C129.509 3.92826 129.485 3.99008 129.465 4.05291C129.456 4.0504 129.448 4.04814 129.439 4.04562C129.447 3.98832 129.455 3.93103 129.462 3.87373C129.19 4.78523 129.006 5.71859 128.682 6.61375C128.678 6.58058 128.682 6.54917 128.69 6.51876C128.865 5.84852 129.041 5.17827 129.215 4.50753C129.229 4.45199 129.23 4.39318 129.237 4.33588C129.2 4.36428 129.189 4.39494 129.181 4.42661C129.049 4.92294 128.917 5.41953 128.785 5.91587C128.77 5.9694 128.755 6.02343 128.732 6.07294C128.717 6.10209 128.686 6.12295 128.651 6.15913C128.64 6.10158 128.633 6.06514 128.621 6.00332C128.59 6.10636 128.561 6.18301 128.544 6.26192C128.528 6.33983 128.533 6.42301 128.511 6.4989C128.49 6.57405 128.439 6.64064 128.417 6.71553C128.341 6.97036 128.272 7.22745 128.199 7.48328C128.177 7.5622 128.151 7.6401 128.126 7.71826C128.488 6.17773 128.892 4.64851 129.265 3.111C129.234 3.15272 129.214 3.19745 129.201 3.2442C129.122 3.52692 129.045 3.81065 128.965 4.09312C128.949 4.14866 128.921 4.20093 128.898 4.25471ZM131.206 1.60667C131.213 2.07812 131.114 2.49354 130.947 2.88935C130.783 3.27712 130.606 3.66112 130.407 4.0318C129.587 5.56253 128.921 7.15533 128.423 8.81975C128.229 9.47064 128.098 10.1323 128.005 10.8033C127.936 11.3052 127.815 11.795 127.638 12.2692C127.586 12.4084 127.524 12.5482 127.441 12.6706C127.213 13.0056 126.805 13.0048 126.564 12.6768C126.42 12.4796 126.356 12.2489 126.308 12.0144C126.022 10.5955 126.035 9.18339 126.384 7.77355C126.683 6.56249 126.966 5.3469 127.253 4.13283C127.391 3.54904 127.476 2.9567 127.537 2.35984C127.577 1.97333 127.64 1.58983 127.769 1.22116C127.809 1.10631 127.855 0.992214 127.91 0.883648C128.203 0.300611 128.69 0.0281904 129.33 0.00180294C129.617 -0.00975729 129.894 0.0342224 130.162 0.135249C130.878 0.40415 131.207 0.88013 131.206 1.60667Z" fill="white"/>
<path d="M125.944 15.8139C125.954 15.8041 125.963 15.7943 125.972 15.7845L125.897 15.7185C125.89 15.726 125.884 15.7338 125.877 15.7413C125.9 15.7657 125.922 15.7898 125.944 15.8139ZM126.606 14.6004C126.582 14.7089 126.651 14.7318 126.704 14.7642C126.676 14.717 126.647 14.6697 126.606 14.6004ZM126.301 14.8115C126.315 14.8944 126.326 14.9565 126.337 15.017C126.388 14.9668 126.425 14.9301 126.477 14.8798C126.422 14.8587 126.374 14.8401 126.301 14.8115ZM127.303 16.1057C127.314 16.1047 127.325 16.1037 127.336 16.103C127.324 15.8175 127.314 15.532 127.297 15.2467C127.294 15.1997 127.258 15.1548 127.238 15.1088C127.226 15.113 127.214 15.1176 127.202 15.1218C127.204 15.4531 127.25 15.7798 127.303 16.1057ZM127.947 16.0364C127.938 16.1592 127.939 16.3656 127.906 16.5664C127.854 16.8818 127.66 17.1037 127.365 17.2107C126.776 17.4243 126.217 17.3404 125.71 16.9735C125.41 16.7564 125.337 16.4372 125.414 16.0967C125.544 15.5212 125.808 15.0128 126.276 14.6353C126.399 14.5358 126.543 14.4526 126.69 14.3938C127.075 14.2402 127.419 14.3629 127.675 14.6893C127.819 14.874 127.88 15.0942 127.901 15.3231C127.921 15.5327 127.929 15.7436 127.947 16.0364Z" fill="white"/>
<path d="M118.836 2.60189C119.436 2.52398 120.033 2.40686 120.642 2.4511C120.04 2.50136 119.438 2.55163 118.836 2.60189Z" fill="white"/>
<path d="M118.681 2.61818H118.52C118.519 2.61492 118.519 2.61165 118.519 2.60814L118.677 2.6001C118.678 2.60613 118.68 2.61215 118.681 2.61818Z" fill="white"/>
<path d="M119.039 3.29517C119.225 3.27406 119.41 3.25019 119.597 3.23234C119.679 3.22455 119.763 3.22807 119.846 3.22656C119.577 3.24943 119.308 3.2723 119.039 3.29517Z" fill="white"/>
<path d="M93.06 9.95605C93.0595 9.98269 93.0661 10.0121 93.0573 10.0357C92.8399 10.6276 92.626 11.2209 92.4001 11.8095C92.2579 12.1804 92.0965 12.544 91.9304 12.9089C91.9648 12.786 91.9895 12.6594 92.0355 12.541C92.3554 11.7102 92.6798 10.8811 93.004 10.0518C93.0173 10.0184 93.0437 9.98973 93.0638 9.95882L93.06 9.95605Z" fill="white"/>
<path d="M94.2593 7.875C94.2482 8.0577 94.2256 8.12832 94.1228 8.28313C94.1326 8.14214 94.1371 8.02905 94.1499 7.91672C94.157 7.85691 94.212 7.88153 94.2593 7.875Z" fill="white"/>
<path d="M91.9699 12.5312C91.9438 12.6084 91.9179 12.6858 91.8915 12.7629C91.8882 12.6747 91.8953 12.5903 91.9737 12.535L91.9699 12.5312Z" fill="white"/>
<path d="M91.9748 12.5302C91.9535 12.4575 91.9826 12.4015 92.0333 12.3528L92.0296 12.3495C92.0102 12.4083 91.9903 12.4671 91.9711 12.5261L91.9748 12.5302Z" fill="white"/>
<path d="M91.2602 13.6733C91.2802 13.5869 91.3003 13.5004 91.3201 13.4139C91.333 13.4171 91.3456 13.4199 91.3582 13.4229L91.2957 13.6818L91.2602 13.6733Z" fill="white"/>
<path d="M128.237 6.62891C128.182 6.84126 128.13 7.05437 128.073 7.26598C128.055 7.33056 128.022 7.39088 127.996 7.4532L127.999 7.45597C128.079 7.18129 128.16 6.90635 128.24 6.63167L128.237 6.62891Z" fill="white"/>
<path d="M127.998 7.45703C127.997 7.49448 128.004 7.53418 127.994 7.56912C127.934 7.79002 127.87 8.00991 127.806 8.2293C127.8 8.25217 127.78 8.27077 127.766 8.29138L127.769 8.29389C127.792 8.19261 127.809 8.09008 127.837 7.99081C127.888 7.81288 127.946 7.63672 128.001 7.4598L127.998 7.45703Z" fill="white"/>
<path d="M127.766 8.29035C127.748 8.38107 127.734 8.47249 127.713 8.56217C127.686 8.67293 127.654 8.78218 127.616 8.91873C127.604 8.77965 127.685 8.46831 127.769 8.29294L127.766 8.29035Z" fill="white"/>
<path d="M128.301 6.38784C128.359 6.19117 128.417 5.99458 128.475 5.79768L128.472 5.79488C128.437 5.99841 128.399 6.2011 128.297 6.38503L128.301 6.38784Z" fill="white"/>
<path d="M129.297 4.93368C129.271 4.83139 129.278 4.73313 129.354 4.61426C129.379 4.75097 129.351 4.84321 129.297 4.93368Z" fill="white"/>
<path d="M128.637 6.21094V6.44063C128.563 6.34262 128.563 6.34262 128.637 6.21094Z" fill="white"/>
<path d="M128.598 5.32557L128.704 4.96582L128.709 4.9671L128.602 5.32686L128.598 5.32557Z" fill="white"/>
<path d="M128.474 5.80066C128.465 5.71418 128.477 5.63398 128.544 5.5709L128.541 5.56762C128.518 5.64424 128.494 5.72086 128.47 5.79748L128.474 5.80066Z" fill="white"/>
<path d="M128.545 5.56476C128.52 5.47309 128.558 5.39627 128.601 5.32039L128.598 5.31704C128.579 5.39851 128.56 5.47984 128.541 5.56136L128.545 5.56476Z" fill="white"/>
<path d="M128.763 4.71622C128.787 4.6396 128.81 4.56292 128.834 4.48592L128.83 4.48251C128.84 4.56931 128.83 4.64989 128.759 4.71243L128.763 4.71622Z" fill="white"/>
<path d="M128.707 4.96668C128.725 4.88457 128.744 4.80295 128.762 4.72079L128.758 4.71707C128.784 4.80898 128.746 4.88675 128.703 4.9636L128.707 4.96668Z" fill="white"/>
<path d="M127.131 9.48834C127.137 9.43974 127.143 9.39126 127.149 9.34266C127.164 9.34505 127.178 9.34712 127.192 9.34941C127.182 9.39731 127.173 9.4453 127.163 9.49332C127.152 9.49151 127.142 9.48993 127.131 9.48834Z" fill="white"/>
</svg>
