<svg width="192" height="49" viewBox="0 0 192 49" fill="none" xmlns="http://www.w3.org/2000/svg">
<path d="M8.36608 30.2746C12.9965 30.2746 14.7853 26.0651 14.7853 21.7155C14.7853 18.769 13.3122 17.471 10.6461 17.471C7.24349 17.471 4.43721 20.4177 4.43721 25.7143C4.43721 29.0116 5.91037 30.2746 8.36608 30.2746ZM5.98048 16.7693L5.77014 17.8918C6.75231 16.4886 8.47125 15.4365 10.9618 15.4365C14.8204 15.4365 17.0656 17.3656 17.0656 21.4349C17.0656 26.9068 14.4698 32.3092 8.01512 32.3092C5.73509 32.3092 4.3671 31.3621 3.70044 29.7135L2.26234 37.7814C2.15698 38.4126 1.63094 38.904 0.964274 38.904C0.297811 38.904 -0.0880053 38.4126 0.0171629 37.7814L3.7355 16.7693C3.84086 16.1378 4.40216 15.6469 5.03357 15.6469C5.66497 15.6469 6.08604 16.1378 5.98048 16.7693Z" fill="black"/>
<path d="M31.2028 19.5054C31.2028 18.4884 30.2907 17.4712 27.9404 17.4712C24.4676 17.4712 22.2227 20.0669 21.6612 23.1186C28.1509 23.1186 31.2028 21.7508 31.2028 19.5054ZM28.2911 15.4365C31.7989 15.4365 33.4478 17.2254 33.4478 19.26C33.4478 22.9784 29.7998 24.9425 21.4158 24.9425C21.3106 25.4687 21.3106 25.8195 21.3106 26.03C21.3106 29.2221 22.8188 30.2395 25.6253 30.2395C27.4143 30.2395 28.8174 29.538 29.9049 28.7664C30.1505 28.5909 30.3258 28.5206 30.5714 28.5206C31.1327 28.5206 31.5886 28.9415 31.5886 29.5028C31.5886 29.9589 31.308 30.2045 31.0626 30.415C29.6593 31.5727 27.7301 32.3092 25.2044 32.3092C21.3457 32.3092 19.0654 30.3798 19.0654 26.3109C19.0654 19.8914 22.5734 15.4365 28.2911 15.4365Z" fill="black"/>
<path d="M39.727 18.3131C40.7091 16.6993 42.6737 15.5068 45.0941 15.5068C45.6202 15.5068 46.0062 15.9277 46.0062 16.4541C46.0062 17.1202 45.3746 17.6817 44.7083 17.6817C41.481 17.6817 39.4463 19.9269 38.885 23.1538L37.482 31.0116C37.3766 31.643 36.8155 32.134 36.1841 32.134C35.5525 32.134 35.1316 31.643 35.2368 31.0116L37.7624 16.7695C37.868 16.1382 38.394 15.6473 39.0605 15.6473C39.6919 15.6473 40.113 16.1382 40.0076 16.7695L39.727 18.3131Z" fill="black"/>
<path d="M49.7253 19.9971C49.7253 23.3643 57.6532 22.3122 57.6532 27.0127C57.6532 30.5556 54.9519 32.2743 50.9531 32.2743C48.252 32.2743 46.1472 30.9416 45.2351 29.6084C45.1298 29.433 45.0947 29.2577 45.0947 29.0822C45.0947 28.5209 45.5509 28.0648 46.1121 28.0648C46.3227 28.0648 46.6384 28.1351 46.8838 28.4155C47.7958 29.5031 49.1991 30.1347 51.1634 30.1347C53.3735 30.1347 55.3729 29.3628 55.3729 27.3635C55.3729 24.2765 47.41 25.1886 47.41 20.3827C47.41 17.0502 50.041 15.4717 53.5138 15.4717C55.8291 15.4717 57.7934 16.6293 58.53 17.8222C58.6351 17.9973 58.7054 18.173 58.7054 18.3833C58.7054 18.9446 58.2493 19.4007 57.6882 19.4007C57.5127 19.4007 57.2321 19.3655 56.9514 19.0848C56.1095 18.2431 55.0572 17.6117 53.2331 17.6117C51.5142 17.6117 49.7253 18.173 49.7253 19.9971Z" fill="black"/>
<path d="M73.6143 21.7155C73.6143 18.769 72.1409 17.4712 69.4749 17.4712C64.8445 17.4712 63.0554 21.6803 63.0554 26.0298C63.0554 28.9767 64.5288 30.2746 67.1948 30.2746C71.8252 30.2746 73.6143 26.0651 73.6143 21.7155ZM60.7754 26.3109C60.7754 20.8385 63.3711 15.4365 69.8256 15.4365C73.6493 15.4365 75.8943 17.3658 75.8943 21.4349C75.8943 26.907 73.2984 32.3092 66.8441 32.3092C63.0204 32.3092 60.7754 30.3798 60.7754 26.3109Z" fill="black"/>
<path d="M93.1532 19.751C93.1532 20.3121 93.0831 21.0841 92.9779 21.6452L91.3291 31.0114C91.2237 31.6426 90.6975 32.1338 90.0312 32.1338C89.3645 32.1338 88.9787 31.6426 89.0839 31.0114L90.6624 22.1014C90.7678 21.505 90.8379 20.8738 90.8379 20.3824C90.8379 18.5232 89.8207 17.4359 87.2598 17.4359C83.787 17.4359 82.2436 19.5405 81.7526 22.3468L80.2089 31.0114C80.1038 31.6426 79.5777 32.1338 78.9111 32.1338C78.2446 32.1338 77.8588 31.6426 77.9639 31.0114L80.4896 16.7693C80.5949 16.1378 81.121 15.6469 81.7876 15.6469C82.419 15.6469 82.8401 16.1378 82.7346 16.7693L82.5242 17.892C83.3662 16.5587 85.2253 15.4365 87.6107 15.4365C91.6798 15.4365 93.1532 17.3656 93.1532 19.751Z" fill="black"/>
<path d="M101.608 30.2746C105.466 30.2746 107.536 26.6614 108.167 23.0132L108.834 19.0495C107.887 18.1024 106.449 17.4009 104.694 17.4009C100.836 17.4009 97.784 20.9087 97.784 26.0298C97.784 28.3451 98.8013 30.2746 101.608 30.2746ZM101.257 32.3093C97.4683 32.3093 95.5391 29.8537 95.5391 26.381C95.5391 19.9966 99.3978 15.4365 104.87 15.4365C106.484 15.4365 108.062 15.9275 109.22 16.9447L109.255 16.7693C109.395 16.1378 109.816 15.6469 110.553 15.6469C111.254 15.6469 111.605 16.1731 111.5 16.7693L108.974 31.0114C108.869 31.6426 108.343 32.1336 107.676 32.1336C107.01 32.1336 106.659 31.6426 106.764 31.0114L107.185 28.7662C105.993 30.9761 103.888 32.3093 101.257 32.3093Z" fill="black"/>
<path d="M119.849 8.00032L116.306 28.0303C116.236 28.4514 116.236 28.6268 116.236 28.8372C116.236 29.6789 116.692 30.0297 117.393 30.0297C117.919 30.0297 118.27 30.4157 118.27 30.9419C118.27 31.6082 117.674 32.1344 117.007 32.1344C115.008 32.1344 113.956 31.1525 113.956 29.1879C113.956 28.8372 113.991 28.4514 114.061 28.0303L117.604 8.00032C117.709 7.36891 118.235 6.87793 118.902 6.87793C119.568 6.87793 119.954 7.36891 119.849 8.00032Z" fill="black"/>
<path d="M143.567 7.35998L142.414 14.0477H151.238L150.134 20.615H141.26L139.321 31.9663H132.336L137.07 4.69911C137.545 1.97449 139.894 0 142.654 0H158.312L157.208 6.56743H144.508C144.045 6.56743 143.648 6.90007 143.567 7.35998Z" fill="black"/>
<path d="M191.75 0L190.646 6.56743H183.3L178.909 31.9663H171.931L176.322 6.56743H168.372L169.546 0H191.75Z" fill="black"/>
<path d="M125.63 4.50563C125.435 7.02061 128.377 9.61981 128.377 9.61981C128.377 9.61981 132.07 7.56785 132.32 5.0474C132.503 3.20274 131.093 1.58064 129.246 1.43104C127.398 1.28142 125.772 2.65732 125.63 4.50563Z" fill="#CB0080"/>
<path d="M159.847 4.35621C159.653 6.8712 162.594 9.47039 162.594 9.47039C162.594 9.47039 166.287 7.41843 166.538 4.89799C166.72 3.05333 165.311 1.43123 163.463 1.28162C161.615 1.13201 159.989 2.50791 159.847 4.35621Z" fill="#CB0080"/>
<path d="M131.131 11.5658L130.345 16.3002L128.194 29.3713C128.19 29.3854 128.19 29.3996 128.19 29.4101L128.151 29.6438C128.151 29.6507 128.151 29.6543 128.148 29.6579C127.879 30.9777 126.718 31.965 125.321 31.965C123.725 31.965 122.43 30.6733 122.43 29.0775C122.43 28.9785 122.433 28.8795 122.444 28.7839C122.444 28.7733 122.447 28.7662 122.447 28.7592L122.479 28.5574L123.258 23.4797L125.292 11.1802C125.321 10.9961 125.48 10.8828 125.643 10.8828C125.735 10.8828 125.83 10.9219 125.904 11.0031L127.858 13.2077L130.572 11.2226C130.635 11.173 130.71 11.1519 130.777 11.1519C130.982 11.1519 131.166 11.3358 131.131 11.5658Z" fill="#CB0080"/>
<path d="M165.348 11.4144L164.562 16.1596L162.496 29.2199L162.411 29.7683V29.7719C162.099 30.9749 161.045 31.8808 159.767 31.9657H159.559C158.55 31.9657 157.658 31.4562 157.131 30.6777C157.131 30.6777 157.128 30.6777 157.131 30.6742C157.053 30.5574 156.983 30.4371 156.919 30.3097C156.731 29.924 156.629 29.4924 156.629 29.0359C156.629 28.9439 156.632 28.8518 156.639 28.7634L156.7 28.3989L158.631 16.3293L159.509 11.0288C159.541 10.8448 159.7 10.7314 159.863 10.7314C159.955 10.7314 160.05 10.7705 160.125 10.8518L162.075 13.0599L164.788 11.0713C164.852 11.0217 164.926 11.0005 164.994 11.0005C165.199 11.0005 165.383 11.1844 165.348 11.4144Z" fill="#CB0080"/>
<path d="M161.778 33.5077C159.311 42.5661 151.498 48.5219 141.499 48.5219C140.94 48.5219 140.345 48.5008 139.74 48.4617C132.146 47.9594 126.241 44.4775 123.53 38.9046C122.752 37.3051 122.281 34.9564 122.133 33.1341C124.085 34.5028 126.028 34.4829 127.929 33.1341C127.94 33.2327 127.951 33.3336 127.963 33.4402C128.174 35.2844 128.898 37.0536 130.132 38.4401C132.29 40.8651 135.78 42.3873 140.122 42.6729C147.401 43.1505 153.144 39.8917 155.483 33.94C155.507 33.8728 155.941 32.8188 155.962 32.748C157.656 34.4168 159.574 34.8753 161.778 33.5077Z" fill="#CB0080"/>
<path d="M9.88881 9.16383C9.8617 9.27383 9.82329 9.3632 9.77359 9.43194C9.72841 9.49611 9.65837 9.54652 9.56349 9.58318C9.46861 9.61527 9.34661 9.63589 9.19751 9.64506C9.0484 9.6588 8.85863 9.66568 8.6282 9.66568C8.37066 9.66568 8.16282 9.6588 8.00468 9.64506C7.85106 9.63589 7.72906 9.61527 7.6387 9.58318C7.54833 9.54652 7.48282 9.49611 7.44215 9.43194C7.40149 9.3632 7.36986 9.27383 7.34727 9.16383L5.94434 3.52667H5.93078L4.6024 9.16383C4.57981 9.26924 4.54818 9.35632 4.50752 9.42507C4.46685 9.48923 4.40134 9.53965 4.31097 9.57631C4.22513 9.61297 4.10539 9.63589 3.95177 9.64506C3.80267 9.6588 3.60386 9.66568 3.35535 9.66568C3.09329 9.66568 2.88319 9.6588 2.72505 9.64506C2.57143 9.63589 2.44944 9.61527 2.35907 9.58318C2.2687 9.54652 2.20319 9.49611 2.16252 9.43194C2.12186 9.3632 2.08797 9.27383 2.06086 9.16383L0.0682957 1.40242C0.0276311 1.23743 0.00503963 1.1091 0.000521342 1.01744C-0.00399695 0.921196 0.0208537 0.847867 0.0750732 0.797453C0.133811 0.747039 0.226436 0.717249 0.352948 0.708083C0.483979 0.694334 0.66471 0.687459 0.895143 0.687459C1.1075 0.687459 1.27468 0.692042 1.39667 0.701209C1.52319 0.705792 1.61807 0.721832 1.68133 0.749331C1.74458 0.772246 1.78751 0.808911 1.8101 0.859324C1.83269 0.905155 1.85076 0.971609 1.86432 1.05869L3.4028 7.87141H3.40957L5.00905 1.10681C5.02712 1.01973 5.04971 0.948694 5.07682 0.893697C5.10845 0.8387 5.15815 0.797453 5.22593 0.769955C5.29822 0.737873 5.39536 0.717249 5.51736 0.708083C5.63935 0.694334 5.80201 0.687459 6.00533 0.687459C6.22221 0.687459 6.39391 0.692042 6.52042 0.701209C6.65145 0.710375 6.75085 0.730999 6.81863 0.76308C6.89092 0.790578 6.94288 0.831826 6.97451 0.886823C7.00614 0.941819 7.03099 1.01515 7.04906 1.10681L8.70275 7.87141H8.71631L10.2548 1.07931C10.2683 1.00598 10.2864 0.944111 10.309 0.893697C10.3316 0.8387 10.3745 0.797453 10.4378 0.769955C10.501 0.737873 10.5914 0.717249 10.7089 0.708083C10.8264 0.694334 10.9913 0.687459 11.2036 0.687459C11.4024 0.687459 11.5561 0.694334 11.6645 0.708083C11.7775 0.717249 11.8588 0.747039 11.9085 0.797453C11.9582 0.847867 11.9785 0.923487 11.9695 1.02431C11.965 1.12056 11.9424 1.25347 11.9017 1.42304L9.88881 9.16383Z" fill="black"/>
<path d="M20.0821 9.37695C20.0821 9.42278 20.0663 9.46402 20.0346 9.50069C20.0075 9.53735 19.9601 9.56714 19.8923 9.59006C19.8245 9.61297 19.7342 9.63131 19.6212 9.64506C19.5083 9.6588 19.3659 9.66568 19.1942 9.66568C19.018 9.66568 18.8712 9.6588 18.7537 9.64506C18.6407 9.63131 18.5504 9.61297 18.4826 9.59006C18.4193 9.56714 18.3719 9.53735 18.3403 9.50069C18.3132 9.46402 18.2996 9.42278 18.2996 9.37695V5.78153H15.0193V9.37695C15.0193 9.42278 15.0058 9.46402 14.9787 9.50069C14.9516 9.53735 14.9041 9.56714 14.8363 9.59006C14.7686 9.61297 14.6782 9.63131 14.5652 9.64506C14.4523 9.6588 14.3077 9.66568 14.1315 9.66568C13.9598 9.66568 13.8152 9.6588 13.6977 9.64506C13.5848 9.63131 13.4944 9.61297 13.4266 9.59006C13.3589 9.56714 13.3092 9.53735 13.2775 9.50069C13.2504 9.46402 13.2369 9.42278 13.2369 9.37695V0.976192C13.2369 0.930362 13.2504 0.889114 13.2775 0.85245C13.3092 0.815785 13.3589 0.785995 13.4266 0.76308C13.4944 0.740165 13.5848 0.721832 13.6977 0.708083C13.8152 0.694334 13.9598 0.687459 14.1315 0.687459C14.3077 0.687459 14.4523 0.694334 14.5652 0.708083C14.6782 0.721832 14.7686 0.740165 14.8363 0.76308C14.9041 0.785995 14.9516 0.815785 14.9787 0.85245C15.0058 0.889114 15.0193 0.930362 15.0193 0.976192V4.24162H18.2996V0.976192C18.2996 0.930362 18.3132 0.889114 18.3403 0.85245C18.3719 0.815785 18.4193 0.785995 18.4826 0.76308C18.5504 0.740165 18.6407 0.721832 18.7537 0.708083C18.8712 0.694334 19.018 0.687459 19.1942 0.687459C19.3659 0.687459 19.5083 0.694334 19.6212 0.708083C19.7342 0.721832 19.8245 0.740165 19.8923 0.76308C19.9601 0.785995 20.0075 0.815785 20.0346 0.85245C20.0663 0.889114 20.0821 0.930362 20.0821 0.976192V9.37695Z" fill="black"/>
<path d="M29.1774 8.95072C29.2316 9.11571 29.2655 9.24633 29.2791 9.34257C29.2926 9.43882 29.2745 9.51215 29.2248 9.56256C29.1751 9.60839 29.087 9.63589 28.9605 9.64506C28.834 9.6588 28.6601 9.66568 28.4387 9.66568C28.2082 9.66568 28.0275 9.6611 27.8965 9.65193C27.77 9.64735 27.6728 9.63589 27.605 9.61756C27.5373 9.59464 27.4898 9.56485 27.4627 9.52819C27.4356 9.49152 27.413 9.4434 27.3949 9.38382L26.8053 7.59643H23.5115L22.9557 9.3357C22.9376 9.39986 22.9128 9.45486 22.8812 9.50069C22.854 9.54194 22.8066 9.57631 22.7388 9.60381C22.6756 9.62672 22.583 9.64276 22.461 9.65193C22.3435 9.6611 22.1876 9.66568 21.9933 9.66568C21.7855 9.66568 21.6228 9.6588 21.5053 9.64506C21.3879 9.63131 21.3065 9.59923 21.2614 9.54881C21.2162 9.49381 21.2004 9.41819 21.2139 9.32195C21.2275 9.22571 21.2614 9.09738 21.3156 8.93697L24.0198 1.04494C24.0469 0.967026 24.0785 0.905155 24.1147 0.859324C24.1508 0.808911 24.2073 0.772246 24.2841 0.749331C24.3654 0.721832 24.4761 0.705792 24.6162 0.701209C24.7563 0.692042 24.9415 0.687459 25.1719 0.687459C25.4385 0.687459 25.6509 0.692042 25.809 0.701209C25.9672 0.705792 26.0891 0.721832 26.175 0.749331C26.2654 0.772246 26.3286 0.808911 26.3648 0.859324C26.4054 0.909738 26.4393 0.978484 26.4664 1.06556L29.1774 8.95072ZM25.1516 2.42673H25.1448L23.9046 6.20776H26.3919L25.1516 2.42673Z" fill="black"/>
<path d="M35.1619 1.47116C35.1619 1.60407 35.1551 1.71865 35.1415 1.81489C35.1325 1.90655 35.1167 1.98217 35.0941 2.04175C35.0715 2.09675 35.0421 2.138 35.006 2.1655C34.9744 2.193 34.9382 2.20674 34.8976 2.20674H32.7017V9.37695C32.7017 9.42278 32.6859 9.46402 32.6542 9.50069C32.6271 9.53735 32.5797 9.56714 32.5119 9.59006C32.4441 9.61297 32.3515 9.63131 32.234 9.64506C32.1211 9.6588 31.9787 9.66568 31.807 9.66568C31.6354 9.66568 31.4908 9.6588 31.3733 9.64506C31.2603 9.63131 31.17 9.61297 31.1022 9.59006C31.0344 9.56714 30.9847 9.53735 30.9531 9.50069C30.926 9.46402 30.9124 9.42278 30.9124 9.37695V2.20674H28.7165C28.6714 2.20674 28.6329 2.193 28.6013 2.1655C28.5697 2.138 28.5426 2.09675 28.52 2.04175C28.4974 1.98217 28.4793 1.90655 28.4658 1.81489C28.4567 1.71865 28.4522 1.60407 28.4522 1.47116C28.4522 1.33367 28.4567 1.2168 28.4658 1.12056C28.4793 1.02431 28.4974 0.948694 28.52 0.893697C28.5426 0.834117 28.5697 0.79287 28.6013 0.769955C28.6329 0.742456 28.6714 0.728707 28.7165 0.728707H34.8976C34.9382 0.728707 34.9744 0.742456 35.006 0.769955C35.0421 0.79287 35.0715 0.834117 35.0941 0.893697C35.1167 0.948694 35.1325 1.02431 35.1415 1.12056C35.1551 1.2168 35.1619 1.33367 35.1619 1.47116Z" fill="black"/>
<path d="M38.3608 0.728707C38.3608 0.907446 38.3518 1.07244 38.3337 1.22368C38.3157 1.37034 38.2863 1.51012 38.2456 1.64303C38.205 1.77594 38.153 1.90655 38.0897 2.03488C38.0265 2.15862 37.9474 2.28695 37.8525 2.41986L36.9443 3.73978C36.9127 3.78561 36.8766 3.82457 36.8359 3.85665C36.7998 3.88873 36.7546 3.91623 36.7004 3.93914C36.6461 3.95747 36.5806 3.97122 36.5038 3.98039C36.427 3.98956 36.3299 3.99414 36.2124 3.99414C36.0814 3.99414 35.9752 3.98956 35.8938 3.98039C35.8125 3.97122 35.7538 3.95518 35.7176 3.93227C35.6815 3.90935 35.6612 3.87956 35.6566 3.8429C35.6566 3.80165 35.6679 3.75582 35.6905 3.70541L36.5174 1.80802V0.728707C36.5174 0.572883 36.5354 0.446849 36.5716 0.350604C36.6077 0.25436 36.6642 0.181031 36.741 0.130617C36.8178 0.0756205 36.915 0.0412476 37.0325 0.0274984C37.1499 0.00916613 37.2923 0 37.4594 0C37.6176 0 37.7531 0.00916613 37.8661 0.0274984C37.979 0.0412476 38.0717 0.0756205 38.144 0.130617C38.2208 0.181031 38.275 0.25436 38.3066 0.350604C38.3428 0.446849 38.3608 0.572883 38.3608 0.728707Z" fill="black"/>
<path d="M45.2332 6.95709C45.2332 7.42456 45.1473 7.83475 44.9756 8.18764C44.8039 8.54054 44.5712 8.83615 44.2775 9.07446C43.9838 9.3082 43.6405 9.48465 43.2474 9.60381C42.8543 9.72297 42.4341 9.78255 41.9868 9.78255C41.684 9.78255 41.4016 9.75734 41.1396 9.70693C40.882 9.65651 40.6539 9.59693 40.4551 9.52819C40.2563 9.45486 40.0891 9.37924 39.9535 9.30133C39.8225 9.22341 39.7276 9.15467 39.6689 9.09509C39.6101 9.03551 39.5672 8.95072 39.5401 8.84073C39.5175 8.72615 39.5062 8.56345 39.5062 8.35263C39.5062 8.21056 39.5107 8.0914 39.5198 7.99515C39.5288 7.89891 39.5424 7.821 39.5604 7.76142C39.583 7.70184 39.6101 7.66059 39.6418 7.63767C39.6779 7.61018 39.7186 7.59643 39.7638 7.59643C39.827 7.59643 39.9151 7.63538 40.0281 7.71329C40.1456 7.78662 40.2947 7.86912 40.4754 7.96078C40.6561 8.05244 40.8707 8.13723 41.1193 8.21514C41.3723 8.28847 41.6637 8.32513 41.9935 8.32513C42.2104 8.32513 42.4047 8.29993 42.5764 8.24951C42.7481 8.19452 42.8927 8.1189 43.0102 8.02265C43.1322 7.92641 43.2248 7.80725 43.288 7.66517C43.3513 7.5231 43.3829 7.36498 43.3829 7.19083C43.3829 6.98917 43.3287 6.81731 43.2203 6.67523C43.1118 6.52857 42.9695 6.40025 42.7933 6.29025C42.6216 6.17568 42.425 6.07027 42.2036 5.97402C41.9822 5.8732 41.7541 5.76778 41.5191 5.65779C41.2842 5.5478 41.056 5.42406 40.8346 5.28656C40.6132 5.14449 40.4144 4.97721 40.2382 4.78472C40.0665 4.58765 39.9264 4.3562 39.818 4.09038C39.7095 3.82457 39.6553 3.50604 39.6553 3.13481C39.6553 2.70859 39.7321 2.33507 39.8858 2.01426C40.0439 1.68886 40.254 1.42075 40.5161 1.20993C40.7826 0.994525 41.0944 0.834117 41.4513 0.728707C41.8128 0.623297 42.1946 0.570591 42.5967 0.570591C42.8046 0.570591 43.0124 0.586632 43.2203 0.618713C43.4281 0.650795 43.6224 0.694334 43.8031 0.749331C43.9838 0.804328 44.1442 0.866199 44.2843 0.934945C44.4244 1.00369 44.517 1.06098 44.5622 1.10681C44.6074 1.15264 44.6367 1.1916 44.6503 1.22368C44.6684 1.25576 44.6819 1.2993 44.691 1.3543C44.7045 1.40471 44.7136 1.47116 44.7181 1.55366C44.7226 1.63157 44.7248 1.73011 44.7248 1.84927C44.7248 1.98217 44.7203 2.09446 44.7113 2.18612C44.7068 2.27778 44.6955 2.3534 44.6774 2.41298C44.6639 2.47256 44.6413 2.5161 44.6096 2.5436C44.5825 2.5711 44.5441 2.58485 44.4944 2.58485C44.4447 2.58485 44.3656 2.55277 44.2572 2.4886C44.1488 2.42444 44.0155 2.35569 43.8573 2.28237C43.6992 2.20445 43.5162 2.13571 43.3084 2.07613C43.1005 2.01196 42.8723 1.97988 42.6238 1.97988C42.4296 1.97988 42.2601 2.00509 42.1155 2.0555C41.971 2.10133 41.849 2.16779 41.7496 2.25487C41.6547 2.33736 41.5824 2.43819 41.5327 2.55735C41.4875 2.67651 41.4649 2.80254 41.4649 2.93545C41.4649 3.13252 41.5169 3.30439 41.6208 3.45105C41.7292 3.59312 41.8715 3.72145 42.0478 3.83602C42.2285 3.94602 42.4318 4.05143 42.6577 4.15226C42.8836 4.2485 43.1141 4.35162 43.349 4.46161C43.584 4.57161 43.8144 4.69764 44.0403 4.83971C44.2662 4.97721 44.4673 5.14449 44.6435 5.34156C44.8197 5.53405 44.9621 5.7632 45.0705 6.02902C45.1789 6.29025 45.2332 6.59961 45.2332 6.95709Z" fill="black"/>
<path d="M53.2848 6.24901V9.37695C53.2848 9.42278 53.2689 9.46402 53.2373 9.50069C53.2102 9.53735 53.1628 9.56714 53.095 9.59006C53.0272 9.61297 52.9346 9.63131 52.8171 9.64506C52.7042 9.6588 52.5618 9.66568 52.3901 9.66568C52.2139 9.66568 52.0693 9.6588 51.9564 9.64506C51.8434 9.63131 51.7508 9.61297 51.6785 9.59006C51.6107 9.56714 51.5633 9.53735 51.5362 9.50069C51.5091 9.46402 51.4955 9.42278 51.4955 9.37695V6.24901L49.0963 1.40242C49.0105 1.23284 48.954 1.10223 48.9269 1.01057C48.9043 0.914321 48.9178 0.843284 48.9675 0.797453C49.0217 0.747039 49.1189 0.717249 49.259 0.708083C49.399 0.694334 49.5933 0.687459 49.8418 0.687459C50.0497 0.687459 50.2146 0.692042 50.3366 0.701209C50.4631 0.710375 50.5625 0.728707 50.6348 0.756205C50.7071 0.779121 50.759 0.811202 50.7907 0.85245C50.8268 0.893697 50.8607 0.946402 50.8923 1.01057L51.8683 3.19669C51.9632 3.40751 52.0558 3.62979 52.1461 3.86352C52.241 4.09726 52.3359 4.34245 52.4308 4.5991H52.4444C52.5302 4.35162 52.6183 4.11101 52.7087 3.87727C52.799 3.64353 52.8871 3.42126 52.973 3.21044L53.9354 1.03806C53.958 0.964735 53.9851 0.907446 54.0167 0.866199C54.0529 0.820368 54.1048 0.783704 54.1726 0.756205C54.2404 0.728707 54.333 0.710375 54.4505 0.701209C54.568 0.692042 54.7238 0.687459 54.9181 0.687459C55.1757 0.687459 55.3745 0.694334 55.5145 0.708083C55.6591 0.717249 55.7563 0.747039 55.806 0.797453C55.8602 0.843284 55.8737 0.914321 55.8466 1.01057C55.8195 1.10681 55.7653 1.23743 55.684 1.40242L53.2848 6.24901Z" fill="black"/>
<path d="M64.3117 5.07345C64.3117 5.81132 64.2213 6.47128 64.0406 7.05333C63.8598 7.63538 63.591 8.13035 63.234 8.53825C62.8771 8.94156 62.4343 9.25091 61.9057 9.46632C61.3815 9.67714 60.7738 9.78255 60.0825 9.78255C59.4003 9.78255 58.8039 9.69318 58.2933 9.51444C57.7872 9.33112 57.3648 9.05384 57.0259 8.68261C56.687 8.31138 56.4317 7.83933 56.2601 7.26645C56.0929 6.69356 56.0093 6.01527 56.0093 5.23157C56.0093 4.51203 56.0997 3.86581 56.2804 3.29293C56.4611 2.71546 56.73 2.22508 57.0869 1.82177C57.4438 1.41846 57.8844 1.1091 58.4085 0.893697C58.9371 0.678293 59.5494 0.570591 60.2452 0.570591C60.9094 0.570591 61.4945 0.659961 62.0005 0.8387C62.5111 1.01744 62.9358 1.29242 63.2747 1.66365C63.6181 2.03488 63.8756 2.50464 64.0473 3.07294C64.2235 3.63666 64.3117 4.3035 64.3117 5.07345ZM62.4411 5.16969C62.4411 4.70222 62.4049 4.27829 62.3326 3.89789C62.2603 3.51292 62.1361 3.18523 61.9599 2.91483C61.7882 2.63984 61.5578 2.42902 61.2686 2.28237C60.9794 2.13112 60.6179 2.0555 60.1842 2.0555C59.7459 2.0555 59.3799 2.14029 59.0862 2.30986C58.7926 2.47485 58.5553 2.69713 58.3746 2.9767C58.1939 3.25627 58.0651 3.58396 57.9883 3.95977C57.916 4.33099 57.8799 4.72514 57.8799 5.1422C57.8799 5.628 57.916 6.06568 57.9883 6.45524C58.0606 6.84022 58.1826 7.1702 58.3543 7.44519C58.526 7.72017 58.7564 7.93099 59.0456 8.07765C59.3348 8.21972 59.6985 8.29076 60.1367 8.29076C60.575 8.29076 60.941 8.20827 61.2347 8.04327C61.5284 7.87828 61.7656 7.65372 61.9463 7.36957C62.1271 7.08542 62.2536 6.75543 62.3259 6.37962C62.4027 5.99923 62.4411 5.59592 62.4411 5.16969Z" fill="black"/>
<path d="M72.9732 6.31088C72.9732 6.85626 72.8941 7.34436 72.736 7.77517C72.5779 8.20597 72.3452 8.57033 72.0379 8.86823C71.7307 9.16613 71.3512 9.39299 70.8993 9.54881C70.4475 9.70464 69.9279 9.78255 69.3405 9.78255C68.7893 9.78255 68.2945 9.7138 67.8563 9.57631C67.418 9.43423 67.0475 9.22112 66.7448 8.93697C66.442 8.65282 66.2093 8.29993 66.0467 7.87828C65.8885 7.45206 65.8095 6.9548 65.8095 6.3865V0.976192C65.8095 0.930362 65.823 0.889114 65.8501 0.85245C65.8772 0.815785 65.9247 0.785995 65.9925 0.76308C66.0648 0.740165 66.1574 0.721832 66.2703 0.708083C66.3833 0.694334 66.5279 0.687459 66.7041 0.687459C66.8758 0.687459 67.0181 0.694334 67.1311 0.708083C67.244 0.721832 67.3344 0.740165 67.4022 0.76308C67.4699 0.785995 67.5174 0.815785 67.5445 0.85245C67.5761 0.889114 67.5919 0.930362 67.5919 0.976192V6.22838C67.5919 6.58128 67.6349 6.88834 67.7207 7.14958C67.8065 7.40623 67.9285 7.61934 68.0867 7.78892C68.2493 7.95849 68.4414 8.08681 68.6628 8.17389C68.8887 8.25639 69.1395 8.29764 69.4151 8.29764C69.6952 8.29764 69.946 8.2541 70.1674 8.16702C70.3888 8.07994 70.5763 7.95391 70.7299 7.78892C70.8835 7.61934 71.001 7.4131 71.0823 7.1702C71.1682 6.92272 71.2111 6.64315 71.2111 6.3315V0.976192C71.2111 0.930362 71.2246 0.889114 71.2517 0.85245C71.2789 0.815785 71.3263 0.785995 71.3941 0.76308C71.4619 0.740165 71.5522 0.721832 71.6652 0.708083C71.7827 0.694334 71.9272 0.687459 72.0989 0.687459C72.2706 0.687459 72.4107 0.694334 72.5191 0.708083C72.6321 0.721832 72.7225 0.740165 72.7902 0.76308C72.858 0.785995 72.9054 0.815785 72.9326 0.85245C72.9597 0.889114 72.9732 0.930362 72.9732 0.976192V6.31088Z" fill="black"/>
<path d="M81.3908 9.3907C81.3908 9.44111 81.3818 9.48465 81.3637 9.52131C81.3456 9.55339 81.3027 9.58089 81.2349 9.60381C81.1671 9.62672 81.0677 9.64276 80.9367 9.65193C80.8057 9.6611 80.6272 9.66568 80.4013 9.66568C80.2115 9.66568 80.0602 9.6611 79.9472 9.65193C79.8343 9.64276 79.7439 9.62672 79.6761 9.60381C79.6129 9.57631 79.5677 9.54423 79.5406 9.50756C79.5135 9.46632 79.4909 9.41819 79.4728 9.3632L78.6866 7.37644C78.5917 7.15187 78.4991 6.95251 78.4087 6.77835C78.3184 6.60419 78.2167 6.45983 78.1037 6.34525C77.9953 6.22609 77.8688 6.13672 77.7242 6.07714C77.5796 6.01756 77.4124 5.98777 77.2227 5.98777H76.6669V9.37695C76.6669 9.42278 76.6511 9.46402 76.6195 9.50069C76.5924 9.53735 76.5449 9.56714 76.4772 9.59006C76.4094 9.61297 76.319 9.63131 76.2061 9.64506C76.0931 9.6588 75.9485 9.66568 75.7723 9.66568C75.6006 9.66568 75.456 9.6588 75.3385 9.64506C75.2256 9.63131 75.1352 9.61297 75.0675 9.59006C74.9997 9.56714 74.9522 9.53735 74.9251 9.50069C74.898 9.46402 74.8845 9.42278 74.8845 9.37695V1.2993C74.8845 1.09764 74.9342 0.953277 75.0336 0.866199C75.1375 0.774538 75.264 0.728707 75.4131 0.728707H77.6835C77.914 0.728707 78.1037 0.73329 78.2528 0.742456C78.4019 0.751622 78.5375 0.76308 78.6595 0.776829C79.0119 0.827243 79.3282 0.914321 79.6083 1.03806C79.893 1.16181 80.1325 1.32451 80.3267 1.52616C80.5256 1.72323 80.6769 1.95926 80.7808 2.23424C80.8848 2.50464 80.9367 2.81629 80.9367 3.16919C80.9367 3.46709 80.8983 3.73978 80.8215 3.98726C80.7492 4.23017 80.6408 4.44786 80.4962 4.64035C80.3516 4.83284 80.1731 5.00012 79.9608 5.1422C79.7484 5.28427 79.5067 5.39885 79.2356 5.48593C79.3666 5.55009 79.4886 5.628 79.6016 5.71966C79.719 5.81132 79.8275 5.92361 79.9269 6.05652C80.0308 6.18484 80.1279 6.33379 80.2183 6.50337C80.3087 6.66836 80.3968 6.85626 80.4826 7.06708L81.2214 8.8201C81.2891 8.99426 81.3343 9.12259 81.3569 9.20508C81.3795 9.28299 81.3908 9.34486 81.3908 9.3907ZM79.0932 3.3548C79.0932 3.06149 79.0277 2.814 78.8967 2.61235C78.7657 2.41069 78.5511 2.26862 78.2528 2.18612C78.1625 2.16321 78.0586 2.14487 77.9411 2.13112C77.8281 2.11738 77.67 2.1105 77.4667 2.1105H76.6669V4.63348H77.5751C77.8281 4.63348 78.0495 4.60369 78.2393 4.54411C78.4291 4.47994 78.5872 4.39287 78.7137 4.28287C78.8402 4.1683 78.9351 4.0331 78.9984 3.87727C79.0616 3.72145 79.0932 3.54729 79.0932 3.3548Z" fill="black"/>
</svg>
