<svg width="194" height="132" viewBox="0 0 194 132" fill="none" xmlns="http://www.w3.org/2000/svg">
<path d="M1.11933 27.504H4.82508V6.97285H4.90229L7.99042 27.504H11.5418L14.6299 6.97285H14.7071V27.504H18.7217V0.38738H12.6612L9.9591 19.7952H9.8819L7.17978 0.38738H1.11933V27.504Z" fill="white"/>
<path d="M21.5751 27.504H25.5124L26.2845 22.1969H31.1097V22.1194L31.8817 27.504H36.1279L31.7273 0.38738H25.9757L21.5751 27.504ZM26.7863 18.5168L28.6392 5.11343H28.7164L30.6079 18.5168H26.7863Z" fill="white"/>
<path d="M40.5402 27.504H44.7863V4.26119H49.2255V0.38738H36.101V4.26119H40.5402V27.504Z" fill="white"/>
<path d="M57.918 27.8914C62.0098 27.8914 64.1715 25.4122 64.1715 21.2285V17.3934H60.1569V21.5384C60.1569 23.3203 59.3077 24.0176 58.0338 24.0176C56.76 24.0176 55.9107 23.3203 55.9107 21.5384V6.39178C55.9107 4.60983 56.76 3.87381 58.0338 3.87381C59.3077 3.87381 60.1569 4.60983 60.1569 6.39178V9.52957H64.1715V6.66295C64.1715 2.47924 62.0098 0 57.918 0C53.8263 0 51.6646 2.47924 51.6646 6.66295V21.2285C51.6646 25.4122 53.8263 27.8914 57.918 27.8914Z" fill="white"/>
<path d="M67.5162 27.504H71.7624V15.3015H76.3173V27.504H80.5635V0.38738H76.3173V11.4277H71.7624V0.38738H67.5162V27.504Z" fill="white"/>
<path d="M95.4153 27.504H99.6615V15.9601L104.795 0.38738H100.665L97.77 10.3431H97.6928L94.7977 0.38738H90.2813L95.4153 15.9601V27.504Z" fill="white"/>
<path d="M112.972 27.8914C117.141 27.8914 119.418 25.4122 119.418 21.0735V6.8179C119.418 2.47924 117.141 0 112.972 0C108.803 0 106.525 2.47924 106.525 6.8179V21.0735C106.525 25.4122 108.803 27.8914 112.972 27.8914ZM112.972 24.0176C111.621 24.0176 110.771 23.2816 110.771 21.3447V6.54674C110.771 4.60983 111.621 3.87381 112.972 3.87381C114.323 3.87381 115.172 4.60983 115.172 6.54674V21.3447C115.172 23.2816 114.323 24.0176 112.972 24.0176Z" fill="white"/>
<path d="M129.27 27.8914C133.439 27.8914 135.601 25.4122 135.601 21.0735V0.38738H131.509V21.3834C131.509 23.3203 130.699 24.0176 129.347 24.0176C127.996 24.0176 127.186 23.3203 127.186 21.3834V0.38738H122.94V21.0735C122.94 25.4122 125.101 27.8914 129.27 27.8914Z" fill="white"/>
<path d="M139.429 27.504H143.676V15.8826H145.142C147.072 15.8826 147.806 16.6961 147.806 19.2141V24.1726C147.806 26.3806 147.96 26.8068 148.192 27.504H152.515C152.091 26.4968 152.052 25.5284 152.052 24.2113V19.4465C152.052 16.3862 151.357 14.3718 149.234 13.7133V13.6358C151.126 12.861 152.013 11.0791 152.013 8.28995V6.62421C152.013 2.4405 150.122 0.38738 145.721 0.38738H139.429V27.504ZM143.676 12.0088V4.26119H145.606C147.111 4.26119 147.767 5.11343 147.767 7.05033V9.14219C147.767 11.3115 146.802 12.0088 145.22 12.0088H143.676Z" fill="white"/>
<path d="M1.11933 62.2069H5.36551V51.1665H7.37279C11.619 51.1665 13.7035 48.8035 13.7035 44.4649V41.7919C13.7035 37.4533 11.619 35.0902 7.37279 35.0902H1.11933V62.2069ZM5.36551 47.2927V38.9641H7.37279C8.72385 38.9641 9.45728 39.5839 9.45728 41.5208V44.736C9.45728 46.6729 8.72385 47.2927 7.37279 47.2927H5.36551Z" fill="url(#paint0_diamond_610_1451)"/>
<path d="M16.8138 62.2069H28.3943V58.3331H21.06V50.0044H26.8888V46.1306H21.06V38.9641H28.3943V35.0902H16.8138V62.2069Z" fill="url(#paint1_diamond_610_1451)"/>
<path d="M31.6413 62.2069H35.8874V50.5855H37.3543C39.2844 50.5855 40.0178 51.399 40.0178 53.9169V58.8754C40.0178 61.0835 40.1722 61.5096 40.4038 62.2069H44.7272C44.3026 61.1997 44.264 60.2313 44.264 58.9142V54.1494C44.264 51.0891 43.5692 49.0747 41.4461 48.4161V48.3387C43.3376 47.5639 44.2254 45.782 44.2254 42.9928V41.3271C44.2254 37.1434 42.3339 35.0902 37.9333 35.0902H31.6413V62.2069ZM35.8874 46.7117V38.9641H37.8175C39.323 38.9641 39.9792 39.8163 39.9792 41.7532V43.845C39.9792 46.0144 39.0142 46.7117 37.4315 46.7117H35.8874Z" fill="url(#paint2_diamond_610_1451)"/>
<path d="M53.5343 62.5943C57.7033 62.5943 59.9422 60.115 59.9422 55.6989C59.9422 52.3287 58.8228 50.1594 55.2714 47.0216C52.4921 44.5811 51.6042 43.1478 51.6042 41.1721C51.6042 39.3127 52.3763 38.5767 53.7273 38.5767C55.0784 38.5767 55.8504 39.3127 55.8504 41.2496V42.6442H59.865V41.5208C59.865 37.1821 57.8191 34.7029 53.6887 34.7029C49.5584 34.7029 47.3581 37.1821 47.3581 41.4433C47.3581 44.5423 48.5161 46.7504 52.0675 49.8882C54.8468 52.3287 55.696 53.762 55.696 56.0088C55.696 58.0232 54.8468 58.7205 53.4957 58.7205C52.1447 58.7205 51.2954 58.0232 51.2954 56.0863V54.2269H47.2809V55.7764C47.2809 60.115 49.3654 62.5943 53.5343 62.5943Z" fill="url(#paint3_diamond_610_1451)"/>
<path d="M69.3187 62.5943C73.4877 62.5943 75.7652 60.115 75.7652 55.7764V41.5208C75.7652 37.1821 73.4877 34.7029 69.3187 34.7029C65.1497 34.7029 62.8722 37.1821 62.8722 41.5208V55.7764C62.8722 60.115 65.1497 62.5943 69.3187 62.5943ZM69.3187 58.7205C67.9676 58.7205 67.1184 57.9844 67.1184 56.0475V41.2496C67.1184 39.3127 67.9676 38.5767 69.3187 38.5767C70.6697 38.5767 71.519 39.3127 71.519 41.2496V56.0475C71.519 57.9844 70.6697 58.7205 69.3187 58.7205Z" fill="url(#paint4_diamond_610_1451)"/>
<path d="M79.441 62.2069H83.2239V42.4117H83.3011L88.3965 62.2069H92.7585V35.0902H88.9756V51.3215H88.8984L84.768 35.0902H79.441V62.2069Z" fill="url(#paint5_diamond_610_1451)"/>
<path d="M95.5993 62.2069H99.5366L100.309 56.8998H105.134V56.8223L105.906 62.2069H110.152L105.751 35.0902H99.9999L95.5993 62.2069ZM100.81 53.2197L102.663 39.8163H102.741L104.632 53.2197H100.81Z" fill="url(#paint6_diamond_610_1451)"/>
<path d="M113.016 62.2069H124.249V58.3331H117.263V35.0902H113.016V62.2069Z" fill="url(#paint7_diamond_610_1451)"/>
<path d="M127.09 62.2069H131.336V35.0902H127.09V62.2069Z" fill="url(#paint8_diamond_610_1451)"/>
<path d="M138.64 62.2069H142.886V38.9641H147.325V35.0902H134.201V38.9641H138.64V62.2069Z" fill="url(#paint9_diamond_610_1451)"/>
<path d="M154.235 62.2069H158.481V50.663L163.615 35.0902H159.485L156.59 45.0459H156.513L153.617 35.0902H149.101L154.235 50.663V62.2069Z" fill="url(#paint10_diamond_610_1451)"/>
<path d="M4.43907 96.9098H8.68525V73.6669H13.1244V69.7931H-0.00012207V73.6669H4.43907V96.9098Z" fill="white"/>
<path d="M21.9714 97.2971C26.1403 97.2971 28.4178 94.8179 28.4178 90.4792V76.2236C28.4178 71.885 26.1403 69.4057 21.9714 69.4057C17.8024 69.4057 15.5249 71.885 15.5249 76.2236V90.4792C15.5249 94.8179 17.8024 97.2971 21.9714 97.2971ZM21.9714 93.4233C20.6203 93.4233 19.7711 92.6873 19.7711 90.7504V75.9525C19.7711 74.0156 20.6203 73.2795 21.9714 73.2795C23.3224 73.2795 24.1716 74.0156 24.1716 75.9525V90.7504C24.1716 92.6873 23.3224 93.4233 21.9714 93.4233Z" fill="white"/>
<path d="M37.9607 96.9098H41.898L42.6701 91.6026H47.4953V91.5252L48.2673 96.9098H52.5135L48.1129 69.7931H42.3613L37.9607 96.9098ZM43.1719 87.9225L45.0248 74.5192H45.102L46.9935 87.9225H43.1719Z" fill="white"/>
<path d="M62.3643 96.9098H66.6104V84.7073H71.1654V96.9098H75.4116V69.7931H71.1654V80.8335H66.6104V69.7931H62.3643V96.9098Z" fill="white"/>
<path d="M79.3781 96.9098H90.9586V93.036H83.6243V84.7073H89.4532V80.8335H83.6243V73.6669H90.9586V69.7931H79.3781V96.9098Z" fill="white"/>
<path d="M93.0861 96.9098H97.0235L97.7955 91.6026H102.621V91.5252L103.393 96.9098H107.639L103.238 69.7931H97.4867L93.0861 96.9098ZM98.2974 87.9225L100.15 74.5192H100.227L102.119 87.9225H98.2974Z" fill="white"/>
<path d="M110.503 96.9098H121.736V93.036H114.749V69.7931H110.503V96.9098Z" fill="white"/>
<path d="M124.881 96.9098H129.127V73.6669H133.566V69.7931H120.442V73.6669H124.881V96.9098Z" fill="white"/>
<path d="M136.426 96.9098H140.672V84.7073H145.227V96.9098H149.473V69.7931H145.227V80.8335H140.672V69.7931H136.426V96.9098Z" fill="white"/>
<path d="M153.44 96.9098H157.686V69.7931H153.44V96.9098Z" fill="white"/>
<path d="M161.671 96.9098H173.251V93.036H165.917V84.7073H171.746V80.8335H165.917V73.6669H173.251V69.7931H161.671V96.9098Z" fill="white"/>
<path d="M176.498 96.9098H180.744V85.2883H182.211C184.141 85.2883 184.875 86.1018 184.875 88.6198V93.5783C184.875 95.7864 185.029 96.2125 185.261 96.9098H189.584C189.159 95.9026 189.121 94.9341 189.121 93.617V88.8522C189.121 85.7919 188.426 83.7776 186.303 83.119V83.0415C188.194 82.2668 189.082 80.4848 189.082 77.6957V76.0299C189.082 71.8462 187.191 69.7931 182.79 69.7931H176.498V96.9098ZM180.744 81.4145V73.6669H182.674C184.18 73.6669 184.836 74.5192 184.836 76.4561V78.5479C184.836 80.7172 183.871 81.4145 182.288 81.4145H180.744Z" fill="white"/>
<path d="M1.11933 131.613H12.3524V127.739H5.36551V104.496H1.11933V131.613Z" fill="url(#paint11_diamond_610_1451)"/>
<path d="M15.1928 131.613H19.439V104.496H15.1928V131.613Z" fill="url(#paint12_diamond_610_1451)"/>
<path d="M23.4233 131.613H27.6695V119.798H33.151V115.924H27.6695V108.37H34.6564V104.496H23.4233V131.613Z" fill="url(#paint13_diamond_610_1451)"/>
<path d="M37.4969 131.613H49.0773V127.739H41.743V119.41H47.5719V115.536H41.743V108.37H49.0773V104.496H37.4969V131.613Z" fill="url(#paint14_diamond_610_1451)"/>
<path d="M57.9197 132C62.0887 132 64.3276 129.521 64.3276 125.105C64.3276 121.734 63.2082 119.565 59.6568 116.427C56.8775 113.987 55.9897 112.553 55.9897 110.578C55.9897 108.718 56.7617 107.982 58.1127 107.982C59.4638 107.982 60.2358 108.718 60.2358 110.655V112.05H64.2504V110.926C64.2504 106.588 62.2045 104.109 58.0741 104.109C53.9438 104.109 51.7435 106.588 51.7435 110.849C51.7435 113.948 52.9015 116.156 56.4529 119.294C59.2322 121.734 60.0814 123.168 60.0814 125.415C60.0814 127.429 59.2322 128.126 57.8811 128.126C56.5301 128.126 55.6808 127.429 55.6808 125.492V123.633H51.6663V125.182C51.6663 129.521 53.7508 132 57.9197 132Z" fill="url(#paint15_diamond_610_1451)"/>
<path d="M70.8862 131.613H75.1324V108.37H79.5715V104.496H66.447V108.37H70.8862V131.613Z" fill="url(#paint16_diamond_610_1451)"/>
<path d="M86.4811 131.613H90.7273V120.069L95.8613 104.496H91.731L88.8358 114.452H88.7586L85.8635 104.496H81.3471L86.4811 120.069V131.613Z" fill="url(#paint17_diamond_610_1451)"/>
<path d="M98.5784 131.613H109.812V127.739H102.825V104.496H98.5784V131.613Z" fill="url(#paint18_diamond_610_1451)"/>
<path d="M112.652 131.613H124.232V127.739H116.898V119.41H122.727V115.536H116.898V108.37H124.232V104.496H112.652V131.613Z" fill="url(#paint19_diamond_610_1451)"/>
<path d="M134.466 131.613H138.712V120.572H140.719C144.966 120.572 147.05 118.209 147.05 113.871V111.198C147.05 106.859 144.966 104.496 140.719 104.496H134.466V131.613ZM138.712 116.698V108.37H140.719C142.07 108.37 142.804 108.99 142.804 110.926V114.142C142.804 116.079 142.07 116.698 140.719 116.698H138.712Z" fill="url(#paint20_diamond_610_1451)"/>
<path d="M150.16 131.613H161.393V127.739H154.407V104.496H150.16V131.613Z" fill="url(#paint21_diamond_610_1451)"/>
<path d="M163.265 131.613H167.203L167.975 126.306H172.8V126.228L173.572 131.613H177.818L173.417 104.496H167.666L163.265 131.613ZM168.476 122.625L170.329 109.222H170.407L172.298 122.625H168.476Z" fill="url(#paint22_diamond_610_1451)"/>
<path d="M180.682 131.613H184.465V111.817H184.542L189.638 131.613H194V104.496H190.217V120.727H190.14L186.009 104.496H180.682V131.613Z" fill="url(#paint23_diamond_610_1451)"/>
<defs>
<radialGradient id="paint0_diamond_610_1451" cx="0" cy="0" r="1" gradientUnits="userSpaceOnUse" gradientTransform="translate(191.783 -0.903162) rotate(125.495) scale(163.239 330.35)">
<stop stop-color="#E82C68"/>
<stop offset="1" stop-color="#C6217F"/>
</radialGradient>
<radialGradient id="paint1_diamond_610_1451" cx="0" cy="0" r="1" gradientUnits="userSpaceOnUse" gradientTransform="translate(191.783 -0.903162) rotate(125.495) scale(163.239 330.35)">
<stop stop-color="#E82C68"/>
<stop offset="1" stop-color="#C6217F"/>
</radialGradient>
<radialGradient id="paint2_diamond_610_1451" cx="0" cy="0" r="1" gradientUnits="userSpaceOnUse" gradientTransform="translate(191.783 -0.903162) rotate(125.495) scale(163.239 330.35)">
<stop stop-color="#E82C68"/>
<stop offset="1" stop-color="#C6217F"/>
</radialGradient>
<radialGradient id="paint3_diamond_610_1451" cx="0" cy="0" r="1" gradientUnits="userSpaceOnUse" gradientTransform="translate(191.783 -0.903162) rotate(125.495) scale(163.239 330.35)">
<stop stop-color="#E82C68"/>
<stop offset="1" stop-color="#C6217F"/>
</radialGradient>
<radialGradient id="paint4_diamond_610_1451" cx="0" cy="0" r="1" gradientUnits="userSpaceOnUse" gradientTransform="translate(191.783 -0.903162) rotate(125.495) scale(163.239 330.35)">
<stop stop-color="#E82C68"/>
<stop offset="1" stop-color="#C6217F"/>
</radialGradient>
<radialGradient id="paint5_diamond_610_1451" cx="0" cy="0" r="1" gradientUnits="userSpaceOnUse" gradientTransform="translate(191.783 -0.903162) rotate(125.495) scale(163.239 330.35)">
<stop stop-color="#E82C68"/>
<stop offset="1" stop-color="#C6217F"/>
</radialGradient>
<radialGradient id="paint6_diamond_610_1451" cx="0" cy="0" r="1" gradientUnits="userSpaceOnUse" gradientTransform="translate(191.783 -0.903162) rotate(125.495) scale(163.239 330.35)">
<stop stop-color="#E82C68"/>
<stop offset="1" stop-color="#C6217F"/>
</radialGradient>
<radialGradient id="paint7_diamond_610_1451" cx="0" cy="0" r="1" gradientUnits="userSpaceOnUse" gradientTransform="translate(191.783 -0.903162) rotate(125.495) scale(163.239 330.35)">
<stop stop-color="#E82C68"/>
<stop offset="1" stop-color="#C6217F"/>
</radialGradient>
<radialGradient id="paint8_diamond_610_1451" cx="0" cy="0" r="1" gradientUnits="userSpaceOnUse" gradientTransform="translate(191.783 -0.903162) rotate(125.495) scale(163.239 330.35)">
<stop stop-color="#E82C68"/>
<stop offset="1" stop-color="#C6217F"/>
</radialGradient>
<radialGradient id="paint9_diamond_610_1451" cx="0" cy="0" r="1" gradientUnits="userSpaceOnUse" gradientTransform="translate(191.783 -0.903162) rotate(125.495) scale(163.239 330.35)">
<stop stop-color="#E82C68"/>
<stop offset="1" stop-color="#C6217F"/>
</radialGradient>
<radialGradient id="paint10_diamond_610_1451" cx="0" cy="0" r="1" gradientUnits="userSpaceOnUse" gradientTransform="translate(191.783 -0.903162) rotate(125.495) scale(163.239 330.35)">
<stop stop-color="#E82C68"/>
<stop offset="1" stop-color="#C6217F"/>
</radialGradient>
<radialGradient id="paint11_diamond_610_1451" cx="0" cy="0" r="1" gradientUnits="userSpaceOnUse" gradientTransform="translate(191.783 -0.903162) rotate(125.495) scale(163.239 330.35)">
<stop stop-color="#E82C68"/>
<stop offset="1" stop-color="#C6217F"/>
</radialGradient>
<radialGradient id="paint12_diamond_610_1451" cx="0" cy="0" r="1" gradientUnits="userSpaceOnUse" gradientTransform="translate(191.783 -0.903162) rotate(125.495) scale(163.239 330.35)">
<stop stop-color="#E82C68"/>
<stop offset="1" stop-color="#C6217F"/>
</radialGradient>
<radialGradient id="paint13_diamond_610_1451" cx="0" cy="0" r="1" gradientUnits="userSpaceOnUse" gradientTransform="translate(191.783 -0.903162) rotate(125.495) scale(163.239 330.35)">
<stop stop-color="#E82C68"/>
<stop offset="1" stop-color="#C6217F"/>
</radialGradient>
<radialGradient id="paint14_diamond_610_1451" cx="0" cy="0" r="1" gradientUnits="userSpaceOnUse" gradientTransform="translate(191.783 -0.903162) rotate(125.495) scale(163.239 330.35)">
<stop stop-color="#E82C68"/>
<stop offset="1" stop-color="#C6217F"/>
</radialGradient>
<radialGradient id="paint15_diamond_610_1451" cx="0" cy="0" r="1" gradientUnits="userSpaceOnUse" gradientTransform="translate(191.783 -0.903162) rotate(125.495) scale(163.239 330.35)">
<stop stop-color="#E82C68"/>
<stop offset="1" stop-color="#C6217F"/>
</radialGradient>
<radialGradient id="paint16_diamond_610_1451" cx="0" cy="0" r="1" gradientUnits="userSpaceOnUse" gradientTransform="translate(191.783 -0.903162) rotate(125.495) scale(163.239 330.35)">
<stop stop-color="#E82C68"/>
<stop offset="1" stop-color="#C6217F"/>
</radialGradient>
<radialGradient id="paint17_diamond_610_1451" cx="0" cy="0" r="1" gradientUnits="userSpaceOnUse" gradientTransform="translate(191.783 -0.903162) rotate(125.495) scale(163.239 330.35)">
<stop stop-color="#E82C68"/>
<stop offset="1" stop-color="#C6217F"/>
</radialGradient>
<radialGradient id="paint18_diamond_610_1451" cx="0" cy="0" r="1" gradientUnits="userSpaceOnUse" gradientTransform="translate(191.783 -0.903162) rotate(125.495) scale(163.239 330.35)">
<stop stop-color="#E82C68"/>
<stop offset="1" stop-color="#C6217F"/>
</radialGradient>
<radialGradient id="paint19_diamond_610_1451" cx="0" cy="0" r="1" gradientUnits="userSpaceOnUse" gradientTransform="translate(191.783 -0.903162) rotate(125.495) scale(163.239 330.35)">
<stop stop-color="#E82C68"/>
<stop offset="1" stop-color="#C6217F"/>
</radialGradient>
<radialGradient id="paint20_diamond_610_1451" cx="0" cy="0" r="1" gradientUnits="userSpaceOnUse" gradientTransform="translate(191.783 -0.903162) rotate(125.495) scale(163.239 330.35)">
<stop stop-color="#E82C68"/>
<stop offset="1" stop-color="#C6217F"/>
</radialGradient>
<radialGradient id="paint21_diamond_610_1451" cx="0" cy="0" r="1" gradientUnits="userSpaceOnUse" gradientTransform="translate(191.783 -0.903162) rotate(125.495) scale(163.239 330.35)">
<stop stop-color="#E82C68"/>
<stop offset="1" stop-color="#C6217F"/>
</radialGradient>
<radialGradient id="paint22_diamond_610_1451" cx="0" cy="0" r="1" gradientUnits="userSpaceOnUse" gradientTransform="translate(191.783 -0.903162) rotate(125.495) scale(163.239 330.35)">
<stop stop-color="#E82C68"/>
<stop offset="1" stop-color="#C6217F"/>
</radialGradient>
<radialGradient id="paint23_diamond_610_1451" cx="0" cy="0" r="1" gradientUnits="userSpaceOnUse" gradientTransform="translate(191.783 -0.903162) rotate(125.495) scale(163.239 330.35)">
<stop stop-color="#E82C68"/>
<stop offset="1" stop-color="#C6217F"/>
</radialGradient>
</defs>
</svg>
