<svg width="135" height="40" viewBox="0 0 135 40" fill="none" xmlns="http://www.w3.org/2000/svg">
<path d="M0 5.33333C0 2.38781 2.38781 0 5.33333 0H129.6C132.546 0 134.933 2.38782 134.933 5.33333V34.6667C134.933 37.6122 132.546 40 129.6 40H5.33333C2.38781 40 0 37.6122 0 34.6667V5.33333Z" fill="black"/>
<path fill-rule="evenodd" clip-rule="evenodd" d="M0 34.6667V5.33333C0 2.38782 2.38781 0 5.33333 0H129.6C132.546 0 134.933 2.38781 134.933 5.33333V34.6667C134.933 37.6122 132.546 40 129.6 40H5.33333C2.38781 40 0 37.6122 0 34.6667ZM0.8 34.6667V5.33333C0.8 2.82964 2.82964 0.8 5.33333 0.8H129.6C132.104 0.8 134.133 2.82964 134.133 5.33333V34.6667C134.133 37.1704 132.104 39.2 129.6 39.2H5.33333C2.82964 39.2 0.8 37.1704 0.8 34.6667Z" fill="white" fill-opacity="0.5"/>
<path d="M28.4512 24.2886C31.646 22.5181 34.0683 21.1692 34.2771 21.0644C34.9447 20.7059 35.6345 19.7573 34.2771 19.0205C33.8388 18.7888 31.4789 17.4817 28.4512 15.7963L24.2542 20.0739L28.4509 24.2886H28.4512Z" fill="#FFD900"/>
<path d="M24.254 20.0739L10.8896 33.6667C11.2031 33.7087 11.5573 33.6247 11.975 33.3931C12.8517 32.909 22.1443 27.7874 28.4513 24.2896L24.254 20.0739Z" fill="#F43249"/>
<path d="M24.2541 20.0739L28.4509 15.8171C28.4509 15.8171 12.9151 7.26091 11.9749 6.75605C11.6212 6.54376 11.2242 6.481 10.8691 6.54376L24.2541 20.0736V20.0739Z" fill="#00EE76"/>
<path d="M24.254 20.074L10.8688 6.54409C10.3256 6.67077 9.86646 7.1551 9.86646 8.14522V32.065C9.86646 32.9718 10.2218 33.6248 10.8894 33.6876L24.2538 20.0737L24.254 20.074Z" fill="#00D3FF"/>
<path d="M68.3693 21.7305C65.968 21.7305 63.9841 23.6058 63.9841 26.1769C63.9841 28.7271 65.9472 30.6234 68.3695 30.6234C70.7915 30.6234 72.7545 28.7481 72.7545 26.1769C72.7545 23.6058 70.7915 21.7305 68.3693 21.7305ZM68.3693 28.854C67.0534 28.854 65.9056 27.7368 65.9056 26.1571C65.9056 24.5555 67.0543 23.4602 68.3693 23.4602C69.6842 23.4602 70.8329 24.5555 70.8329 26.1571C70.8329 27.7368 69.6842 28.854 68.3693 28.854ZM58.8263 21.7305C56.404 21.7305 54.4408 23.6058 54.4408 26.1769C54.4408 28.7271 56.404 30.6234 58.8263 30.6234C61.2483 30.6234 63.2115 28.7481 63.2115 26.1769C63.2115 23.6058 61.2483 21.7305 58.826 21.7305H58.8263ZM58.8263 28.854C57.5102 28.854 56.3626 27.7368 56.3626 26.1571C56.3626 24.5555 57.5113 23.4602 58.8263 23.4602C60.1421 23.4602 61.2899 24.5555 61.2899 26.1571C61.2899 27.7368 60.1618 28.854 58.8263 28.854ZM47.4873 23.1004V24.9757H51.9138C51.7881 26.0293 51.4341 26.809 50.9117 27.3362C50.2646 27.9892 49.2622 28.7061 47.4873 28.7061C44.7513 28.7061 42.6429 26.4725 42.6429 23.7117C42.6429 20.9508 44.7524 18.675 47.4873 18.675C48.9693 18.675 50.0351 19.2653 50.8285 20.0242L52.1434 18.696C51.0363 17.6217 49.5542 16.8 47.4873 16.8C43.7489 16.8 40.6165 19.8973 40.6165 23.6697C40.6165 27.4423 43.7489 30.5396 47.4873 30.5396C49.5126 30.5396 51.0166 29.8656 52.2275 28.6004C53.4595 27.3572 53.8354 25.6077 53.8354 24.196C53.8354 23.7537 53.794 23.3531 53.7307 23.0158L47.4873 23.1004ZM93.887 24.5544C93.5317 23.5638 92.4047 21.7305 90.1487 21.7305C87.8929 21.7305 86.0347 23.522 86.0347 26.1769C86.0347 28.6632 87.8929 30.6234 90.3577 30.6234C92.3622 30.6234 93.5109 29.3801 93.9909 28.6632L92.5088 27.6519C92.0071 28.3898 91.3392 28.8739 90.3577 28.8739C89.3761 28.8739 88.6874 28.4315 88.2482 27.525L94.0741 25.0597L93.887 24.5544ZM87.9562 26.0512C87.9148 24.3437 89.2723 23.459 90.2319 23.459C91.0047 23.459 91.6312 23.8384 91.8606 24.4076L87.9562 26.0512ZM83.2159 30.3287H85.1375V17.3051H83.2159V30.3287ZM80.0844 22.7211H80.022C79.5837 22.1939 78.7694 21.7305 77.7245 21.7305C75.5318 21.7305 73.5481 23.6907 73.5481 26.1769C73.5481 28.6632 75.5526 30.6026 77.7245 30.6026C78.7683 30.6026 79.5827 30.139 80.022 29.5908H80.0844V30.223C80.0844 31.9305 79.1858 32.836 77.7453 32.836C76.5758 32.836 75.8446 31.9723 75.5526 31.2554L73.8826 31.9723C74.3623 33.1526 75.6368 34.6065 77.7453 34.6065C80.0002 34.6065 81.901 33.2575 81.901 29.9914V22.0042H80.0844V22.7211ZM77.8917 28.854C76.5758 28.854 75.4696 27.7368 75.4696 26.1781C75.4696 24.6194 76.5767 23.4809 77.8917 23.4809C79.1869 23.4809 80.2307 24.6194 80.2307 26.1781C80.2298 27.7158 79.1858 28.854 77.8917 28.854ZM102.845 17.3053H98.2514V30.3287H100.173V25.397H102.845C104.976 25.397 107.063 23.8372 107.063 21.3512C107.063 18.8649 104.976 17.3051 102.845 17.3051V17.3053ZM102.908 23.5859H100.193V19.1174H102.908C104.327 19.1174 105.163 20.3186 105.163 21.351C105.143 22.3625 104.329 23.5859 102.908 23.5859ZM114.728 21.7095C113.349 21.7095 111.908 22.3208 111.324 23.7117L113.016 24.4286C113.392 23.7117 114.06 23.48 114.77 23.48C115.773 23.48 116.775 24.091 116.796 25.1654V25.2923C116.44 25.0816 115.71 24.786 114.791 24.786C112.954 24.786 111.094 25.8186 111.094 27.7158C111.094 29.465 112.598 30.5816 114.269 30.5816C115.564 30.5816 116.273 29.9914 116.711 29.2964H116.774V30.3079H118.632V25.313C118.611 23.0165 116.92 21.7093 114.728 21.7093V21.7095ZM114.498 28.833C113.872 28.833 112.994 28.5165 112.994 27.7377C112.994 26.7261 114.079 26.3468 115.019 26.3468C115.854 26.3468 116.251 26.5364 116.774 26.7891C116.627 27.9904 115.604 28.833 114.498 28.833ZM125.335 22.0053L123.143 27.6318H123.08L120.805 22.0051H118.738L122.162 29.8864L120.22 34.291H122.224L127.465 22.0051H125.335L125.335 22.0053ZM108.129 30.3287H110.05V17.3051H108.129V30.3287Z" fill="white"/>
<path d="M44.3926 13.2032C43.8124 13.2032 43.2776 13.0638 42.7884 12.7851C42.2991 12.5063 41.9094 12.1252 41.6193 11.6416C41.3348 11.1524 41.1926 10.6091 41.1926 10.0117C41.1926 9.4144 41.3348 8.87395 41.6193 8.3904C41.9094 7.90115 42.2991 7.51715 42.7884 7.2384C43.2776 6.95964 43.8124 6.82026 44.3926 6.82026C44.8534 6.82026 45.2829 6.90275 45.6812 7.06773C46.0794 7.23271 46.4122 7.46311 46.6796 7.75893L46.014 8.42453C45.8148 8.20266 45.5759 8.032 45.2972 7.91253C45.0241 7.79306 44.7197 7.73333 44.3841 7.73333C43.9916 7.73333 43.6246 7.8272 43.2833 8.01493C42.942 8.20266 42.6689 8.47004 42.4641 8.81706C42.2593 9.16409 42.1569 9.56231 42.1569 10.0117C42.1569 10.4612 42.2593 10.8594 42.4641 11.2064C42.6689 11.5534 42.942 11.8208 43.2833 12.0085C43.6246 12.1963 43.9944 12.2901 44.3926 12.2901C44.7567 12.2901 45.0611 12.2361 45.3057 12.128C45.5503 12.0199 45.7693 11.8748 45.9628 11.6928C46.0879 11.5676 46.1932 11.4112 46.2785 11.2235C46.3695 11.0357 46.4292 10.8309 46.4577 10.6091H44.3841V9.75573H47.3622C47.3907 9.91502 47.4049 10.08 47.4049 10.2507C47.4049 10.6375 47.3452 11.0101 47.2257 11.3685C47.1062 11.7212 46.9156 12.0284 46.654 12.2901C46.0794 12.8988 45.3256 13.2032 44.3926 13.2032Z" fill="white"/>
<path d="M48.2948 6.9568H52.0068V7.86986H49.2506V9.55946H51.7338V10.464H49.2506V12.1536H52.0068V13.0667H48.2948V6.9568Z" fill="white"/>
<path d="M54.2188 7.86986H52.5122V6.9568H56.8812V7.86986H55.1746V13.0667H54.2188V7.86986Z" fill="white"/>
<path d="M59.3798 6.9568H60.3356V13.0667H59.3798V6.9568Z" fill="white"/>
<path d="M62.7538 7.86986H61.0472V6.9568H65.4162V7.86986H63.7096V13.0667H62.7538V7.86986Z" fill="white"/>
<path d="M70.6068 13.2032C70.0152 13.2032 69.4776 13.0638 68.994 12.7851C68.5105 12.5006 68.1293 12.1138 67.8506 11.6245C67.5775 11.1353 67.441 10.5977 67.441 10.0117C67.441 9.42577 67.5775 8.89102 67.8506 8.40746C68.1293 7.91822 68.5105 7.53137 68.994 7.24693C69.4776 6.96249 70.0152 6.82026 70.6068 6.82026C71.1985 6.82026 71.7332 6.96249 72.2111 7.24693C72.6947 7.53137 73.0758 7.91822 73.3546 8.40746C73.6333 8.89102 73.7727 9.42577 73.7727 10.0117C73.7727 10.5977 73.6333 11.1353 73.3546 11.6245C73.0815 12.1138 72.7032 12.5006 72.2196 12.7851C71.7361 13.0638 71.1985 13.2032 70.6068 13.2032ZM70.6068 12.2901C71.0107 12.2901 71.3805 12.1934 71.7162 12C72.0518 11.8066 72.3163 11.5392 72.5098 11.1979C72.7032 10.8508 72.7999 10.4555 72.7999 10.0117C72.7999 9.568 72.7032 9.17546 72.5098 8.83413C72.3163 8.48711 72.0518 8.21689 71.7162 8.02346C71.3805 7.83004 71.0107 7.73333 70.6068 7.73333C70.2029 7.73333 69.8331 7.83004 69.4975 8.02346C69.1618 8.21689 68.8945 8.48711 68.6954 8.83413C68.5019 9.17546 68.4052 9.568 68.4052 10.0117C68.4052 10.4555 68.5019 10.8508 68.6954 11.1979C68.8945 11.5392 69.1618 11.8066 69.4975 12C69.8331 12.1934 70.2029 12.2901 70.6068 12.2901Z" fill="white"/>
<path d="M74.6515 6.9568H75.7864L78.5171 11.4027H78.5683L78.5171 10.2251V6.9568H79.4643V13.0667H78.4659L75.5987 8.3904H75.5475L75.5987 9.568V13.0667H74.6515V6.9568Z" fill="white"/>
</svg>
