<svg width="21" height="20" viewBox="0 0 21 20" fill="none" xmlns="http://www.w3.org/2000/svg">
<path d="M10.5 1.875C8.89303 1.875 7.32214 2.35152 5.986 3.24431C4.64985 4.1371 3.60844 5.40605 2.99348 6.8907C2.37852 8.37535 2.21762 10.009 2.53112 11.5851C2.84463 13.1612 3.61846 14.6089 4.75476 15.7452C5.89106 16.8815 7.3388 17.6554 8.9149 17.9689C10.491 18.2824 12.1247 18.1215 13.6093 17.5065C15.094 16.8916 16.3629 15.8502 17.2557 14.514C18.1485 13.1779 18.625 11.607 18.625 10C18.6225 7.84588 17.7657 5.7807 16.2425 4.25751C14.7193 2.73431 12.6541 1.87749 10.5 1.875ZM13.3467 10.52L9.59668 13.02C9.50258 13.0829 9.39317 13.119 9.28014 13.1245C9.16711 13.13 9.05471 13.1047 8.95494 13.0513C8.85516 12.9979 8.77177 12.9184 8.71366 12.8213C8.65555 12.7242 8.6249 12.6132 8.625 12.5V7.5C8.6249 7.38684 8.65555 7.27577 8.71366 7.17867C8.77177 7.08156 8.85516 7.00207 8.95494 6.94867C9.05471 6.89527 9.16711 6.86998 9.28014 6.8755C9.39317 6.88101 9.50258 6.91712 9.59668 6.97998L13.3467 9.47998C13.4323 9.53705 13.5025 9.61438 13.551 9.70509C13.5996 9.79581 13.625 9.89711 13.625 10C13.625 10.1029 13.5996 10.2042 13.551 10.2949C13.5025 10.3856 13.4323 10.4629 13.3467 10.52Z" fill="white"/>
</svg>
