<svg width="134" height="134" viewBox="0 0 134 134" fill="none" xmlns="http://www.w3.org/2000/svg">
<g filter="url(#filter0_b_337_1471)">
<path d="M129 0H5C2.23858 0 0 2.23858 0 5V129C0 131.761 2.23858 134 5 134H129C131.761 134 134 131.761 134 129V5C134 2.23858 131.761 0 129 0Z" fill="white" fill-opacity="0.15"/>
</g>
<path d="M36.5999 33.4H33.3999V36.6H36.5999V33.4Z" fill="white"/>
<path d="M39.8001 33.4H36.6001V36.6H39.8001V33.4Z" fill="white"/>
<path d="M43.0001 33.4H39.8V36.6H43.0001V33.4Z" fill="white"/>
<path d="M46.2 33.4H43V36.6H46.2V33.4Z" fill="white"/>
<path d="M49.4 33.4H46.2V36.6H49.4V33.4Z" fill="white"/>
<path d="M52.5999 33.4H49.3999V36.6H52.5999V33.4Z" fill="white"/>
<path d="M55.8001 33.4H52.6001V36.6H55.8001V33.4Z" fill="white"/>
<path d="M65.4 33.4H62.2V36.6H65.4V33.4Z" fill="white"/>
<path d="M71.8001 33.4H68.6001V36.6H71.8001V33.4Z" fill="white"/>
<path d="M75 33.4H71.8V36.6H75V33.4Z" fill="white"/>
<path d="M81.4 33.4H78.2V36.6H81.4V33.4Z" fill="white"/>
<path d="M84.5999 33.4H81.3999V36.6H84.5999V33.4Z" fill="white"/>
<path d="M87.8001 33.4H84.6001V36.6H87.8001V33.4Z" fill="white"/>
<path d="M91.0001 33.4H87.8V36.6H91.0001V33.4Z" fill="white"/>
<path d="M94.2 33.4H91V36.6H94.2V33.4Z" fill="white"/>
<path d="M97.3999 33.4H94.2V36.6H97.3999V33.4Z" fill="white"/>
<path d="M100.6 33.4H97.3999V36.6H100.6V33.4Z" fill="white"/>
<path d="M36.5999 36.6H33.3999V39.8H36.5999V36.6Z" fill="white"/>
<path d="M55.8001 36.6H52.6001V39.8H55.8001V36.6Z" fill="white"/>
<path d="M65.4 36.6H62.2V39.8H65.4V36.6Z" fill="white"/>
<path d="M68.5999 36.6H65.3999V39.8H68.5999V36.6Z" fill="white"/>
<path d="M71.8001 36.6H68.6001V39.8H71.8001V36.6Z" fill="white"/>
<path d="M81.4 36.6H78.2V39.8H81.4V36.6Z" fill="white"/>
<path d="M100.6 36.6H97.3999V39.8H100.6V36.6Z" fill="white"/>
<path d="M36.5999 39.8H33.3999V43H36.5999V39.8Z" fill="white"/>
<path d="M43.0001 39.8H39.8V43H43.0001V39.8Z" fill="white"/>
<path d="M46.2 39.8H43V43H46.2V39.8Z" fill="white"/>
<path d="M49.4 39.8H46.2V43H49.4V39.8Z" fill="white"/>
<path d="M55.8001 39.8H52.6001V43H55.8001V39.8Z" fill="white"/>
<path d="M62.2 39.8H59V43H62.2V39.8Z" fill="white"/>
<path d="M65.4 39.8H62.2V43H65.4V39.8Z" fill="white"/>
<path d="M71.8001 39.8H68.6001V43H71.8001V39.8Z" fill="white"/>
<path d="M75 39.8H71.8V43H75V39.8Z" fill="white"/>
<path d="M81.4 39.8H78.2V43H81.4V39.8Z" fill="white"/>
<path d="M87.8001 39.8H84.6001V43H87.8001V39.8Z" fill="white"/>
<path d="M91.0001 39.8H87.8V43H91.0001V39.8Z" fill="white"/>
<path d="M94.2 39.8H91V43H94.2V39.8Z" fill="white"/>
<path d="M100.6 39.8H97.3999V43H100.6V39.8Z" fill="white"/>
<path d="M36.5999 43H33.3999V46.2H36.5999V43Z" fill="white"/>
<path d="M43.0001 43H39.8V46.2H43.0001V43Z" fill="white"/>
<path d="M46.2 43H43V46.2H46.2V43Z" fill="white"/>
<path d="M49.4 43H46.2V46.2H49.4V43Z" fill="white"/>
<path d="M55.8001 43H52.6001V46.2H55.8001V43Z" fill="white"/>
<path d="M65.4 43H62.2V46.2H65.4V43Z" fill="white"/>
<path d="M71.8001 43H68.6001V46.2H71.8001V43Z" fill="white"/>
<path d="M81.4 43H78.2V46.2H81.4V43Z" fill="white"/>
<path d="M87.8001 43H84.6001V46.2H87.8001V43Z" fill="white"/>
<path d="M91.0001 43H87.8V46.2H91.0001V43Z" fill="white"/>
<path d="M94.2 43H91V46.2H94.2V43Z" fill="white"/>
<path d="M100.6 43H97.3999V46.2H100.6V43Z" fill="white"/>
<path d="M36.5999 46.2H33.3999V49.4H36.5999V46.2Z" fill="white"/>
<path d="M43.0001 46.2H39.8V49.4H43.0001V46.2Z" fill="white"/>
<path d="M46.2 46.2H43V49.4H46.2V46.2Z" fill="white"/>
<path d="M49.4 46.2H46.2V49.4H49.4V46.2Z" fill="white"/>
<path d="M55.8001 46.2H52.6001V49.4H55.8001V46.2Z" fill="white"/>
<path d="M68.5999 46.2H65.3999V49.4H68.5999V46.2Z" fill="white"/>
<path d="M75 46.2H71.8V49.4H75V46.2Z" fill="white"/>
<path d="M81.4 46.2H78.2V49.4H81.4V46.2Z" fill="white"/>
<path d="M87.8001 46.2H84.6001V49.4H87.8001V46.2Z" fill="white"/>
<path d="M91.0001 46.2H87.8V49.4H91.0001V46.2Z" fill="white"/>
<path d="M94.2 46.2H91V49.4H94.2V46.2Z" fill="white"/>
<path d="M100.6 46.2H97.3999V49.4H100.6V46.2Z" fill="white"/>
<path d="M36.5999 49.4H33.3999V52.6H36.5999V49.4Z" fill="white"/>
<path d="M55.8001 49.4H52.6001V52.6H55.8001V49.4Z" fill="white"/>
<path d="M75 49.4H71.8V52.6H75V49.4Z" fill="white"/>
<path d="M81.4 49.4H78.2V52.6H81.4V49.4Z" fill="white"/>
<path d="M100.6 49.4H97.3999V52.6H100.6V49.4Z" fill="white"/>
<path d="M36.5999 52.6H33.3999V55.8H36.5999V52.6Z" fill="white"/>
<path d="M39.8001 52.6H36.6001V55.8H39.8001V52.6Z" fill="white"/>
<path d="M43.0001 52.6H39.8V55.8H43.0001V52.6Z" fill="white"/>
<path d="M46.2 52.6H43V55.8H46.2V52.6Z" fill="white"/>
<path d="M49.4 52.6H46.2V55.8H49.4V52.6Z" fill="white"/>
<path d="M52.5999 52.6H49.3999V55.8H52.5999V52.6Z" fill="white"/>
<path d="M55.8001 52.6H52.6001V55.8H55.8001V52.6Z" fill="white"/>
<path d="M62.2 52.6H59V55.8H62.2V52.6Z" fill="white"/>
<path d="M68.5999 52.6H65.3999V55.8H68.5999V52.6Z" fill="white"/>
<path d="M75 52.6H71.8V55.8H75V52.6Z" fill="white"/>
<path d="M81.4 52.6H78.2V55.8H81.4V52.6Z" fill="white"/>
<path d="M84.5999 52.6H81.3999V55.8H84.5999V52.6Z" fill="white"/>
<path d="M87.8001 52.6H84.6001V55.8H87.8001V52.6Z" fill="white"/>
<path d="M91.0001 52.6H87.8V55.8H91.0001V52.6Z" fill="white"/>
<path d="M94.2 52.6H91V55.8H94.2V52.6Z" fill="white"/>
<path d="M97.3999 52.6H94.2V55.8H97.3999V52.6Z" fill="white"/>
<path d="M100.6 52.6H97.3999V55.8H100.6V52.6Z" fill="white"/>
<path d="M62.2 55.8H59V59H62.2V55.8Z" fill="white"/>
<path d="M65.4 55.8H62.2V59H65.4V55.8Z" fill="white"/>
<path d="M71.8001 55.8H68.6001V59H71.8001V55.8Z" fill="white"/>
<path d="M75 55.8H71.8V59H75V55.8Z" fill="white"/>
<path d="M36.5999 59H33.3999V62.2H36.5999V59Z" fill="white"/>
<path d="M39.8001 59H36.6001V62.2H39.8001V59Z" fill="white"/>
<path d="M43.0001 59H39.8V62.2H43.0001V59Z" fill="white"/>
<path d="M49.4 59H46.2V62.2H49.4V59Z" fill="white"/>
<path d="M52.5999 59H49.3999V62.2H52.5999V59Z" fill="white"/>
<path d="M55.8001 59H52.6001V62.2H55.8001V59Z" fill="white"/>
<path d="M59.0001 59H55.8V62.2H59.0001V59Z" fill="white"/>
<path d="M62.2 59H59V62.2H62.2V59Z" fill="white"/>
<path d="M65.4 59H62.2V62.2H65.4V59Z" fill="white"/>
<path d="M68.5999 59H65.3999V62.2H68.5999V59Z" fill="white"/>
<path d="M71.8001 59H68.6001V62.2H71.8001V59Z" fill="white"/>
<path d="M78.2 59H75V62.2H78.2V59Z" fill="white"/>
<path d="M81.4 59H78.2V62.2H81.4V59Z" fill="white"/>
<path d="M94.2 59H91V62.2H94.2V59Z" fill="white"/>
<path d="M36.5999 62.2H33.3999V65.4H36.5999V62.2Z" fill="white"/>
<path d="M43.0001 62.2H39.8V65.4H43.0001V62.2Z" fill="white"/>
<path d="M46.2 62.2H43V65.4H46.2V62.2Z" fill="white"/>
<path d="M49.4 62.2H46.2V65.4H49.4V62.2Z" fill="white"/>
<path d="M65.4 62.2H62.2V65.4H65.4V62.2Z" fill="white"/>
<path d="M81.4 62.2H78.2V65.4H81.4V62.2Z" fill="white"/>
<path d="M84.5999 62.2H81.3999V65.4H84.5999V62.2Z" fill="white"/>
<path d="M100.6 62.2H97.3999V65.4H100.6V62.2Z" fill="white"/>
<path d="M36.5999 65.4H33.3999V68.6H36.5999V65.4Z" fill="white"/>
<path d="M39.8001 65.4H36.6001V68.6H39.8001V65.4Z" fill="white"/>
<path d="M49.4 65.4H46.2V68.6H49.4V65.4Z" fill="white"/>
<path d="M55.8001 65.4H52.6001V68.6H55.8001V65.4Z" fill="white"/>
<path d="M59.0001 65.4H55.8V68.6H59.0001V65.4Z" fill="white"/>
<path d="M62.2 65.4H59V68.6H62.2V65.4Z" fill="white"/>
<path d="M65.4 65.4H62.2V68.6H65.4V65.4Z" fill="white"/>
<path d="M68.5999 65.4H65.3999V68.6H68.5999V65.4Z" fill="white"/>
<path d="M75 65.4H71.8V68.6H75V65.4Z" fill="white"/>
<path d="M87.8001 65.4H84.6001V68.6H87.8001V65.4Z" fill="white"/>
<path d="M94.2 65.4H91V68.6H94.2V65.4Z" fill="white"/>
<path d="M97.3999 65.4H94.2V68.6H97.3999V65.4Z" fill="white"/>
<path d="M100.6 65.4H97.3999V68.6H100.6V65.4Z" fill="white"/>
<path d="M46.2 68.6H43V71.8H46.2V68.6Z" fill="white"/>
<path d="M49.4 68.6H46.2V71.8H49.4V68.6Z" fill="white"/>
<path d="M52.5999 68.6H49.3999V71.8H52.5999V68.6Z" fill="white"/>
<path d="M65.4 68.6H62.2V71.8H65.4V68.6Z" fill="white"/>
<path d="M68.5999 68.6H65.3999V71.8H68.5999V68.6Z" fill="white"/>
<path d="M81.4 68.6H78.2V71.8H81.4V68.6Z" fill="white"/>
<path d="M87.8001 68.6H84.6001V71.8H87.8001V68.6Z" fill="white"/>
<path d="M97.3999 68.6H94.2V71.8H97.3999V68.6Z" fill="white"/>
<path d="M36.5999 71.8H33.3999V75H36.5999V71.8Z" fill="white"/>
<path d="M46.2 71.8H43V75H46.2V71.8Z" fill="white"/>
<path d="M52.5999 71.8H49.3999V75H52.5999V71.8Z" fill="white"/>
<path d="M55.8001 71.8H52.6001V75H55.8001V71.8Z" fill="white"/>
<path d="M59.0001 71.8H55.8V75H59.0001V71.8Z" fill="white"/>
<path d="M75 71.8H71.8V75H75V71.8Z" fill="white"/>
<path d="M81.4 71.8H78.2V75H81.4V71.8Z" fill="white"/>
<path d="M84.5999 71.8H81.3999V75H84.5999V71.8Z" fill="white"/>
<path d="M91.0001 71.8H87.8V75H91.0001V71.8Z" fill="white"/>
<path d="M62.2 75H59V78.2H62.2V75Z" fill="white"/>
<path d="M71.8001 75H68.6001V78.2H71.8001V75Z" fill="white"/>
<path d="M78.2 75H75V78.2H78.2V75Z" fill="white"/>
<path d="M84.5999 75H81.3999V78.2H84.5999V75Z" fill="white"/>
<path d="M87.8001 75H84.6001V78.2H87.8001V75Z" fill="white"/>
<path d="M97.3999 75H94.2V78.2H97.3999V75Z" fill="white"/>
<path d="M100.6 75H97.3999V78.2H100.6V75Z" fill="white"/>
<path d="M36.5999 78.2H33.3999V81.4H36.5999V78.2Z" fill="white"/>
<path d="M39.8001 78.2H36.6001V81.4H39.8001V78.2Z" fill="white"/>
<path d="M43.0001 78.2H39.8V81.4H43.0001V78.2Z" fill="white"/>
<path d="M46.2 78.2H43V81.4H46.2V78.2Z" fill="white"/>
<path d="M49.4 78.2H46.2V81.4H49.4V78.2Z" fill="white"/>
<path d="M52.5999 78.2H49.3999V81.4H52.5999V78.2Z" fill="white"/>
<path d="M55.8001 78.2H52.6001V81.4H55.8001V78.2Z" fill="white"/>
<path d="M62.2 78.2H59V81.4H62.2V78.2Z" fill="white"/>
<path d="M68.5999 78.2H65.3999V81.4H68.5999V78.2Z" fill="white"/>
<path d="M71.8001 78.2H68.6001V81.4H71.8001V78.2Z" fill="white"/>
<path d="M78.2 78.2H75V81.4H78.2V78.2Z" fill="white"/>
<path d="M81.4 78.2H78.2V81.4H81.4V78.2Z" fill="white"/>
<path d="M87.8001 78.2H84.6001V81.4H87.8001V78.2Z" fill="white"/>
<path d="M94.2 78.2H91V81.4H94.2V78.2Z" fill="white"/>
<path d="M97.3999 78.2H94.2V81.4H97.3999V78.2Z" fill="white"/>
<path d="M100.6 78.2H97.3999V81.4H100.6V78.2Z" fill="white"/>
<path d="M36.5999 81.4H33.3999V84.6H36.5999V81.4Z" fill="white"/>
<path d="M55.8001 81.4H52.6001V84.6H55.8001V81.4Z" fill="white"/>
<path d="M62.2 81.4H59V84.6H62.2V81.4Z" fill="white"/>
<path d="M65.4 81.4H62.2V84.6H65.4V81.4Z" fill="white"/>
<path d="M71.8001 81.4H68.6001V84.6H71.8001V81.4Z" fill="white"/>
<path d="M75 81.4H71.8V84.6H75V81.4Z" fill="white"/>
<path d="M78.2 81.4H75V84.6H78.2V81.4Z" fill="white"/>
<path d="M87.8001 81.4H84.6001V84.6H87.8001V81.4Z" fill="white"/>
<path d="M100.6 81.4H97.3999V84.6H100.6V81.4Z" fill="white"/>
<path d="M36.5999 84.6H33.3999V87.8H36.5999V84.6Z" fill="white"/>
<path d="M43.0001 84.6H39.8V87.8H43.0001V84.6Z" fill="white"/>
<path d="M46.2 84.6H43V87.8H46.2V84.6Z" fill="white"/>
<path d="M49.4 84.6H46.2V87.8H49.4V84.6Z" fill="white"/>
<path d="M55.8001 84.6H52.6001V87.8H55.8001V84.6Z" fill="white"/>
<path d="M62.2 84.6H59V87.8H62.2V84.6Z" fill="white"/>
<path d="M68.5999 84.6H65.3999V87.8H68.5999V84.6Z" fill="white"/>
<path d="M71.8001 84.6H68.6001V87.8H71.8001V84.6Z" fill="white"/>
<path d="M78.2 84.6H75V87.8H78.2V84.6Z" fill="white"/>
<path d="M81.4 84.6H78.2V87.8H81.4V84.6Z" fill="white"/>
<path d="M84.5999 84.6H81.3999V87.8H84.5999V84.6Z" fill="white"/>
<path d="M91.0001 84.6H87.8V87.8H91.0001V84.6Z" fill="white"/>
<path d="M97.3999 84.6H94.2V87.8H97.3999V84.6Z" fill="white"/>
<path d="M100.6 84.6H97.3999V87.8H100.6V84.6Z" fill="white"/>
<path d="M36.5999 87.8H33.3999V91H36.5999V87.8Z" fill="white"/>
<path d="M43.0001 87.8H39.8V91H43.0001V87.8Z" fill="white"/>
<path d="M46.2 87.8H43V91H46.2V87.8Z" fill="white"/>
<path d="M49.4 87.8H46.2V91H49.4V87.8Z" fill="white"/>
<path d="M55.8001 87.8H52.6001V91H55.8001V87.8Z" fill="white"/>
<path d="M65.4 87.8H62.2V91H65.4V87.8Z" fill="white"/>
<path d="M68.5999 87.8H65.3999V91H68.5999V87.8Z" fill="white"/>
<path d="M81.4 87.8H78.2V91H81.4V87.8Z" fill="white"/>
<path d="M84.5999 87.8H81.3999V91H84.5999V87.8Z" fill="white"/>
<path d="M87.8001 87.8H84.6001V91H87.8001V87.8Z" fill="white"/>
<path d="M91.0001 87.8H87.8V91H91.0001V87.8Z" fill="white"/>
<path d="M97.3999 87.8H94.2V91H97.3999V87.8Z" fill="white"/>
<path d="M36.5999 91H33.3999V94.2H36.5999V91Z" fill="white"/>
<path d="M43.0001 91H39.8V94.2H43.0001V91Z" fill="white"/>
<path d="M46.2 91H43V94.2H46.2V91Z" fill="white"/>
<path d="M49.4 91H46.2V94.2H49.4V91Z" fill="white"/>
<path d="M55.8001 91H52.6001V94.2H55.8001V91Z" fill="white"/>
<path d="M62.2 91H59V94.2H62.2V91Z" fill="white"/>
<path d="M68.5999 91H65.3999V94.2H68.5999V91Z" fill="white"/>
<path d="M75 91H71.8V94.2H75V91Z" fill="white"/>
<path d="M87.8001 91H84.6001V94.2H87.8001V91Z" fill="white"/>
<path d="M94.2 91H91V94.2H94.2V91Z" fill="white"/>
<path d="M100.6 91H97.3999V94.2H100.6V91Z" fill="white"/>
<path d="M36.5999 94.2H33.3999V97.4H36.5999V94.2Z" fill="white"/>
<path d="M55.8001 94.2H52.6001V97.4H55.8001V94.2Z" fill="white"/>
<path d="M62.2 94.2H59V97.4H62.2V94.2Z" fill="white"/>
<path d="M65.4 94.2H62.2V97.4H65.4V94.2Z" fill="white"/>
<path d="M68.5999 94.2H65.3999V97.4H68.5999V94.2Z" fill="white"/>
<path d="M81.4 94.2H78.2V97.4H81.4V94.2Z" fill="white"/>
<path d="M84.5999 94.2H81.3999V97.4H84.5999V94.2Z" fill="white"/>
<path d="M87.8001 94.2H84.6001V97.4H87.8001V94.2Z" fill="white"/>
<path d="M91.0001 94.2H87.8V97.4H91.0001V94.2Z" fill="white"/>
<path d="M97.3999 94.2H94.2V97.4H97.3999V94.2Z" fill="white"/>
<path d="M36.5999 97.4H33.3999V100.6H36.5999V97.4Z" fill="white"/>
<path d="M39.8001 97.4H36.6001V100.6H39.8001V97.4Z" fill="white"/>
<path d="M43.0001 97.4H39.8V100.6H43.0001V97.4Z" fill="white"/>
<path d="M46.2 97.4H43V100.6H46.2V97.4Z" fill="white"/>
<path d="M49.4 97.4H46.2V100.6H49.4V97.4Z" fill="white"/>
<path d="M52.5999 97.4H49.3999V100.6H52.5999V97.4Z" fill="white"/>
<path d="M55.8001 97.4H52.6001V100.6H55.8001V97.4Z" fill="white"/>
<path d="M62.2 97.4H59V100.6H62.2V97.4Z" fill="white"/>
<path d="M75 97.4H71.8V100.6H75V97.4Z" fill="white"/>
<path d="M81.4 97.4H78.2V100.6H81.4V97.4Z" fill="white"/>
<path d="M91.0001 97.4H87.8V100.6H91.0001V97.4Z" fill="white"/>
<path d="M97.3999 97.4H94.2V100.6H97.3999V97.4Z" fill="white"/>
<path d="M100.6 97.4H97.3999V100.6H100.6V97.4Z" fill="white"/>
<defs>
<filter id="filter0_b_337_1471" x="-30" y="-30" width="194" height="194" filterUnits="userSpaceOnUse" color-interpolation-filters="sRGB">
<feFlood flood-opacity="0" result="BackgroundImageFix"/>
<feGaussianBlur in="BackgroundImage" stdDeviation="15"/>
<feComposite in2="SourceAlpha" operator="in" result="effect1_backgroundBlur_337_1471"/>
<feBlend mode="normal" in="SourceGraphic" in2="effect1_backgroundBlur_337_1471" result="shape"/>
</filter>
</defs>
</svg>
