<svg width="80" height="80" viewBox="0 0 80 80" fill="none" xmlns="http://www.w3.org/2000/svg">
<path d="M70 40C70 23.4367 56.5633 10 40 10C23.4367 10 10 23.4333 10 40C10 56.56 23.4367 70 40 70C56.5633 70 70 56.56 70 40Z" stroke="#b7003a" stroke-width="3" stroke-miterlimit="10"/>
<path d="M39.1 25.9464L40 44.9998L40.8933 25.9464C40.8988 25.8251 40.8795 25.7039 40.8366 25.5902C40.7938 25.4766 40.7283 25.3728 40.6441 25.2852C40.56 25.1976 40.4589 25.128 40.347 25.0807C40.2351 25.0333 40.1148 25.0092 39.9933 25.0098C39.873 25.0106 39.754 25.0356 39.6436 25.0833C39.5331 25.1311 39.4334 25.2005 39.3503 25.2876C39.2673 25.3747 39.2026 25.4776 39.1602 25.5903C39.1177 25.7029 39.0984 25.8229 39.1033 25.9431L39.1 25.9464Z" stroke="#b7003a" stroke-width="3" stroke-linecap="round" stroke-linejoin="round"/>
<path d="M40 57.4821C39.581 57.4958 39.1636 57.4251 38.7725 57.2742C38.3814 57.1233 38.0246 56.8954 37.7234 56.6038C37.4222 56.3123 37.1827 55.9632 37.0191 55.5772C36.8556 55.1912 36.7713 54.7763 36.7713 54.3571C36.7713 53.9379 36.8556 53.523 37.0191 53.1371C37.1827 52.7511 37.4222 52.402 37.7234 52.1105C38.0246 51.8189 38.3814 51.5909 38.7725 51.44C39.1636 51.2892 39.581 51.2185 40 51.2321C40.8111 51.2586 41.5802 51.5995 42.1446 52.1826C42.709 52.7658 43.0246 53.5456 43.0246 54.3571C43.0246 55.1687 42.709 55.9485 42.1446 56.5316C41.5802 57.1148 40.8111 57.4556 40 57.4821Z" fill="#b7003a"/>
</svg>
