<svg width="80" height="80" viewBox="0 0 80 80" fill="none" xmlns="http://www.w3.org/2000/svg">
<path d="M39.9983 10C32.0418 10.0005 24.4113 13.1616 18.7856 18.788C13.1598 24.4144 9.99954 32.0452 10 40.0017C10.0005 47.9582 13.1616 55.5887 18.788 61.2144C24.4144 66.8402 32.0452 70.0005 40.0017 70C43.9414 69.9998 47.8424 69.2236 51.4821 67.7157C55.1218 66.2079 58.4288 63.9979 61.2144 61.212C64 58.4261 66.2096 55.1188 67.717 51.4789C69.2245 47.839 70.0002 43.9379 70 39.9983C69.9998 36.0586 69.2236 32.1576 67.7157 28.5179C66.2079 24.8782 63.9979 21.5712 61.212 18.7856C58.4261 16 55.1187 13.7904 51.4789 12.2829C47.839 10.7755 43.9379 9.99977 39.9983 10V10Z" stroke="#F49D37" stroke-width="3" stroke-miterlimit="10"/>
<path d="M35.377 35.376H40.377V53.5026" stroke="#F49D37" stroke-width="3" stroke-linecap="round" stroke-linejoin="round"/>
<path d="M33.5 54.126H47.25" stroke="#F49D37" stroke-width="3" stroke-miterlimit="10" stroke-linecap="round"/>
<path d="M39.7508 21.3164C38.6732 21.3164 37.6396 21.7445 36.8776 22.5065C36.1156 23.2686 35.6875 24.3021 35.6875 25.3797C35.6875 26.4574 36.1156 27.4909 36.8776 28.253C37.6396 29.015 38.6732 29.4431 39.7508 29.4431C40.8285 29.4431 41.862 29.015 42.624 28.253C43.3861 27.4909 43.8142 26.4574 43.8142 25.3797C43.8142 24.3021 43.3861 23.2686 42.624 22.5065C41.862 21.7445 40.8285 21.3164 39.7508 21.3164Z" fill="#F49D37"/>
</svg>
