<svg width="80" height="80" viewBox="0 0 80 80" fill="none" xmlns="http://www.w3.org/2000/svg">
<path d="M40 10C32.0435 10 24.4129 13.1607 18.7868 18.7868C13.1607 24.4129 10 32.0435 10 40C10 47.9565 13.1607 55.5871 18.7868 61.2132C24.4129 66.8393 32.0435 70 40 70C47.9565 70 55.5871 66.8393 61.2132 61.2132C66.8393 55.5871 70 47.9565 70 40C70 32.0435 66.8393 24.4129 61.2132 18.7868C55.5871 13.1607 47.9565 10 40 10Z" stroke="#F49D37" stroke-width="3" stroke-miterlimit="10"/>
<path d="M31.25 31.6118C31.25 31.6118 31.3833 28.8785 34.3067 26.5218C36.0433 25.1218 38.1267 24.7185 40 24.6885C41.7067 24.6685 43.2333 24.9518 44.1467 25.3885C45.7067 26.1285 48.75 27.9452 48.75 31.8052C48.75 35.8685 46.0933 37.7152 43.0667 39.7452C40.04 41.7718 39.22 43.9785 39.22 46.2518" stroke="#F49D37" stroke-width="3" stroke-miterlimit="10" stroke-linecap="round"/>
<path d="M39.0638 57.5006C39.8921 57.5006 40.6866 57.1715 41.2723 56.5858C41.858 56 42.1871 55.2056 42.1871 54.3772C42.1871 53.5489 41.858 52.7544 41.2723 52.1687C40.6866 51.583 39.8921 51.2539 39.0638 51.2539C38.2354 51.2539 37.441 51.583 36.8552 52.1687C36.2695 52.7544 35.9404 53.5489 35.9404 54.3772C35.9404 55.2056 36.2695 56 36.8552 56.5858C37.441 57.1715 38.2354 57.5006 39.0638 57.5006Z" fill="#F49D37"/>
</svg>
