<svg width="576" height="576" viewBox="0 0 576 576" fill="none" xmlns="http://www.w3.org/2000/svg">
<rect width="576" height="576" rx="33" fill="url(#paint0_linear_424_2404)"/>
<mask id="mask0_424_2404" style="mask-type:alpha" maskUnits="userSpaceOnUse" x="0" y="0" width="576" height="576">
<rect width="576" height="576" rx="33" fill="#26262C"/>
</mask>
<g mask="url(#mask0_424_2404)">
<circle cx="288.014" cy="383.014" r="213.649" stroke="white" stroke-opacity="0.35" stroke-width="0.8375"/>
<circle cx="288.014" cy="383.014" r="256.595" stroke="white" stroke-opacity="0.35" stroke-width="0.8375"/>
<g filter="url(#filter0_dii_424_2404)">
<path d="M119.5 314L170.162 343.25V401.75L119.5 431L68.8375 401.75V343.25L119.5 314Z" fill="#030092"/>
<path d="M119.5 314L170.162 343.25V401.75L119.5 431L68.8375 401.75V343.25L119.5 314Z" fill="url(#paint1_radial_424_2404)"/>
</g>
<g filter="url(#filter1_dii_424_2404)">
<path d="M457.5 314L508.162 343.25V401.75L457.5 431L406.838 401.75V343.25L457.5 314Z" fill="#030092"/>
<path d="M457.5 314L508.162 343.25V401.75L457.5 431L406.838 401.75V343.25L457.5 314Z" fill="url(#paint2_radial_424_2404)"/>
</g>
<g filter="url(#filter2_dii_424_2404)">
<path d="M200.5 303L260.689 337.75V407.25L200.5 442L140.311 407.25V337.75L200.5 303Z" fill="#030092"/>
<path d="M200.5 303L260.689 337.75V407.25L200.5 442L140.311 407.25V337.75L200.5 303Z" fill="url(#paint3_radial_424_2404)"/>
</g>
<g filter="url(#filter3_dii_424_2404)">
<path d="M376.5 303L436.689 337.75V407.25L376.5 442L316.311 407.25V337.75L376.5 303Z" fill="#030092"/>
<path d="M376.5 303L436.689 337.75V407.25L376.5 442L316.311 407.25V337.75L376.5 303Z" fill="url(#paint4_radial_424_2404)"/>
</g>
<g filter="url(#filter4_dddii_424_2404)">
<path d="M288.5 287L362.545 329.75V415.25L288.5 458L214.455 415.25V329.75L288.5 287Z" fill="#030092"/>
<path d="M288.5 287L362.545 329.75V415.25L288.5 458L214.455 415.25V329.75L288.5 287Z" fill="url(#paint5_radial_424_2404)"/>
</g>
<g filter="url(#filter5_dii_424_2404)">
<circle cx="375.245" cy="301.988" r="20.8122" fill="#030092"/>
<circle cx="375.245" cy="301.988" r="20.8122" fill="url(#paint6_radial_424_2404)"/>
</g>
<g filter="url(#filter6_dii_424_2404)">
<circle cx="223.943" cy="263.007" r="28.7406" fill="#030092"/>
<circle cx="223.943" cy="263.007" r="28.7406" fill="url(#paint7_radial_424_2404)"/>
</g>
<g filter="url(#filter7_dii_424_2404)">
<circle cx="11.1693" cy="317.515" r="19.8211" fill="#030092"/>
<circle cx="11.1693" cy="317.515" r="19.8211" fill="url(#paint8_radial_424_2404)"/>
</g>
<g filter="url(#filter8_dii_424_2404)">
<circle cx="552.313" cy="237.239" r="34.687" fill="#030092"/>
<circle cx="552.313" cy="237.239" r="34.687" fill="url(#paint9_radial_424_2404)"/>
</g>
<path d="M122.221 87.3203C122.221 87.4935 122.212 87.6439 122.193 87.7715C122.175 87.8991 122.143 88.0039 122.098 88.0859C122.052 88.1589 121.997 88.2135 121.934 88.25C121.879 88.2865 121.82 88.3047 121.756 88.3047H115.275V94.3203H121.4C121.464 94.3203 121.523 94.3385 121.578 94.375C121.642 94.4023 121.697 94.4525 121.742 94.5254C121.788 94.5983 121.82 94.6986 121.838 94.8262C121.856 94.9447 121.865 95.0996 121.865 95.291C121.865 95.4642 121.856 95.6146 121.838 95.7422C121.82 95.8607 121.788 95.9609 121.742 96.043C121.697 96.1159 121.642 96.1751 121.578 96.2207C121.523 96.2572 121.464 96.2754 121.4 96.2754H115.275V103.645C115.275 103.708 115.257 103.772 115.221 103.836C115.184 103.891 115.12 103.936 115.029 103.973C114.938 104 114.82 104.023 114.674 104.041C114.528 104.068 114.337 104.082 114.1 104.082C113.881 104.082 113.694 104.068 113.539 104.041C113.384 104.023 113.261 104 113.17 103.973C113.079 103.936 113.015 103.891 112.979 103.836C112.942 103.772 112.924 103.708 112.924 103.645V87.2656C112.924 86.9102 113.015 86.6641 113.197 86.5273C113.389 86.3815 113.589 86.3086 113.799 86.3086H121.756C121.82 86.3086 121.879 86.3268 121.934 86.3633C121.997 86.3997 122.052 86.459 122.098 86.541C122.143 86.623 122.175 86.7324 122.193 86.8691C122.212 86.9967 122.221 87.1471 122.221 87.3203ZM127.799 103.658C127.799 103.731 127.781 103.795 127.744 103.85C127.708 103.895 127.648 103.936 127.566 103.973C127.484 104.009 127.37 104.036 127.225 104.055C127.079 104.073 126.892 104.082 126.664 104.082C126.445 104.082 126.263 104.073 126.117 104.055C125.971 104.036 125.853 104.009 125.762 103.973C125.68 103.936 125.62 103.895 125.584 103.85C125.557 103.795 125.543 103.731 125.543 103.658V91.3535C125.543 91.2897 125.557 91.2305 125.584 91.1758C125.62 91.1211 125.68 91.0755 125.762 91.0391C125.853 91.0026 125.971 90.9753 126.117 90.957C126.263 90.9388 126.445 90.9297 126.664 90.9297C126.892 90.9297 127.079 90.9388 127.225 90.957C127.37 90.9753 127.484 91.0026 127.566 91.0391C127.648 91.0755 127.708 91.1211 127.744 91.1758C127.781 91.2305 127.799 91.2897 127.799 91.3535V103.658ZM128.059 87.1973C128.059 87.7259 127.958 88.0859 127.758 88.2773C127.557 88.4688 127.188 88.5645 126.65 88.5645C126.122 88.5645 125.757 88.4733 125.557 88.291C125.365 88.0996 125.27 87.7441 125.27 87.2246C125.27 86.696 125.37 86.3359 125.57 86.1445C125.771 85.9531 126.14 85.8574 126.678 85.8574C127.206 85.8574 127.566 85.9531 127.758 86.1445C127.958 86.3268 128.059 86.6777 128.059 87.1973ZM142.564 103.658C142.564 103.731 142.546 103.795 142.51 103.85C142.473 103.895 142.414 103.936 142.332 103.973C142.25 104.009 142.136 104.036 141.99 104.055C141.844 104.073 141.662 104.082 141.443 104.082C141.215 104.082 141.029 104.073 140.883 104.055C140.737 104.036 140.623 104.009 140.541 103.973C140.459 103.936 140.4 103.895 140.363 103.85C140.327 103.795 140.309 103.731 140.309 103.658V96.4531C140.309 95.7513 140.254 95.1862 140.145 94.7578C140.035 94.3294 139.876 93.9603 139.666 93.6504C139.456 93.3405 139.183 93.1035 138.846 92.9395C138.518 92.7754 138.135 92.6934 137.697 92.6934C137.132 92.6934 136.567 92.8939 136.002 93.2949C135.437 93.696 134.844 94.2839 134.225 95.0586V103.658C134.225 103.731 134.206 103.795 134.17 103.85C134.133 103.895 134.074 103.936 133.992 103.973C133.91 104.009 133.796 104.036 133.65 104.055C133.505 104.073 133.318 104.082 133.09 104.082C132.871 104.082 132.689 104.073 132.543 104.055C132.397 104.036 132.279 104.009 132.188 103.973C132.105 103.936 132.046 103.895 132.01 103.85C131.982 103.795 131.969 103.731 131.969 103.658V91.3535C131.969 91.2806 131.982 91.2214 132.01 91.1758C132.037 91.1211 132.092 91.0755 132.174 91.0391C132.256 90.9935 132.361 90.9661 132.488 90.957C132.616 90.9388 132.785 90.9297 132.994 90.9297C133.195 90.9297 133.359 90.9388 133.486 90.957C133.623 90.9661 133.728 90.9935 133.801 91.0391C133.874 91.0755 133.924 91.1211 133.951 91.1758C133.988 91.2214 134.006 91.2806 134.006 91.3535V92.9805C134.699 92.2057 135.387 91.6406 136.07 91.2852C136.763 90.9206 137.46 90.7383 138.162 90.7383C138.982 90.7383 139.671 90.8796 140.227 91.1621C140.792 91.4355 141.247 91.8047 141.594 92.2695C141.94 92.7344 142.186 93.2812 142.332 93.9102C142.487 94.5299 142.564 95.2773 142.564 96.1523V103.658ZM157.221 103.658C157.221 103.731 157.202 103.795 157.166 103.85C157.139 103.904 157.084 103.95 157.002 103.986C156.929 104.014 156.829 104.036 156.701 104.055C156.574 104.073 156.419 104.082 156.236 104.082C156.045 104.082 155.885 104.073 155.758 104.055C155.63 104.036 155.525 104.014 155.443 103.986C155.361 103.95 155.302 103.904 155.266 103.85C155.229 103.795 155.211 103.731 155.211 103.658V102.031C154.564 102.733 153.889 103.28 153.188 103.672C152.495 104.064 151.734 104.26 150.904 104.26C150.002 104.26 149.232 104.087 148.594 103.74C147.956 103.385 147.436 102.911 147.035 102.318C146.643 101.717 146.356 101.015 146.174 100.213C145.992 99.4017 145.9 98.5495 145.9 97.6562C145.9 96.599 146.014 95.6465 146.242 94.7988C146.47 93.9421 146.807 93.2129 147.254 92.6113C147.701 92.0098 148.252 91.5495 148.908 91.2305C149.574 90.9023 150.339 90.7383 151.205 90.7383C151.925 90.7383 152.581 90.8978 153.174 91.2168C153.775 91.5267 154.368 91.987 154.951 92.5977V85.4473C154.951 85.3835 154.965 85.3242 154.992 85.2695C155.029 85.2057 155.092 85.1602 155.184 85.1328C155.275 85.0964 155.389 85.069 155.525 85.0508C155.671 85.0234 155.854 85.0098 156.072 85.0098C156.3 85.0098 156.487 85.0234 156.633 85.0508C156.779 85.069 156.893 85.0964 156.975 85.1328C157.057 85.1602 157.116 85.2057 157.152 85.2695C157.198 85.3242 157.221 85.3835 157.221 85.4473V103.658ZM154.951 95.0039C154.34 94.2474 153.748 93.6732 153.174 93.2812C152.609 92.8802 152.016 92.6797 151.396 92.6797C150.822 92.6797 150.335 92.8164 149.934 93.0898C149.533 93.3633 149.204 93.7233 148.949 94.1699C148.703 94.6165 148.521 95.1224 148.402 95.6875C148.293 96.2526 148.238 96.8268 148.238 97.4102C148.238 98.0299 148.284 98.6361 148.375 99.2285C148.475 99.821 148.644 100.35 148.881 100.814C149.118 101.27 149.432 101.639 149.824 101.922C150.216 102.195 150.708 102.332 151.301 102.332C151.602 102.332 151.889 102.291 152.162 102.209C152.445 102.127 152.732 101.99 153.023 101.799C153.315 101.607 153.62 101.361 153.939 101.061C154.258 100.751 154.596 100.372 154.951 99.9258V95.0039ZM179.178 97.3691C179.178 98.3717 179.046 99.2969 178.781 100.145C178.517 100.983 178.12 101.708 177.592 102.318C177.072 102.929 176.416 103.408 175.623 103.754C174.839 104.091 173.928 104.26 172.889 104.26C171.877 104.26 170.993 104.109 170.236 103.809C169.489 103.508 168.865 103.07 168.363 102.496C167.862 101.922 167.488 101.225 167.242 100.404C166.996 99.584 166.873 98.6543 166.873 97.6152C166.873 96.6126 167.001 95.6921 167.256 94.8535C167.52 94.0059 167.912 93.2767 168.432 92.666C168.96 92.0553 169.617 91.5814 170.4 91.2441C171.184 90.9069 172.1 90.7383 173.148 90.7383C174.16 90.7383 175.04 90.8887 175.787 91.1895C176.544 91.4902 177.173 91.9277 177.674 92.502C178.175 93.0762 178.549 93.7734 178.795 94.5938C179.05 95.4141 179.178 96.3392 179.178 97.3691ZM176.799 97.5195C176.799 96.8542 176.735 96.2253 176.607 95.6328C176.489 95.0404 176.288 94.5208 176.006 94.0742C175.723 93.6276 175.34 93.2767 174.857 93.0215C174.374 92.7572 173.773 92.625 173.053 92.625C172.387 92.625 171.813 92.7435 171.33 92.9805C170.856 93.2174 170.464 93.5547 170.154 93.9922C169.844 94.4206 169.612 94.931 169.457 95.5234C169.311 96.1159 169.238 96.763 169.238 97.4648C169.238 98.1393 169.298 98.7728 169.416 99.3652C169.544 99.9577 169.749 100.477 170.031 100.924C170.323 101.361 170.71 101.712 171.193 101.977C171.676 102.232 172.278 102.359 172.998 102.359C173.654 102.359 174.224 102.241 174.707 102.004C175.19 101.767 175.587 101.434 175.896 101.006C176.206 100.577 176.434 100.067 176.58 99.4746C176.726 98.8822 176.799 98.2305 176.799 97.5195ZM193.041 103.658C193.041 103.731 193.023 103.795 192.986 103.85C192.959 103.895 192.904 103.936 192.822 103.973C192.74 104.009 192.631 104.036 192.494 104.055C192.367 104.073 192.207 104.082 192.016 104.082C191.806 104.082 191.633 104.073 191.496 104.055C191.368 104.036 191.264 104.009 191.182 103.973C191.109 103.936 191.059 103.895 191.031 103.85C191.004 103.795 190.99 103.731 190.99 103.658V102.031C190.288 102.806 189.596 103.371 188.912 103.727C188.229 104.082 187.536 104.26 186.834 104.26C186.014 104.26 185.321 104.123 184.756 103.85C184.2 103.576 183.749 103.207 183.402 102.742C183.056 102.268 182.805 101.721 182.65 101.102C182.505 100.473 182.432 99.7116 182.432 98.8184V91.3535C182.432 91.2806 182.445 91.2214 182.473 91.1758C182.509 91.1211 182.573 91.0755 182.664 91.0391C182.755 90.9935 182.874 90.9661 183.02 90.957C183.165 90.9388 183.348 90.9297 183.566 90.9297C183.785 90.9297 183.967 90.9388 184.113 90.957C184.259 90.9661 184.373 90.9935 184.455 91.0391C184.546 91.0755 184.61 91.1211 184.646 91.1758C184.683 91.2214 184.701 91.2806 184.701 91.3535V98.5176C184.701 99.2376 184.751 99.8164 184.852 100.254C184.961 100.682 185.12 101.051 185.33 101.361C185.549 101.662 185.822 101.899 186.15 102.072C186.479 102.236 186.861 102.318 187.299 102.318C187.864 102.318 188.424 102.118 188.98 101.717C189.546 101.316 190.143 100.728 190.771 99.9531V91.3535C190.771 91.2806 190.785 91.2214 190.812 91.1758C190.849 91.1211 190.913 91.0755 191.004 91.0391C191.095 90.9935 191.209 90.9661 191.346 90.957C191.492 90.9388 191.678 90.9297 191.906 90.9297C192.125 90.9297 192.307 90.9388 192.453 90.957C192.599 90.9661 192.713 90.9935 192.795 91.0391C192.877 91.0755 192.936 91.1211 192.973 91.1758C193.018 91.2214 193.041 91.2806 193.041 91.3535V103.658ZM203.609 102.756C203.609 103.02 203.591 103.23 203.555 103.385C203.518 103.54 203.464 103.654 203.391 103.727C203.318 103.799 203.208 103.868 203.062 103.932C202.917 103.995 202.748 104.046 202.557 104.082C202.374 104.128 202.178 104.164 201.969 104.191C201.759 104.219 201.549 104.232 201.34 104.232C200.702 104.232 200.155 104.15 199.699 103.986C199.243 103.813 198.87 103.558 198.578 103.221C198.286 102.874 198.072 102.441 197.936 101.922C197.808 101.393 197.744 100.773 197.744 100.062V92.8711H196.021C195.885 92.8711 195.775 92.7982 195.693 92.6523C195.611 92.5065 195.57 92.2695 195.57 91.9414C195.57 91.7682 195.579 91.6224 195.598 91.5039C195.625 91.3854 195.657 91.2897 195.693 91.2168C195.73 91.1348 195.775 91.0801 195.83 91.0527C195.894 91.0163 195.962 90.998 196.035 90.998H197.744V88.0723C197.744 88.0085 197.758 87.9492 197.785 87.8945C197.822 87.8398 197.881 87.7943 197.963 87.7578C198.054 87.7122 198.173 87.6803 198.318 87.6621C198.464 87.6439 198.646 87.6348 198.865 87.6348C199.093 87.6348 199.28 87.6439 199.426 87.6621C199.572 87.6803 199.686 87.7122 199.768 87.7578C199.85 87.7943 199.909 87.8398 199.945 87.8945C199.982 87.9492 200 88.0085 200 88.0723V90.998H203.158C203.231 90.998 203.295 91.0163 203.35 91.0527C203.404 91.0801 203.45 91.1348 203.486 91.2168C203.532 91.2897 203.564 91.3854 203.582 91.5039C203.6 91.6224 203.609 91.7682 203.609 91.9414C203.609 92.2695 203.568 92.5065 203.486 92.6523C203.404 92.7982 203.295 92.8711 203.158 92.8711H200V99.7344C200 100.582 200.123 101.225 200.369 101.662C200.624 102.09 201.076 102.305 201.723 102.305C201.932 102.305 202.119 102.286 202.283 102.25C202.447 102.204 202.593 102.159 202.721 102.113C202.848 102.068 202.958 102.027 203.049 101.99C203.14 101.945 203.222 101.922 203.295 101.922C203.34 101.922 203.382 101.936 203.418 101.963C203.464 101.981 203.495 102.022 203.514 102.086C203.541 102.15 203.564 102.236 203.582 102.346C203.6 102.455 203.609 102.592 203.609 102.756ZM230.146 91.3262C230.146 91.39 230.137 91.4674 230.119 91.5586C230.101 91.6497 230.069 91.7637 230.023 91.9004L226.4 103.59C226.373 103.69 226.327 103.772 226.264 103.836C226.209 103.9 226.127 103.95 226.018 103.986C225.917 104.023 225.776 104.046 225.594 104.055C225.411 104.073 225.184 104.082 224.91 104.082C224.628 104.082 224.391 104.073 224.199 104.055C224.008 104.036 223.853 104.009 223.734 103.973C223.625 103.936 223.543 103.886 223.488 103.822C223.434 103.758 223.393 103.681 223.365 103.59L220.781 94.6621L220.754 94.5391L220.727 94.6621L218.334 103.59C218.307 103.69 218.261 103.772 218.197 103.836C218.143 103.9 218.056 103.95 217.938 103.986C217.819 104.023 217.664 104.046 217.473 104.055C217.29 104.073 217.062 104.082 216.789 104.082C216.507 104.082 216.274 104.073 216.092 104.055C215.919 104.036 215.773 104.009 215.654 103.973C215.545 103.936 215.463 103.886 215.408 103.822C215.354 103.758 215.312 103.681 215.285 103.59L211.689 91.9004C211.644 91.7637 211.612 91.6497 211.594 91.5586C211.576 91.4674 211.566 91.39 211.566 91.3262C211.566 91.2441 211.585 91.1803 211.621 91.1348C211.658 91.0801 211.717 91.0391 211.799 91.0117C211.89 90.9753 212.008 90.9525 212.154 90.9434C212.3 90.9342 212.478 90.9297 212.688 90.9297C212.943 90.9297 213.148 90.9388 213.303 90.957C213.458 90.9661 213.576 90.9889 213.658 91.0254C213.74 91.0527 213.799 91.0983 213.836 91.1621C213.872 91.2168 213.904 91.2852 213.932 91.3672L216.898 101.512L216.926 101.635L216.953 101.512L219.674 91.3672C219.692 91.2852 219.719 91.2168 219.756 91.1621C219.801 91.0983 219.865 91.0527 219.947 91.0254C220.029 90.9889 220.139 90.9661 220.275 90.957C220.421 90.9388 220.608 90.9297 220.836 90.9297C221.055 90.9297 221.232 90.9388 221.369 90.957C221.515 90.9661 221.629 90.9889 221.711 91.0254C221.793 91.0527 221.852 91.0938 221.889 91.1484C221.925 91.2031 221.952 91.2669 221.971 91.3398L224.91 101.512L224.938 101.635L224.951 101.512L227.877 91.3672C227.895 91.2852 227.923 91.2168 227.959 91.1621C228.005 91.0983 228.068 91.0527 228.15 91.0254C228.242 90.9889 228.36 90.9661 228.506 90.957C228.661 90.9388 228.857 90.9297 229.094 90.9297C229.312 90.9297 229.486 90.9342 229.613 90.9434C229.75 90.9525 229.855 90.9753 229.928 91.0117C230.01 91.0482 230.064 91.0892 230.092 91.1348C230.128 91.1803 230.146 91.2441 230.146 91.3262ZM243.545 103.658C243.545 103.731 243.527 103.795 243.49 103.85C243.454 103.895 243.395 103.936 243.312 103.973C243.23 104.009 243.117 104.036 242.971 104.055C242.825 104.073 242.643 104.082 242.424 104.082C242.196 104.082 242.009 104.073 241.863 104.055C241.717 104.036 241.604 104.009 241.521 103.973C241.439 103.936 241.38 103.895 241.344 103.85C241.307 103.795 241.289 103.731 241.289 103.658V96.4531C241.289 95.7513 241.234 95.1862 241.125 94.7578C241.016 94.3294 240.856 93.9603 240.646 93.6504C240.437 93.3405 240.163 93.1035 239.826 92.9395C239.498 92.7754 239.115 92.6934 238.678 92.6934C238.113 92.6934 237.548 92.8939 236.982 93.2949C236.417 93.696 235.825 94.2839 235.205 95.0586V103.658C235.205 103.731 235.187 103.795 235.15 103.85C235.114 103.895 235.055 103.936 234.973 103.973C234.891 104.009 234.777 104.036 234.631 104.055C234.485 104.073 234.298 104.082 234.07 104.082C233.852 104.082 233.669 104.073 233.523 104.055C233.378 104.036 233.259 104.009 233.168 103.973C233.086 103.936 233.027 103.895 232.99 103.85C232.963 103.795 232.949 103.731 232.949 103.658V85.3926C232.949 85.3197 232.963 85.2559 232.99 85.2012C233.027 85.1465 233.086 85.1009 233.168 85.0645C233.259 85.028 233.378 85.0007 233.523 84.9824C233.669 84.9642 233.852 84.9551 234.07 84.9551C234.298 84.9551 234.485 84.9642 234.631 84.9824C234.777 85.0007 234.891 85.028 234.973 85.0645C235.055 85.1009 235.114 85.1465 235.15 85.2012C235.187 85.2559 235.205 85.3197 235.205 85.3926V92.7617C235.852 92.0781 236.504 91.5723 237.16 91.2441C237.816 90.9069 238.477 90.7383 239.143 90.7383C239.963 90.7383 240.651 90.8796 241.207 91.1621C241.772 91.4355 242.228 91.8047 242.574 92.2695C242.921 92.7344 243.167 93.2812 243.312 93.9102C243.467 94.5299 243.545 95.2819 243.545 96.166V103.658ZM256.93 103.672C256.93 103.781 256.893 103.863 256.82 103.918C256.747 103.973 256.647 104.014 256.52 104.041C256.392 104.068 256.205 104.082 255.959 104.082C255.722 104.082 255.531 104.068 255.385 104.041C255.248 104.014 255.148 103.973 255.084 103.918C255.02 103.863 254.988 103.781 254.988 103.672V102.441C254.451 103.016 253.849 103.462 253.184 103.781C252.527 104.1 251.83 104.26 251.092 104.26C250.445 104.26 249.857 104.173 249.328 104C248.809 103.836 248.362 103.594 247.988 103.275C247.624 102.956 247.337 102.564 247.127 102.1C246.926 101.635 246.826 101.106 246.826 100.514C246.826 99.821 246.967 99.2194 247.25 98.709C247.533 98.1986 247.938 97.7747 248.467 97.4375C248.995 97.1003 249.643 96.8496 250.408 96.6855C251.174 96.5124 252.035 96.4258 252.992 96.4258H254.688V95.4688C254.688 94.9948 254.637 94.5755 254.537 94.2109C254.437 93.8464 254.273 93.5456 254.045 93.3086C253.826 93.0625 253.539 92.8802 253.184 92.7617C252.828 92.6341 252.391 92.5703 251.871 92.5703C251.315 92.5703 250.814 92.6387 250.367 92.7754C249.93 92.903 249.542 93.0488 249.205 93.2129C248.877 93.3678 248.599 93.5137 248.371 93.6504C248.152 93.778 247.988 93.8418 247.879 93.8418C247.806 93.8418 247.742 93.8236 247.688 93.7871C247.633 93.7507 247.583 93.696 247.537 93.623C247.501 93.5501 247.473 93.459 247.455 93.3496C247.437 93.2311 247.428 93.1035 247.428 92.9668C247.428 92.7389 247.441 92.5612 247.469 92.4336C247.505 92.2969 247.583 92.1693 247.701 92.0508C247.829 91.9323 248.043 91.7956 248.344 91.6406C248.645 91.4766 248.991 91.3307 249.383 91.2031C249.775 91.0664 250.203 90.957 250.668 90.875C251.133 90.7839 251.602 90.7383 252.076 90.7383C252.96 90.7383 253.712 90.8385 254.332 91.0391C254.952 91.2396 255.453 91.5358 255.836 91.9277C256.219 92.3105 256.497 92.7891 256.67 93.3633C256.843 93.9375 256.93 94.6074 256.93 95.373V103.672ZM254.688 98.0527H252.76C252.14 98.0527 251.602 98.1074 251.146 98.2168C250.691 98.3171 250.312 98.472 250.012 98.6816C249.711 98.8822 249.488 99.1283 249.342 99.4199C249.205 99.7025 249.137 100.031 249.137 100.404C249.137 101.042 249.337 101.553 249.738 101.936C250.148 102.309 250.718 102.496 251.447 102.496C252.04 102.496 252.587 102.346 253.088 102.045C253.598 101.744 254.132 101.284 254.688 100.664V98.0527ZM267.211 102.756C267.211 103.02 267.193 103.23 267.156 103.385C267.12 103.54 267.065 103.654 266.992 103.727C266.919 103.799 266.81 103.868 266.664 103.932C266.518 103.995 266.35 104.046 266.158 104.082C265.976 104.128 265.78 104.164 265.57 104.191C265.361 104.219 265.151 104.232 264.941 104.232C264.303 104.232 263.757 104.15 263.301 103.986C262.845 103.813 262.471 103.558 262.18 103.221C261.888 102.874 261.674 102.441 261.537 101.922C261.41 101.393 261.346 100.773 261.346 100.062V92.8711H259.623C259.486 92.8711 259.377 92.7982 259.295 92.6523C259.213 92.5065 259.172 92.2695 259.172 91.9414C259.172 91.7682 259.181 91.6224 259.199 91.5039C259.227 91.3854 259.258 91.2897 259.295 91.2168C259.331 91.1348 259.377 91.0801 259.432 91.0527C259.495 91.0163 259.564 90.998 259.637 90.998H261.346V88.0723C261.346 88.0085 261.359 87.9492 261.387 87.8945C261.423 87.8398 261.482 87.7943 261.564 87.7578C261.656 87.7122 261.774 87.6803 261.92 87.6621C262.066 87.6439 262.248 87.6348 262.467 87.6348C262.695 87.6348 262.882 87.6439 263.027 87.6621C263.173 87.6803 263.287 87.7122 263.369 87.7578C263.451 87.7943 263.51 87.8398 263.547 87.8945C263.583 87.9492 263.602 88.0085 263.602 88.0723V90.998H266.76C266.833 90.998 266.896 91.0163 266.951 91.0527C267.006 91.0801 267.051 91.1348 267.088 91.2168C267.133 91.2897 267.165 91.3854 267.184 91.5039C267.202 91.6224 267.211 91.7682 267.211 91.9414C267.211 92.2695 267.17 92.5065 267.088 92.6523C267.006 92.7982 266.896 92.8711 266.76 92.8711H263.602V99.7344C263.602 100.582 263.725 101.225 263.971 101.662C264.226 102.09 264.677 102.305 265.324 102.305C265.534 102.305 265.721 102.286 265.885 102.25C266.049 102.204 266.195 102.159 266.322 102.113C266.45 102.068 266.559 102.027 266.65 101.99C266.742 101.945 266.824 101.922 266.896 101.922C266.942 101.922 266.983 101.936 267.02 101.963C267.065 101.981 267.097 102.022 267.115 102.086C267.143 102.15 267.165 102.236 267.184 102.346C267.202 102.455 267.211 102.592 267.211 102.756ZM283.234 104L281.758 108.32C281.676 108.548 281.452 108.712 281.088 108.812C280.723 108.913 280.19 108.963 279.488 108.963C279.124 108.963 278.832 108.945 278.613 108.908C278.395 108.881 278.23 108.831 278.121 108.758C278.012 108.685 277.952 108.594 277.943 108.484C277.934 108.375 277.962 108.243 278.025 108.088L279.652 104C279.534 103.945 279.424 103.863 279.324 103.754C279.233 103.635 279.165 103.512 279.119 103.385L274.922 92.1738C274.803 91.8548 274.744 91.6133 274.744 91.4492C274.744 91.276 274.799 91.1439 274.908 91.0527C275.018 90.9525 275.2 90.8841 275.455 90.8477C275.719 90.8112 276.066 90.793 276.494 90.793C276.886 90.793 277.196 90.8021 277.424 90.8203C277.652 90.8294 277.829 90.8613 277.957 90.916C278.085 90.9707 278.18 91.0573 278.244 91.1758C278.308 91.2852 278.372 91.4447 278.436 91.6543L281.307 99.8164H281.348L283.973 91.4902C284.027 91.2533 284.096 91.0983 284.178 91.0254C284.269 90.9434 284.415 90.8841 284.615 90.8477C284.816 90.8112 285.167 90.793 285.668 90.793C286.06 90.793 286.383 90.8112 286.639 90.8477C286.903 90.8841 287.094 90.9525 287.213 91.0527C287.34 91.153 287.404 91.2897 287.404 91.4629C287.404 91.627 287.368 91.8229 287.295 92.0508L283.234 104ZM301.459 97.3145C301.459 98.3535 301.322 99.3014 301.049 100.158C300.775 101.015 300.361 101.753 299.805 102.373C299.249 102.993 298.551 103.471 297.713 103.809C296.874 104.146 295.895 104.314 294.773 104.314C293.689 104.314 292.745 104.164 291.943 103.863C291.141 103.562 290.476 103.125 289.947 102.551C289.419 101.977 289.027 101.27 288.771 100.432C288.516 99.5931 288.389 98.6361 288.389 97.5605C288.389 96.5215 288.525 95.5736 288.799 94.7168C289.081 93.8509 289.501 93.1126 290.057 92.502C290.613 91.8822 291.305 91.4036 292.135 91.0664C292.973 90.7292 293.953 90.5605 295.074 90.5605C296.168 90.5605 297.116 90.7109 297.918 91.0117C298.72 91.3034 299.381 91.7363 299.9 92.3105C300.429 92.8848 300.821 93.5911 301.076 94.4297C301.331 95.2682 301.459 96.2298 301.459 97.3145ZM297.918 97.4512C297.918 96.8496 297.868 96.2982 297.768 95.7969C297.676 95.2865 297.517 94.8444 297.289 94.4707C297.061 94.097 296.756 93.8053 296.373 93.5957C295.999 93.3861 295.525 93.2812 294.951 93.2812C294.441 93.2812 293.994 93.377 293.611 93.5684C293.229 93.7507 292.914 94.0241 292.668 94.3887C292.422 94.7441 292.235 95.1771 292.107 95.6875C291.989 96.1888 291.93 96.763 291.93 97.4102C291.93 98.0117 291.98 98.5677 292.08 99.0781C292.18 99.5794 292.34 100.017 292.559 100.391C292.786 100.764 293.092 101.056 293.475 101.266C293.857 101.466 294.331 101.566 294.896 101.566C295.416 101.566 295.867 101.475 296.25 101.293C296.633 101.102 296.947 100.828 297.193 100.473C297.439 100.117 297.622 99.6888 297.74 99.1875C297.859 98.6771 297.918 98.0983 297.918 97.4512ZM315.76 103.535C315.76 103.626 315.737 103.708 315.691 103.781C315.646 103.845 315.564 103.9 315.445 103.945C315.336 103.991 315.186 104.023 314.994 104.041C314.812 104.068 314.579 104.082 314.297 104.082C313.996 104.082 313.75 104.068 313.559 104.041C313.376 104.023 313.23 103.991 313.121 103.945C313.012 103.9 312.934 103.845 312.889 103.781C312.843 103.708 312.82 103.626 312.82 103.535V102.127C312.146 102.856 311.458 103.403 310.756 103.768C310.063 104.132 309.343 104.314 308.596 104.314C307.757 104.314 307.051 104.178 306.477 103.904C305.911 103.631 305.451 103.257 305.096 102.783C304.749 102.309 304.499 101.762 304.344 101.143C304.198 100.514 304.125 99.7344 304.125 98.8047V91.3398C304.125 91.2487 304.148 91.1712 304.193 91.1074C304.248 91.0345 304.339 90.9753 304.467 90.9297C304.604 90.8841 304.781 90.8522 305 90.834C305.228 90.8066 305.506 90.793 305.834 90.793C306.171 90.793 306.449 90.8066 306.668 90.834C306.887 90.8522 307.06 90.8841 307.188 90.9297C307.324 90.9753 307.42 91.0345 307.475 91.1074C307.529 91.1712 307.557 91.2487 307.557 91.3398V98.2305C307.557 98.8685 307.598 99.3561 307.68 99.6934C307.762 100.031 307.885 100.322 308.049 100.568C308.222 100.805 308.436 100.992 308.691 101.129C308.956 101.257 309.261 101.32 309.607 101.32C310.045 101.32 310.482 101.161 310.92 100.842C311.367 100.523 311.84 100.058 312.342 99.4473V91.3398C312.342 91.2487 312.365 91.1712 312.41 91.1074C312.465 91.0345 312.556 90.9753 312.684 90.9297C312.82 90.8841 312.998 90.8522 313.217 90.834C313.436 90.8066 313.714 90.793 314.051 90.793C314.388 90.793 314.666 90.8066 314.885 90.834C315.104 90.8522 315.277 90.8841 315.404 90.9297C315.532 90.9753 315.623 91.0345 315.678 91.1074C315.732 91.1712 315.76 91.2487 315.76 91.3398V103.535ZM327.066 92.4746C327.066 92.8027 327.057 93.0716 327.039 93.2812C327.021 93.4909 326.993 93.6549 326.957 93.7734C326.921 93.8919 326.87 93.974 326.807 94.0195C326.752 94.0651 326.679 94.0879 326.588 94.0879C326.515 94.0879 326.433 94.0742 326.342 94.0469C326.251 94.0104 326.146 93.974 326.027 93.9375C325.918 93.901 325.795 93.8691 325.658 93.8418C325.521 93.8053 325.371 93.7871 325.207 93.7871C325.016 93.7871 324.824 93.8281 324.633 93.9102C324.441 93.9831 324.241 94.1016 324.031 94.2656C323.831 94.4297 323.617 94.6484 323.389 94.9219C323.17 95.1953 322.933 95.5326 322.678 95.9336V103.535C322.678 103.626 322.65 103.708 322.596 103.781C322.541 103.845 322.445 103.9 322.309 103.945C322.181 103.991 322.008 104.023 321.789 104.041C321.57 104.068 321.292 104.082 320.955 104.082C320.618 104.082 320.34 104.068 320.121 104.041C319.902 104.023 319.725 103.991 319.588 103.945C319.46 103.9 319.369 103.845 319.314 103.781C319.26 103.708 319.232 103.626 319.232 103.535V91.3398C319.232 91.2487 319.255 91.1712 319.301 91.1074C319.346 91.0345 319.428 90.9753 319.547 90.9297C319.665 90.8841 319.816 90.8522 319.998 90.834C320.189 90.8066 320.426 90.793 320.709 90.793C321.001 90.793 321.242 90.8066 321.434 90.834C321.625 90.8522 321.771 90.8841 321.871 90.9297C321.98 90.9753 322.058 91.0345 322.104 91.1074C322.149 91.1712 322.172 91.2487 322.172 91.3398V92.8574C322.491 92.4017 322.792 92.028 323.074 91.7363C323.357 91.4355 323.626 91.1986 323.881 91.0254C324.136 90.8522 324.391 90.7337 324.646 90.6699C324.902 90.597 325.157 90.5605 325.412 90.5605C325.531 90.5605 325.658 90.5697 325.795 90.5879C325.932 90.597 326.073 90.6198 326.219 90.6562C326.365 90.6836 326.492 90.7201 326.602 90.7656C326.711 90.8021 326.788 90.8431 326.834 90.8887C326.889 90.9342 326.925 90.9844 326.943 91.0391C326.971 91.0938 326.993 91.1712 327.012 91.2715C327.03 91.3626 327.044 91.5039 327.053 91.6953C327.062 91.8867 327.066 92.1465 327.066 92.4746ZM347.807 97.2598C347.807 98.3444 347.688 99.3242 347.451 100.199C347.223 101.065 346.886 101.803 346.439 102.414C345.993 103.025 345.437 103.494 344.771 103.822C344.106 104.15 343.345 104.314 342.488 104.314C342.133 104.314 341.805 104.278 341.504 104.205C341.212 104.141 340.925 104.041 340.643 103.904C340.369 103.758 340.096 103.581 339.822 103.371C339.549 103.161 339.266 102.915 338.975 102.633V108.375C338.975 108.466 338.947 108.548 338.893 108.621C338.838 108.694 338.742 108.753 338.605 108.799C338.478 108.854 338.305 108.895 338.086 108.922C337.867 108.949 337.589 108.963 337.252 108.963C336.915 108.963 336.637 108.949 336.418 108.922C336.199 108.895 336.021 108.854 335.885 108.799C335.757 108.753 335.666 108.694 335.611 108.621C335.557 108.548 335.529 108.466 335.529 108.375V91.3398C335.529 91.2487 335.552 91.1712 335.598 91.1074C335.643 91.0345 335.721 90.9753 335.83 90.9297C335.949 90.8841 336.099 90.8522 336.281 90.834C336.473 90.8066 336.71 90.793 336.992 90.793C337.266 90.793 337.493 90.8066 337.676 90.834C337.867 90.8522 338.018 90.8841 338.127 90.9297C338.245 90.9753 338.327 91.0345 338.373 91.1074C338.419 91.1712 338.441 91.2487 338.441 91.3398V92.7754C338.797 92.4108 339.143 92.0918 339.48 91.8184C339.827 91.5358 340.178 91.3034 340.533 91.1211C340.889 90.9297 341.253 90.7884 341.627 90.6973C342.01 90.6061 342.415 90.5605 342.844 90.5605C343.737 90.5605 344.498 90.7383 345.127 91.0938C345.756 91.4401 346.266 91.9186 346.658 92.5293C347.059 93.14 347.351 93.8509 347.533 94.6621C347.715 95.4733 347.807 96.3392 347.807 97.2598ZM344.225 97.5059C344.225 96.9863 344.184 96.4896 344.102 96.0156C344.029 95.5326 343.896 95.1042 343.705 94.7305C343.523 94.3568 343.277 94.0605 342.967 93.8418C342.666 93.6139 342.288 93.5 341.832 93.5C341.604 93.5 341.376 93.5365 341.148 93.6094C340.93 93.6732 340.702 93.7826 340.465 93.9375C340.237 94.0924 340 94.293 339.754 94.5391C339.508 94.7852 339.248 95.0905 338.975 95.4551V99.4746C339.458 100.085 339.918 100.559 340.355 100.896C340.793 101.225 341.249 101.389 341.723 101.389C342.169 101.389 342.548 101.275 342.857 101.047C343.176 100.819 343.436 100.523 343.637 100.158C343.837 99.7845 343.983 99.3652 344.074 98.9004C344.174 98.4355 344.225 97.9707 344.225 97.5059ZM361.834 97.082C361.834 97.5013 361.738 97.8112 361.547 98.0117C361.365 98.2122 361.109 98.3125 360.781 98.3125H353.357C353.357 98.832 353.417 99.306 353.535 99.7344C353.663 100.154 353.859 100.514 354.123 100.814C354.396 101.106 354.743 101.329 355.162 101.484C355.59 101.639 356.101 101.717 356.693 101.717C357.295 101.717 357.824 101.676 358.279 101.594C358.735 101.503 359.127 101.407 359.455 101.307C359.792 101.197 360.07 101.102 360.289 101.02C360.508 100.928 360.686 100.883 360.822 100.883C360.904 100.883 360.973 100.901 361.027 100.938C361.082 100.965 361.128 101.02 361.164 101.102C361.201 101.184 361.223 101.302 361.232 101.457C361.251 101.603 361.26 101.79 361.26 102.018C361.26 102.218 361.255 102.391 361.246 102.537C361.237 102.674 361.223 102.792 361.205 102.893C361.187 102.993 361.16 103.079 361.123 103.152C361.087 103.216 361.036 103.28 360.973 103.344C360.918 103.408 360.758 103.494 360.494 103.604C360.23 103.713 359.893 103.822 359.482 103.932C359.072 104.032 358.603 104.118 358.074 104.191C357.546 104.273 356.98 104.314 356.379 104.314C355.294 104.314 354.342 104.178 353.521 103.904C352.71 103.631 352.031 103.216 351.484 102.66C350.938 102.104 350.527 101.402 350.254 100.555C349.99 99.707 349.857 98.7135 349.857 97.5742C349.857 96.4896 349.999 95.5143 350.281 94.6484C350.564 93.7734 350.974 93.0352 351.512 92.4336C352.049 91.8229 352.701 91.3581 353.467 91.0391C354.242 90.7201 355.112 90.5605 356.078 90.5605C357.099 90.5605 357.969 90.7109 358.689 91.0117C359.419 91.3125 360.016 91.7318 360.48 92.2695C360.945 92.7982 361.287 93.4271 361.506 94.1562C361.725 94.8854 361.834 95.6784 361.834 96.5352V97.082ZM358.498 96.0977C358.525 95.1315 358.329 94.375 357.91 93.8281C357.5 93.2721 356.862 92.9941 355.996 92.9941C355.559 92.9941 355.176 93.0762 354.848 93.2402C354.529 93.4043 354.26 93.6276 354.041 93.9102C353.831 94.1836 353.667 94.5117 353.549 94.8945C353.439 95.2682 353.376 95.6693 353.357 96.0977H358.498ZM372.512 92.4746C372.512 92.8027 372.503 93.0716 372.484 93.2812C372.466 93.4909 372.439 93.6549 372.402 93.7734C372.366 93.8919 372.316 93.974 372.252 94.0195C372.197 94.0651 372.124 94.0879 372.033 94.0879C371.96 94.0879 371.878 94.0742 371.787 94.0469C371.696 94.0104 371.591 93.974 371.473 93.9375C371.363 93.901 371.24 93.8691 371.104 93.8418C370.967 93.8053 370.816 93.7871 370.652 93.7871C370.461 93.7871 370.27 93.8281 370.078 93.9102C369.887 93.9831 369.686 94.1016 369.477 94.2656C369.276 94.4297 369.062 94.6484 368.834 94.9219C368.615 95.1953 368.378 95.5326 368.123 95.9336V103.535C368.123 103.626 368.096 103.708 368.041 103.781C367.986 103.845 367.891 103.9 367.754 103.945C367.626 103.991 367.453 104.023 367.234 104.041C367.016 104.068 366.738 104.082 366.4 104.082C366.063 104.082 365.785 104.068 365.566 104.041C365.348 104.023 365.17 103.991 365.033 103.945C364.906 103.9 364.814 103.845 364.76 103.781C364.705 103.708 364.678 103.626 364.678 103.535V91.3398C364.678 91.2487 364.701 91.1712 364.746 91.1074C364.792 91.0345 364.874 90.9753 364.992 90.9297C365.111 90.8841 365.261 90.8522 365.443 90.834C365.635 90.8066 365.872 90.793 366.154 90.793C366.446 90.793 366.688 90.8066 366.879 90.834C367.07 90.8522 367.216 90.8841 367.316 90.9297C367.426 90.9753 367.503 91.0345 367.549 91.1074C367.594 91.1712 367.617 91.2487 367.617 91.3398V92.8574C367.936 92.4017 368.237 92.028 368.52 91.7363C368.802 91.4355 369.071 91.1986 369.326 91.0254C369.581 90.8522 369.837 90.7337 370.092 90.6699C370.347 90.597 370.602 90.5605 370.857 90.5605C370.976 90.5605 371.104 90.5697 371.24 90.5879C371.377 90.597 371.518 90.6198 371.664 90.6562C371.81 90.6836 371.938 90.7201 372.047 90.7656C372.156 90.8021 372.234 90.8431 372.279 90.8887C372.334 90.9342 372.37 90.9844 372.389 91.0391C372.416 91.0938 372.439 91.1712 372.457 91.2715C372.475 91.3626 372.489 91.5039 372.498 91.6953C372.507 91.8867 372.512 92.1465 372.512 92.4746ZM382.861 100.09C382.861 100.783 382.729 101.393 382.465 101.922C382.21 102.451 381.845 102.893 381.371 103.248C380.897 103.604 380.337 103.868 379.689 104.041C379.042 104.223 378.34 104.314 377.584 104.314C377.128 104.314 376.691 104.278 376.271 104.205C375.861 104.141 375.492 104.059 375.164 103.959C374.836 103.85 374.562 103.74 374.344 103.631C374.125 103.521 373.965 103.421 373.865 103.33C373.765 103.23 373.688 103.079 373.633 102.879C373.578 102.669 373.551 102.364 373.551 101.963C373.551 101.699 373.56 101.489 373.578 101.334C373.596 101.17 373.624 101.042 373.66 100.951C373.697 100.851 373.742 100.787 373.797 100.76C373.852 100.723 373.92 100.705 374.002 100.705C374.102 100.705 374.248 100.764 374.439 100.883C374.64 100.992 374.886 101.115 375.178 101.252C375.469 101.389 375.807 101.516 376.189 101.635C376.581 101.753 377.023 101.812 377.516 101.812C377.826 101.812 378.099 101.781 378.336 101.717C378.582 101.653 378.792 101.562 378.965 101.443C379.147 101.325 379.284 101.174 379.375 100.992C379.466 100.81 379.512 100.6 379.512 100.363C379.512 100.09 379.425 99.8574 379.252 99.666C379.088 99.4655 378.865 99.2923 378.582 99.1465C378.309 99.0007 377.994 98.8639 377.639 98.7363C377.292 98.6087 376.932 98.4674 376.559 98.3125C376.194 98.1576 375.834 97.9798 375.479 97.7793C375.132 97.5788 374.818 97.3327 374.535 97.041C374.262 96.7493 374.038 96.3984 373.865 95.9883C373.701 95.5781 373.619 95.0859 373.619 94.5117C373.619 93.9284 373.733 93.3952 373.961 92.9121C374.189 92.4199 374.517 92.0007 374.945 91.6543C375.374 91.3079 375.893 91.0391 376.504 90.8477C377.124 90.6562 377.816 90.5605 378.582 90.5605C378.965 90.5605 379.334 90.5879 379.689 90.6426C380.054 90.6973 380.382 90.7656 380.674 90.8477C380.965 90.9297 381.212 91.0208 381.412 91.1211C381.613 91.2122 381.754 91.2943 381.836 91.3672C381.927 91.431 381.991 91.4993 382.027 91.5723C382.064 91.6361 382.091 91.7181 382.109 91.8184C382.128 91.9095 382.141 92.028 382.15 92.1738C382.169 92.3105 382.178 92.4837 382.178 92.6934C382.178 92.9395 382.169 93.14 382.15 93.2949C382.141 93.4499 382.118 93.5729 382.082 93.6641C382.055 93.7552 382.014 93.819 381.959 93.8555C381.904 93.8828 381.84 93.8965 381.768 93.8965C381.686 93.8965 381.558 93.8509 381.385 93.7598C381.212 93.6595 380.993 93.5547 380.729 93.4453C380.473 93.3359 380.173 93.2357 379.826 93.1445C379.489 93.0443 379.102 92.9941 378.664 92.9941C378.354 92.9941 378.085 93.026 377.857 93.0898C377.63 93.1536 377.443 93.2448 377.297 93.3633C377.151 93.4818 377.042 93.623 376.969 93.7871C376.896 93.9421 376.859 94.1107 376.859 94.293C376.859 94.5755 376.946 94.8125 377.119 95.0039C377.292 95.1953 377.52 95.3639 377.803 95.5098C378.085 95.6556 378.404 95.7923 378.76 95.9199C379.124 96.0475 379.489 96.1888 379.854 96.3438C380.227 96.4896 380.592 96.6628 380.947 96.8633C381.312 97.0638 381.635 97.3099 381.918 97.6016C382.201 97.8932 382.428 98.2441 382.602 98.6543C382.775 99.0553 382.861 99.5339 382.861 100.09ZM397.791 97.3145C397.791 98.3535 397.654 99.3014 397.381 100.158C397.107 101.015 396.693 101.753 396.137 102.373C395.581 102.993 394.883 103.471 394.045 103.809C393.206 104.146 392.227 104.314 391.105 104.314C390.021 104.314 389.077 104.164 388.275 103.863C387.473 103.562 386.808 103.125 386.279 102.551C385.751 101.977 385.359 101.27 385.104 100.432C384.848 99.5931 384.721 98.6361 384.721 97.5605C384.721 96.5215 384.857 95.5736 385.131 94.7168C385.413 93.8509 385.833 93.1126 386.389 92.502C386.945 91.8822 387.637 91.4036 388.467 91.0664C389.305 90.7292 390.285 90.5605 391.406 90.5605C392.5 90.5605 393.448 90.7109 394.25 91.0117C395.052 91.3034 395.713 91.7363 396.232 92.3105C396.761 92.8848 397.153 93.5911 397.408 94.4297C397.663 95.2682 397.791 96.2298 397.791 97.3145ZM394.25 97.4512C394.25 96.8496 394.2 96.2982 394.1 95.7969C394.008 95.2865 393.849 94.8444 393.621 94.4707C393.393 94.097 393.088 93.8053 392.705 93.5957C392.331 93.3861 391.857 93.2812 391.283 93.2812C390.773 93.2812 390.326 93.377 389.943 93.5684C389.561 93.7507 389.246 94.0241 389 94.3887C388.754 94.7441 388.567 95.1771 388.439 95.6875C388.321 96.1888 388.262 96.763 388.262 97.4102C388.262 98.0117 388.312 98.5677 388.412 99.0781C388.512 99.5794 388.672 100.017 388.891 100.391C389.118 100.764 389.424 101.056 389.807 101.266C390.189 101.466 390.663 101.566 391.229 101.566C391.748 101.566 392.199 101.475 392.582 101.293C392.965 101.102 393.279 100.828 393.525 100.473C393.771 100.117 393.954 99.6888 394.072 99.1875C394.191 98.6771 394.25 98.0983 394.25 97.4512ZM412.174 103.535C412.174 103.626 412.146 103.708 412.092 103.781C412.037 103.845 411.946 103.9 411.818 103.945C411.691 103.991 411.513 104.023 411.285 104.041C411.066 104.068 410.793 104.082 410.465 104.082C410.128 104.082 409.845 104.068 409.617 104.041C409.398 104.023 409.225 103.991 409.098 103.945C408.97 103.9 408.879 103.845 408.824 103.781C408.77 103.708 408.742 103.626 408.742 103.535V96.5762C408.742 95.9837 408.697 95.5189 408.605 95.1816C408.523 94.8444 408.4 94.5573 408.236 94.3203C408.072 94.0742 407.858 93.8874 407.594 93.7598C407.339 93.623 407.038 93.5547 406.691 93.5547C406.254 93.5547 405.812 93.7142 405.365 94.0332C404.919 94.3522 404.454 94.8171 403.971 95.4277V103.535C403.971 103.626 403.943 103.708 403.889 103.781C403.834 103.845 403.738 103.9 403.602 103.945C403.474 103.991 403.301 104.023 403.082 104.041C402.863 104.068 402.585 104.082 402.248 104.082C401.911 104.082 401.633 104.068 401.414 104.041C401.195 104.023 401.018 103.991 400.881 103.945C400.753 103.9 400.662 103.845 400.607 103.781C400.553 103.708 400.525 103.626 400.525 103.535V91.3398C400.525 91.2487 400.548 91.1712 400.594 91.1074C400.639 91.0345 400.721 90.9753 400.84 90.9297C400.958 90.8841 401.109 90.8522 401.291 90.834C401.482 90.8066 401.719 90.793 402.002 90.793C402.294 90.793 402.535 90.8066 402.727 90.834C402.918 90.8522 403.064 90.8841 403.164 90.9297C403.273 90.9753 403.351 91.0345 403.396 91.1074C403.442 91.1712 403.465 91.2487 403.465 91.3398V92.748C404.139 92.0189 404.823 91.472 405.516 91.1074C406.217 90.7428 406.947 90.5605 407.703 90.5605C408.533 90.5605 409.23 90.6973 409.795 90.9707C410.369 91.2441 410.829 91.6178 411.176 92.0918C411.531 92.5566 411.786 93.1035 411.941 93.7324C412.096 94.3613 412.174 95.1178 412.174 96.002V103.535ZM425.955 103.576C425.955 103.704 425.91 103.804 425.818 103.877C425.727 103.95 425.581 104 425.381 104.027C425.189 104.064 424.902 104.082 424.52 104.082C424.109 104.082 423.809 104.064 423.617 104.027C423.435 104 423.303 103.95 423.221 103.877C423.148 103.804 423.111 103.704 423.111 103.576V102.605C422.61 103.143 422.036 103.562 421.389 103.863C420.751 104.164 420.04 104.314 419.256 104.314C418.609 104.314 418.012 104.228 417.465 104.055C416.927 103.891 416.458 103.645 416.057 103.316C415.665 102.979 415.359 102.564 415.141 102.072C414.922 101.58 414.812 101.006 414.812 100.35C414.812 99.6387 414.949 99.0234 415.223 98.5039C415.505 97.9753 415.92 97.5423 416.467 97.2051C417.023 96.8587 417.711 96.6035 418.531 96.4395C419.352 96.2754 420.304 96.1934 421.389 96.1934H422.578V95.4551C422.578 95.0723 422.537 94.7396 422.455 94.457C422.382 94.1654 422.255 93.9238 422.072 93.7324C421.899 93.541 421.662 93.3997 421.361 93.3086C421.07 93.2174 420.705 93.1719 420.268 93.1719C419.693 93.1719 419.178 93.2357 418.723 93.3633C418.276 93.4909 417.88 93.6322 417.533 93.7871C417.187 93.9421 416.895 94.0833 416.658 94.2109C416.43 94.3385 416.243 94.4023 416.098 94.4023C415.997 94.4023 415.906 94.3704 415.824 94.3066C415.751 94.2428 415.688 94.1517 415.633 94.0332C415.587 93.9147 415.551 93.7689 415.523 93.5957C415.496 93.4225 415.482 93.2311 415.482 93.0215C415.482 92.7389 415.505 92.5156 415.551 92.3516C415.596 92.1875 415.683 92.0417 415.811 91.9141C415.938 91.7773 416.161 91.6315 416.48 91.4766C416.799 91.3125 417.173 91.1621 417.602 91.0254C418.03 90.8887 418.495 90.7793 418.996 90.6973C419.507 90.6061 420.031 90.5605 420.568 90.5605C421.525 90.5605 422.341 90.6562 423.016 90.8477C423.699 91.0299 424.26 91.3171 424.697 91.709C425.135 92.0918 425.454 92.5885 425.654 93.1992C425.855 93.8099 425.955 94.5345 425.955 95.373V103.576ZM422.578 98.3535H421.266C420.71 98.3535 420.236 98.3945 419.844 98.4766C419.452 98.5586 419.133 98.6816 418.887 98.8457C418.641 99.0098 418.458 99.2103 418.34 99.4473C418.23 99.6751 418.176 99.9395 418.176 100.24C418.176 100.751 418.335 101.152 418.654 101.443C418.982 101.735 419.434 101.881 420.008 101.881C420.491 101.881 420.933 101.758 421.334 101.512C421.744 101.266 422.159 100.906 422.578 100.432V98.3535ZM432.846 103.535C432.846 103.626 432.818 103.708 432.764 103.781C432.709 103.845 432.613 103.9 432.477 103.945C432.349 103.991 432.176 104.023 431.957 104.041C431.738 104.068 431.46 104.082 431.123 104.082C430.786 104.082 430.508 104.068 430.289 104.041C430.07 104.023 429.893 103.991 429.756 103.945C429.628 103.9 429.537 103.845 429.482 103.781C429.428 103.708 429.4 103.626 429.4 103.535V85.5566C429.4 85.4655 429.428 85.3835 429.482 85.3105C429.537 85.2376 429.628 85.1784 429.756 85.1328C429.893 85.0781 430.07 85.0371 430.289 85.0098C430.508 84.9824 430.786 84.9688 431.123 84.9688C431.46 84.9688 431.738 84.9824 431.957 85.0098C432.176 85.0371 432.349 85.0781 432.477 85.1328C432.613 85.1784 432.709 85.2376 432.764 85.3105C432.818 85.3835 432.846 85.4655 432.846 85.5566V103.535ZM439.736 103.535C439.736 103.626 439.709 103.708 439.654 103.781C439.6 103.845 439.504 103.9 439.367 103.945C439.24 103.991 439.066 104.023 438.848 104.041C438.629 104.068 438.351 104.082 438.014 104.082C437.676 104.082 437.398 104.068 437.18 104.041C436.961 104.023 436.783 103.991 436.646 103.945C436.519 103.9 436.428 103.845 436.373 103.781C436.318 103.708 436.291 103.626 436.291 103.535V91.3672C436.291 91.276 436.318 91.1986 436.373 91.1348C436.428 91.0618 436.519 91.0026 436.646 90.957C436.783 90.9023 436.961 90.8613 437.18 90.834C437.398 90.8066 437.676 90.793 438.014 90.793C438.351 90.793 438.629 90.8066 438.848 90.834C439.066 90.8613 439.24 90.9023 439.367 90.957C439.504 91.0026 439.6 91.0618 439.654 91.1348C439.709 91.1986 439.736 91.276 439.736 91.3672V103.535ZM439.996 87.2109C439.996 87.9036 439.855 88.3822 439.572 88.6465C439.29 88.9108 438.766 89.043 438 89.043C437.225 89.043 436.701 88.9154 436.428 88.6602C436.163 88.4049 436.031 87.9447 436.031 87.2793C436.031 86.5866 436.168 86.1081 436.441 85.8438C436.724 85.5703 437.253 85.4336 438.027 85.4336C438.793 85.4336 439.312 85.5658 439.586 85.8301C439.859 86.0853 439.996 86.5456 439.996 87.2109ZM450.4 102.332C450.4 102.733 450.373 103.043 450.318 103.262C450.273 103.471 450.209 103.622 450.127 103.713C450.045 103.795 449.922 103.872 449.758 103.945C449.603 104.009 449.416 104.064 449.197 104.109C448.988 104.164 448.755 104.205 448.5 104.232C448.254 104.26 448.003 104.273 447.748 104.273C447.064 104.273 446.472 104.187 445.971 104.014C445.469 103.84 445.055 103.576 444.727 103.221C444.398 102.856 444.157 102.4 444.002 101.854C443.847 101.307 443.77 100.66 443.77 99.9121V93.6641H442.307C442.133 93.6641 442.001 93.5592 441.91 93.3496C441.819 93.1309 441.773 92.7708 441.773 92.2695C441.773 92.0052 441.783 91.7819 441.801 91.5996C441.828 91.4173 441.865 91.276 441.91 91.1758C441.956 91.0664 442.01 90.9889 442.074 90.9434C442.147 90.8978 442.229 90.875 442.32 90.875H443.77V88.1543C443.77 88.0632 443.792 87.9811 443.838 87.9082C443.893 87.8353 443.984 87.776 444.111 87.7305C444.248 87.6758 444.426 87.6393 444.645 87.6211C444.872 87.5938 445.15 87.5801 445.479 87.5801C445.816 87.5801 446.094 87.5938 446.312 87.6211C446.54 87.6393 446.718 87.6758 446.846 87.7305C446.973 87.776 447.064 87.8353 447.119 87.9082C447.174 87.9811 447.201 88.0632 447.201 88.1543V90.875H449.854C449.945 90.875 450.022 90.8978 450.086 90.9434C450.159 90.9889 450.218 91.0664 450.264 91.1758C450.309 91.276 450.341 91.4173 450.359 91.5996C450.387 91.7819 450.4 92.0052 450.4 92.2695C450.4 92.7708 450.355 93.1309 450.264 93.3496C450.173 93.5592 450.04 93.6641 449.867 93.6641H447.201V99.3926C447.201 100.058 447.306 100.559 447.516 100.896C447.725 101.225 448.099 101.389 448.637 101.389C448.819 101.389 448.983 101.375 449.129 101.348C449.275 101.311 449.402 101.275 449.512 101.238C449.63 101.193 449.726 101.156 449.799 101.129C449.881 101.092 449.954 101.074 450.018 101.074C450.072 101.074 450.122 101.092 450.168 101.129C450.223 101.156 450.264 101.22 450.291 101.32C450.318 101.411 450.341 101.539 450.359 101.703C450.387 101.867 450.4 102.077 450.4 102.332ZM459.957 104L458.48 108.32C458.398 108.548 458.175 108.712 457.811 108.812C457.446 108.913 456.913 108.963 456.211 108.963C455.846 108.963 455.555 108.945 455.336 108.908C455.117 108.881 454.953 108.831 454.844 108.758C454.734 108.685 454.675 108.594 454.666 108.484C454.657 108.375 454.684 108.243 454.748 108.088L456.375 104C456.257 103.945 456.147 103.863 456.047 103.754C455.956 103.635 455.887 103.512 455.842 103.385L451.645 92.1738C451.526 91.8548 451.467 91.6133 451.467 91.4492C451.467 91.276 451.521 91.1439 451.631 91.0527C451.74 90.9525 451.923 90.8841 452.178 90.8477C452.442 90.8112 452.788 90.793 453.217 90.793C453.609 90.793 453.919 90.8021 454.146 90.8203C454.374 90.8294 454.552 90.8613 454.68 90.916C454.807 90.9707 454.903 91.0573 454.967 91.1758C455.031 91.2852 455.094 91.4447 455.158 91.6543L458.029 99.8164H458.07L460.695 91.4902C460.75 91.2533 460.818 91.0983 460.9 91.0254C460.992 90.9434 461.137 90.8841 461.338 90.8477C461.538 90.8112 461.889 90.793 462.391 90.793C462.783 90.793 463.106 90.8112 463.361 90.8477C463.626 90.8841 463.817 90.9525 463.936 91.0527C464.063 91.153 464.127 91.2897 464.127 91.4629C464.127 91.627 464.09 91.8229 464.018 92.0508L459.957 104ZM183.074 136.756C183.074 137.02 183.056 137.23 183.02 137.385C182.983 137.54 182.928 137.654 182.855 137.727C182.783 137.799 182.673 137.868 182.527 137.932C182.382 137.995 182.213 138.046 182.021 138.082C181.839 138.128 181.643 138.164 181.434 138.191C181.224 138.219 181.014 138.232 180.805 138.232C180.167 138.232 179.62 138.15 179.164 137.986C178.708 137.813 178.335 137.558 178.043 137.221C177.751 136.874 177.537 136.441 177.4 135.922C177.273 135.393 177.209 134.773 177.209 134.062V126.871H175.486C175.35 126.871 175.24 126.798 175.158 126.652C175.076 126.507 175.035 126.27 175.035 125.941C175.035 125.768 175.044 125.622 175.062 125.504C175.09 125.385 175.122 125.29 175.158 125.217C175.195 125.135 175.24 125.08 175.295 125.053C175.359 125.016 175.427 124.998 175.5 124.998H177.209V122.072C177.209 122.008 177.223 121.949 177.25 121.895C177.286 121.84 177.346 121.794 177.428 121.758C177.519 121.712 177.637 121.68 177.783 121.662C177.929 121.644 178.111 121.635 178.33 121.635C178.558 121.635 178.745 121.644 178.891 121.662C179.036 121.68 179.15 121.712 179.232 121.758C179.314 121.794 179.374 121.84 179.41 121.895C179.447 121.949 179.465 122.008 179.465 122.072V124.998H182.623C182.696 124.998 182.76 125.016 182.814 125.053C182.869 125.08 182.915 125.135 182.951 125.217C182.997 125.29 183.029 125.385 183.047 125.504C183.065 125.622 183.074 125.768 183.074 125.941C183.074 126.27 183.033 126.507 182.951 126.652C182.869 126.798 182.76 126.871 182.623 126.871H179.465V133.734C179.465 134.582 179.588 135.225 179.834 135.662C180.089 136.09 180.54 136.305 181.188 136.305C181.397 136.305 181.584 136.286 181.748 136.25C181.912 136.204 182.058 136.159 182.186 136.113C182.313 136.068 182.423 136.027 182.514 135.99C182.605 135.945 182.687 135.922 182.76 135.922C182.805 135.922 182.846 135.936 182.883 135.963C182.928 135.981 182.96 136.022 182.979 136.086C183.006 136.15 183.029 136.236 183.047 136.346C183.065 136.455 183.074 136.592 183.074 136.756ZM191.66 138L190.02 142.525C189.965 142.671 189.824 142.781 189.596 142.854C189.377 142.936 189.04 142.977 188.584 142.977C188.347 142.977 188.156 142.963 188.01 142.936C187.864 142.917 187.75 142.881 187.668 142.826C187.595 142.771 187.554 142.699 187.545 142.607C187.536 142.516 187.559 142.407 187.613 142.279L189.309 138C189.227 137.964 189.149 137.904 189.076 137.822C189.003 137.74 188.953 137.654 188.926 137.562L184.537 125.805C184.464 125.613 184.428 125.463 184.428 125.354C184.428 125.244 184.464 125.158 184.537 125.094C184.61 125.03 184.729 124.989 184.893 124.971C185.057 124.943 185.275 124.93 185.549 124.93C185.822 124.93 186.036 124.939 186.191 124.957C186.346 124.966 186.469 124.989 186.561 125.025C186.652 125.062 186.715 125.117 186.752 125.189C186.798 125.253 186.843 125.344 186.889 125.463L190.402 135.334H190.443L193.834 125.408C193.889 125.235 193.952 125.126 194.025 125.08C194.107 125.025 194.226 124.989 194.381 124.971C194.536 124.943 194.759 124.93 195.051 124.93C195.306 124.93 195.516 124.943 195.68 124.971C195.844 124.989 195.962 125.03 196.035 125.094C196.117 125.158 196.158 125.244 196.158 125.354C196.158 125.463 196.131 125.6 196.076 125.764L191.66 138ZM210.062 131.314C210.062 132.39 209.944 133.356 209.707 134.213C209.479 135.07 209.137 135.799 208.682 136.4C208.235 136.993 207.679 137.453 207.014 137.781C206.348 138.1 205.587 138.26 204.73 138.26C204.366 138.26 204.029 138.223 203.719 138.15C203.409 138.077 203.104 137.964 202.803 137.809C202.511 137.654 202.219 137.458 201.928 137.221C201.636 136.984 201.326 136.706 200.998 136.387V142.539C200.998 142.612 200.98 142.676 200.943 142.73C200.907 142.785 200.848 142.831 200.766 142.867C200.684 142.904 200.57 142.931 200.424 142.949C200.278 142.967 200.091 142.977 199.863 142.977C199.645 142.977 199.462 142.967 199.316 142.949C199.171 142.931 199.052 142.904 198.961 142.867C198.879 142.831 198.82 142.785 198.783 142.73C198.756 142.676 198.742 142.612 198.742 142.539V125.354C198.742 125.271 198.756 125.208 198.783 125.162C198.811 125.107 198.865 125.062 198.947 125.025C199.029 124.989 199.134 124.966 199.262 124.957C199.389 124.939 199.544 124.93 199.727 124.93C199.918 124.93 200.073 124.939 200.191 124.957C200.319 124.966 200.424 124.989 200.506 125.025C200.588 125.062 200.643 125.107 200.67 125.162C200.706 125.208 200.725 125.271 200.725 125.354V127.008C201.098 126.625 201.458 126.292 201.805 126.01C202.151 125.727 202.497 125.495 202.844 125.312C203.199 125.121 203.559 124.98 203.924 124.889C204.298 124.788 204.689 124.738 205.1 124.738C205.993 124.738 206.754 124.911 207.383 125.258C208.012 125.604 208.522 126.078 208.914 126.68C209.315 127.281 209.607 127.983 209.789 128.785C209.971 129.578 210.062 130.421 210.062 131.314ZM207.684 131.574C207.684 130.945 207.633 130.339 207.533 129.756C207.442 129.163 207.278 128.639 207.041 128.184C206.813 127.728 206.503 127.363 206.111 127.09C205.719 126.816 205.232 126.68 204.648 126.68C204.357 126.68 204.07 126.725 203.787 126.816C203.505 126.898 203.217 127.035 202.926 127.227C202.634 127.409 202.329 127.655 202.01 127.965C201.691 128.266 201.354 128.639 200.998 129.086V133.98C201.618 134.737 202.206 135.316 202.762 135.717C203.318 136.118 203.901 136.318 204.512 136.318C205.077 136.318 205.56 136.182 205.961 135.908C206.371 135.635 206.699 135.27 206.945 134.814C207.201 134.359 207.387 133.848 207.506 133.283C207.624 132.718 207.684 132.148 207.684 131.574ZM223.953 130.973C223.953 131.328 223.862 131.583 223.68 131.738C223.507 131.884 223.306 131.957 223.078 131.957H215.012C215.012 132.641 215.08 133.256 215.217 133.803C215.354 134.35 215.581 134.819 215.9 135.211C216.219 135.603 216.634 135.904 217.145 136.113C217.655 136.323 218.279 136.428 219.018 136.428C219.601 136.428 220.12 136.382 220.576 136.291C221.032 136.191 221.424 136.081 221.752 135.963C222.089 135.844 222.363 135.74 222.572 135.648C222.791 135.548 222.955 135.498 223.064 135.498C223.128 135.498 223.183 135.516 223.229 135.553C223.283 135.58 223.324 135.626 223.352 135.689C223.379 135.753 223.397 135.844 223.406 135.963C223.424 136.072 223.434 136.209 223.434 136.373C223.434 136.492 223.429 136.596 223.42 136.688C223.411 136.77 223.397 136.847 223.379 136.92C223.37 136.984 223.347 137.043 223.311 137.098C223.283 137.152 223.242 137.207 223.188 137.262C223.142 137.307 222.996 137.389 222.75 137.508C222.504 137.617 222.185 137.727 221.793 137.836C221.401 137.945 220.945 138.041 220.426 138.123C219.915 138.214 219.368 138.26 218.785 138.26C217.773 138.26 216.885 138.118 216.119 137.836C215.363 137.553 214.725 137.134 214.205 136.578C213.686 136.022 213.294 135.325 213.029 134.486C212.765 133.648 212.633 132.673 212.633 131.561C212.633 130.503 212.77 129.555 213.043 128.717C213.316 127.869 213.708 127.154 214.219 126.57C214.738 125.978 215.363 125.527 216.092 125.217C216.821 124.898 217.637 124.738 218.539 124.738C219.505 124.738 220.326 124.893 221 125.203C221.684 125.513 222.244 125.932 222.682 126.461C223.119 126.98 223.438 127.596 223.639 128.307C223.848 129.008 223.953 129.76 223.953 130.562V130.973ZM221.684 130.303C221.711 129.118 221.447 128.188 220.891 127.514C220.344 126.839 219.528 126.502 218.443 126.502C217.887 126.502 217.4 126.607 216.98 126.816C216.561 127.026 216.21 127.304 215.928 127.65C215.645 127.997 215.426 128.402 215.271 128.867C215.117 129.323 215.03 129.801 215.012 130.303H221.684ZM241.467 134.309C241.467 134.938 241.348 135.498 241.111 135.99C240.883 136.482 240.555 136.897 240.127 137.234C239.699 137.572 239.188 137.827 238.596 138C238.003 138.173 237.352 138.26 236.641 138.26C236.203 138.26 235.784 138.223 235.383 138.15C234.991 138.087 234.635 138.005 234.316 137.904C234.007 137.795 233.742 137.686 233.523 137.576C233.305 137.458 233.145 137.353 233.045 137.262C232.945 137.171 232.872 137.043 232.826 136.879C232.781 136.715 232.758 136.492 232.758 136.209C232.758 136.036 232.767 135.89 232.785 135.771C232.803 135.653 232.826 135.557 232.854 135.484C232.881 135.411 232.917 135.361 232.963 135.334C233.018 135.298 233.077 135.279 233.141 135.279C233.241 135.279 233.387 135.343 233.578 135.471C233.779 135.589 234.02 135.721 234.303 135.867C234.594 136.013 234.936 136.15 235.328 136.277C235.72 136.396 236.171 136.455 236.682 136.455C237.064 136.455 237.411 136.414 237.721 136.332C238.031 136.25 238.299 136.132 238.527 135.977C238.755 135.812 238.928 135.607 239.047 135.361C239.174 135.115 239.238 134.824 239.238 134.486C239.238 134.14 239.147 133.848 238.965 133.611C238.792 133.374 238.559 133.165 238.268 132.982C237.976 132.8 237.648 132.641 237.283 132.504C236.919 132.358 236.54 132.208 236.148 132.053C235.766 131.898 235.387 131.725 235.014 131.533C234.649 131.333 234.321 131.091 234.029 130.809C233.738 130.526 233.501 130.189 233.318 129.797C233.145 129.405 233.059 128.936 233.059 128.389C233.059 127.906 233.15 127.445 233.332 127.008C233.523 126.561 233.806 126.174 234.18 125.846C234.553 125.508 235.018 125.24 235.574 125.039C236.139 124.839 236.796 124.738 237.543 124.738C237.871 124.738 238.199 124.766 238.527 124.82C238.855 124.875 239.152 124.943 239.416 125.025C239.68 125.107 239.904 125.199 240.086 125.299C240.277 125.39 240.419 125.472 240.51 125.545C240.61 125.618 240.674 125.682 240.701 125.736C240.738 125.791 240.76 125.855 240.77 125.928C240.788 125.992 240.801 126.074 240.811 126.174C240.829 126.274 240.838 126.397 240.838 126.543C240.838 126.698 240.829 126.835 240.811 126.953C240.801 127.062 240.779 127.154 240.742 127.227C240.715 127.299 240.678 127.354 240.633 127.391C240.587 127.418 240.537 127.432 240.482 127.432C240.4 127.432 240.282 127.382 240.127 127.281C239.972 127.181 239.771 127.076 239.525 126.967C239.279 126.848 238.988 126.739 238.65 126.639C238.322 126.538 237.944 126.488 237.516 126.488C237.133 126.488 236.796 126.534 236.504 126.625C236.212 126.707 235.971 126.83 235.779 126.994C235.597 127.149 235.456 127.336 235.355 127.555C235.264 127.773 235.219 128.01 235.219 128.266C235.219 128.621 235.31 128.922 235.492 129.168C235.674 129.405 235.911 129.615 236.203 129.797C236.495 129.979 236.827 130.143 237.201 130.289C237.575 130.435 237.953 130.585 238.336 130.74C238.728 130.895 239.111 131.068 239.484 131.26C239.867 131.451 240.204 131.684 240.496 131.957C240.788 132.23 241.02 132.559 241.193 132.941C241.376 133.324 241.467 133.78 241.467 134.309ZM253.977 137.672C253.977 137.781 253.94 137.863 253.867 137.918C253.794 137.973 253.694 138.014 253.566 138.041C253.439 138.068 253.252 138.082 253.006 138.082C252.769 138.082 252.577 138.068 252.432 138.041C252.295 138.014 252.195 137.973 252.131 137.918C252.067 137.863 252.035 137.781 252.035 137.672V136.441C251.497 137.016 250.896 137.462 250.23 137.781C249.574 138.1 248.877 138.26 248.139 138.26C247.492 138.26 246.904 138.173 246.375 138C245.855 137.836 245.409 137.594 245.035 137.275C244.671 136.956 244.383 136.564 244.174 136.1C243.973 135.635 243.873 135.106 243.873 134.514C243.873 133.821 244.014 133.219 244.297 132.709C244.579 132.199 244.985 131.775 245.514 131.438C246.042 131.1 246.689 130.85 247.455 130.686C248.221 130.512 249.082 130.426 250.039 130.426H251.734V129.469C251.734 128.995 251.684 128.576 251.584 128.211C251.484 127.846 251.32 127.546 251.092 127.309C250.873 127.062 250.586 126.88 250.23 126.762C249.875 126.634 249.438 126.57 248.918 126.57C248.362 126.57 247.861 126.639 247.414 126.775C246.977 126.903 246.589 127.049 246.252 127.213C245.924 127.368 245.646 127.514 245.418 127.65C245.199 127.778 245.035 127.842 244.926 127.842C244.853 127.842 244.789 127.824 244.734 127.787C244.68 127.751 244.63 127.696 244.584 127.623C244.548 127.55 244.52 127.459 244.502 127.35C244.484 127.231 244.475 127.104 244.475 126.967C244.475 126.739 244.488 126.561 244.516 126.434C244.552 126.297 244.63 126.169 244.748 126.051C244.876 125.932 245.09 125.796 245.391 125.641C245.691 125.477 246.038 125.331 246.43 125.203C246.822 125.066 247.25 124.957 247.715 124.875C248.18 124.784 248.649 124.738 249.123 124.738C250.007 124.738 250.759 124.839 251.379 125.039C251.999 125.24 252.5 125.536 252.883 125.928C253.266 126.311 253.544 126.789 253.717 127.363C253.89 127.938 253.977 128.607 253.977 129.373V137.672ZM251.734 132.053H249.807C249.187 132.053 248.649 132.107 248.193 132.217C247.738 132.317 247.359 132.472 247.059 132.682C246.758 132.882 246.535 133.128 246.389 133.42C246.252 133.702 246.184 134.031 246.184 134.404C246.184 135.042 246.384 135.553 246.785 135.936C247.195 136.309 247.765 136.496 248.494 136.496C249.087 136.496 249.633 136.346 250.135 136.045C250.645 135.744 251.178 135.284 251.734 134.664V132.053ZM263.219 138L261.578 142.525C261.523 142.671 261.382 142.781 261.154 142.854C260.936 142.936 260.598 142.977 260.143 142.977C259.906 142.977 259.714 142.963 259.568 142.936C259.423 142.917 259.309 142.881 259.227 142.826C259.154 142.771 259.113 142.699 259.104 142.607C259.094 142.516 259.117 142.407 259.172 142.279L260.867 138C260.785 137.964 260.708 137.904 260.635 137.822C260.562 137.74 260.512 137.654 260.484 137.562L256.096 125.805C256.023 125.613 255.986 125.463 255.986 125.354C255.986 125.244 256.023 125.158 256.096 125.094C256.169 125.03 256.287 124.989 256.451 124.971C256.615 124.943 256.834 124.93 257.107 124.93C257.381 124.93 257.595 124.939 257.75 124.957C257.905 124.966 258.028 124.989 258.119 125.025C258.21 125.062 258.274 125.117 258.311 125.189C258.356 125.253 258.402 125.344 258.447 125.463L261.961 135.334H262.002L265.393 125.408C265.447 125.235 265.511 125.126 265.584 125.08C265.666 125.025 265.785 124.989 265.939 124.971C266.094 124.943 266.318 124.93 266.609 124.93C266.865 124.93 267.074 124.943 267.238 124.971C267.402 124.989 267.521 125.03 267.594 125.094C267.676 125.158 267.717 125.244 267.717 125.354C267.717 125.463 267.689 125.6 267.635 125.764L263.219 138ZM277.752 134.309C277.752 134.938 277.633 135.498 277.396 135.99C277.169 136.482 276.84 136.897 276.412 137.234C275.984 137.572 275.473 137.827 274.881 138C274.288 138.173 273.637 138.26 272.926 138.26C272.488 138.26 272.069 138.223 271.668 138.15C271.276 138.087 270.921 138.005 270.602 137.904C270.292 137.795 270.027 137.686 269.809 137.576C269.59 137.458 269.43 137.353 269.33 137.262C269.23 137.171 269.157 137.043 269.111 136.879C269.066 136.715 269.043 136.492 269.043 136.209C269.043 136.036 269.052 135.89 269.07 135.771C269.089 135.653 269.111 135.557 269.139 135.484C269.166 135.411 269.202 135.361 269.248 135.334C269.303 135.298 269.362 135.279 269.426 135.279C269.526 135.279 269.672 135.343 269.863 135.471C270.064 135.589 270.305 135.721 270.588 135.867C270.88 136.013 271.221 136.15 271.613 136.277C272.005 136.396 272.456 136.455 272.967 136.455C273.35 136.455 273.696 136.414 274.006 136.332C274.316 136.25 274.585 136.132 274.812 135.977C275.04 135.812 275.214 135.607 275.332 135.361C275.46 135.115 275.523 134.824 275.523 134.486C275.523 134.14 275.432 133.848 275.25 133.611C275.077 133.374 274.844 133.165 274.553 132.982C274.261 132.8 273.933 132.641 273.568 132.504C273.204 132.358 272.826 132.208 272.434 132.053C272.051 131.898 271.673 131.725 271.299 131.533C270.934 131.333 270.606 131.091 270.314 130.809C270.023 130.526 269.786 130.189 269.604 129.797C269.43 129.405 269.344 128.936 269.344 128.389C269.344 127.906 269.435 127.445 269.617 127.008C269.809 126.561 270.091 126.174 270.465 125.846C270.839 125.508 271.303 125.24 271.859 125.039C272.424 124.839 273.081 124.738 273.828 124.738C274.156 124.738 274.484 124.766 274.812 124.82C275.141 124.875 275.437 124.943 275.701 125.025C275.965 125.107 276.189 125.199 276.371 125.299C276.562 125.39 276.704 125.472 276.795 125.545C276.895 125.618 276.959 125.682 276.986 125.736C277.023 125.791 277.046 125.855 277.055 125.928C277.073 125.992 277.087 126.074 277.096 126.174C277.114 126.274 277.123 126.397 277.123 126.543C277.123 126.698 277.114 126.835 277.096 126.953C277.087 127.062 277.064 127.154 277.027 127.227C277 127.299 276.964 127.354 276.918 127.391C276.872 127.418 276.822 127.432 276.768 127.432C276.686 127.432 276.567 127.382 276.412 127.281C276.257 127.181 276.057 127.076 275.811 126.967C275.564 126.848 275.273 126.739 274.936 126.639C274.607 126.538 274.229 126.488 273.801 126.488C273.418 126.488 273.081 126.534 272.789 126.625C272.497 126.707 272.256 126.83 272.064 126.994C271.882 127.149 271.741 127.336 271.641 127.555C271.549 127.773 271.504 128.01 271.504 128.266C271.504 128.621 271.595 128.922 271.777 129.168C271.96 129.405 272.197 129.615 272.488 129.797C272.78 129.979 273.113 130.143 273.486 130.289C273.86 130.435 274.238 130.585 274.621 130.74C275.013 130.895 275.396 131.068 275.77 131.26C276.152 131.451 276.49 131.684 276.781 131.957C277.073 132.23 277.305 132.559 277.479 132.941C277.661 133.324 277.752 133.78 277.752 134.309ZM296.605 137.672C296.605 137.781 296.569 137.863 296.496 137.918C296.423 137.973 296.323 138.014 296.195 138.041C296.068 138.068 295.881 138.082 295.635 138.082C295.398 138.082 295.206 138.068 295.061 138.041C294.924 138.014 294.824 137.973 294.76 137.918C294.696 137.863 294.664 137.781 294.664 137.672V136.441C294.126 137.016 293.525 137.462 292.859 137.781C292.203 138.1 291.506 138.26 290.768 138.26C290.12 138.26 289.533 138.173 289.004 138C288.484 137.836 288.038 137.594 287.664 137.275C287.299 136.956 287.012 136.564 286.803 136.1C286.602 135.635 286.502 135.106 286.502 134.514C286.502 133.821 286.643 133.219 286.926 132.709C287.208 132.199 287.614 131.775 288.143 131.438C288.671 131.1 289.318 130.85 290.084 130.686C290.85 130.512 291.711 130.426 292.668 130.426H294.363V129.469C294.363 128.995 294.313 128.576 294.213 128.211C294.113 127.846 293.949 127.546 293.721 127.309C293.502 127.062 293.215 126.88 292.859 126.762C292.504 126.634 292.066 126.57 291.547 126.57C290.991 126.57 290.49 126.639 290.043 126.775C289.605 126.903 289.218 127.049 288.881 127.213C288.553 127.368 288.275 127.514 288.047 127.65C287.828 127.778 287.664 127.842 287.555 127.842C287.482 127.842 287.418 127.824 287.363 127.787C287.309 127.751 287.258 127.696 287.213 127.623C287.176 127.55 287.149 127.459 287.131 127.35C287.113 127.231 287.104 127.104 287.104 126.967C287.104 126.739 287.117 126.561 287.145 126.434C287.181 126.297 287.258 126.169 287.377 126.051C287.505 125.932 287.719 125.796 288.02 125.641C288.32 125.477 288.667 125.331 289.059 125.203C289.451 125.066 289.879 124.957 290.344 124.875C290.809 124.784 291.278 124.738 291.752 124.738C292.636 124.738 293.388 124.839 294.008 125.039C294.628 125.24 295.129 125.536 295.512 125.928C295.895 126.311 296.173 126.789 296.346 127.363C296.519 127.938 296.605 128.607 296.605 129.373V137.672ZM294.363 132.053H292.436C291.816 132.053 291.278 132.107 290.822 132.217C290.367 132.317 289.988 132.472 289.688 132.682C289.387 132.882 289.163 133.128 289.018 133.42C288.881 133.702 288.812 134.031 288.812 134.404C288.812 135.042 289.013 135.553 289.414 135.936C289.824 136.309 290.394 136.496 291.123 136.496C291.715 136.496 292.262 136.346 292.764 136.045C293.274 135.744 293.807 135.284 294.363 134.664V132.053ZM312.082 131.342C312.082 132.408 311.964 133.37 311.727 134.227C311.499 135.074 311.157 135.799 310.701 136.4C310.255 137.002 309.703 137.462 309.047 137.781C308.391 138.1 307.639 138.26 306.791 138.26C306.399 138.26 306.035 138.219 305.697 138.137C305.369 138.064 305.046 137.941 304.727 137.768C304.408 137.594 304.089 137.376 303.77 137.111C303.451 136.847 303.113 136.528 302.758 136.154V137.658C302.758 137.731 302.74 137.795 302.703 137.85C302.667 137.904 302.607 137.95 302.525 137.986C302.443 138.014 302.339 138.036 302.211 138.055C302.092 138.073 301.938 138.082 301.746 138.082C301.564 138.082 301.409 138.073 301.281 138.055C301.154 138.036 301.049 138.014 300.967 137.986C300.885 137.95 300.83 137.904 300.803 137.85C300.775 137.795 300.762 137.731 300.762 137.658V119.393C300.762 119.32 300.775 119.256 300.803 119.201C300.839 119.146 300.898 119.101 300.98 119.064C301.072 119.028 301.19 119.001 301.336 118.982C301.482 118.964 301.664 118.955 301.883 118.955C302.111 118.955 302.298 118.964 302.443 118.982C302.589 119.001 302.703 119.028 302.785 119.064C302.867 119.101 302.926 119.146 302.963 119.201C302.999 119.256 303.018 119.32 303.018 119.393V126.762C303.382 126.388 303.733 126.074 304.07 125.818C304.417 125.563 304.754 125.358 305.082 125.203C305.41 125.039 305.738 124.921 306.066 124.848C306.395 124.775 306.741 124.738 307.105 124.738C307.999 124.738 308.76 124.916 309.389 125.271C310.027 125.627 310.542 126.105 310.934 126.707C311.335 127.299 311.626 127.997 311.809 128.799C311.991 129.601 312.082 130.449 312.082 131.342ZM309.703 131.602C309.703 130.973 309.653 130.362 309.553 129.77C309.462 129.177 309.298 128.653 309.061 128.197C308.824 127.742 308.509 127.377 308.117 127.104C307.725 126.821 307.238 126.68 306.654 126.68C306.363 126.68 306.076 126.721 305.793 126.803C305.51 126.885 305.223 127.021 304.932 127.213C304.64 127.404 304.335 127.65 304.016 127.951C303.706 128.252 303.373 128.63 303.018 129.086V133.994C303.637 134.751 304.23 135.329 304.795 135.73C305.36 136.122 305.948 136.318 306.559 136.318C307.124 136.318 307.607 136.182 308.008 135.908C308.409 135.635 308.732 135.275 308.979 134.828C309.234 134.372 309.416 133.867 309.525 133.311C309.644 132.745 309.703 132.176 309.703 131.602ZM326.916 131.369C326.916 132.372 326.784 133.297 326.52 134.145C326.255 134.983 325.859 135.708 325.33 136.318C324.811 136.929 324.154 137.408 323.361 137.754C322.577 138.091 321.666 138.26 320.627 138.26C319.615 138.26 318.731 138.109 317.975 137.809C317.227 137.508 316.603 137.07 316.102 136.496C315.6 135.922 315.227 135.225 314.98 134.404C314.734 133.584 314.611 132.654 314.611 131.615C314.611 130.613 314.739 129.692 314.994 128.854C315.258 128.006 315.65 127.277 316.17 126.666C316.699 126.055 317.355 125.581 318.139 125.244C318.923 124.907 319.839 124.738 320.887 124.738C321.898 124.738 322.778 124.889 323.525 125.189C324.282 125.49 324.911 125.928 325.412 126.502C325.913 127.076 326.287 127.773 326.533 128.594C326.788 129.414 326.916 130.339 326.916 131.369ZM324.537 131.52C324.537 130.854 324.473 130.225 324.346 129.633C324.227 129.04 324.027 128.521 323.744 128.074C323.462 127.628 323.079 127.277 322.596 127.021C322.113 126.757 321.511 126.625 320.791 126.625C320.126 126.625 319.551 126.743 319.068 126.98C318.594 127.217 318.202 127.555 317.893 127.992C317.583 128.421 317.35 128.931 317.195 129.523C317.049 130.116 316.977 130.763 316.977 131.465C316.977 132.139 317.036 132.773 317.154 133.365C317.282 133.958 317.487 134.477 317.77 134.924C318.061 135.361 318.449 135.712 318.932 135.977C319.415 136.232 320.016 136.359 320.736 136.359C321.393 136.359 321.962 136.241 322.445 136.004C322.928 135.767 323.325 135.434 323.635 135.006C323.945 134.577 324.173 134.067 324.318 133.475C324.464 132.882 324.537 132.23 324.537 131.52ZM340.779 137.658C340.779 137.731 340.761 137.795 340.725 137.85C340.697 137.895 340.643 137.936 340.561 137.973C340.479 138.009 340.369 138.036 340.232 138.055C340.105 138.073 339.945 138.082 339.754 138.082C339.544 138.082 339.371 138.073 339.234 138.055C339.107 138.036 339.002 138.009 338.92 137.973C338.847 137.936 338.797 137.895 338.77 137.85C338.742 137.795 338.729 137.731 338.729 137.658V136.031C338.027 136.806 337.334 137.371 336.65 137.727C335.967 138.082 335.274 138.26 334.572 138.26C333.752 138.26 333.059 138.123 332.494 137.85C331.938 137.576 331.487 137.207 331.141 136.742C330.794 136.268 330.544 135.721 330.389 135.102C330.243 134.473 330.17 133.712 330.17 132.818V125.354C330.17 125.281 330.184 125.221 330.211 125.176C330.247 125.121 330.311 125.076 330.402 125.039C330.493 124.993 330.612 124.966 330.758 124.957C330.904 124.939 331.086 124.93 331.305 124.93C331.523 124.93 331.706 124.939 331.852 124.957C331.997 124.966 332.111 124.993 332.193 125.039C332.285 125.076 332.348 125.121 332.385 125.176C332.421 125.221 332.439 125.281 332.439 125.354V132.518C332.439 133.238 332.49 133.816 332.59 134.254C332.699 134.682 332.859 135.051 333.068 135.361C333.287 135.662 333.561 135.899 333.889 136.072C334.217 136.236 334.6 136.318 335.037 136.318C335.602 136.318 336.163 136.118 336.719 135.717C337.284 135.316 337.881 134.728 338.51 133.953V125.354C338.51 125.281 338.523 125.221 338.551 125.176C338.587 125.121 338.651 125.076 338.742 125.039C338.833 124.993 338.947 124.966 339.084 124.957C339.23 124.939 339.417 124.93 339.645 124.93C339.863 124.93 340.046 124.939 340.191 124.957C340.337 124.966 340.451 124.993 340.533 125.039C340.615 125.076 340.674 125.121 340.711 125.176C340.757 125.221 340.779 125.281 340.779 125.354V137.658ZM351.348 136.756C351.348 137.02 351.329 137.23 351.293 137.385C351.257 137.54 351.202 137.654 351.129 137.727C351.056 137.799 350.947 137.868 350.801 137.932C350.655 137.995 350.486 138.046 350.295 138.082C350.113 138.128 349.917 138.164 349.707 138.191C349.497 138.219 349.288 138.232 349.078 138.232C348.44 138.232 347.893 138.15 347.438 137.986C346.982 137.813 346.608 137.558 346.316 137.221C346.025 136.874 345.811 136.441 345.674 135.922C345.546 135.393 345.482 134.773 345.482 134.062V126.871H343.76C343.623 126.871 343.514 126.798 343.432 126.652C343.35 126.507 343.309 126.27 343.309 125.941C343.309 125.768 343.318 125.622 343.336 125.504C343.363 125.385 343.395 125.29 343.432 125.217C343.468 125.135 343.514 125.08 343.568 125.053C343.632 125.016 343.701 124.998 343.773 124.998H345.482V122.072C345.482 122.008 345.496 121.949 345.523 121.895C345.56 121.84 345.619 121.794 345.701 121.758C345.792 121.712 345.911 121.68 346.057 121.662C346.202 121.644 346.385 121.635 346.604 121.635C346.831 121.635 347.018 121.644 347.164 121.662C347.31 121.68 347.424 121.712 347.506 121.758C347.588 121.794 347.647 121.84 347.684 121.895C347.72 121.949 347.738 122.008 347.738 122.072V124.998H350.896C350.969 124.998 351.033 125.016 351.088 125.053C351.143 125.08 351.188 125.135 351.225 125.217C351.27 125.29 351.302 125.385 351.32 125.504C351.339 125.622 351.348 125.768 351.348 125.941C351.348 126.27 351.307 126.507 351.225 126.652C351.143 126.798 351.033 126.871 350.896 126.871H347.738V133.734C347.738 134.582 347.861 135.225 348.107 135.662C348.363 136.09 348.814 136.305 349.461 136.305C349.671 136.305 349.857 136.286 350.021 136.25C350.186 136.204 350.331 136.159 350.459 136.113C350.587 136.068 350.696 136.027 350.787 135.99C350.878 135.945 350.96 135.922 351.033 135.922C351.079 135.922 351.12 135.936 351.156 135.963C351.202 135.981 351.234 136.022 351.252 136.086C351.279 136.15 351.302 136.236 351.32 136.346C351.339 136.455 351.348 136.592 351.348 136.756ZM366.277 138L364.637 142.525C364.582 142.671 364.441 142.781 364.213 142.854C363.994 142.936 363.657 142.977 363.201 142.977C362.964 142.977 362.773 142.963 362.627 142.936C362.481 142.917 362.367 142.881 362.285 142.826C362.212 142.771 362.171 142.699 362.162 142.607C362.153 142.516 362.176 142.407 362.23 142.279L363.926 138C363.844 137.964 363.766 137.904 363.693 137.822C363.62 137.74 363.57 137.654 363.543 137.562L359.154 125.805C359.081 125.613 359.045 125.463 359.045 125.354C359.045 125.244 359.081 125.158 359.154 125.094C359.227 125.03 359.346 124.989 359.51 124.971C359.674 124.943 359.893 124.93 360.166 124.93C360.439 124.93 360.654 124.939 360.809 124.957C360.964 124.966 361.087 124.989 361.178 125.025C361.269 125.062 361.333 125.117 361.369 125.189C361.415 125.253 361.46 125.344 361.506 125.463L365.02 135.334H365.061L368.451 125.408C368.506 125.235 368.57 125.126 368.643 125.08C368.725 125.025 368.843 124.989 368.998 124.971C369.153 124.943 369.376 124.93 369.668 124.93C369.923 124.93 370.133 124.943 370.297 124.971C370.461 124.989 370.579 125.03 370.652 125.094C370.734 125.158 370.775 125.244 370.775 125.354C370.775 125.463 370.748 125.6 370.693 125.764L366.277 138ZM384.475 131.369C384.475 132.372 384.342 133.297 384.078 134.145C383.814 134.983 383.417 135.708 382.889 136.318C382.369 136.929 381.713 137.408 380.92 137.754C380.136 138.091 379.225 138.26 378.186 138.26C377.174 138.26 376.29 138.109 375.533 137.809C374.786 137.508 374.161 137.07 373.66 136.496C373.159 135.922 372.785 135.225 372.539 134.404C372.293 133.584 372.17 132.654 372.17 131.615C372.17 130.613 372.298 129.692 372.553 128.854C372.817 128.006 373.209 127.277 373.729 126.666C374.257 126.055 374.913 125.581 375.697 125.244C376.481 124.907 377.397 124.738 378.445 124.738C379.457 124.738 380.337 124.889 381.084 125.189C381.84 125.49 382.469 125.928 382.971 126.502C383.472 127.076 383.846 127.773 384.092 128.594C384.347 129.414 384.475 130.339 384.475 131.369ZM382.096 131.52C382.096 130.854 382.032 130.225 381.904 129.633C381.786 129.04 381.585 128.521 381.303 128.074C381.02 127.628 380.637 127.277 380.154 127.021C379.671 126.757 379.07 126.625 378.35 126.625C377.684 126.625 377.11 126.743 376.627 126.98C376.153 127.217 375.761 127.555 375.451 127.992C375.141 128.421 374.909 128.931 374.754 129.523C374.608 130.116 374.535 130.763 374.535 131.465C374.535 132.139 374.594 132.773 374.713 133.365C374.84 133.958 375.046 134.477 375.328 134.924C375.62 135.361 376.007 135.712 376.49 135.977C376.973 136.232 377.575 136.359 378.295 136.359C378.951 136.359 379.521 136.241 380.004 136.004C380.487 135.767 380.883 135.434 381.193 135.006C381.503 134.577 381.731 134.067 381.877 133.475C382.023 132.882 382.096 132.23 382.096 131.52ZM398.338 137.658C398.338 137.731 398.32 137.795 398.283 137.85C398.256 137.895 398.201 137.936 398.119 137.973C398.037 138.009 397.928 138.036 397.791 138.055C397.663 138.073 397.504 138.082 397.312 138.082C397.103 138.082 396.93 138.073 396.793 138.055C396.665 138.036 396.561 138.009 396.479 137.973C396.406 137.936 396.355 137.895 396.328 137.85C396.301 137.795 396.287 137.731 396.287 137.658V136.031C395.585 136.806 394.893 137.371 394.209 137.727C393.525 138.082 392.833 138.26 392.131 138.26C391.311 138.26 390.618 138.123 390.053 137.85C389.497 137.576 389.046 137.207 388.699 136.742C388.353 136.268 388.102 135.721 387.947 135.102C387.801 134.473 387.729 133.712 387.729 132.818V125.354C387.729 125.281 387.742 125.221 387.77 125.176C387.806 125.121 387.87 125.076 387.961 125.039C388.052 124.993 388.171 124.966 388.316 124.957C388.462 124.939 388.645 124.93 388.863 124.93C389.082 124.93 389.264 124.939 389.41 124.957C389.556 124.966 389.67 124.993 389.752 125.039C389.843 125.076 389.907 125.121 389.943 125.176C389.98 125.221 389.998 125.281 389.998 125.354V132.518C389.998 133.238 390.048 133.816 390.148 134.254C390.258 134.682 390.417 135.051 390.627 135.361C390.846 135.662 391.119 135.899 391.447 136.072C391.775 136.236 392.158 136.318 392.596 136.318C393.161 136.318 393.721 136.118 394.277 135.717C394.842 135.316 395.439 134.728 396.068 133.953V125.354C396.068 125.281 396.082 125.221 396.109 125.176C396.146 125.121 396.21 125.076 396.301 125.039C396.392 124.993 396.506 124.966 396.643 124.957C396.788 124.939 396.975 124.93 397.203 124.93C397.422 124.93 397.604 124.939 397.75 124.957C397.896 124.966 398.01 124.993 398.092 125.039C398.174 125.076 398.233 125.121 398.27 125.176C398.315 125.221 398.338 125.281 398.338 125.354V137.658Z" fill="white"/>
<path d="M274.443 109.92H327.463V111.752H274.443V109.92Z" fill="white"/>
<path d="M327.463 109.92H464.428V111.752H327.463V109.92Z" fill="white"/>
</g>
<rect y="408" width="576" height="168" rx="33" fill="url(#paint10_linear_424_2404)"/>
<defs>
<filter id="filter0_dii_424_2404" x="1.8374" y="250.35" width="235.325" height="251" filterUnits="userSpaceOnUse" color-interpolation-filters="sRGB">
<feFlood flood-opacity="0" result="BackgroundImageFix"/>
<feColorMatrix in="SourceAlpha" type="matrix" values="0 0 0 0 0 0 0 0 0 0 0 0 0 0 0 0 0 0 127 0" result="hardAlpha"/>
<feOffset dy="3.35"/>
<feGaussianBlur stdDeviation="33.5"/>
<feColorMatrix type="matrix" values="0 0 0 0 0.135917 0 0 0 0 0 0 0 0 0 0.970833 0 0 0 1 0"/>
<feBlend mode="normal" in2="BackgroundImageFix" result="effect1_dropShadow_424_2404"/>
<feBlend mode="normal" in="SourceGraphic" in2="effect1_dropShadow_424_2404" result="shape"/>
<feColorMatrix in="SourceAlpha" type="matrix" values="0 0 0 0 0 0 0 0 0 0 0 0 0 0 0 0 0 0 127 0" result="hardAlpha"/>
<feOffset dx="8.375" dy="13.4"/>
<feGaussianBlur stdDeviation="8.375"/>
<feComposite in2="hardAlpha" operator="arithmetic" k2="-1" k3="1"/>
<feColorMatrix type="matrix" values="0 0 0 0 0.510417 0 0 0 0 0.0208333 0 0 0 0 1 0 0 0 0.95 0"/>
<feBlend mode="normal" in2="shape" result="effect2_innerShadow_424_2404"/>
<feColorMatrix in="SourceAlpha" type="matrix" values="0 0 0 0 0 0 0 0 0 0 0 0 0 0 0 0 0 0 127 0" result="hardAlpha"/>
<feOffset dy="1.675"/>
<feGaussianBlur stdDeviation="4.1875"/>
<feComposite in2="hardAlpha" operator="arithmetic" k2="-1" k3="1"/>
<feColorMatrix type="matrix" values="0 0 0 0 1 0 0 0 0 1 0 0 0 0 1 0 0 0 0.58 0"/>
<feBlend mode="normal" in2="effect2_innerShadow_424_2404" result="effect3_innerShadow_424_2404"/>
</filter>
<filter id="filter1_dii_424_2404" x="339.837" y="250.35" width="235.325" height="251" filterUnits="userSpaceOnUse" color-interpolation-filters="sRGB">
<feFlood flood-opacity="0" result="BackgroundImageFix"/>
<feColorMatrix in="SourceAlpha" type="matrix" values="0 0 0 0 0 0 0 0 0 0 0 0 0 0 0 0 0 0 127 0" result="hardAlpha"/>
<feOffset dy="3.35"/>
<feGaussianBlur stdDeviation="33.5"/>
<feColorMatrix type="matrix" values="0 0 0 0 0.135917 0 0 0 0 0 0 0 0 0 0.970833 0 0 0 1 0"/>
<feBlend mode="normal" in2="BackgroundImageFix" result="effect1_dropShadow_424_2404"/>
<feBlend mode="normal" in="SourceGraphic" in2="effect1_dropShadow_424_2404" result="shape"/>
<feColorMatrix in="SourceAlpha" type="matrix" values="0 0 0 0 0 0 0 0 0 0 0 0 0 0 0 0 0 0 127 0" result="hardAlpha"/>
<feOffset dx="8.375" dy="13.4"/>
<feGaussianBlur stdDeviation="8.375"/>
<feComposite in2="hardAlpha" operator="arithmetic" k2="-1" k3="1"/>
<feColorMatrix type="matrix" values="0 0 0 0 0.510417 0 0 0 0 0.0208333 0 0 0 0 1 0 0 0 0.95 0"/>
<feBlend mode="normal" in2="shape" result="effect2_innerShadow_424_2404"/>
<feColorMatrix in="SourceAlpha" type="matrix" values="0 0 0 0 0 0 0 0 0 0 0 0 0 0 0 0 0 0 127 0" result="hardAlpha"/>
<feOffset dy="1.675"/>
<feGaussianBlur stdDeviation="4.1875"/>
<feComposite in2="hardAlpha" operator="arithmetic" k2="-1" k3="1"/>
<feColorMatrix type="matrix" values="0 0 0 0 1 0 0 0 0 1 0 0 0 0 1 0 0 0 0.58 0"/>
<feBlend mode="normal" in2="effect2_innerShadow_424_2404" result="effect3_innerShadow_424_2404"/>
</filter>
<filter id="filter2_dii_424_2404" x="73.3113" y="239.35" width="254.377" height="273" filterUnits="userSpaceOnUse" color-interpolation-filters="sRGB">
<feFlood flood-opacity="0" result="BackgroundImageFix"/>
<feColorMatrix in="SourceAlpha" type="matrix" values="0 0 0 0 0 0 0 0 0 0 0 0 0 0 0 0 0 0 127 0" result="hardAlpha"/>
<feOffset dy="3.35"/>
<feGaussianBlur stdDeviation="33.5"/>
<feColorMatrix type="matrix" values="0 0 0 0 0.970833 0 0 0 0 0 0 0 0 0 0.466 0 0 0 0.48 0"/>
<feBlend mode="normal" in2="BackgroundImageFix" result="effect1_dropShadow_424_2404"/>
<feBlend mode="normal" in="SourceGraphic" in2="effect1_dropShadow_424_2404" result="shape"/>
<feColorMatrix in="SourceAlpha" type="matrix" values="0 0 0 0 0 0 0 0 0 0 0 0 0 0 0 0 0 0 127 0" result="hardAlpha"/>
<feOffset dx="8.375" dy="16.75"/>
<feGaussianBlur stdDeviation="20.9375"/>
<feComposite in2="hardAlpha" operator="arithmetic" k2="-1" k3="1"/>
<feColorMatrix type="matrix" values="0 0 0 0 0.776471 0 0 0 0 0.129412 0 0 0 0 0.498039 0 0 0 1 0"/>
<feBlend mode="normal" in2="shape" result="effect2_innerShadow_424_2404"/>
<feColorMatrix in="SourceAlpha" type="matrix" values="0 0 0 0 0 0 0 0 0 0 0 0 0 0 0 0 0 0 127 0" result="hardAlpha"/>
<feOffset dy="1.675"/>
<feGaussianBlur stdDeviation="4.1875"/>
<feComposite in2="hardAlpha" operator="arithmetic" k2="-1" k3="1"/>
<feColorMatrix type="matrix" values="0 0 0 0 1 0 0 0 0 1 0 0 0 0 1 0 0 0 0.58 0"/>
<feBlend mode="normal" in2="effect2_innerShadow_424_2404" result="effect3_innerShadow_424_2404"/>
</filter>
<filter id="filter3_dii_424_2404" x="249.311" y="239.35" width="254.377" height="273" filterUnits="userSpaceOnUse" color-interpolation-filters="sRGB">
<feFlood flood-opacity="0" result="BackgroundImageFix"/>
<feColorMatrix in="SourceAlpha" type="matrix" values="0 0 0 0 0 0 0 0 0 0 0 0 0 0 0 0 0 0 127 0" result="hardAlpha"/>
<feOffset dy="3.35"/>
<feGaussianBlur stdDeviation="33.5"/>
<feColorMatrix type="matrix" values="0 0 0 0 0.970833 0 0 0 0 0 0 0 0 0 0.466 0 0 0 0.48 0"/>
<feBlend mode="normal" in2="BackgroundImageFix" result="effect1_dropShadow_424_2404"/>
<feBlend mode="normal" in="SourceGraphic" in2="effect1_dropShadow_424_2404" result="shape"/>
<feColorMatrix in="SourceAlpha" type="matrix" values="0 0 0 0 0 0 0 0 0 0 0 0 0 0 0 0 0 0 127 0" result="hardAlpha"/>
<feOffset dx="8.375" dy="16.75"/>
<feGaussianBlur stdDeviation="20.9375"/>
<feComposite in2="hardAlpha" operator="arithmetic" k2="-1" k3="1"/>
<feColorMatrix type="matrix" values="0 0 0 0 0.776471 0 0 0 0 0.129412 0 0 0 0 0.498039 0 0 0 1 0"/>
<feBlend mode="normal" in2="shape" result="effect2_innerShadow_424_2404"/>
<feColorMatrix in="SourceAlpha" type="matrix" values="0 0 0 0 0 0 0 0 0 0 0 0 0 0 0 0 0 0 127 0" result="hardAlpha"/>
<feOffset dy="1.675"/>
<feGaussianBlur stdDeviation="4.1875"/>
<feComposite in2="hardAlpha" operator="arithmetic" k2="-1" k3="1"/>
<feColorMatrix type="matrix" values="0 0 0 0 1 0 0 0 0 1 0 0 0 0 1 0 0 0 0.58 0"/>
<feBlend mode="normal" in2="effect2_innerShadow_424_2404" result="effect3_innerShadow_424_2404"/>
</filter>
<filter id="filter4_dddii_424_2404" x="147.455" y="223.35" width="332.34" height="402.15" filterUnits="userSpaceOnUse" color-interpolation-filters="sRGB">
<feFlood flood-opacity="0" result="BackgroundImageFix"/>
<feColorMatrix in="SourceAlpha" type="matrix" values="0 0 0 0 0 0 0 0 0 0 0 0 0 0 0 0 0 0 127 0" result="hardAlpha"/>
<feOffset dy="3.35"/>
<feGaussianBlur stdDeviation="33.5"/>
<feColorMatrix type="matrix" values="0 0 0 0 0.970833 0 0 0 0 0 0 0 0 0 0.466 0 0 0 0.48 0"/>
<feBlend mode="normal" in2="BackgroundImageFix" result="effect1_dropShadow_424_2404"/>
<feColorMatrix in="SourceAlpha" type="matrix" values="0 0 0 0 0 0 0 0 0 0 0 0 0 0 0 0 0 0 127 0" result="hardAlpha"/>
<feOffset dx="50.25" dy="100.5"/>
<feGaussianBlur stdDeviation="33.5"/>
<feColorMatrix type="matrix" values="0 0 0 0 0.02 0 0 0 0 0 0 0 0 0 1 0 0 0 0.2 0"/>
<feBlend mode="normal" in2="effect1_dropShadow_424_2404" result="effect2_dropShadow_424_2404"/>
<feColorMatrix in="SourceAlpha" type="matrix" values="0 0 0 0 0 0 0 0 0 0 0 0 0 0 0 0 0 0 127 0" result="hardAlpha"/>
<feOffset/>
<feGaussianBlur stdDeviation="8.375"/>
<feColorMatrix type="matrix" values="0 0 0 0 1 0 0 0 0 0.575 0 0 0 0 0.575 0 0 0 0.13 0"/>
<feBlend mode="normal" in2="effect2_dropShadow_424_2404" result="effect3_dropShadow_424_2404"/>
<feBlend mode="normal" in="SourceGraphic" in2="effect3_dropShadow_424_2404" result="shape"/>
<feColorMatrix in="SourceAlpha" type="matrix" values="0 0 0 0 0 0 0 0 0 0 0 0 0 0 0 0 0 0 127 0" result="hardAlpha"/>
<feOffset dx="40" dy="40"/>
<feGaussianBlur stdDeviation="41.875"/>
<feComposite in2="hardAlpha" operator="arithmetic" k2="-1" k3="1"/>
<feColorMatrix type="matrix" values="0 0 0 0 0.776471 0 0 0 0 0.129412 0 0 0 0 0.498039 0 0 0 1 0"/>
<feBlend mode="normal" in2="shape" result="effect4_innerShadow_424_2404"/>
<feColorMatrix in="SourceAlpha" type="matrix" values="0 0 0 0 0 0 0 0 0 0 0 0 0 0 0 0 0 0 127 0" result="hardAlpha"/>
<feOffset dy="1.675"/>
<feGaussianBlur stdDeviation="4.1875"/>
<feComposite in2="hardAlpha" operator="arithmetic" k2="-1" k3="1"/>
<feColorMatrix type="matrix" values="0 0 0 0 1 0 0 0 0 1 0 0 0 0 1 0 0 0 0.58 0"/>
<feBlend mode="normal" in2="effect4_innerShadow_424_2404" result="effect5_innerShadow_424_2404"/>
</filter>
<filter id="filter5_dii_424_2404" x="287.433" y="217.526" width="175.624" height="175.624" filterUnits="userSpaceOnUse" color-interpolation-filters="sRGB">
<feFlood flood-opacity="0" result="BackgroundImageFix"/>
<feColorMatrix in="SourceAlpha" type="matrix" values="0 0 0 0 0 0 0 0 0 0 0 0 0 0 0 0 0 0 127 0" result="hardAlpha"/>
<feOffset dy="3.35"/>
<feGaussianBlur stdDeviation="33.5"/>
<feColorMatrix type="matrix" values="0 0 0 0 0.970833 0 0 0 0 0 0 0 0 0 0.466 0 0 0 0.48 0"/>
<feBlend mode="normal" in2="BackgroundImageFix" result="effect1_dropShadow_424_2404"/>
<feBlend mode="normal" in="SourceGraphic" in2="effect1_dropShadow_424_2404" result="shape"/>
<feColorMatrix in="SourceAlpha" type="matrix" values="0 0 0 0 0 0 0 0 0 0 0 0 0 0 0 0 0 0 127 0" result="hardAlpha"/>
<feOffset dx="8.375" dy="16.75"/>
<feGaussianBlur stdDeviation="12.5625"/>
<feComposite in2="hardAlpha" operator="arithmetic" k2="-1" k3="1"/>
<feColorMatrix type="matrix" values="0 0 0 0 0.776471 0 0 0 0 0.129412 0 0 0 0 0.498039 0 0 0 1 0"/>
<feBlend mode="normal" in2="shape" result="effect2_innerShadow_424_2404"/>
<feColorMatrix in="SourceAlpha" type="matrix" values="0 0 0 0 0 0 0 0 0 0 0 0 0 0 0 0 0 0 127 0" result="hardAlpha"/>
<feOffset dy="1.675"/>
<feGaussianBlur stdDeviation="4.1875"/>
<feComposite in2="hardAlpha" operator="arithmetic" k2="-1" k3="1"/>
<feColorMatrix type="matrix" values="0 0 0 0 1 0 0 0 0 1 0 0 0 0 1 0 0 0 0.58 0"/>
<feBlend mode="normal" in2="effect2_innerShadow_424_2404" result="effect3_innerShadow_424_2404"/>
</filter>
<filter id="filter6_dii_424_2404" x="128.202" y="170.616" width="191.481" height="191.481" filterUnits="userSpaceOnUse" color-interpolation-filters="sRGB">
<feFlood flood-opacity="0" result="BackgroundImageFix"/>
<feColorMatrix in="SourceAlpha" type="matrix" values="0 0 0 0 0 0 0 0 0 0 0 0 0 0 0 0 0 0 127 0" result="hardAlpha"/>
<feOffset dy="3.35"/>
<feGaussianBlur stdDeviation="33.5"/>
<feColorMatrix type="matrix" values="0 0 0 0 0.970833 0 0 0 0 0 0 0 0 0 0.466 0 0 0 0.48 0"/>
<feBlend mode="normal" in2="BackgroundImageFix" result="effect1_dropShadow_424_2404"/>
<feBlend mode="normal" in="SourceGraphic" in2="effect1_dropShadow_424_2404" result="shape"/>
<feColorMatrix in="SourceAlpha" type="matrix" values="0 0 0 0 0 0 0 0 0 0 0 0 0 0 0 0 0 0 127 0" result="hardAlpha"/>
<feOffset dx="8.375" dy="16.75"/>
<feGaussianBlur stdDeviation="20.9375"/>
<feComposite in2="hardAlpha" operator="arithmetic" k2="-1" k3="1"/>
<feColorMatrix type="matrix" values="0 0 0 0 0.776471 0 0 0 0 0.129412 0 0 0 0 0.498039 0 0 0 1 0"/>
<feBlend mode="normal" in2="shape" result="effect2_innerShadow_424_2404"/>
<feColorMatrix in="SourceAlpha" type="matrix" values="0 0 0 0 0 0 0 0 0 0 0 0 0 0 0 0 0 0 127 0" result="hardAlpha"/>
<feOffset dy="1.675"/>
<feGaussianBlur stdDeviation="4.1875"/>
<feComposite in2="hardAlpha" operator="arithmetic" k2="-1" k3="1"/>
<feColorMatrix type="matrix" values="0 0 0 0 1 0 0 0 0 1 0 0 0 0 1 0 0 0 0.58 0"/>
<feBlend mode="normal" in2="effect2_innerShadow_424_2404" result="effect3_innerShadow_424_2404"/>
</filter>
<filter id="filter7_dii_424_2404" x="-75.6519" y="234.044" width="173.642" height="173.642" filterUnits="userSpaceOnUse" color-interpolation-filters="sRGB">
<feFlood flood-opacity="0" result="BackgroundImageFix"/>
<feColorMatrix in="SourceAlpha" type="matrix" values="0 0 0 0 0 0 0 0 0 0 0 0 0 0 0 0 0 0 127 0" result="hardAlpha"/>
<feOffset dy="3.35"/>
<feGaussianBlur stdDeviation="33.5"/>
<feColorMatrix type="matrix" values="0 0 0 0 0.135917 0 0 0 0 0 0 0 0 0 0.970833 0 0 0 1 0"/>
<feBlend mode="normal" in2="BackgroundImageFix" result="effect1_dropShadow_424_2404"/>
<feBlend mode="normal" in="SourceGraphic" in2="effect1_dropShadow_424_2404" result="shape"/>
<feColorMatrix in="SourceAlpha" type="matrix" values="0 0 0 0 0 0 0 0 0 0 0 0 0 0 0 0 0 0 127 0" result="hardAlpha"/>
<feOffset dx="8.375" dy="13.4"/>
<feGaussianBlur stdDeviation="8.375"/>
<feComposite in2="hardAlpha" operator="arithmetic" k2="-1" k3="1"/>
<feColorMatrix type="matrix" values="0 0 0 0 0.510417 0 0 0 0 0.0208333 0 0 0 0 1 0 0 0 0.95 0"/>
<feBlend mode="normal" in2="shape" result="effect2_innerShadow_424_2404"/>
<feColorMatrix in="SourceAlpha" type="matrix" values="0 0 0 0 0 0 0 0 0 0 0 0 0 0 0 0 0 0 127 0" result="hardAlpha"/>
<feOffset dy="1.675"/>
<feGaussianBlur stdDeviation="4.1875"/>
<feComposite in2="hardAlpha" operator="arithmetic" k2="-1" k3="1"/>
<feColorMatrix type="matrix" values="0 0 0 0 1 0 0 0 0 1 0 0 0 0 1 0 0 0 0.58 0"/>
<feBlend mode="normal" in2="effect2_innerShadow_424_2404" result="effect3_innerShadow_424_2404"/>
</filter>
<filter id="filter8_dii_424_2404" x="450.626" y="138.902" width="203.374" height="203.374" filterUnits="userSpaceOnUse" color-interpolation-filters="sRGB">
<feFlood flood-opacity="0" result="BackgroundImageFix"/>
<feColorMatrix in="SourceAlpha" type="matrix" values="0 0 0 0 0 0 0 0 0 0 0 0 0 0 0 0 0 0 127 0" result="hardAlpha"/>
<feOffset dy="3.35"/>
<feGaussianBlur stdDeviation="33.5"/>
<feColorMatrix type="matrix" values="0 0 0 0 0.135917 0 0 0 0 0 0 0 0 0 0.970833 0 0 0 1 0"/>
<feBlend mode="normal" in2="BackgroundImageFix" result="effect1_dropShadow_424_2404"/>
<feBlend mode="normal" in="SourceGraphic" in2="effect1_dropShadow_424_2404" result="shape"/>
<feColorMatrix in="SourceAlpha" type="matrix" values="0 0 0 0 0 0 0 0 0 0 0 0 0 0 0 0 0 0 127 0" result="hardAlpha"/>
<feOffset dx="8.375" dy="13.4"/>
<feGaussianBlur stdDeviation="8.375"/>
<feComposite in2="hardAlpha" operator="arithmetic" k2="-1" k3="1"/>
<feColorMatrix type="matrix" values="0 0 0 0 0.510417 0 0 0 0 0.0208333 0 0 0 0 1 0 0 0 0.95 0"/>
<feBlend mode="normal" in2="shape" result="effect2_innerShadow_424_2404"/>
<feColorMatrix in="SourceAlpha" type="matrix" values="0 0 0 0 0 0 0 0 0 0 0 0 0 0 0 0 0 0 127 0" result="hardAlpha"/>
<feOffset dy="1.675"/>
<feGaussianBlur stdDeviation="4.1875"/>
<feComposite in2="hardAlpha" operator="arithmetic" k2="-1" k3="1"/>
<feColorMatrix type="matrix" values="0 0 0 0 1 0 0 0 0 1 0 0 0 0 1 0 0 0 0.58 0"/>
<feBlend mode="normal" in2="effect2_innerShadow_424_2404" result="effect3_innerShadow_424_2404"/>
</filter>
<linearGradient id="paint0_linear_424_2404" x1="274.5" y1="4.08618e-07" x2="288" y2="576" gradientUnits="userSpaceOnUse">
<stop stop-color="#022C60"/>
<stop offset="1" stop-color="#022C60"/>
</linearGradient>
<radialGradient id="paint1_radial_424_2404" cx="0" cy="0" r="1" gradientUnits="userSpaceOnUse" gradientTransform="translate(143.368 350.504) rotate(110.973) scale(120.29)">
<stop stop-color="#3244E8"/>
<stop offset="1" stop-color="#000210" stop-opacity="0"/>
</radialGradient>
<radialGradient id="paint2_radial_424_2404" cx="0" cy="0" r="1" gradientUnits="userSpaceOnUse" gradientTransform="translate(481.368 350.504) rotate(110.973) scale(120.29)">
<stop stop-color="#3244E8"/>
<stop offset="1" stop-color="#000210" stop-opacity="0"/>
</radialGradient>
<radialGradient id="paint3_radial_424_2404" cx="0" cy="0" r="1" gradientUnits="userSpaceOnUse" gradientTransform="translate(228.856 346.368) rotate(110.973) scale(142.908)">
<stop stop-color="#3244E8"/>
<stop offset="1" stop-color="#000210" stop-opacity="0"/>
</radialGradient>
<radialGradient id="paint4_radial_424_2404" cx="0" cy="0" r="1" gradientUnits="userSpaceOnUse" gradientTransform="translate(404.856 346.368) rotate(110.973) scale(142.908)">
<stop stop-color="#3244E8"/>
<stop offset="1" stop-color="#000210" stop-opacity="0"/>
</radialGradient>
<radialGradient id="paint5_radial_424_2404" cx="0" cy="0" r="1" gradientUnits="userSpaceOnUse" gradientTransform="translate(323.384 340.352) rotate(110.973) scale(175.808)">
<stop stop-color="#3244E8"/>
<stop offset="1" stop-color="#000210" stop-opacity="0"/>
</radialGradient>
<radialGradient id="paint6_radial_424_2404" cx="0" cy="0" r="1" gradientUnits="userSpaceOnUse" gradientTransform="translate(383.736 294.163) rotate(110.973) scale(42.7947)">
<stop stop-color="#3244E8"/>
<stop offset="1" stop-color="#000210" stop-opacity="0"/>
</radialGradient>
<radialGradient id="paint7_radial_424_2404" cx="0" cy="0" r="1" gradientUnits="userSpaceOnUse" gradientTransform="translate(235.669 252.2) rotate(110.973) scale(59.0975)">
<stop stop-color="#3244E8"/>
<stop offset="1" stop-color="#000210" stop-opacity="0"/>
</radialGradient>
<radialGradient id="paint8_radial_424_2404" cx="0" cy="0" r="1" gradientUnits="userSpaceOnUse" gradientTransform="translate(19.2563 310.062) rotate(110.973) scale(40.7569)">
<stop stop-color="#3244E8"/>
<stop offset="1" stop-color="#000210" stop-opacity="0"/>
</radialGradient>
<radialGradient id="paint9_radial_424_2404" cx="0" cy="0" r="1" gradientUnits="userSpaceOnUse" gradientTransform="translate(566.465 224.197) rotate(110.973) scale(71.3245)">
<stop stop-color="#3244E8"/>
<stop offset="1" stop-color="#000210" stop-opacity="0"/>
</radialGradient>
<linearGradient id="paint10_linear_424_2404" x1="288" y1="408" x2="280.527" y2="575.667" gradientUnits="userSpaceOnUse">
<stop stop-color="#1D1377" stop-opacity="0"/>
<stop offset="1" stop-color="#1D1377"/>
</linearGradient>
</defs>
</svg>
